%TF.GenerationSoftware,KiCad,Pcbnew,8.0.5*%
%TF.CreationDate,2024-10-02T01:05:19-07:00*%
%TF.ProjectId,badgesao,62616467-6573-4616-9f2e-6b696361645f,rev?*%
%TF.SameCoordinates,Original*%
%TF.FileFunction,Legend,Top*%
%TF.FilePolarity,Positive*%
%FSLAX46Y46*%
G04 Gerber Fmt 4.6, Leading zero omitted, Abs format (unit mm)*
G04 Created by KiCad (PCBNEW 8.0.5) date 2024-10-02 01:05:19*
%MOMM*%
%LPD*%
G01*
G04 APERTURE LIST*
G04 Aperture macros list*
%AMRoundRect*
0 Rectangle with rounded corners*
0 $1 Rounding radius*
0 $2 $3 $4 $5 $6 $7 $8 $9 X,Y pos of 4 corners*
0 Add a 4 corners polygon primitive as box body*
4,1,4,$2,$3,$4,$5,$6,$7,$8,$9,$2,$3,0*
0 Add four circle primitives for the rounded corners*
1,1,$1+$1,$2,$3*
1,1,$1+$1,$4,$5*
1,1,$1+$1,$6,$7*
1,1,$1+$1,$8,$9*
0 Add four rect primitives between the rounded corners*
20,1,$1+$1,$2,$3,$4,$5,0*
20,1,$1+$1,$4,$5,$6,$7,0*
20,1,$1+$1,$6,$7,$8,$9,0*
20,1,$1+$1,$8,$9,$2,$3,0*%
%AMHorizOval*
0 Thick line with rounded ends*
0 $1 width*
0 $2 $3 position (X,Y) of the first rounded end (center of the circle)*
0 $4 $5 position (X,Y) of the second rounded end (center of the circle)*
0 Add line between two ends*
20,1,$1,$2,$3,$4,$5,0*
0 Add two circle primitives to create the rounded ends*
1,1,$1,$2,$3*
1,1,$1,$4,$5*%
G04 Aperture macros list end*
%ADD10C,0.200000*%
%ADD11C,0.203200*%
%ADD12C,0.150000*%
%ADD13C,0.228600*%
%ADD14C,0.304800*%
%ADD15C,0.100000*%
%ADD16C,0.120000*%
%ADD17RoundRect,0.065000X-0.260000X-0.285000X0.260000X-0.285000X0.260000X0.285000X-0.260000X0.285000X0*%
%ADD18RoundRect,0.140000X-0.140000X-0.170000X0.140000X-0.170000X0.140000X0.170000X-0.140000X0.170000X0*%
%ADD19RoundRect,0.062500X0.387500X0.062500X-0.387500X0.062500X-0.387500X-0.062500X0.387500X-0.062500X0*%
%ADD20R,0.200000X1.600000*%
%ADD21R,0.900000X0.650000*%
%ADD22R,0.650000X0.900000*%
%ADD23RoundRect,0.135000X0.185000X-0.135000X0.185000X0.135000X-0.185000X0.135000X-0.185000X-0.135000X0*%
%ADD24RoundRect,0.140000X0.140000X0.170000X-0.140000X0.170000X-0.140000X-0.170000X0.140000X-0.170000X0*%
%ADD25RoundRect,0.140000X-0.170000X0.140000X-0.170000X-0.140000X0.170000X-0.140000X0.170000X0.140000X0*%
%ADD26RoundRect,0.250000X-0.300000X0.300000X-0.300000X-0.300000X0.300000X-0.300000X0.300000X0.300000X0*%
%ADD27RoundRect,0.135000X-0.185000X0.135000X-0.185000X-0.135000X0.185000X-0.135000X0.185000X0.135000X0*%
%ADD28RoundRect,0.250000X-0.375000X-0.850000X0.375000X-0.850000X0.375000X0.850000X-0.375000X0.850000X0*%
%ADD29RoundRect,0.135000X0.135000X0.185000X-0.135000X0.185000X-0.135000X-0.185000X0.135000X-0.185000X0*%
%ADD30RoundRect,0.135000X-0.135000X-0.185000X0.135000X-0.185000X0.135000X0.185000X-0.135000X0.185000X0*%
%ADD31RoundRect,0.150000X-0.150000X-0.200000X0.150000X-0.200000X0.150000X0.200000X-0.150000X0.200000X0*%
%ADD32C,0.650000*%
%ADD33RoundRect,0.150000X-0.150000X-0.425000X0.150000X-0.425000X0.150000X0.425000X-0.150000X0.425000X0*%
%ADD34RoundRect,0.075000X-0.075000X-0.500000X0.075000X-0.500000X0.075000X0.500000X-0.075000X0.500000X0*%
%ADD35O,1.000000X2.100000*%
%ADD36O,1.000000X1.800000*%
%ADD37RoundRect,0.140000X-0.219203X-0.021213X-0.021213X-0.219203X0.219203X0.021213X0.021213X0.219203X0*%
%ADD38RoundRect,0.250000X-0.475000X0.250000X-0.475000X-0.250000X0.475000X-0.250000X0.475000X0.250000X0*%
%ADD39RoundRect,0.140000X0.170000X-0.140000X0.170000X0.140000X-0.170000X0.140000X-0.170000X-0.140000X0*%
%ADD40R,1.400000X1.200000*%
%ADD41RoundRect,0.087500X-0.225000X-0.087500X0.225000X-0.087500X0.225000X0.087500X-0.225000X0.087500X0*%
%ADD42RoundRect,0.087500X-0.087500X-0.225000X0.087500X-0.225000X0.087500X0.225000X-0.087500X0.225000X0*%
%ADD43RoundRect,0.150000X-0.587500X-0.150000X0.587500X-0.150000X0.587500X0.150000X-0.587500X0.150000X0*%
%ADD44RoundRect,0.150000X0.150000X0.200000X-0.150000X0.200000X-0.150000X-0.200000X0.150000X-0.200000X0*%
%ADD45RoundRect,0.087500X0.487500X0.087500X-0.487500X0.087500X-0.487500X-0.087500X0.487500X-0.087500X0*%
%ADD46RoundRect,0.050000X0.675000X0.050000X-0.675000X0.050000X-0.675000X-0.050000X0.675000X-0.050000X0*%
%ADD47RoundRect,0.062500X0.162500X0.062500X-0.162500X0.062500X-0.162500X-0.062500X0.162500X-0.062500X0*%
%ADD48RoundRect,0.112500X-0.237500X0.112500X-0.237500X-0.112500X0.237500X-0.112500X0.237500X0.112500X0*%
%ADD49RoundRect,0.050000X0.387500X0.050000X-0.387500X0.050000X-0.387500X-0.050000X0.387500X-0.050000X0*%
%ADD50RoundRect,0.050000X0.050000X0.387500X-0.050000X0.387500X-0.050000X-0.387500X0.050000X-0.387500X0*%
%ADD51R,3.200000X3.200000*%
%ADD52RoundRect,0.218750X-0.256250X0.218750X-0.256250X-0.218750X0.256250X-0.218750X0.256250X0.218750X0*%
%ADD53R,1.700000X1.000000*%
%ADD54RoundRect,0.112500X0.112500X-0.187500X0.112500X0.187500X-0.112500X0.187500X-0.112500X-0.187500X0*%
%ADD55R,1.727200X1.727200*%
%ADD56C,1.727200*%
%ADD57O,1.727200X1.727200*%
%ADD58RoundRect,0.250000X-0.250000X-0.475000X0.250000X-0.475000X0.250000X0.475000X-0.250000X0.475000X0*%
%ADD59R,1.700000X1.700000*%
%ADD60O,1.700000X1.700000*%
%ADD61R,1.000000X1.000000*%
%ADD62HorizOval,1.000000X0.000000X0.000000X0.000000X0.000000X0*%
G04 APERTURE END LIST*
D10*
X137100000Y-99700000D02*
X137300000Y-97250000D01*
X140050000Y-99850000D02*
X139200000Y-99050000D01*
X137300000Y-97250000D02*
X137800000Y-96600000D01*
D11*
X111813857Y-97561073D02*
X111959000Y-97609453D01*
X111959000Y-97609453D02*
X112200905Y-97609453D01*
X112200905Y-97609453D02*
X112297667Y-97561073D01*
X112297667Y-97561073D02*
X112346048Y-97512692D01*
X112346048Y-97512692D02*
X112394429Y-97415930D01*
X112394429Y-97415930D02*
X112394429Y-97319168D01*
X112394429Y-97319168D02*
X112346048Y-97222406D01*
X112346048Y-97222406D02*
X112297667Y-97174025D01*
X112297667Y-97174025D02*
X112200905Y-97125644D01*
X112200905Y-97125644D02*
X112007381Y-97077263D01*
X112007381Y-97077263D02*
X111910619Y-97028882D01*
X111910619Y-97028882D02*
X111862238Y-96980501D01*
X111862238Y-96980501D02*
X111813857Y-96883739D01*
X111813857Y-96883739D02*
X111813857Y-96786977D01*
X111813857Y-96786977D02*
X111862238Y-96690215D01*
X111862238Y-96690215D02*
X111910619Y-96641834D01*
X111910619Y-96641834D02*
X112007381Y-96593453D01*
X112007381Y-96593453D02*
X112249286Y-96593453D01*
X112249286Y-96593453D02*
X112394429Y-96641834D01*
X112829857Y-97077263D02*
X113168524Y-97077263D01*
X113313667Y-97609453D02*
X112829857Y-97609453D01*
X112829857Y-97609453D02*
X112829857Y-96593453D01*
X112829857Y-96593453D02*
X113313667Y-96593453D01*
X114232905Y-97609453D02*
X113749095Y-97609453D01*
X113749095Y-97609453D02*
X113749095Y-96593453D01*
D12*
X108527255Y-51369819D02*
X108622493Y-51369819D01*
X108622493Y-51369819D02*
X108717731Y-51417438D01*
X108717731Y-51417438D02*
X108765350Y-51465057D01*
X108765350Y-51465057D02*
X108812969Y-51560295D01*
X108812969Y-51560295D02*
X108860588Y-51750771D01*
X108860588Y-51750771D02*
X108860588Y-51988866D01*
X108860588Y-51988866D02*
X108812969Y-52179342D01*
X108812969Y-52179342D02*
X108765350Y-52274580D01*
X108765350Y-52274580D02*
X108717731Y-52322200D01*
X108717731Y-52322200D02*
X108622493Y-52369819D01*
X108622493Y-52369819D02*
X108527255Y-52369819D01*
X108527255Y-52369819D02*
X108432017Y-52322200D01*
X108432017Y-52322200D02*
X108384398Y-52274580D01*
X108384398Y-52274580D02*
X108336779Y-52179342D01*
X108336779Y-52179342D02*
X108289160Y-51988866D01*
X108289160Y-51988866D02*
X108289160Y-51750771D01*
X108289160Y-51750771D02*
X108336779Y-51560295D01*
X108336779Y-51560295D02*
X108384398Y-51465057D01*
X108384398Y-51465057D02*
X108432017Y-51417438D01*
X108432017Y-51417438D02*
X108527255Y-51369819D01*
X109336779Y-52322200D02*
X109336779Y-52369819D01*
X109336779Y-52369819D02*
X109289160Y-52465057D01*
X109289160Y-52465057D02*
X109241541Y-52512676D01*
X109955826Y-51369819D02*
X110051064Y-51369819D01*
X110051064Y-51369819D02*
X110146302Y-51417438D01*
X110146302Y-51417438D02*
X110193921Y-51465057D01*
X110193921Y-51465057D02*
X110241540Y-51560295D01*
X110241540Y-51560295D02*
X110289159Y-51750771D01*
X110289159Y-51750771D02*
X110289159Y-51988866D01*
X110289159Y-51988866D02*
X110241540Y-52179342D01*
X110241540Y-52179342D02*
X110193921Y-52274580D01*
X110193921Y-52274580D02*
X110146302Y-52322200D01*
X110146302Y-52322200D02*
X110051064Y-52369819D01*
X110051064Y-52369819D02*
X109955826Y-52369819D01*
X109955826Y-52369819D02*
X109860588Y-52322200D01*
X109860588Y-52322200D02*
X109812969Y-52274580D01*
X109812969Y-52274580D02*
X109765350Y-52179342D01*
X109765350Y-52179342D02*
X109717731Y-51988866D01*
X109717731Y-51988866D02*
X109717731Y-51750771D01*
X109717731Y-51750771D02*
X109765350Y-51560295D01*
X109765350Y-51560295D02*
X109812969Y-51465057D01*
X109812969Y-51465057D02*
X109860588Y-51417438D01*
X109860588Y-51417438D02*
X109955826Y-51369819D01*
D11*
X142183999Y-96609453D02*
X142183999Y-95593453D01*
X142861333Y-95593453D02*
X143054857Y-95593453D01*
X143054857Y-95593453D02*
X143151619Y-95641834D01*
X143151619Y-95641834D02*
X143248381Y-95738596D01*
X143248381Y-95738596D02*
X143296762Y-95932120D01*
X143296762Y-95932120D02*
X143296762Y-96270787D01*
X143296762Y-96270787D02*
X143248381Y-96464311D01*
X143248381Y-96464311D02*
X143151619Y-96561073D01*
X143151619Y-96561073D02*
X143054857Y-96609453D01*
X143054857Y-96609453D02*
X142861333Y-96609453D01*
X142861333Y-96609453D02*
X142764571Y-96561073D01*
X142764571Y-96561073D02*
X142667809Y-96464311D01*
X142667809Y-96464311D02*
X142619428Y-96270787D01*
X142619428Y-96270787D02*
X142619428Y-95932120D01*
X142619428Y-95932120D02*
X142667809Y-95738596D01*
X142667809Y-95738596D02*
X142764571Y-95641834D01*
X142764571Y-95641834D02*
X142861333Y-95593453D01*
X144264381Y-96609453D02*
X143683809Y-96609453D01*
X143974095Y-96609453D02*
X143974095Y-95593453D01*
X143974095Y-95593453D02*
X143877333Y-95738596D01*
X143877333Y-95738596D02*
X143780571Y-95835358D01*
X143780571Y-95835358D02*
X143683809Y-95883739D01*
D13*
X108400642Y-87566885D02*
X108400642Y-86423885D01*
X108400642Y-86423885D02*
X108672785Y-86423885D01*
X108672785Y-86423885D02*
X108836071Y-86478314D01*
X108836071Y-86478314D02*
X108944928Y-86587171D01*
X108944928Y-86587171D02*
X108999357Y-86696028D01*
X108999357Y-86696028D02*
X109053785Y-86913742D01*
X109053785Y-86913742D02*
X109053785Y-87077028D01*
X109053785Y-87077028D02*
X108999357Y-87294742D01*
X108999357Y-87294742D02*
X108944928Y-87403599D01*
X108944928Y-87403599D02*
X108836071Y-87512457D01*
X108836071Y-87512457D02*
X108672785Y-87566885D01*
X108672785Y-87566885D02*
X108400642Y-87566885D01*
D11*
X139127207Y-100955433D02*
X139272350Y-101003813D01*
X139272350Y-101003813D02*
X139514255Y-101003813D01*
X139514255Y-101003813D02*
X139611017Y-100955433D01*
X139611017Y-100955433D02*
X139659398Y-100907052D01*
X139659398Y-100907052D02*
X139707779Y-100810290D01*
X139707779Y-100810290D02*
X139707779Y-100713528D01*
X139707779Y-100713528D02*
X139659398Y-100616766D01*
X139659398Y-100616766D02*
X139611017Y-100568385D01*
X139611017Y-100568385D02*
X139514255Y-100520004D01*
X139514255Y-100520004D02*
X139320731Y-100471623D01*
X139320731Y-100471623D02*
X139223969Y-100423242D01*
X139223969Y-100423242D02*
X139175588Y-100374861D01*
X139175588Y-100374861D02*
X139127207Y-100278099D01*
X139127207Y-100278099D02*
X139127207Y-100181337D01*
X139127207Y-100181337D02*
X139175588Y-100084575D01*
X139175588Y-100084575D02*
X139223969Y-100036194D01*
X139223969Y-100036194D02*
X139320731Y-99987813D01*
X139320731Y-99987813D02*
X139562636Y-99987813D01*
X139562636Y-99987813D02*
X139707779Y-100036194D01*
X140723779Y-100907052D02*
X140675398Y-100955433D01*
X140675398Y-100955433D02*
X140530255Y-101003813D01*
X140530255Y-101003813D02*
X140433493Y-101003813D01*
X140433493Y-101003813D02*
X140288350Y-100955433D01*
X140288350Y-100955433D02*
X140191588Y-100858671D01*
X140191588Y-100858671D02*
X140143207Y-100761909D01*
X140143207Y-100761909D02*
X140094826Y-100568385D01*
X140094826Y-100568385D02*
X140094826Y-100423242D01*
X140094826Y-100423242D02*
X140143207Y-100229718D01*
X140143207Y-100229718D02*
X140191588Y-100132956D01*
X140191588Y-100132956D02*
X140288350Y-100036194D01*
X140288350Y-100036194D02*
X140433493Y-99987813D01*
X140433493Y-99987813D02*
X140530255Y-99987813D01*
X140530255Y-99987813D02*
X140675398Y-100036194D01*
X140675398Y-100036194D02*
X140723779Y-100084575D01*
X141643017Y-101003813D02*
X141159207Y-101003813D01*
X141159207Y-101003813D02*
X141159207Y-99987813D01*
D13*
X108999357Y-84378314D02*
X108890500Y-84323885D01*
X108890500Y-84323885D02*
X108727214Y-84323885D01*
X108727214Y-84323885D02*
X108563928Y-84378314D01*
X108563928Y-84378314D02*
X108455071Y-84487171D01*
X108455071Y-84487171D02*
X108400642Y-84596028D01*
X108400642Y-84596028D02*
X108346214Y-84813742D01*
X108346214Y-84813742D02*
X108346214Y-84977028D01*
X108346214Y-84977028D02*
X108400642Y-85194742D01*
X108400642Y-85194742D02*
X108455071Y-85303599D01*
X108455071Y-85303599D02*
X108563928Y-85412457D01*
X108563928Y-85412457D02*
X108727214Y-85466885D01*
X108727214Y-85466885D02*
X108836071Y-85466885D01*
X108836071Y-85466885D02*
X108999357Y-85412457D01*
X108999357Y-85412457D02*
X109053785Y-85358028D01*
X109053785Y-85358028D02*
X109053785Y-84977028D01*
X109053785Y-84977028D02*
X108836071Y-84977028D01*
D11*
X142183999Y-99209453D02*
X142183999Y-98193453D01*
X142861333Y-98193453D02*
X143054857Y-98193453D01*
X143054857Y-98193453D02*
X143151619Y-98241834D01*
X143151619Y-98241834D02*
X143248381Y-98338596D01*
X143248381Y-98338596D02*
X143296762Y-98532120D01*
X143296762Y-98532120D02*
X143296762Y-98870787D01*
X143296762Y-98870787D02*
X143248381Y-99064311D01*
X143248381Y-99064311D02*
X143151619Y-99161073D01*
X143151619Y-99161073D02*
X143054857Y-99209453D01*
X143054857Y-99209453D02*
X142861333Y-99209453D01*
X142861333Y-99209453D02*
X142764571Y-99161073D01*
X142764571Y-99161073D02*
X142667809Y-99064311D01*
X142667809Y-99064311D02*
X142619428Y-98870787D01*
X142619428Y-98870787D02*
X142619428Y-98532120D01*
X142619428Y-98532120D02*
X142667809Y-98338596D01*
X142667809Y-98338596D02*
X142764571Y-98241834D01*
X142764571Y-98241834D02*
X142861333Y-98193453D01*
X143683809Y-98290215D02*
X143732190Y-98241834D01*
X143732190Y-98241834D02*
X143828952Y-98193453D01*
X143828952Y-98193453D02*
X144070857Y-98193453D01*
X144070857Y-98193453D02*
X144167619Y-98241834D01*
X144167619Y-98241834D02*
X144216000Y-98290215D01*
X144216000Y-98290215D02*
X144264381Y-98386977D01*
X144264381Y-98386977D02*
X144264381Y-98483739D01*
X144264381Y-98483739D02*
X144216000Y-98628882D01*
X144216000Y-98628882D02*
X143635428Y-99209453D01*
X143635428Y-99209453D02*
X144264381Y-99209453D01*
X135777207Y-100955433D02*
X135922350Y-101003813D01*
X135922350Y-101003813D02*
X136164255Y-101003813D01*
X136164255Y-101003813D02*
X136261017Y-100955433D01*
X136261017Y-100955433D02*
X136309398Y-100907052D01*
X136309398Y-100907052D02*
X136357779Y-100810290D01*
X136357779Y-100810290D02*
X136357779Y-100713528D01*
X136357779Y-100713528D02*
X136309398Y-100616766D01*
X136309398Y-100616766D02*
X136261017Y-100568385D01*
X136261017Y-100568385D02*
X136164255Y-100520004D01*
X136164255Y-100520004D02*
X135970731Y-100471623D01*
X135970731Y-100471623D02*
X135873969Y-100423242D01*
X135873969Y-100423242D02*
X135825588Y-100374861D01*
X135825588Y-100374861D02*
X135777207Y-100278099D01*
X135777207Y-100278099D02*
X135777207Y-100181337D01*
X135777207Y-100181337D02*
X135825588Y-100084575D01*
X135825588Y-100084575D02*
X135873969Y-100036194D01*
X135873969Y-100036194D02*
X135970731Y-99987813D01*
X135970731Y-99987813D02*
X136212636Y-99987813D01*
X136212636Y-99987813D02*
X136357779Y-100036194D01*
X136793207Y-101003813D02*
X136793207Y-99987813D01*
X136793207Y-99987813D02*
X137035112Y-99987813D01*
X137035112Y-99987813D02*
X137180255Y-100036194D01*
X137180255Y-100036194D02*
X137277017Y-100132956D01*
X137277017Y-100132956D02*
X137325398Y-100229718D01*
X137325398Y-100229718D02*
X137373779Y-100423242D01*
X137373779Y-100423242D02*
X137373779Y-100568385D01*
X137373779Y-100568385D02*
X137325398Y-100761909D01*
X137325398Y-100761909D02*
X137277017Y-100858671D01*
X137277017Y-100858671D02*
X137180255Y-100955433D01*
X137180255Y-100955433D02*
X137035112Y-101003813D01*
X137035112Y-101003813D02*
X136793207Y-101003813D01*
X137760826Y-100713528D02*
X138244636Y-100713528D01*
X137664064Y-101003813D02*
X138002731Y-99987813D01*
X138002731Y-99987813D02*
X138341398Y-101003813D01*
D14*
X143587142Y-94153752D02*
X144312857Y-94153752D01*
X143441999Y-94589181D02*
X143949999Y-93065181D01*
X143949999Y-93065181D02*
X144457999Y-94589181D01*
X138558857Y-93790895D02*
X138776571Y-93863467D01*
X138776571Y-93863467D02*
X138849142Y-93936038D01*
X138849142Y-93936038D02*
X138921714Y-94081181D01*
X138921714Y-94081181D02*
X138921714Y-94298895D01*
X138921714Y-94298895D02*
X138849142Y-94444038D01*
X138849142Y-94444038D02*
X138776571Y-94516610D01*
X138776571Y-94516610D02*
X138631428Y-94589181D01*
X138631428Y-94589181D02*
X138050857Y-94589181D01*
X138050857Y-94589181D02*
X138050857Y-93065181D01*
X138050857Y-93065181D02*
X138558857Y-93065181D01*
X138558857Y-93065181D02*
X138704000Y-93137752D01*
X138704000Y-93137752D02*
X138776571Y-93210324D01*
X138776571Y-93210324D02*
X138849142Y-93355467D01*
X138849142Y-93355467D02*
X138849142Y-93500610D01*
X138849142Y-93500610D02*
X138776571Y-93645752D01*
X138776571Y-93645752D02*
X138704000Y-93718324D01*
X138704000Y-93718324D02*
X138558857Y-93790895D01*
X138558857Y-93790895D02*
X138050857Y-93790895D01*
D11*
X132242095Y-95643453D02*
X132871048Y-95643453D01*
X132871048Y-95643453D02*
X132532381Y-96030501D01*
X132532381Y-96030501D02*
X132677524Y-96030501D01*
X132677524Y-96030501D02*
X132774286Y-96078882D01*
X132774286Y-96078882D02*
X132822667Y-96127263D01*
X132822667Y-96127263D02*
X132871048Y-96224025D01*
X132871048Y-96224025D02*
X132871048Y-96465930D01*
X132871048Y-96465930D02*
X132822667Y-96562692D01*
X132822667Y-96562692D02*
X132774286Y-96611073D01*
X132774286Y-96611073D02*
X132677524Y-96659453D01*
X132677524Y-96659453D02*
X132387238Y-96659453D01*
X132387238Y-96659453D02*
X132290476Y-96611073D01*
X132290476Y-96611073D02*
X132242095Y-96562692D01*
X133161333Y-95643453D02*
X133500000Y-96659453D01*
X133500000Y-96659453D02*
X133838667Y-95643453D01*
X134080571Y-95643453D02*
X134709524Y-95643453D01*
X134709524Y-95643453D02*
X134370857Y-96030501D01*
X134370857Y-96030501D02*
X134516000Y-96030501D01*
X134516000Y-96030501D02*
X134612762Y-96078882D01*
X134612762Y-96078882D02*
X134661143Y-96127263D01*
X134661143Y-96127263D02*
X134709524Y-96224025D01*
X134709524Y-96224025D02*
X134709524Y-96465930D01*
X134709524Y-96465930D02*
X134661143Y-96562692D01*
X134661143Y-96562692D02*
X134612762Y-96611073D01*
X134612762Y-96611073D02*
X134516000Y-96659453D01*
X134516000Y-96659453D02*
X134225714Y-96659453D01*
X134225714Y-96659453D02*
X134128952Y-96611073D01*
X134128952Y-96611073D02*
X134080571Y-96562692D01*
X112588857Y-95632120D02*
X111814761Y-95922406D01*
X111814761Y-95922406D02*
X112588857Y-96212692D01*
X113604857Y-95341834D02*
X113508095Y-95293453D01*
X113508095Y-95293453D02*
X113362952Y-95293453D01*
X113362952Y-95293453D02*
X113217809Y-95341834D01*
X113217809Y-95341834D02*
X113121047Y-95438596D01*
X113121047Y-95438596D02*
X113072666Y-95535358D01*
X113072666Y-95535358D02*
X113024285Y-95728882D01*
X113024285Y-95728882D02*
X113024285Y-95874025D01*
X113024285Y-95874025D02*
X113072666Y-96067549D01*
X113072666Y-96067549D02*
X113121047Y-96164311D01*
X113121047Y-96164311D02*
X113217809Y-96261073D01*
X113217809Y-96261073D02*
X113362952Y-96309453D01*
X113362952Y-96309453D02*
X113459714Y-96309453D01*
X113459714Y-96309453D02*
X113604857Y-96261073D01*
X113604857Y-96261073D02*
X113653238Y-96212692D01*
X113653238Y-96212692D02*
X113653238Y-95874025D01*
X113653238Y-95874025D02*
X113459714Y-95874025D01*
X114088666Y-96309453D02*
X114088666Y-95293453D01*
X114088666Y-95293453D02*
X114669238Y-96309453D01*
X114669238Y-96309453D02*
X114669238Y-95293453D01*
X115153047Y-96309453D02*
X115153047Y-95293453D01*
X115153047Y-95293453D02*
X115394952Y-95293453D01*
X115394952Y-95293453D02*
X115540095Y-95341834D01*
X115540095Y-95341834D02*
X115636857Y-95438596D01*
X115636857Y-95438596D02*
X115685238Y-95535358D01*
X115685238Y-95535358D02*
X115733619Y-95728882D01*
X115733619Y-95728882D02*
X115733619Y-95874025D01*
X115733619Y-95874025D02*
X115685238Y-96067549D01*
X115685238Y-96067549D02*
X115636857Y-96164311D01*
X115636857Y-96164311D02*
X115540095Y-96261073D01*
X115540095Y-96261073D02*
X115394952Y-96309453D01*
X115394952Y-96309453D02*
X115153047Y-96309453D01*
X132725905Y-98291834D02*
X132629143Y-98243453D01*
X132629143Y-98243453D02*
X132484000Y-98243453D01*
X132484000Y-98243453D02*
X132338857Y-98291834D01*
X132338857Y-98291834D02*
X132242095Y-98388596D01*
X132242095Y-98388596D02*
X132193714Y-98485358D01*
X132193714Y-98485358D02*
X132145333Y-98678882D01*
X132145333Y-98678882D02*
X132145333Y-98824025D01*
X132145333Y-98824025D02*
X132193714Y-99017549D01*
X132193714Y-99017549D02*
X132242095Y-99114311D01*
X132242095Y-99114311D02*
X132338857Y-99211073D01*
X132338857Y-99211073D02*
X132484000Y-99259453D01*
X132484000Y-99259453D02*
X132580762Y-99259453D01*
X132580762Y-99259453D02*
X132725905Y-99211073D01*
X132725905Y-99211073D02*
X132774286Y-99162692D01*
X132774286Y-99162692D02*
X132774286Y-98824025D01*
X132774286Y-98824025D02*
X132580762Y-98824025D01*
X133209714Y-99259453D02*
X133209714Y-98243453D01*
X133209714Y-98243453D02*
X133790286Y-99259453D01*
X133790286Y-99259453D02*
X133790286Y-98243453D01*
X134274095Y-99259453D02*
X134274095Y-98243453D01*
X134274095Y-98243453D02*
X134516000Y-98243453D01*
X134516000Y-98243453D02*
X134661143Y-98291834D01*
X134661143Y-98291834D02*
X134757905Y-98388596D01*
X134757905Y-98388596D02*
X134806286Y-98485358D01*
X134806286Y-98485358D02*
X134854667Y-98678882D01*
X134854667Y-98678882D02*
X134854667Y-98824025D01*
X134854667Y-98824025D02*
X134806286Y-99017549D01*
X134806286Y-99017549D02*
X134757905Y-99114311D01*
X134757905Y-99114311D02*
X134661143Y-99211073D01*
X134661143Y-99211073D02*
X134516000Y-99259453D01*
X134516000Y-99259453D02*
X134274095Y-99259453D01*
D13*
X109053785Y-83108028D02*
X108999357Y-83162457D01*
X108999357Y-83162457D02*
X108836071Y-83216885D01*
X108836071Y-83216885D02*
X108727214Y-83216885D01*
X108727214Y-83216885D02*
X108563928Y-83162457D01*
X108563928Y-83162457D02*
X108455071Y-83053599D01*
X108455071Y-83053599D02*
X108400642Y-82944742D01*
X108400642Y-82944742D02*
X108346214Y-82727028D01*
X108346214Y-82727028D02*
X108346214Y-82563742D01*
X108346214Y-82563742D02*
X108400642Y-82346028D01*
X108400642Y-82346028D02*
X108455071Y-82237171D01*
X108455071Y-82237171D02*
X108563928Y-82128314D01*
X108563928Y-82128314D02*
X108727214Y-82073885D01*
X108727214Y-82073885D02*
X108836071Y-82073885D01*
X108836071Y-82073885D02*
X108999357Y-82128314D01*
X108999357Y-82128314D02*
X109053785Y-82182742D01*
D11*
X119443619Y-97609453D02*
X119104952Y-97125644D01*
X118863047Y-97609453D02*
X118863047Y-96593453D01*
X118863047Y-96593453D02*
X119250095Y-96593453D01*
X119250095Y-96593453D02*
X119346857Y-96641834D01*
X119346857Y-96641834D02*
X119395238Y-96690215D01*
X119395238Y-96690215D02*
X119443619Y-96786977D01*
X119443619Y-96786977D02*
X119443619Y-96932120D01*
X119443619Y-96932120D02*
X119395238Y-97028882D01*
X119395238Y-97028882D02*
X119346857Y-97077263D01*
X119346857Y-97077263D02*
X119250095Y-97125644D01*
X119250095Y-97125644D02*
X118863047Y-97125644D01*
X119830666Y-97561073D02*
X119975809Y-97609453D01*
X119975809Y-97609453D02*
X120217714Y-97609453D01*
X120217714Y-97609453D02*
X120314476Y-97561073D01*
X120314476Y-97561073D02*
X120362857Y-97512692D01*
X120362857Y-97512692D02*
X120411238Y-97415930D01*
X120411238Y-97415930D02*
X120411238Y-97319168D01*
X120411238Y-97319168D02*
X120362857Y-97222406D01*
X120362857Y-97222406D02*
X120314476Y-97174025D01*
X120314476Y-97174025D02*
X120217714Y-97125644D01*
X120217714Y-97125644D02*
X120024190Y-97077263D01*
X120024190Y-97077263D02*
X119927428Y-97028882D01*
X119927428Y-97028882D02*
X119879047Y-96980501D01*
X119879047Y-96980501D02*
X119830666Y-96883739D01*
X119830666Y-96883739D02*
X119830666Y-96786977D01*
X119830666Y-96786977D02*
X119879047Y-96690215D01*
X119879047Y-96690215D02*
X119927428Y-96641834D01*
X119927428Y-96641834D02*
X120024190Y-96593453D01*
X120024190Y-96593453D02*
X120266095Y-96593453D01*
X120266095Y-96593453D02*
X120411238Y-96641834D01*
X120701523Y-96593453D02*
X121282095Y-96593453D01*
X120991809Y-97609453D02*
X120991809Y-96593453D01*
D15*
%TO.C,D163*%
X113250000Y-76700000D02*
X113050000Y-76500000D01*
X113250000Y-76300000D01*
X113250000Y-76700000D01*
G36*
X113250000Y-76700000D02*
G01*
X113050000Y-76500000D01*
X113250000Y-76300000D01*
X113250000Y-76700000D01*
G37*
D16*
%TO.C,C2*%
X118842164Y-51440000D02*
X119057836Y-51440000D01*
X118842164Y-52160000D02*
X119057836Y-52160000D01*
%TO.C,C15*%
X129542164Y-81340000D02*
X129757836Y-81340000D01*
X129542164Y-82060000D02*
X129757836Y-82060000D01*
%TO.C,U2*%
X136100000Y-91415000D02*
X133100000Y-91415000D01*
X136100000Y-93685000D02*
X133100000Y-93685000D01*
X136650000Y-93880000D02*
X136650000Y-93600000D01*
X136930000Y-93600000D01*
X136650000Y-93880000D01*
G36*
X136650000Y-93880000D02*
G01*
X136650000Y-93600000D01*
X136930000Y-93600000D01*
X136650000Y-93880000D01*
G37*
D15*
%TO.C,D87*%
X122450000Y-65200000D02*
X122250000Y-65000000D01*
X122450000Y-64800000D01*
X122450000Y-65200000D01*
G36*
X122450000Y-65200000D02*
G01*
X122250000Y-65000000D01*
X122450000Y-64800000D01*
X122450000Y-65200000D01*
G37*
%TO.C,D83*%
X113250000Y-65200000D02*
X113050000Y-65000000D01*
X113250000Y-64800000D01*
X113250000Y-65200000D01*
G36*
X113250000Y-65200000D02*
G01*
X113050000Y-65000000D01*
X113250000Y-64800000D01*
X113250000Y-65200000D01*
G37*
%TO.C,D46*%
X138550000Y-58300000D02*
X138350000Y-58100000D01*
X138550000Y-57900000D01*
X138550000Y-58300000D01*
G36*
X138550000Y-58300000D02*
G01*
X138350000Y-58100000D01*
X138550000Y-57900000D01*
X138550000Y-58300000D01*
G37*
%TO.C,D1*%
X108650000Y-53700000D02*
X108450000Y-53500000D01*
X108650000Y-53300000D01*
X108650000Y-53700000D01*
G36*
X108650000Y-53700000D02*
G01*
X108450000Y-53500000D01*
X108650000Y-53300000D01*
X108650000Y-53700000D01*
G37*
%TO.C,D99*%
X113250000Y-67500000D02*
X113050000Y-67300000D01*
X113250000Y-67100000D01*
X113250000Y-67500000D01*
G36*
X113250000Y-67500000D02*
G01*
X113050000Y-67300000D01*
X113250000Y-67100000D01*
X113250000Y-67500000D01*
G37*
%TO.C,D86*%
X120150000Y-65200000D02*
X119950000Y-65000000D01*
X120150000Y-64800000D01*
X120150000Y-65200000D01*
G36*
X120150000Y-65200000D02*
G01*
X119950000Y-65000000D01*
X120150000Y-64800000D01*
X120150000Y-65200000D01*
G37*
%TO.C,D78*%
X138550000Y-62900000D02*
X138350000Y-62700000D01*
X138550000Y-62500000D01*
X138550000Y-62900000D01*
G36*
X138550000Y-62900000D02*
G01*
X138350000Y-62700000D01*
X138550000Y-62500000D01*
X138550000Y-62900000D01*
G37*
%TO.C,D54*%
X120150000Y-60600000D02*
X119950000Y-60400000D01*
X120150000Y-60200000D01*
X120150000Y-60600000D01*
G36*
X120150000Y-60600000D02*
G01*
X119950000Y-60400000D01*
X120150000Y-60200000D01*
X120150000Y-60600000D01*
G37*
%TO.C,D17*%
X108650000Y-56000000D02*
X108450000Y-55800000D01*
X108650000Y-55600000D01*
X108650000Y-56000000D01*
G36*
X108650000Y-56000000D02*
G01*
X108450000Y-55800000D01*
X108650000Y-55600000D01*
X108650000Y-56000000D01*
G37*
D16*
%TO.C,SW7*%
X115925000Y-97875000D02*
X115925000Y-97995000D01*
X115925000Y-99005000D02*
X115925000Y-100145000D01*
X115925000Y-101155000D02*
X115925000Y-101275000D01*
X115925000Y-101275000D02*
X120325000Y-101275000D01*
X120325000Y-97875000D02*
X115925000Y-97875000D01*
X120325000Y-97995000D02*
X120325000Y-97875000D01*
X120325000Y-100145000D02*
X120325000Y-99005000D01*
X120325000Y-101275000D02*
X120325000Y-101155000D01*
%TO.C,SW5*%
X136750000Y-88150000D02*
X136750000Y-92550000D01*
X136750000Y-92550000D02*
X136870000Y-92550000D01*
X136870000Y-88150000D02*
X136750000Y-88150000D01*
X137880000Y-92550000D02*
X139020000Y-92550000D01*
X139020000Y-88150000D02*
X137880000Y-88150000D01*
X140030000Y-92550000D02*
X140150000Y-92550000D01*
X140150000Y-88150000D02*
X140030000Y-88150000D01*
X140150000Y-92550000D02*
X140150000Y-88150000D01*
%TO.C,R4*%
X135220000Y-90503641D02*
X135220000Y-90196359D01*
X135980000Y-90503641D02*
X135980000Y-90196359D01*
D15*
%TO.C,D29*%
X136250000Y-56000000D02*
X136050000Y-55800000D01*
X136250000Y-55600000D01*
X136250000Y-56000000D01*
G36*
X136250000Y-56000000D02*
G01*
X136050000Y-55800000D01*
X136250000Y-55600000D01*
X136250000Y-56000000D01*
G37*
D16*
%TO.C,SW4*%
X115935000Y-87955000D02*
X115935000Y-88075000D01*
X115935000Y-89085000D02*
X115935000Y-90225000D01*
X115935000Y-91235000D02*
X115935000Y-91355000D01*
X115935000Y-91355000D02*
X120335000Y-91355000D01*
X120335000Y-87955000D02*
X115935000Y-87955000D01*
X120335000Y-88075000D02*
X120335000Y-87955000D01*
X120335000Y-90225000D02*
X120335000Y-89085000D01*
X120335000Y-91355000D02*
X120335000Y-91235000D01*
D15*
%TO.C,D155*%
X131650000Y-74400000D02*
X131450000Y-74200000D01*
X131650000Y-74000000D01*
X131650000Y-74400000D01*
G36*
X131650000Y-74400000D02*
G01*
X131450000Y-74200000D01*
X131650000Y-74000000D01*
X131650000Y-74400000D01*
G37*
%TO.C,D70*%
X120150000Y-62900000D02*
X119950000Y-62700000D01*
X120150000Y-62500000D01*
X120150000Y-62900000D01*
G36*
X120150000Y-62900000D02*
G01*
X119950000Y-62700000D01*
X120150000Y-62500000D01*
X120150000Y-62900000D01*
G37*
D16*
%TO.C,C29*%
X129727836Y-80390000D02*
X129512164Y-80390000D01*
X129727836Y-81110000D02*
X129512164Y-81110000D01*
D15*
%TO.C,D82*%
X110950000Y-65200000D02*
X110750000Y-65000000D01*
X110950000Y-64800000D01*
X110950000Y-65200000D01*
G36*
X110950000Y-65200000D02*
G01*
X110750000Y-65000000D01*
X110950000Y-64800000D01*
X110950000Y-65200000D01*
G37*
D16*
%TO.C,C13*%
X132440000Y-94592164D02*
X132440000Y-94807836D01*
X133160000Y-94592164D02*
X133160000Y-94807836D01*
D15*
%TO.C,D71*%
X122450000Y-62900000D02*
X122250000Y-62700000D01*
X122450000Y-62500000D01*
X122450000Y-62900000D01*
G36*
X122450000Y-62900000D02*
G01*
X122250000Y-62700000D01*
X122450000Y-62500000D01*
X122450000Y-62900000D01*
G37*
%TO.C,D38*%
X120150000Y-58300000D02*
X119950000Y-58100000D01*
X120150000Y-57900000D01*
X120150000Y-58300000D01*
G36*
X120150000Y-58300000D02*
G01*
X119950000Y-58100000D01*
X120150000Y-57900000D01*
X120150000Y-58300000D01*
G37*
D16*
%TO.C,D194*%
X121950000Y-88740000D02*
X121950000Y-92600000D01*
X123950000Y-88740000D02*
X121950000Y-88740000D01*
X123950000Y-88740000D02*
X123950000Y-92600000D01*
D15*
%TO.C,D85*%
X117850000Y-65200000D02*
X117650000Y-65000000D01*
X117850000Y-64800000D01*
X117850000Y-65200000D01*
G36*
X117850000Y-65200000D02*
G01*
X117650000Y-65000000D01*
X117850000Y-64800000D01*
X117850000Y-65200000D01*
G37*
D16*
%TO.C,R5*%
X124320000Y-92096359D02*
X124320000Y-92403641D01*
X125080000Y-92096359D02*
X125080000Y-92403641D01*
D15*
%TO.C,D22*%
X120150000Y-56000000D02*
X119950000Y-55800000D01*
X120150000Y-55600000D01*
X120150000Y-56000000D01*
G36*
X120150000Y-56000000D02*
G01*
X119950000Y-55800000D01*
X120150000Y-55600000D01*
X120150000Y-56000000D01*
G37*
D16*
%TO.C,R12*%
X134770000Y-84713641D02*
X134770000Y-84406359D01*
X135530000Y-84713641D02*
X135530000Y-84406359D01*
D15*
%TO.C,D105*%
X127050000Y-67500000D02*
X126850000Y-67300000D01*
X127050000Y-67100000D01*
X127050000Y-67500000D01*
G36*
X127050000Y-67500000D02*
G01*
X126850000Y-67300000D01*
X127050000Y-67100000D01*
X127050000Y-67500000D01*
G37*
%TO.C,D60*%
X133950000Y-60600000D02*
X133750000Y-60400000D01*
X133950000Y-60200000D01*
X133950000Y-60600000D01*
G36*
X133950000Y-60600000D02*
G01*
X133750000Y-60400000D01*
X133950000Y-60200000D01*
X133950000Y-60600000D01*
G37*
%TO.C,D158*%
X138550000Y-74400000D02*
X138350000Y-74200000D01*
X138550000Y-74000000D01*
X138550000Y-74400000D01*
G36*
X138550000Y-74400000D02*
G01*
X138350000Y-74200000D01*
X138550000Y-74000000D01*
X138550000Y-74400000D01*
G37*
%TO.C,D47*%
X140850000Y-58300000D02*
X140650000Y-58100000D01*
X140850000Y-57900000D01*
X140850000Y-58300000D01*
G36*
X140850000Y-58300000D02*
G01*
X140650000Y-58100000D01*
X140850000Y-57900000D01*
X140850000Y-58300000D01*
G37*
D16*
%TO.C,L1*%
X137344748Y-82921000D02*
X137867252Y-82921000D01*
X137344748Y-85141000D02*
X137867252Y-85141000D01*
D15*
%TO.C,D141*%
X136250000Y-72100000D02*
X136050000Y-71900000D01*
X136250000Y-71700000D01*
X136250000Y-72100000D01*
G36*
X136250000Y-72100000D02*
G01*
X136050000Y-71900000D01*
X136250000Y-71700000D01*
X136250000Y-72100000D01*
G37*
D16*
%TO.C,SW8*%
X108760000Y-97870000D02*
X108760000Y-97990000D01*
X108760000Y-99000000D02*
X108760000Y-100140000D01*
X108760000Y-101150000D02*
X108760000Y-101270000D01*
X108760000Y-101270000D02*
X113160000Y-101270000D01*
X113160000Y-97870000D02*
X108760000Y-97870000D01*
X113160000Y-97990000D02*
X113160000Y-97870000D01*
X113160000Y-100140000D02*
X113160000Y-99000000D01*
X113160000Y-101270000D02*
X113160000Y-101150000D01*
%TO.C,R11*%
X141353641Y-88020000D02*
X141046359Y-88020000D01*
X141353641Y-88780000D02*
X141046359Y-88780000D01*
D15*
%TO.C,D132*%
X115550000Y-72100000D02*
X115350000Y-71900000D01*
X115550000Y-71700000D01*
X115550000Y-72100000D01*
G36*
X115550000Y-72100000D02*
G01*
X115350000Y-71900000D01*
X115550000Y-71700000D01*
X115550000Y-72100000D01*
G37*
D16*
%TO.C,SW2*%
X112350000Y-91650000D02*
X112350000Y-91770000D01*
X112350000Y-92780000D02*
X112350000Y-93920000D01*
X112350000Y-94930000D02*
X112350000Y-95050000D01*
X112350000Y-95050000D02*
X116750000Y-95050000D01*
X116750000Y-91650000D02*
X112350000Y-91650000D01*
X116750000Y-91770000D02*
X116750000Y-91650000D01*
X116750000Y-93920000D02*
X116750000Y-92780000D01*
X116750000Y-95050000D02*
X116750000Y-94930000D01*
D15*
%TO.C,D42*%
X129350000Y-58300000D02*
X129150000Y-58100000D01*
X129350000Y-57900000D01*
X129350000Y-58300000D01*
G36*
X129350000Y-58300000D02*
G01*
X129150000Y-58100000D01*
X129350000Y-57900000D01*
X129350000Y-58300000D01*
G37*
D16*
%TO.C,R13*%
X141046359Y-91970000D02*
X141353641Y-91970000D01*
X141046359Y-92730000D02*
X141353641Y-92730000D01*
%TO.C,C1*%
X116542164Y-51440000D02*
X116757836Y-51440000D01*
X116542164Y-52160000D02*
X116757836Y-52160000D01*
D15*
%TO.C,D137*%
X127050000Y-72100000D02*
X126850000Y-71900000D01*
X127050000Y-71700000D01*
X127050000Y-72100000D01*
G36*
X127050000Y-72100000D02*
G01*
X126850000Y-71900000D01*
X127050000Y-71700000D01*
X127050000Y-72100000D01*
G37*
%TO.C,D69*%
X117850000Y-62900000D02*
X117650000Y-62700000D01*
X117850000Y-62500000D01*
X117850000Y-62900000D01*
G36*
X117850000Y-62900000D02*
G01*
X117650000Y-62700000D01*
X117850000Y-62500000D01*
X117850000Y-62900000D01*
G37*
D16*
%TO.C,C32*%
X135042164Y-85640000D02*
X135257836Y-85640000D01*
X135042164Y-86360000D02*
X135257836Y-86360000D01*
D15*
%TO.C,D174*%
X138550000Y-76700000D02*
X138350000Y-76500000D01*
X138550000Y-76300000D01*
X138550000Y-76700000D01*
G36*
X138550000Y-76700000D02*
G01*
X138350000Y-76500000D01*
X138550000Y-76300000D01*
X138550000Y-76700000D01*
G37*
%TO.C,D123*%
X131650000Y-69800000D02*
X131450000Y-69600000D01*
X131650000Y-69400000D01*
X131650000Y-69800000D01*
G36*
X131650000Y-69800000D02*
G01*
X131450000Y-69600000D01*
X131650000Y-69400000D01*
X131650000Y-69800000D01*
G37*
%TO.C,D62*%
X138550000Y-60600000D02*
X138350000Y-60400000D01*
X138550000Y-60200000D01*
X138550000Y-60600000D01*
G36*
X138550000Y-60600000D02*
G01*
X138350000Y-60400000D01*
X138550000Y-60200000D01*
X138550000Y-60600000D01*
G37*
D16*
%TO.C,D196*%
X115340000Y-80100000D02*
X117300000Y-80100000D01*
X115340000Y-81300000D02*
X117300000Y-81300000D01*
X117300000Y-81300000D02*
X117300000Y-80100000D01*
D15*
%TO.C,D77*%
X136250000Y-62900000D02*
X136050000Y-62700000D01*
X136250000Y-62500000D01*
X136250000Y-62900000D01*
G36*
X136250000Y-62900000D02*
G01*
X136050000Y-62700000D01*
X136250000Y-62500000D01*
X136250000Y-62900000D01*
G37*
%TO.C,D31*%
X140850000Y-56000000D02*
X140650000Y-55800000D01*
X140850000Y-55600000D01*
X140850000Y-56000000D01*
G36*
X140850000Y-56000000D02*
G01*
X140650000Y-55800000D01*
X140850000Y-55600000D01*
X140850000Y-56000000D01*
G37*
%TO.C,D128*%
X143150000Y-69800000D02*
X142950000Y-69600000D01*
X143150000Y-69400000D01*
X143150000Y-69800000D01*
G36*
X143150000Y-69800000D02*
G01*
X142950000Y-69600000D01*
X143150000Y-69400000D01*
X143150000Y-69800000D01*
G37*
%TO.C,D66*%
X110950000Y-62900000D02*
X110750000Y-62700000D01*
X110950000Y-62500000D01*
X110950000Y-62900000D01*
G36*
X110950000Y-62900000D02*
G01*
X110750000Y-62700000D01*
X110950000Y-62500000D01*
X110950000Y-62900000D01*
G37*
%TO.C,D91*%
X131650000Y-65200000D02*
X131450000Y-65000000D01*
X131650000Y-64800000D01*
X131650000Y-65200000D01*
G36*
X131650000Y-65200000D02*
G01*
X131450000Y-65000000D01*
X131650000Y-64800000D01*
X131650000Y-65200000D01*
G37*
%TO.C,D23*%
X122450000Y-56000000D02*
X122250000Y-55800000D01*
X122450000Y-55600000D01*
X122450000Y-56000000D01*
G36*
X122450000Y-56000000D02*
G01*
X122250000Y-55800000D01*
X122450000Y-55600000D01*
X122450000Y-56000000D01*
G37*
%TO.C,D21*%
X117850000Y-56000000D02*
X117650000Y-55800000D01*
X117850000Y-55600000D01*
X117850000Y-56000000D01*
G36*
X117850000Y-56000000D02*
G01*
X117650000Y-55800000D01*
X117850000Y-55600000D01*
X117850000Y-56000000D01*
G37*
%TO.C,D122*%
X129350000Y-69800000D02*
X129150000Y-69600000D01*
X129350000Y-69400000D01*
X129350000Y-69800000D01*
G36*
X129350000Y-69800000D02*
G01*
X129150000Y-69600000D01*
X129350000Y-69400000D01*
X129350000Y-69800000D01*
G37*
%TO.C,D81*%
X108650000Y-65200000D02*
X108450000Y-65000000D01*
X108650000Y-64800000D01*
X108650000Y-65200000D01*
G36*
X108650000Y-65200000D02*
G01*
X108450000Y-65000000D01*
X108650000Y-64800000D01*
X108650000Y-65200000D01*
G37*
%TO.C,D101*%
X117850000Y-67500000D02*
X117650000Y-67300000D01*
X117850000Y-67100000D01*
X117850000Y-67500000D01*
G36*
X117850000Y-67500000D02*
G01*
X117650000Y-67300000D01*
X117850000Y-67100000D01*
X117850000Y-67500000D01*
G37*
%TO.C,D164*%
X115550000Y-76700000D02*
X115350000Y-76500000D01*
X115550000Y-76300000D01*
X115550000Y-76700000D01*
G36*
X115550000Y-76700000D02*
G01*
X115350000Y-76500000D01*
X115550000Y-76300000D01*
X115550000Y-76700000D01*
G37*
%TO.C,D140*%
X133950000Y-72100000D02*
X133750000Y-71900000D01*
X133950000Y-71700000D01*
X133950000Y-72100000D01*
G36*
X133950000Y-72100000D02*
G01*
X133750000Y-71900000D01*
X133950000Y-71700000D01*
X133950000Y-72100000D01*
G37*
%TO.C,D136*%
X124750000Y-72100000D02*
X124550000Y-71900000D01*
X124750000Y-71700000D01*
X124750000Y-72100000D01*
G36*
X124750000Y-72100000D02*
G01*
X124550000Y-71900000D01*
X124750000Y-71700000D01*
X124750000Y-72100000D01*
G37*
D16*
%TO.C,J3*%
X122330000Y-97820000D02*
X122330000Y-96120000D01*
X131670000Y-97820000D02*
X131670000Y-96120000D01*
D15*
%TO.C,D104*%
X124750000Y-67500000D02*
X124550000Y-67300000D01*
X124750000Y-67100000D01*
X124750000Y-67500000D01*
G36*
X124750000Y-67500000D02*
G01*
X124550000Y-67300000D01*
X124750000Y-67100000D01*
X124750000Y-67500000D01*
G37*
%TO.C,D55*%
X122450000Y-60600000D02*
X122250000Y-60400000D01*
X122450000Y-60200000D01*
X122450000Y-60600000D01*
G36*
X122450000Y-60600000D02*
G01*
X122250000Y-60400000D01*
X122450000Y-60200000D01*
X122450000Y-60600000D01*
G37*
%TO.C,D50*%
X110950000Y-60600000D02*
X110750000Y-60400000D01*
X110950000Y-60200000D01*
X110950000Y-60600000D01*
G36*
X110950000Y-60600000D02*
G01*
X110750000Y-60400000D01*
X110950000Y-60200000D01*
X110950000Y-60600000D01*
G37*
%TO.C,D160*%
X143150000Y-74400000D02*
X142950000Y-74200000D01*
X143150000Y-74000000D01*
X143150000Y-74400000D01*
G36*
X143150000Y-74400000D02*
G01*
X142950000Y-74200000D01*
X143150000Y-74000000D01*
X143150000Y-74400000D01*
G37*
D16*
%TO.C,SW3*%
X108765000Y-87955000D02*
X108765000Y-88075000D01*
X108765000Y-89085000D02*
X108765000Y-90225000D01*
X108765000Y-91235000D02*
X108765000Y-91355000D01*
X108765000Y-91355000D02*
X113165000Y-91355000D01*
X113165000Y-87955000D02*
X108765000Y-87955000D01*
X113165000Y-88075000D02*
X113165000Y-87955000D01*
X113165000Y-90225000D02*
X113165000Y-89085000D01*
X113165000Y-91355000D02*
X113165000Y-91235000D01*
%TO.C,R9*%
X135814241Y-81070000D02*
X135506959Y-81070000D01*
X135814241Y-81830000D02*
X135506959Y-81830000D01*
D15*
%TO.C,D190*%
X138550000Y-79000000D02*
X138350000Y-78800000D01*
X138550000Y-78600000D01*
X138550000Y-79000000D01*
G36*
X138550000Y-79000000D02*
G01*
X138350000Y-78800000D01*
X138550000Y-78600000D01*
X138550000Y-79000000D01*
G37*
%TO.C,D153*%
X127050000Y-74400000D02*
X126850000Y-74200000D01*
X127050000Y-74000000D01*
X127050000Y-74400000D01*
G36*
X127050000Y-74400000D02*
G01*
X126850000Y-74200000D01*
X127050000Y-74000000D01*
X127050000Y-74400000D01*
G37*
%TO.C,D61*%
X136250000Y-60600000D02*
X136050000Y-60400000D01*
X136250000Y-60200000D01*
X136250000Y-60600000D01*
G36*
X136250000Y-60600000D02*
G01*
X136050000Y-60400000D01*
X136250000Y-60200000D01*
X136250000Y-60600000D01*
G37*
%TO.C,D98*%
X110950000Y-67500000D02*
X110750000Y-67300000D01*
X110950000Y-67100000D01*
X110950000Y-67500000D01*
G36*
X110950000Y-67500000D02*
G01*
X110750000Y-67300000D01*
X110950000Y-67100000D01*
X110950000Y-67500000D01*
G37*
D16*
%TO.C,C18*%
X131119190Y-92528307D02*
X131271693Y-92680810D01*
X131628307Y-92019190D02*
X131780810Y-92171693D01*
D15*
%TO.C,D59*%
X131650000Y-60600000D02*
X131450000Y-60400000D01*
X131650000Y-60200000D01*
X131650000Y-60600000D01*
G36*
X131650000Y-60600000D02*
G01*
X131450000Y-60400000D01*
X131650000Y-60200000D01*
X131650000Y-60600000D01*
G37*
D16*
%TO.C,C17*%
X127140000Y-92142164D02*
X127140000Y-92357836D01*
X127860000Y-92142164D02*
X127860000Y-92357836D01*
D15*
%TO.C,D178*%
X110950000Y-79000000D02*
X110750000Y-78800000D01*
X110950000Y-78600000D01*
X110950000Y-79000000D01*
G36*
X110950000Y-79000000D02*
G01*
X110750000Y-78800000D01*
X110950000Y-78600000D01*
X110950000Y-79000000D01*
G37*
D16*
%TO.C,R16*%
X116203641Y-82890000D02*
X115896359Y-82890000D01*
X116203641Y-83650000D02*
X115896359Y-83650000D01*
%TO.C,C27*%
X141725600Y-81592748D02*
X141725600Y-82115252D01*
X143195600Y-81592748D02*
X143195600Y-82115252D01*
D15*
%TO.C,D64*%
X143150000Y-60600000D02*
X142950000Y-60400000D01*
X143150000Y-60200000D01*
X143150000Y-60600000D01*
G36*
X143150000Y-60600000D02*
G01*
X142950000Y-60400000D01*
X143150000Y-60200000D01*
X143150000Y-60600000D01*
G37*
%TO.C,D185*%
X127050000Y-79000000D02*
X126850000Y-78800000D01*
X127050000Y-78600000D01*
X127050000Y-79000000D01*
G36*
X127050000Y-79000000D02*
G01*
X126850000Y-78800000D01*
X127050000Y-78600000D01*
X127050000Y-79000000D01*
G37*
%TO.C,D135*%
X122450000Y-72100000D02*
X122250000Y-71900000D01*
X122450000Y-71700000D01*
X122450000Y-72100000D01*
G36*
X122450000Y-72100000D02*
G01*
X122250000Y-71900000D01*
X122450000Y-71700000D01*
X122450000Y-72100000D01*
G37*
%TO.C,D176*%
X143150000Y-76700000D02*
X142950000Y-76500000D01*
X143150000Y-76300000D01*
X143150000Y-76700000D01*
G36*
X143150000Y-76700000D02*
G01*
X142950000Y-76500000D01*
X143150000Y-76300000D01*
X143150000Y-76700000D01*
G37*
D16*
%TO.C,C30*%
X134790000Y-82857836D02*
X134790000Y-82642164D01*
X135510000Y-82857836D02*
X135510000Y-82642164D01*
D15*
%TO.C,D110*%
X138550000Y-67500000D02*
X138350000Y-67300000D01*
X138550000Y-67100000D01*
X138550000Y-67500000D01*
G36*
X138550000Y-67500000D02*
G01*
X138350000Y-67300000D01*
X138550000Y-67100000D01*
X138550000Y-67500000D01*
G37*
%TO.C,D165*%
X117850000Y-76700000D02*
X117650000Y-76500000D01*
X117850000Y-76300000D01*
X117850000Y-76700000D01*
G36*
X117850000Y-76700000D02*
G01*
X117650000Y-76500000D01*
X117850000Y-76300000D01*
X117850000Y-76700000D01*
G37*
%TO.C,D40*%
X124750000Y-58300000D02*
X124550000Y-58100000D01*
X124750000Y-57900000D01*
X124750000Y-58300000D01*
G36*
X124750000Y-58300000D02*
G01*
X124550000Y-58100000D01*
X124750000Y-57900000D01*
X124750000Y-58300000D01*
G37*
D16*
%TO.C,R8*%
X128920000Y-92403641D02*
X128920000Y-92096359D01*
X129680000Y-92403641D02*
X129680000Y-92096359D01*
D15*
%TO.C,D116*%
X115550000Y-69800000D02*
X115350000Y-69600000D01*
X115550000Y-69400000D01*
X115550000Y-69800000D01*
G36*
X115550000Y-69800000D02*
G01*
X115350000Y-69600000D01*
X115550000Y-69400000D01*
X115550000Y-69800000D01*
G37*
%TO.C,D167*%
X122450000Y-76700000D02*
X122250000Y-76500000D01*
X122450000Y-76300000D01*
X122450000Y-76700000D01*
G36*
X122450000Y-76700000D02*
G01*
X122250000Y-76500000D01*
X122450000Y-76300000D01*
X122450000Y-76700000D01*
G37*
%TO.C,D103*%
X122450000Y-67500000D02*
X122250000Y-67300000D01*
X122450000Y-67100000D01*
X122450000Y-67500000D01*
G36*
X122450000Y-67500000D02*
G01*
X122250000Y-67300000D01*
X122450000Y-67100000D01*
X122450000Y-67500000D01*
G37*
%TO.C,D161*%
X108650000Y-76700000D02*
X108450000Y-76500000D01*
X108650000Y-76300000D01*
X108650000Y-76700000D01*
G36*
X108650000Y-76700000D02*
G01*
X108450000Y-76500000D01*
X108650000Y-76300000D01*
X108650000Y-76700000D01*
G37*
%TO.C,D12*%
X133950000Y-53700000D02*
X133750000Y-53500000D01*
X133950000Y-53300000D01*
X133950000Y-53700000D01*
G36*
X133950000Y-53700000D02*
G01*
X133750000Y-53500000D01*
X133950000Y-53300000D01*
X133950000Y-53700000D01*
G37*
%TO.C,D28*%
X133950000Y-56000000D02*
X133750000Y-55800000D01*
X133950000Y-55600000D01*
X133950000Y-56000000D01*
G36*
X133950000Y-56000000D02*
G01*
X133750000Y-55800000D01*
X133950000Y-55600000D01*
X133950000Y-56000000D01*
G37*
D16*
%TO.C,C25*%
X126215000Y-92142164D02*
X126215000Y-92357836D01*
X126935000Y-92142164D02*
X126935000Y-92357836D01*
%TO.C,C6*%
X128042164Y-51440000D02*
X128257836Y-51440000D01*
X128042164Y-52160000D02*
X128257836Y-52160000D01*
D15*
%TO.C,D89*%
X127050000Y-65200000D02*
X126850000Y-65000000D01*
X127050000Y-64800000D01*
X127050000Y-65200000D01*
G36*
X127050000Y-65200000D02*
G01*
X126850000Y-65000000D01*
X127050000Y-64800000D01*
X127050000Y-65200000D01*
G37*
%TO.C,D168*%
X124750000Y-76700000D02*
X124550000Y-76500000D01*
X124750000Y-76300000D01*
X124750000Y-76700000D01*
G36*
X124750000Y-76700000D02*
G01*
X124550000Y-76500000D01*
X124750000Y-76300000D01*
X124750000Y-76700000D01*
G37*
%TO.C,D95*%
X140850000Y-65200000D02*
X140650000Y-65000000D01*
X140850000Y-64800000D01*
X140850000Y-65200000D01*
G36*
X140850000Y-65200000D02*
G01*
X140650000Y-65000000D01*
X140850000Y-64800000D01*
X140850000Y-65200000D01*
G37*
%TO.C,D51*%
X113250000Y-60600000D02*
X113050000Y-60400000D01*
X113250000Y-60200000D01*
X113250000Y-60600000D01*
G36*
X113250000Y-60600000D02*
G01*
X113050000Y-60400000D01*
X113250000Y-60200000D01*
X113250000Y-60600000D01*
G37*
%TO.C,D118*%
X120150000Y-69800000D02*
X119950000Y-69600000D01*
X120150000Y-69400000D01*
X120150000Y-69800000D01*
G36*
X120150000Y-69800000D02*
G01*
X119950000Y-69600000D01*
X120150000Y-69400000D01*
X120150000Y-69800000D01*
G37*
%TO.C,D13*%
X136250000Y-53700000D02*
X136050000Y-53500000D01*
X136250000Y-53300000D01*
X136250000Y-53700000D01*
G36*
X136250000Y-53700000D02*
G01*
X136050000Y-53500000D01*
X136250000Y-53300000D01*
X136250000Y-53700000D01*
G37*
D16*
%TO.C,Y1*%
X130600000Y-79940000D02*
X130600000Y-83140000D01*
X130600000Y-83140000D02*
X134600000Y-83140000D01*
%TO.C,SW1*%
X112350000Y-84250000D02*
X112350000Y-84370000D01*
X112350000Y-85380000D02*
X112350000Y-86520000D01*
X112350000Y-87530000D02*
X112350000Y-87650000D01*
X112350000Y-87650000D02*
X116750000Y-87650000D01*
X116750000Y-84250000D02*
X112350000Y-84250000D01*
X116750000Y-84370000D02*
X116750000Y-84250000D01*
X116750000Y-86520000D02*
X116750000Y-85380000D01*
X116750000Y-87650000D02*
X116750000Y-87530000D01*
D15*
%TO.C,D92*%
X133950000Y-65200000D02*
X133750000Y-65000000D01*
X133950000Y-64800000D01*
X133950000Y-65200000D01*
G36*
X133950000Y-65200000D02*
G01*
X133750000Y-65000000D01*
X133950000Y-64800000D01*
X133950000Y-65200000D01*
G37*
%TO.C,D119*%
X122450000Y-69800000D02*
X122250000Y-69600000D01*
X122450000Y-69400000D01*
X122450000Y-69800000D01*
G36*
X122450000Y-69800000D02*
G01*
X122250000Y-69600000D01*
X122450000Y-69400000D01*
X122450000Y-69800000D01*
G37*
%TO.C,D27*%
X131650000Y-56000000D02*
X131450000Y-55800000D01*
X131650000Y-55600000D01*
X131650000Y-56000000D01*
G36*
X131650000Y-56000000D02*
G01*
X131450000Y-55800000D01*
X131650000Y-55600000D01*
X131650000Y-56000000D01*
G37*
%TO.C,D187*%
X131650000Y-79000000D02*
X131450000Y-78800000D01*
X131650000Y-78600000D01*
X131650000Y-79000000D01*
G36*
X131650000Y-79000000D02*
G01*
X131450000Y-78800000D01*
X131650000Y-78600000D01*
X131650000Y-79000000D01*
G37*
%TO.C,D30*%
X138550000Y-56000000D02*
X138350000Y-55800000D01*
X138550000Y-55600000D01*
X138550000Y-56000000D01*
G36*
X138550000Y-56000000D02*
G01*
X138350000Y-55800000D01*
X138550000Y-55600000D01*
X138550000Y-56000000D01*
G37*
D16*
%TO.C,C8*%
X132642164Y-51440000D02*
X132857836Y-51440000D01*
X132642164Y-52160000D02*
X132857836Y-52160000D01*
D15*
%TO.C,D16*%
X143150000Y-53700000D02*
X142950000Y-53500000D01*
X143150000Y-53300000D01*
X143150000Y-53700000D01*
G36*
X143150000Y-53700000D02*
G01*
X142950000Y-53500000D01*
X143150000Y-53300000D01*
X143150000Y-53700000D01*
G37*
%TO.C,D24*%
X124750000Y-56000000D02*
X124550000Y-55800000D01*
X124750000Y-55600000D01*
X124750000Y-56000000D01*
G36*
X124750000Y-56000000D02*
G01*
X124550000Y-55800000D01*
X124750000Y-55600000D01*
X124750000Y-56000000D01*
G37*
%TO.C,D3*%
X113250000Y-53700000D02*
X113050000Y-53500000D01*
X113250000Y-53300000D01*
X113250000Y-53700000D01*
G36*
X113250000Y-53700000D02*
G01*
X113050000Y-53500000D01*
X113250000Y-53300000D01*
X113250000Y-53700000D01*
G37*
D16*
%TO.C,R2*%
X134996359Y-86570000D02*
X135303641Y-86570000D01*
X134996359Y-87330000D02*
X135303641Y-87330000D01*
%TO.C,C22*%
X139542164Y-51440000D02*
X139757836Y-51440000D01*
X139542164Y-52160000D02*
X139757836Y-52160000D01*
D15*
%TO.C,D115*%
X113250000Y-69800000D02*
X113050000Y-69600000D01*
X113250000Y-69400000D01*
X113250000Y-69800000D01*
G36*
X113250000Y-69800000D02*
G01*
X113050000Y-69600000D01*
X113250000Y-69400000D01*
X113250000Y-69800000D01*
G37*
%TO.C,D154*%
X129350000Y-74400000D02*
X129150000Y-74200000D01*
X129350000Y-74000000D01*
X129350000Y-74400000D01*
G36*
X129350000Y-74400000D02*
G01*
X129150000Y-74200000D01*
X129350000Y-74000000D01*
X129350000Y-74400000D01*
G37*
D16*
%TO.C,C3*%
X121142164Y-51440000D02*
X121357836Y-51440000D01*
X121142164Y-52160000D02*
X121357836Y-52160000D01*
%TO.C,R17*%
X124166359Y-80020000D02*
X124473641Y-80020000D01*
X124166359Y-80780000D02*
X124473641Y-80780000D01*
D15*
%TO.C,D138*%
X129350000Y-72100000D02*
X129150000Y-71900000D01*
X129350000Y-71700000D01*
X129350000Y-72100000D01*
G36*
X129350000Y-72100000D02*
G01*
X129150000Y-71900000D01*
X129350000Y-71700000D01*
X129350000Y-72100000D01*
G37*
D16*
%TO.C,R18*%
X125070000Y-84156359D02*
X125070000Y-84463641D01*
X125830000Y-84156359D02*
X125830000Y-84463641D01*
D15*
%TO.C,D102*%
X120150000Y-67500000D02*
X119950000Y-67300000D01*
X120150000Y-67100000D01*
X120150000Y-67500000D01*
G36*
X120150000Y-67500000D02*
G01*
X119950000Y-67300000D01*
X120150000Y-67100000D01*
X120150000Y-67500000D01*
G37*
D16*
%TO.C,C26*%
X125090000Y-86592164D02*
X125090000Y-86807836D01*
X125810000Y-86592164D02*
X125810000Y-86807836D01*
%TO.C,U3*%
X125390000Y-82894000D02*
X125390000Y-82719000D01*
X126065000Y-80174000D02*
X125690000Y-80174000D01*
X126065000Y-82894000D02*
X125390000Y-82894000D01*
X127935000Y-80174000D02*
X128610000Y-80174000D01*
X127935000Y-82894000D02*
X128610000Y-82894000D01*
X128610000Y-80174000D02*
X128610000Y-80349000D01*
X128610000Y-82894000D02*
X128610000Y-82719000D01*
X125390000Y-80174000D02*
X125250000Y-79984000D01*
X125530000Y-79984000D01*
X125390000Y-80174000D01*
G36*
X125390000Y-80174000D02*
G01*
X125250000Y-79984000D01*
X125530000Y-79984000D01*
X125390000Y-80174000D01*
G37*
D15*
%TO.C,D37*%
X117850000Y-58300000D02*
X117650000Y-58100000D01*
X117850000Y-57900000D01*
X117850000Y-58300000D01*
G36*
X117850000Y-58300000D02*
G01*
X117650000Y-58100000D01*
X117850000Y-57900000D01*
X117850000Y-58300000D01*
G37*
D16*
%TO.C,C24*%
X141842164Y-51440000D02*
X142057836Y-51440000D01*
X141842164Y-52160000D02*
X142057836Y-52160000D01*
%TO.C,U1*%
X141500000Y-83740000D02*
X140850000Y-83740000D01*
X141500000Y-83740000D02*
X142150000Y-83740000D01*
X141500000Y-86860000D02*
X140850000Y-86860000D01*
X141500000Y-86860000D02*
X142150000Y-86860000D01*
X140337500Y-83790000D02*
X140097500Y-83460000D01*
X140577500Y-83460000D01*
X140337500Y-83790000D01*
G36*
X140337500Y-83790000D02*
G01*
X140097500Y-83460000D01*
X140577500Y-83460000D01*
X140337500Y-83790000D01*
G37*
D15*
%TO.C,D188*%
X133950000Y-79000000D02*
X133750000Y-78800000D01*
X133950000Y-78600000D01*
X133950000Y-79000000D01*
G36*
X133950000Y-79000000D02*
G01*
X133750000Y-78800000D01*
X133950000Y-78600000D01*
X133950000Y-79000000D01*
G37*
%TO.C,D44*%
X133950000Y-58300000D02*
X133750000Y-58100000D01*
X133950000Y-57900000D01*
X133950000Y-58300000D01*
G36*
X133950000Y-58300000D02*
G01*
X133750000Y-58100000D01*
X133950000Y-57900000D01*
X133950000Y-58300000D01*
G37*
%TO.C,D121*%
X127050000Y-69800000D02*
X126850000Y-69600000D01*
X127050000Y-69400000D01*
X127050000Y-69800000D01*
G36*
X127050000Y-69800000D02*
G01*
X126850000Y-69600000D01*
X127050000Y-69400000D01*
X127050000Y-69800000D01*
G37*
%TO.C,D108*%
X133950000Y-67500000D02*
X133750000Y-67300000D01*
X133950000Y-67100000D01*
X133950000Y-67500000D01*
G36*
X133950000Y-67500000D02*
G01*
X133750000Y-67300000D01*
X133950000Y-67100000D01*
X133950000Y-67500000D01*
G37*
%TO.C,D169*%
X127050000Y-76700000D02*
X126850000Y-76500000D01*
X127050000Y-76300000D01*
X127050000Y-76700000D01*
G36*
X127050000Y-76700000D02*
G01*
X126850000Y-76500000D01*
X127050000Y-76300000D01*
X127050000Y-76700000D01*
G37*
%TO.C,D149*%
X117850000Y-74400000D02*
X117650000Y-74200000D01*
X117850000Y-74000000D01*
X117850000Y-74400000D01*
G36*
X117850000Y-74400000D02*
G01*
X117650000Y-74200000D01*
X117850000Y-74000000D01*
X117850000Y-74400000D01*
G37*
D16*
%TO.C,C10*%
X137242164Y-51440000D02*
X137457836Y-51440000D01*
X137242164Y-52160000D02*
X137457836Y-52160000D01*
D15*
%TO.C,D150*%
X120150000Y-74400000D02*
X119950000Y-74200000D01*
X120150000Y-74000000D01*
X120150000Y-74400000D01*
G36*
X120150000Y-74400000D02*
G01*
X119950000Y-74200000D01*
X120150000Y-74000000D01*
X120150000Y-74400000D01*
G37*
D16*
%TO.C,D199*%
X117640000Y-93700000D02*
X117640000Y-94900000D01*
X119600000Y-93700000D02*
X117640000Y-93700000D01*
X119600000Y-94900000D02*
X117640000Y-94900000D01*
%TO.C,R10*%
X128020000Y-92403641D02*
X128020000Y-92096359D01*
X128780000Y-92403641D02*
X128780000Y-92096359D01*
%TO.C,SW6*%
X142250000Y-88150000D02*
X142250000Y-92550000D01*
X142250000Y-92550000D02*
X142370000Y-92550000D01*
X142370000Y-88150000D02*
X142250000Y-88150000D01*
X143380000Y-92550000D02*
X144520000Y-92550000D01*
X144520000Y-88150000D02*
X143380000Y-88150000D01*
X145530000Y-92550000D02*
X145650000Y-92550000D01*
X145650000Y-88150000D02*
X145530000Y-88150000D01*
X145650000Y-92550000D02*
X145650000Y-88150000D01*
D15*
%TO.C,D8*%
X124750000Y-53700000D02*
X124550000Y-53500000D01*
X124750000Y-53300000D01*
X124750000Y-53700000D01*
G36*
X124750000Y-53700000D02*
G01*
X124550000Y-53500000D01*
X124750000Y-53300000D01*
X124750000Y-53700000D01*
G37*
%TO.C,D144*%
X143150000Y-72100000D02*
X142950000Y-71900000D01*
X143150000Y-71700000D01*
X143150000Y-72100000D01*
G36*
X143150000Y-72100000D02*
G01*
X142950000Y-71900000D01*
X143150000Y-71700000D01*
X143150000Y-72100000D01*
G37*
%TO.C,D52*%
X115550000Y-60600000D02*
X115350000Y-60400000D01*
X115550000Y-60200000D01*
X115550000Y-60600000D01*
G36*
X115550000Y-60600000D02*
G01*
X115350000Y-60400000D01*
X115550000Y-60200000D01*
X115550000Y-60600000D01*
G37*
%TO.C,D152*%
X124750000Y-74400000D02*
X124550000Y-74200000D01*
X124750000Y-74000000D01*
X124750000Y-74400000D01*
G36*
X124750000Y-74400000D02*
G01*
X124550000Y-74200000D01*
X124750000Y-74000000D01*
X124750000Y-74400000D01*
G37*
%TO.C,D58*%
X129350000Y-60600000D02*
X129150000Y-60400000D01*
X129350000Y-60200000D01*
X129350000Y-60600000D01*
G36*
X129350000Y-60600000D02*
G01*
X129150000Y-60400000D01*
X129350000Y-60200000D01*
X129350000Y-60600000D01*
G37*
%TO.C,D109*%
X136250000Y-67500000D02*
X136050000Y-67300000D01*
X136250000Y-67100000D01*
X136250000Y-67500000D01*
G36*
X136250000Y-67500000D02*
G01*
X136050000Y-67300000D01*
X136250000Y-67100000D01*
X136250000Y-67500000D01*
G37*
D16*
%TO.C,R15*%
X113046359Y-82890000D02*
X113353641Y-82890000D01*
X113046359Y-83650000D02*
X113353641Y-83650000D01*
D15*
%TO.C,D131*%
X113250000Y-72100000D02*
X113050000Y-71900000D01*
X113250000Y-71700000D01*
X113250000Y-72100000D01*
G36*
X113250000Y-72100000D02*
G01*
X113050000Y-71900000D01*
X113250000Y-71700000D01*
X113250000Y-72100000D01*
G37*
%TO.C,D166*%
X120150000Y-76700000D02*
X119950000Y-76500000D01*
X120150000Y-76300000D01*
X120150000Y-76700000D01*
G36*
X120150000Y-76700000D02*
G01*
X119950000Y-76500000D01*
X120150000Y-76300000D01*
X120150000Y-76700000D01*
G37*
%TO.C,D11*%
X131650000Y-53700000D02*
X131450000Y-53500000D01*
X131650000Y-53300000D01*
X131650000Y-53700000D01*
G36*
X131650000Y-53700000D02*
G01*
X131450000Y-53500000D01*
X131650000Y-53300000D01*
X131650000Y-53700000D01*
G37*
D16*
%TO.C,R14*%
X134996359Y-87620000D02*
X135303641Y-87620000D01*
X134996359Y-88380000D02*
X135303641Y-88380000D01*
D15*
%TO.C,D124*%
X133950000Y-69800000D02*
X133750000Y-69600000D01*
X133950000Y-69400000D01*
X133950000Y-69800000D01*
G36*
X133950000Y-69800000D02*
G01*
X133750000Y-69600000D01*
X133950000Y-69400000D01*
X133950000Y-69800000D01*
G37*
%TO.C,D49*%
X108650000Y-60600000D02*
X108450000Y-60400000D01*
X108650000Y-60200000D01*
X108650000Y-60600000D01*
G36*
X108650000Y-60600000D02*
G01*
X108450000Y-60400000D01*
X108650000Y-60200000D01*
X108650000Y-60600000D01*
G37*
%TO.C,D14*%
X138550000Y-53700000D02*
X138350000Y-53500000D01*
X138550000Y-53300000D01*
X138550000Y-53700000D01*
G36*
X138550000Y-53700000D02*
G01*
X138350000Y-53500000D01*
X138550000Y-53300000D01*
X138550000Y-53700000D01*
G37*
D16*
%TO.C,C5*%
X125742164Y-51440000D02*
X125957836Y-51440000D01*
X125742164Y-52160000D02*
X125957836Y-52160000D01*
D15*
%TO.C,D184*%
X124750000Y-79000000D02*
X124550000Y-78800000D01*
X124750000Y-78600000D01*
X124750000Y-79000000D01*
G36*
X124750000Y-79000000D02*
G01*
X124550000Y-78800000D01*
X124750000Y-78600000D01*
X124750000Y-79000000D01*
G37*
%TO.C,D20*%
X115550000Y-56000000D02*
X115350000Y-55800000D01*
X115550000Y-55600000D01*
X115550000Y-56000000D01*
G36*
X115550000Y-56000000D02*
G01*
X115350000Y-55800000D01*
X115550000Y-55600000D01*
X115550000Y-56000000D01*
G37*
%TO.C,D90*%
X129350000Y-65200000D02*
X129150000Y-65000000D01*
X129350000Y-64800000D01*
X129350000Y-65200000D01*
G36*
X129350000Y-65200000D02*
G01*
X129150000Y-65000000D01*
X129350000Y-64800000D01*
X129350000Y-65200000D01*
G37*
%TO.C,D79*%
X140850000Y-62900000D02*
X140650000Y-62700000D01*
X140850000Y-62500000D01*
X140850000Y-62900000D01*
G36*
X140850000Y-62900000D02*
G01*
X140650000Y-62700000D01*
X140850000Y-62500000D01*
X140850000Y-62900000D01*
G37*
D16*
%TO.C,R6*%
X135814241Y-80070000D02*
X135506959Y-80070000D01*
X135814241Y-80830000D02*
X135506959Y-80830000D01*
D15*
%TO.C,D151*%
X122450000Y-74400000D02*
X122250000Y-74200000D01*
X122450000Y-74000000D01*
X122450000Y-74400000D01*
G36*
X122450000Y-74400000D02*
G01*
X122250000Y-74200000D01*
X122450000Y-74000000D01*
X122450000Y-74400000D01*
G37*
%TO.C,D134*%
X120150000Y-72100000D02*
X119950000Y-71900000D01*
X120150000Y-71700000D01*
X120150000Y-72100000D01*
G36*
X120150000Y-72100000D02*
G01*
X119950000Y-71900000D01*
X120150000Y-71700000D01*
X120150000Y-72100000D01*
G37*
%TO.C,D9*%
X127050000Y-53700000D02*
X126850000Y-53500000D01*
X127050000Y-53300000D01*
X127050000Y-53700000D01*
G36*
X127050000Y-53700000D02*
G01*
X126850000Y-53500000D01*
X127050000Y-53300000D01*
X127050000Y-53700000D01*
G37*
%TO.C,D143*%
X140850000Y-72100000D02*
X140650000Y-71900000D01*
X140850000Y-71700000D01*
X140850000Y-72100000D01*
G36*
X140850000Y-72100000D02*
G01*
X140650000Y-71900000D01*
X140850000Y-71700000D01*
X140850000Y-72100000D01*
G37*
%TO.C,D130*%
X110950000Y-72100000D02*
X110750000Y-71900000D01*
X110950000Y-71700000D01*
X110950000Y-72100000D01*
G36*
X110950000Y-72100000D02*
G01*
X110750000Y-71900000D01*
X110950000Y-71700000D01*
X110950000Y-72100000D01*
G37*
D16*
%TO.C,U4*%
X137153200Y-80321000D02*
X139153200Y-80321000D01*
X139153200Y-82541000D02*
X137153200Y-82541000D01*
X139553200Y-82551000D02*
X139553200Y-82271000D01*
X139833200Y-82271000D01*
X139553200Y-82551000D01*
G36*
X139553200Y-82551000D02*
G01*
X139553200Y-82271000D01*
X139833200Y-82271000D01*
X139553200Y-82551000D01*
G37*
%TO.C,C21*%
X129810000Y-92142164D02*
X129810000Y-92357836D01*
X130530000Y-92142164D02*
X130530000Y-92357836D01*
%TO.C,C28*%
X139825600Y-81592748D02*
X139825600Y-82115252D01*
X141295600Y-81592748D02*
X141295600Y-82115252D01*
D15*
%TO.C,D148*%
X115550000Y-74400000D02*
X115350000Y-74200000D01*
X115550000Y-74000000D01*
X115550000Y-74400000D01*
G36*
X115550000Y-74400000D02*
G01*
X115350000Y-74200000D01*
X115550000Y-74000000D01*
X115550000Y-74400000D01*
G37*
D16*
%TO.C,C23*%
X125107836Y-89440000D02*
X124892164Y-89440000D01*
X125107836Y-90160000D02*
X124892164Y-90160000D01*
D15*
%TO.C,D133*%
X117850000Y-72100000D02*
X117650000Y-71900000D01*
X117850000Y-71700000D01*
X117850000Y-72100000D01*
G36*
X117850000Y-72100000D02*
G01*
X117650000Y-71900000D01*
X117850000Y-71700000D01*
X117850000Y-72100000D01*
G37*
%TO.C,D39*%
X122450000Y-58300000D02*
X122250000Y-58100000D01*
X122450000Y-57900000D01*
X122450000Y-58300000D01*
G36*
X122450000Y-58300000D02*
G01*
X122250000Y-58100000D01*
X122450000Y-57900000D01*
X122450000Y-58300000D01*
G37*
D16*
%TO.C,Q1*%
X112520000Y-80240000D02*
X113930000Y-80240000D01*
X112520000Y-82560000D02*
X113930000Y-82560000D01*
X113930000Y-80240000D02*
X113930000Y-80900000D01*
X113930000Y-81900000D02*
X113930000Y-82560000D01*
X112150000Y-80260000D02*
X111910000Y-79930000D01*
X112390000Y-79930000D01*
X112150000Y-80260000D01*
G36*
X112150000Y-80260000D02*
G01*
X111910000Y-79930000D01*
X112390000Y-79930000D01*
X112150000Y-80260000D01*
G37*
D15*
%TO.C,D96*%
X143150000Y-65200000D02*
X142950000Y-65000000D01*
X143150000Y-64800000D01*
X143150000Y-65200000D01*
G36*
X143150000Y-65200000D02*
G01*
X142950000Y-65000000D01*
X143150000Y-64800000D01*
X143150000Y-65200000D01*
G37*
D16*
%TO.C,U6*%
X126440000Y-83590000D02*
X126440000Y-84240000D01*
X126440000Y-90810000D02*
X126440000Y-90160000D01*
X127090000Y-83590000D02*
X126440000Y-83590000D01*
X127090000Y-90810000D02*
X126440000Y-90810000D01*
X133010000Y-83590000D02*
X133660000Y-83590000D01*
X133010000Y-90810000D02*
X133360000Y-90810000D01*
X133660000Y-83590000D02*
X133660000Y-84240000D01*
X133660000Y-90160000D02*
X133660000Y-90570000D01*
X133900000Y-91140000D02*
X133420000Y-91140000D01*
X133660000Y-90810000D01*
X133900000Y-91140000D01*
G36*
X133900000Y-91140000D02*
G01*
X133420000Y-91140000D01*
X133660000Y-90810000D01*
X133900000Y-91140000D01*
G37*
D15*
%TO.C,D127*%
X140850000Y-69800000D02*
X140650000Y-69600000D01*
X140850000Y-69400000D01*
X140850000Y-69800000D01*
G36*
X140850000Y-69800000D02*
G01*
X140650000Y-69600000D01*
X140850000Y-69400000D01*
X140850000Y-69800000D01*
G37*
%TO.C,D182*%
X120150000Y-79000000D02*
X119950000Y-78800000D01*
X120150000Y-78600000D01*
X120150000Y-79000000D01*
G36*
X120150000Y-79000000D02*
G01*
X119950000Y-78800000D01*
X120150000Y-78600000D01*
X120150000Y-79000000D01*
G37*
%TO.C,D170*%
X129350000Y-76700000D02*
X129150000Y-76500000D01*
X129350000Y-76300000D01*
X129350000Y-76700000D01*
G36*
X129350000Y-76700000D02*
G01*
X129150000Y-76500000D01*
X129350000Y-76300000D01*
X129350000Y-76700000D01*
G37*
%TO.C,D43*%
X131650000Y-58300000D02*
X131450000Y-58100000D01*
X131650000Y-57900000D01*
X131650000Y-58300000D01*
G36*
X131650000Y-58300000D02*
G01*
X131450000Y-58100000D01*
X131650000Y-57900000D01*
X131650000Y-58300000D01*
G37*
%TO.C,D146*%
X110950000Y-74400000D02*
X110750000Y-74200000D01*
X110950000Y-74000000D01*
X110950000Y-74400000D01*
G36*
X110950000Y-74400000D02*
G01*
X110750000Y-74200000D01*
X110950000Y-74000000D01*
X110950000Y-74400000D01*
G37*
%TO.C,D120*%
X124750000Y-69800000D02*
X124550000Y-69600000D01*
X124750000Y-69400000D01*
X124750000Y-69800000D01*
G36*
X124750000Y-69800000D02*
G01*
X124550000Y-69600000D01*
X124750000Y-69400000D01*
X124750000Y-69800000D01*
G37*
%TO.C,D15*%
X140850000Y-53700000D02*
X140650000Y-53500000D01*
X140850000Y-53300000D01*
X140850000Y-53700000D01*
G36*
X140850000Y-53700000D02*
G01*
X140650000Y-53500000D01*
X140850000Y-53300000D01*
X140850000Y-53700000D01*
G37*
%TO.C,D183*%
X122450000Y-79000000D02*
X122250000Y-78800000D01*
X122450000Y-78600000D01*
X122450000Y-79000000D01*
G36*
X122450000Y-79000000D02*
G01*
X122250000Y-78800000D01*
X122450000Y-78600000D01*
X122450000Y-79000000D01*
G37*
D16*
%TO.C,R1*%
X125270000Y-92096359D02*
X125270000Y-92403641D01*
X126030000Y-92096359D02*
X126030000Y-92403641D01*
D15*
%TO.C,D117*%
X117850000Y-69800000D02*
X117650000Y-69600000D01*
X117850000Y-69400000D01*
X117850000Y-69800000D01*
G36*
X117850000Y-69800000D02*
G01*
X117650000Y-69600000D01*
X117850000Y-69400000D01*
X117850000Y-69800000D01*
G37*
%TO.C,D53*%
X117850000Y-60600000D02*
X117650000Y-60400000D01*
X117850000Y-60200000D01*
X117850000Y-60600000D01*
G36*
X117850000Y-60600000D02*
G01*
X117650000Y-60400000D01*
X117850000Y-60200000D01*
X117850000Y-60600000D01*
G37*
%TO.C,D177*%
X108650000Y-79000000D02*
X108450000Y-78800000D01*
X108650000Y-78600000D01*
X108650000Y-79000000D01*
G36*
X108650000Y-79000000D02*
G01*
X108450000Y-78800000D01*
X108650000Y-78600000D01*
X108650000Y-79000000D01*
G37*
%TO.C,D156*%
X133950000Y-74400000D02*
X133750000Y-74200000D01*
X133950000Y-74000000D01*
X133950000Y-74400000D01*
G36*
X133950000Y-74400000D02*
G01*
X133750000Y-74200000D01*
X133950000Y-74000000D01*
X133950000Y-74400000D01*
G37*
D16*
%TO.C,D197*%
X140465000Y-88865000D02*
X140465000Y-91150000D01*
X141935000Y-88865000D02*
X140465000Y-88865000D01*
X141935000Y-91150000D02*
X141935000Y-88865000D01*
D15*
%TO.C,D45*%
X136250000Y-58300000D02*
X136050000Y-58100000D01*
X136250000Y-57900000D01*
X136250000Y-58300000D01*
G36*
X136250000Y-58300000D02*
G01*
X136050000Y-58100000D01*
X136250000Y-57900000D01*
X136250000Y-58300000D01*
G37*
%TO.C,D186*%
X129350000Y-79000000D02*
X129150000Y-78800000D01*
X129350000Y-78600000D01*
X129350000Y-79000000D01*
G36*
X129350000Y-79000000D02*
G01*
X129150000Y-78800000D01*
X129350000Y-78600000D01*
X129350000Y-79000000D01*
G37*
%TO.C,D112*%
X143150000Y-67500000D02*
X142950000Y-67300000D01*
X143150000Y-67100000D01*
X143150000Y-67500000D01*
G36*
X143150000Y-67500000D02*
G01*
X142950000Y-67300000D01*
X143150000Y-67100000D01*
X143150000Y-67500000D01*
G37*
%TO.C,D6*%
X120150000Y-53700000D02*
X119950000Y-53500000D01*
X120150000Y-53300000D01*
X120150000Y-53700000D01*
G36*
X120150000Y-53700000D02*
G01*
X119950000Y-53500000D01*
X120150000Y-53300000D01*
X120150000Y-53700000D01*
G37*
%TO.C,D191*%
X140850000Y-79000000D02*
X140650000Y-78800000D01*
X140850000Y-78600000D01*
X140850000Y-79000000D01*
G36*
X140850000Y-79000000D02*
G01*
X140650000Y-78800000D01*
X140850000Y-78600000D01*
X140850000Y-79000000D01*
G37*
%TO.C,D147*%
X113250000Y-74400000D02*
X113050000Y-74200000D01*
X113250000Y-74000000D01*
X113250000Y-74400000D01*
G36*
X113250000Y-74400000D02*
G01*
X113050000Y-74200000D01*
X113250000Y-74000000D01*
X113250000Y-74400000D01*
G37*
D16*
%TO.C,D195*%
X113815000Y-88165000D02*
X113815000Y-90450000D01*
X115285000Y-88165000D02*
X113815000Y-88165000D01*
X115285000Y-90450000D02*
X115285000Y-88165000D01*
D15*
%TO.C,D106*%
X129350000Y-67500000D02*
X129150000Y-67300000D01*
X129350000Y-67100000D01*
X129350000Y-67500000D01*
G36*
X129350000Y-67500000D02*
G01*
X129150000Y-67300000D01*
X129350000Y-67100000D01*
X129350000Y-67500000D01*
G37*
%TO.C,D72*%
X124750000Y-62900000D02*
X124550000Y-62700000D01*
X124750000Y-62500000D01*
X124750000Y-62900000D01*
G36*
X124750000Y-62900000D02*
G01*
X124550000Y-62700000D01*
X124750000Y-62500000D01*
X124750000Y-62900000D01*
G37*
%TO.C,D75*%
X131650000Y-62900000D02*
X131450000Y-62700000D01*
X131650000Y-62500000D01*
X131650000Y-62900000D01*
G36*
X131650000Y-62900000D02*
G01*
X131450000Y-62700000D01*
X131650000Y-62500000D01*
X131650000Y-62900000D01*
G37*
%TO.C,D57*%
X127050000Y-60600000D02*
X126850000Y-60400000D01*
X127050000Y-60200000D01*
X127050000Y-60600000D01*
G36*
X127050000Y-60600000D02*
G01*
X126850000Y-60400000D01*
X127050000Y-60200000D01*
X127050000Y-60600000D01*
G37*
%TO.C,D181*%
X117850000Y-79000000D02*
X117650000Y-78800000D01*
X117850000Y-78600000D01*
X117850000Y-79000000D01*
G36*
X117850000Y-79000000D02*
G01*
X117650000Y-78800000D01*
X117850000Y-78600000D01*
X117850000Y-79000000D01*
G37*
%TO.C,D172*%
X133950000Y-76700000D02*
X133750000Y-76500000D01*
X133950000Y-76300000D01*
X133950000Y-76700000D01*
G36*
X133950000Y-76700000D02*
G01*
X133750000Y-76500000D01*
X133950000Y-76300000D01*
X133950000Y-76700000D01*
G37*
%TO.C,D93*%
X136250000Y-65200000D02*
X136050000Y-65000000D01*
X136250000Y-64800000D01*
X136250000Y-65200000D01*
G36*
X136250000Y-65200000D02*
G01*
X136050000Y-65000000D01*
X136250000Y-64800000D01*
X136250000Y-65200000D01*
G37*
%TO.C,D171*%
X131650000Y-76700000D02*
X131450000Y-76500000D01*
X131650000Y-76300000D01*
X131650000Y-76700000D01*
G36*
X131650000Y-76700000D02*
G01*
X131450000Y-76500000D01*
X131650000Y-76300000D01*
X131650000Y-76700000D01*
G37*
%TO.C,D34*%
X110950000Y-58300000D02*
X110750000Y-58100000D01*
X110950000Y-57900000D01*
X110950000Y-58300000D01*
G36*
X110950000Y-58300000D02*
G01*
X110750000Y-58100000D01*
X110950000Y-57900000D01*
X110950000Y-58300000D01*
G37*
%TO.C,D173*%
X136250000Y-76700000D02*
X136050000Y-76500000D01*
X136250000Y-76300000D01*
X136250000Y-76700000D01*
G36*
X136250000Y-76700000D02*
G01*
X136050000Y-76500000D01*
X136250000Y-76300000D01*
X136250000Y-76700000D01*
G37*
D16*
%TO.C,R7*%
X134996359Y-88570000D02*
X135303641Y-88570000D01*
X134996359Y-89330000D02*
X135303641Y-89330000D01*
D15*
%TO.C,D159*%
X140850000Y-74400000D02*
X140650000Y-74200000D01*
X140850000Y-74000000D01*
X140850000Y-74400000D01*
G36*
X140850000Y-74400000D02*
G01*
X140650000Y-74200000D01*
X140850000Y-74000000D01*
X140850000Y-74400000D01*
G37*
%TO.C,D26*%
X129350000Y-56000000D02*
X129150000Y-55800000D01*
X129350000Y-55600000D01*
X129350000Y-56000000D01*
G36*
X129350000Y-56000000D02*
G01*
X129150000Y-55800000D01*
X129350000Y-55600000D01*
X129350000Y-56000000D01*
G37*
%TO.C,D73*%
X127050000Y-62900000D02*
X126850000Y-62700000D01*
X127050000Y-62500000D01*
X127050000Y-62900000D01*
G36*
X127050000Y-62900000D02*
G01*
X126850000Y-62700000D01*
X127050000Y-62500000D01*
X127050000Y-62900000D01*
G37*
%TO.C,D175*%
X140850000Y-76700000D02*
X140650000Y-76500000D01*
X140850000Y-76300000D01*
X140850000Y-76700000D01*
G36*
X140850000Y-76700000D02*
G01*
X140650000Y-76500000D01*
X140850000Y-76300000D01*
X140850000Y-76700000D01*
G37*
%TO.C,D125*%
X136250000Y-69800000D02*
X136050000Y-69600000D01*
X136250000Y-69400000D01*
X136250000Y-69800000D01*
G36*
X136250000Y-69800000D02*
G01*
X136050000Y-69600000D01*
X136250000Y-69400000D01*
X136250000Y-69800000D01*
G37*
%TO.C,D94*%
X138550000Y-65200000D02*
X138350000Y-65000000D01*
X138550000Y-64800000D01*
X138550000Y-65200000D01*
G36*
X138550000Y-65200000D02*
G01*
X138350000Y-65000000D01*
X138550000Y-64800000D01*
X138550000Y-65200000D01*
G37*
%TO.C,D189*%
X136250000Y-79000000D02*
X136050000Y-78800000D01*
X136250000Y-78600000D01*
X136250000Y-79000000D01*
G36*
X136250000Y-79000000D02*
G01*
X136050000Y-78800000D01*
X136250000Y-78600000D01*
X136250000Y-79000000D01*
G37*
%TO.C,D88*%
X124750000Y-65200000D02*
X124550000Y-65000000D01*
X124750000Y-64800000D01*
X124750000Y-65200000D01*
G36*
X124750000Y-65200000D02*
G01*
X124550000Y-65000000D01*
X124750000Y-64800000D01*
X124750000Y-65200000D01*
G37*
D16*
%TO.C,C12*%
X141092164Y-87100000D02*
X141307836Y-87100000D01*
X141092164Y-87820000D02*
X141307836Y-87820000D01*
D15*
%TO.C,D80*%
X143150000Y-62900000D02*
X142950000Y-62700000D01*
X143150000Y-62500000D01*
X143150000Y-62900000D01*
G36*
X143150000Y-62900000D02*
G01*
X142950000Y-62700000D01*
X143150000Y-62500000D01*
X143150000Y-62900000D01*
G37*
%TO.C,D5*%
X117850000Y-53700000D02*
X117650000Y-53500000D01*
X117850000Y-53300000D01*
X117850000Y-53700000D01*
G36*
X117850000Y-53700000D02*
G01*
X117650000Y-53500000D01*
X117850000Y-53300000D01*
X117850000Y-53700000D01*
G37*
%TO.C,D126*%
X138550000Y-69800000D02*
X138350000Y-69600000D01*
X138550000Y-69400000D01*
X138550000Y-69800000D01*
G36*
X138550000Y-69800000D02*
G01*
X138350000Y-69600000D01*
X138550000Y-69400000D01*
X138550000Y-69800000D01*
G37*
%TO.C,D107*%
X131650000Y-67500000D02*
X131450000Y-67300000D01*
X131650000Y-67100000D01*
X131650000Y-67500000D01*
G36*
X131650000Y-67500000D02*
G01*
X131450000Y-67300000D01*
X131650000Y-67100000D01*
X131650000Y-67500000D01*
G37*
%TO.C,D33*%
X108650000Y-58300000D02*
X108450000Y-58100000D01*
X108650000Y-57900000D01*
X108650000Y-58300000D01*
G36*
X108650000Y-58300000D02*
G01*
X108450000Y-58100000D01*
X108650000Y-57900000D01*
X108650000Y-58300000D01*
G37*
%TO.C,D192*%
X143150000Y-79000000D02*
X142950000Y-78800000D01*
X143150000Y-78600000D01*
X143150000Y-79000000D01*
G36*
X143150000Y-79000000D02*
G01*
X142950000Y-78800000D01*
X143150000Y-78600000D01*
X143150000Y-79000000D01*
G37*
%TO.C,D142*%
X138550000Y-72100000D02*
X138350000Y-71900000D01*
X138550000Y-71700000D01*
X138550000Y-72100000D01*
G36*
X138550000Y-72100000D02*
G01*
X138350000Y-71900000D01*
X138550000Y-71700000D01*
X138550000Y-72100000D01*
G37*
%TO.C,D36*%
X115550000Y-58300000D02*
X115350000Y-58100000D01*
X115550000Y-57900000D01*
X115550000Y-58300000D01*
G36*
X115550000Y-58300000D02*
G01*
X115350000Y-58100000D01*
X115550000Y-57900000D01*
X115550000Y-58300000D01*
G37*
%TO.C,D129*%
X108650000Y-72100000D02*
X108450000Y-71900000D01*
X108650000Y-71700000D01*
X108650000Y-72100000D01*
G36*
X108650000Y-72100000D02*
G01*
X108450000Y-71900000D01*
X108650000Y-71700000D01*
X108650000Y-72100000D01*
G37*
%TO.C,D2*%
X110950000Y-53700000D02*
X110750000Y-53500000D01*
X110950000Y-53300000D01*
X110950000Y-53700000D01*
G36*
X110950000Y-53700000D02*
G01*
X110750000Y-53500000D01*
X110950000Y-53300000D01*
X110950000Y-53700000D01*
G37*
%TO.C,D7*%
X122450000Y-53700000D02*
X122250000Y-53500000D01*
X122450000Y-53300000D01*
X122450000Y-53700000D01*
G36*
X122450000Y-53700000D02*
G01*
X122250000Y-53500000D01*
X122450000Y-53300000D01*
X122450000Y-53700000D01*
G37*
D16*
%TO.C,C4*%
X123442164Y-51440000D02*
X123657836Y-51440000D01*
X123442164Y-52160000D02*
X123657836Y-52160000D01*
%TO.C,C11*%
X143540000Y-85692164D02*
X143540000Y-85907836D01*
X144260000Y-85692164D02*
X144260000Y-85907836D01*
D15*
%TO.C,LS1*%
X118700000Y-84600000D02*
X118700000Y-82600000D01*
X120200000Y-86100000D02*
X118700000Y-84600000D01*
D10*
X122900000Y-80500000D02*
X122900000Y-80500000D01*
X123100000Y-80500000D02*
X123100000Y-80500000D01*
D15*
X123700000Y-81100000D02*
X118700000Y-81100000D01*
X123700000Y-84600000D02*
X123700000Y-82600000D01*
X123700000Y-86100000D02*
X120200000Y-86100000D01*
D10*
X122900000Y-80500000D02*
G75*
G02*
X123100000Y-80500000I100000J0D01*
G01*
X123100000Y-80500000D02*
G75*
G02*
X122900000Y-80500000I-100000J0D01*
G01*
D15*
%TO.C,D4*%
X115550000Y-53700000D02*
X115350000Y-53500000D01*
X115550000Y-53300000D01*
X115550000Y-53700000D01*
G36*
X115550000Y-53700000D02*
G01*
X115350000Y-53500000D01*
X115550000Y-53300000D01*
X115550000Y-53700000D01*
G37*
%TO.C,D68*%
X115550000Y-62900000D02*
X115350000Y-62700000D01*
X115550000Y-62500000D01*
X115550000Y-62900000D01*
G36*
X115550000Y-62900000D02*
G01*
X115350000Y-62700000D01*
X115550000Y-62500000D01*
X115550000Y-62900000D01*
G37*
%TO.C,D67*%
X113250000Y-62900000D02*
X113050000Y-62700000D01*
X113250000Y-62500000D01*
X113250000Y-62900000D01*
G36*
X113250000Y-62900000D02*
G01*
X113050000Y-62700000D01*
X113250000Y-62500000D01*
X113250000Y-62900000D01*
G37*
%TO.C,D10*%
X129350000Y-53700000D02*
X129150000Y-53500000D01*
X129350000Y-53300000D01*
X129350000Y-53700000D01*
G36*
X129350000Y-53700000D02*
G01*
X129150000Y-53500000D01*
X129350000Y-53300000D01*
X129350000Y-53700000D01*
G37*
%TO.C,D74*%
X129350000Y-62900000D02*
X129150000Y-62700000D01*
X129350000Y-62500000D01*
X129350000Y-62900000D01*
G36*
X129350000Y-62900000D02*
G01*
X129150000Y-62700000D01*
X129350000Y-62500000D01*
X129350000Y-62900000D01*
G37*
D16*
%TO.C,C19*%
X129542164Y-82240000D02*
X129757836Y-82240000D01*
X129542164Y-82960000D02*
X129757836Y-82960000D01*
D15*
%TO.C,D111*%
X140850000Y-67500000D02*
X140650000Y-67300000D01*
X140850000Y-67100000D01*
X140850000Y-67500000D01*
G36*
X140850000Y-67500000D02*
G01*
X140650000Y-67300000D01*
X140850000Y-67100000D01*
X140850000Y-67500000D01*
G37*
%TO.C,D179*%
X113250000Y-79000000D02*
X113050000Y-78800000D01*
X113250000Y-78600000D01*
X113250000Y-79000000D01*
G36*
X113250000Y-79000000D02*
G01*
X113050000Y-78800000D01*
X113250000Y-78600000D01*
X113250000Y-79000000D01*
G37*
D16*
%TO.C,D193*%
X143673000Y-83460000D02*
X143673000Y-80800000D01*
X143673000Y-83460000D02*
X145373000Y-83460000D01*
X145373000Y-83460000D02*
X145373000Y-80800000D01*
D15*
%TO.C,D180*%
X115550000Y-79000000D02*
X115350000Y-78800000D01*
X115550000Y-78600000D01*
X115550000Y-79000000D01*
G36*
X115550000Y-79000000D02*
G01*
X115350000Y-78800000D01*
X115550000Y-78600000D01*
X115550000Y-79000000D01*
G37*
%TO.C,D56*%
X124750000Y-60600000D02*
X124550000Y-60400000D01*
X124750000Y-60200000D01*
X124750000Y-60600000D01*
G36*
X124750000Y-60600000D02*
G01*
X124550000Y-60400000D01*
X124750000Y-60200000D01*
X124750000Y-60600000D01*
G37*
%TO.C,D145*%
X108650000Y-74400000D02*
X108450000Y-74200000D01*
X108650000Y-74000000D01*
X108650000Y-74400000D01*
G36*
X108650000Y-74400000D02*
G01*
X108450000Y-74200000D01*
X108650000Y-74000000D01*
X108650000Y-74400000D01*
G37*
%TO.C,D65*%
X108650000Y-62900000D02*
X108450000Y-62700000D01*
X108650000Y-62500000D01*
X108650000Y-62900000D01*
G36*
X108650000Y-62900000D02*
G01*
X108450000Y-62700000D01*
X108650000Y-62500000D01*
X108650000Y-62900000D01*
G37*
%TO.C,D157*%
X136250000Y-74400000D02*
X136050000Y-74200000D01*
X136250000Y-74000000D01*
X136250000Y-74400000D01*
G36*
X136250000Y-74400000D02*
G01*
X136050000Y-74200000D01*
X136250000Y-74000000D01*
X136250000Y-74400000D01*
G37*
%TO.C,D25*%
X127050000Y-56000000D02*
X126850000Y-55800000D01*
X127050000Y-55600000D01*
X127050000Y-56000000D01*
G36*
X127050000Y-56000000D02*
G01*
X126850000Y-55800000D01*
X127050000Y-55600000D01*
X127050000Y-56000000D01*
G37*
D16*
%TO.C,C7*%
X130342164Y-51440000D02*
X130557836Y-51440000D01*
X130342164Y-52160000D02*
X130557836Y-52160000D01*
D15*
%TO.C,D19*%
X113250000Y-56000000D02*
X113050000Y-55800000D01*
X113250000Y-55600000D01*
X113250000Y-56000000D01*
G36*
X113250000Y-56000000D02*
G01*
X113050000Y-55800000D01*
X113250000Y-55600000D01*
X113250000Y-56000000D01*
G37*
%TO.C,D100*%
X115550000Y-67500000D02*
X115350000Y-67300000D01*
X115550000Y-67100000D01*
X115550000Y-67500000D01*
G36*
X115550000Y-67500000D02*
G01*
X115350000Y-67300000D01*
X115550000Y-67100000D01*
X115550000Y-67500000D01*
G37*
D16*
%TO.C,R3*%
X118746359Y-92070000D02*
X119053641Y-92070000D01*
X118746359Y-92830000D02*
X119053641Y-92830000D01*
D15*
%TO.C,D84*%
X115550000Y-65200000D02*
X115350000Y-65000000D01*
X115550000Y-64800000D01*
X115550000Y-65200000D01*
G36*
X115550000Y-65200000D02*
G01*
X115350000Y-65000000D01*
X115550000Y-64800000D01*
X115550000Y-65200000D01*
G37*
D16*
%TO.C,C20*%
X134290000Y-90242164D02*
X134290000Y-90457836D01*
X135010000Y-90242164D02*
X135010000Y-90457836D01*
%TO.C,C31*%
X144142164Y-51440000D02*
X144357836Y-51440000D01*
X144142164Y-52160000D02*
X144357836Y-52160000D01*
D15*
%TO.C,D114*%
X110950000Y-69800000D02*
X110750000Y-69600000D01*
X110950000Y-69400000D01*
X110950000Y-69800000D01*
G36*
X110950000Y-69800000D02*
G01*
X110750000Y-69600000D01*
X110950000Y-69400000D01*
X110950000Y-69800000D01*
G37*
D16*
%TO.C,C9*%
X134942164Y-51440000D02*
X135157836Y-51440000D01*
X134942164Y-52160000D02*
X135157836Y-52160000D01*
D15*
%TO.C,D63*%
X140850000Y-60600000D02*
X140650000Y-60400000D01*
X140850000Y-60200000D01*
X140850000Y-60600000D01*
G36*
X140850000Y-60600000D02*
G01*
X140650000Y-60400000D01*
X140850000Y-60200000D01*
X140850000Y-60600000D01*
G37*
%TO.C,D139*%
X131650000Y-72100000D02*
X131450000Y-71900000D01*
X131650000Y-71700000D01*
X131650000Y-72100000D01*
G36*
X131650000Y-72100000D02*
G01*
X131450000Y-71900000D01*
X131650000Y-71700000D01*
X131650000Y-72100000D01*
G37*
%TO.C,D97*%
X108650000Y-67500000D02*
X108450000Y-67300000D01*
X108650000Y-67100000D01*
X108650000Y-67500000D01*
G36*
X108650000Y-67500000D02*
G01*
X108450000Y-67300000D01*
X108650000Y-67100000D01*
X108650000Y-67500000D01*
G37*
%TO.C,D35*%
X113250000Y-58300000D02*
X113050000Y-58100000D01*
X113250000Y-57900000D01*
X113250000Y-58300000D01*
G36*
X113250000Y-58300000D02*
G01*
X113050000Y-58100000D01*
X113250000Y-57900000D01*
X113250000Y-58300000D01*
G37*
D16*
%TO.C,C16*%
X137588748Y-85665000D02*
X138111252Y-85665000D01*
X137588748Y-87135000D02*
X138111252Y-87135000D01*
%TO.C,D198*%
X115340000Y-81500000D02*
X117300000Y-81500000D01*
X115340000Y-82700000D02*
X117300000Y-82700000D01*
X117300000Y-82700000D02*
X117300000Y-81500000D01*
D15*
%TO.C,D18*%
X110950000Y-56000000D02*
X110750000Y-55800000D01*
X110950000Y-55600000D01*
X110950000Y-56000000D01*
G36*
X110950000Y-56000000D02*
G01*
X110750000Y-55800000D01*
X110950000Y-55600000D01*
X110950000Y-56000000D01*
G37*
%TO.C,D32*%
X143150000Y-56000000D02*
X142950000Y-55800000D01*
X143150000Y-55600000D01*
X143150000Y-56000000D01*
G36*
X143150000Y-56000000D02*
G01*
X142950000Y-55800000D01*
X143150000Y-55600000D01*
X143150000Y-56000000D01*
G37*
%TO.C,D48*%
X143150000Y-58300000D02*
X142950000Y-58100000D01*
X143150000Y-57900000D01*
X143150000Y-58300000D01*
G36*
X143150000Y-58300000D02*
G01*
X142950000Y-58100000D01*
X143150000Y-57900000D01*
X143150000Y-58300000D01*
G37*
%TO.C,D41*%
X127050000Y-58300000D02*
X126850000Y-58100000D01*
X127050000Y-57900000D01*
X127050000Y-58300000D01*
G36*
X127050000Y-58300000D02*
G01*
X126850000Y-58100000D01*
X127050000Y-57900000D01*
X127050000Y-58300000D01*
G37*
%TO.C,D162*%
X110950000Y-76700000D02*
X110750000Y-76500000D01*
X110950000Y-76300000D01*
X110950000Y-76700000D01*
G36*
X110950000Y-76700000D02*
G01*
X110750000Y-76500000D01*
X110950000Y-76300000D01*
X110950000Y-76700000D01*
G37*
%TO.C,D113*%
X108650000Y-69800000D02*
X108450000Y-69600000D01*
X108650000Y-69400000D01*
X108650000Y-69800000D01*
G36*
X108650000Y-69800000D02*
G01*
X108450000Y-69600000D01*
X108650000Y-69400000D01*
X108650000Y-69800000D01*
G37*
%TO.C,D76*%
X133950000Y-62900000D02*
X133750000Y-62700000D01*
X133950000Y-62500000D01*
X133950000Y-62900000D01*
G36*
X133950000Y-62900000D02*
G01*
X133750000Y-62700000D01*
X133950000Y-62500000D01*
X133950000Y-62900000D01*
G37*
%TD*%
%LPC*%
D17*
%TO.C,D163*%
X115025000Y-76950000D03*
X113675000Y-76050000D03*
X115025000Y-76050000D03*
X113675000Y-76950000D03*
%TD*%
D18*
%TO.C,C2*%
X118470000Y-51800000D03*
X119430000Y-51800000D03*
%TD*%
%TO.C,C15*%
X129170000Y-81700000D03*
X130130000Y-81700000D03*
%TD*%
D19*
%TO.C,U2*%
X136025000Y-93300000D03*
X136025000Y-92800000D03*
X136025000Y-92300000D03*
X136025000Y-91800000D03*
X133175000Y-91800000D03*
X133175000Y-92300000D03*
X133175000Y-92800000D03*
X133175000Y-93300000D03*
D20*
X134600000Y-92550000D03*
%TD*%
D17*
%TO.C,D87*%
X124225000Y-65450000D03*
X122875000Y-64550000D03*
X124225000Y-64550000D03*
X122875000Y-65450000D03*
%TD*%
%TO.C,D83*%
X115025000Y-65450000D03*
X113675000Y-64550000D03*
X115025000Y-64550000D03*
X113675000Y-65450000D03*
%TD*%
%TO.C,D46*%
X140325000Y-58550000D03*
X138975000Y-57650000D03*
X140325000Y-57650000D03*
X138975000Y-58550000D03*
%TD*%
%TO.C,D1*%
X110425000Y-53950000D03*
X109075000Y-53050000D03*
X110425000Y-53050000D03*
X109075000Y-53950000D03*
%TD*%
%TO.C,D99*%
X115025000Y-67750000D03*
X113675000Y-66850000D03*
X115025000Y-66850000D03*
X113675000Y-67750000D03*
%TD*%
%TO.C,D86*%
X121925000Y-65450000D03*
X120575000Y-64550000D03*
X121925000Y-64550000D03*
X120575000Y-65450000D03*
%TD*%
%TO.C,D78*%
X140325000Y-63150000D03*
X138975000Y-62250000D03*
X140325000Y-62250000D03*
X138975000Y-63150000D03*
%TD*%
%TO.C,D54*%
X121925000Y-60850000D03*
X120575000Y-59950000D03*
X121925000Y-59950000D03*
X120575000Y-60850000D03*
%TD*%
%TO.C,D17*%
X110425000Y-56250000D03*
X109075000Y-55350000D03*
X110425000Y-55350000D03*
X109075000Y-56250000D03*
%TD*%
D21*
%TO.C,SW7*%
X120125000Y-100650000D03*
X116125000Y-100650000D03*
X120125000Y-98500000D03*
X116125000Y-98500000D03*
%TD*%
D22*
%TO.C,SW5*%
X139525000Y-88350000D03*
X139525000Y-92350000D03*
X137375000Y-88350000D03*
X137375000Y-92350000D03*
%TD*%
D23*
%TO.C,R4*%
X135600000Y-90860000D03*
X135600000Y-89840000D03*
%TD*%
D17*
%TO.C,D29*%
X138025000Y-56250000D03*
X136675000Y-55350000D03*
X138025000Y-55350000D03*
X136675000Y-56250000D03*
%TD*%
D21*
%TO.C,SW4*%
X116135000Y-88580000D03*
X120135000Y-88580000D03*
X116135000Y-90730000D03*
X120135000Y-90730000D03*
%TD*%
D17*
%TO.C,D155*%
X133425000Y-74650000D03*
X132075000Y-73750000D03*
X133425000Y-73750000D03*
X132075000Y-74650000D03*
%TD*%
%TO.C,D70*%
X121925000Y-63150000D03*
X120575000Y-62250000D03*
X121925000Y-62250000D03*
X120575000Y-63150000D03*
%TD*%
D24*
%TO.C,C29*%
X130100000Y-80750000D03*
X129140000Y-80750000D03*
%TD*%
D17*
%TO.C,D82*%
X112725000Y-65450000D03*
X111375000Y-64550000D03*
X112725000Y-64550000D03*
X111375000Y-65450000D03*
%TD*%
D25*
%TO.C,C13*%
X132800000Y-94220000D03*
X132800000Y-95180000D03*
%TD*%
D17*
%TO.C,D71*%
X124225000Y-63150000D03*
X122875000Y-62250000D03*
X124225000Y-62250000D03*
X122875000Y-63150000D03*
%TD*%
%TO.C,D38*%
X121925000Y-58550000D03*
X120575000Y-57650000D03*
X121925000Y-57650000D03*
X120575000Y-58550000D03*
%TD*%
D26*
%TO.C,D194*%
X122950000Y-89550000D03*
X122950000Y-92350000D03*
%TD*%
D17*
%TO.C,D85*%
X119625000Y-65450000D03*
X118275000Y-64550000D03*
X119625000Y-64550000D03*
X118275000Y-65450000D03*
%TD*%
D27*
%TO.C,R5*%
X124700000Y-91740000D03*
X124700000Y-92760000D03*
%TD*%
D17*
%TO.C,D22*%
X121925000Y-56250000D03*
X120575000Y-55350000D03*
X121925000Y-55350000D03*
X120575000Y-56250000D03*
%TD*%
D23*
%TO.C,R12*%
X135150000Y-85070000D03*
X135150000Y-84050000D03*
%TD*%
D17*
%TO.C,D105*%
X128825000Y-67750000D03*
X127475000Y-66850000D03*
X128825000Y-66850000D03*
X127475000Y-67750000D03*
%TD*%
%TO.C,D60*%
X135725000Y-60850000D03*
X134375000Y-59950000D03*
X135725000Y-59950000D03*
X134375000Y-60850000D03*
%TD*%
%TO.C,D158*%
X140325000Y-74650000D03*
X138975000Y-73750000D03*
X140325000Y-73750000D03*
X138975000Y-74650000D03*
%TD*%
%TO.C,D47*%
X142625000Y-58550000D03*
X141275000Y-57650000D03*
X142625000Y-57650000D03*
X141275000Y-58550000D03*
%TD*%
D28*
%TO.C,L1*%
X136531000Y-84031000D03*
X138681000Y-84031000D03*
%TD*%
D17*
%TO.C,D141*%
X138025000Y-72350000D03*
X136675000Y-71450000D03*
X138025000Y-71450000D03*
X136675000Y-72350000D03*
%TD*%
D21*
%TO.C,SW8*%
X112960000Y-100645000D03*
X108960000Y-100645000D03*
X112960000Y-98495000D03*
X108960000Y-98495000D03*
%TD*%
D29*
%TO.C,R11*%
X141710000Y-88400000D03*
X140690000Y-88400000D03*
%TD*%
D17*
%TO.C,D132*%
X117325000Y-72350000D03*
X115975000Y-71450000D03*
X117325000Y-71450000D03*
X115975000Y-72350000D03*
%TD*%
D21*
%TO.C,SW2*%
X116550000Y-94425000D03*
X112550000Y-94425000D03*
X116550000Y-92275000D03*
X112550000Y-92275000D03*
%TD*%
D17*
%TO.C,D42*%
X131125000Y-58550000D03*
X129775000Y-57650000D03*
X131125000Y-57650000D03*
X129775000Y-58550000D03*
%TD*%
D30*
%TO.C,R13*%
X140690000Y-92350000D03*
X141710000Y-92350000D03*
%TD*%
D18*
%TO.C,C1*%
X116170000Y-51800000D03*
X117130000Y-51800000D03*
%TD*%
D17*
%TO.C,D137*%
X128825000Y-72350000D03*
X127475000Y-71450000D03*
X128825000Y-71450000D03*
X127475000Y-72350000D03*
%TD*%
%TO.C,D69*%
X119625000Y-63150000D03*
X118275000Y-62250000D03*
X119625000Y-62250000D03*
X118275000Y-63150000D03*
%TD*%
D18*
%TO.C,C32*%
X134670000Y-86000000D03*
X135630000Y-86000000D03*
%TD*%
D17*
%TO.C,D174*%
X140325000Y-76950000D03*
X138975000Y-76050000D03*
X140325000Y-76050000D03*
X138975000Y-76950000D03*
%TD*%
%TO.C,D123*%
X133425000Y-70050000D03*
X132075000Y-69150000D03*
X133425000Y-69150000D03*
X132075000Y-70050000D03*
%TD*%
%TO.C,D62*%
X140325000Y-60850000D03*
X138975000Y-59950000D03*
X140325000Y-59950000D03*
X138975000Y-60850000D03*
%TD*%
D31*
%TO.C,D196*%
X116740000Y-80700000D03*
X115340000Y-80700000D03*
%TD*%
D17*
%TO.C,D77*%
X138025000Y-63150000D03*
X136675000Y-62250000D03*
X138025000Y-62250000D03*
X136675000Y-63150000D03*
%TD*%
%TO.C,D31*%
X142625000Y-56250000D03*
X141275000Y-55350000D03*
X142625000Y-55350000D03*
X141275000Y-56250000D03*
%TD*%
%TO.C,D128*%
X144925000Y-70050000D03*
X143575000Y-69150000D03*
X144925000Y-69150000D03*
X143575000Y-70050000D03*
%TD*%
%TO.C,D66*%
X112725000Y-63150000D03*
X111375000Y-62250000D03*
X112725000Y-62250000D03*
X111375000Y-63150000D03*
%TD*%
%TO.C,D91*%
X133425000Y-65450000D03*
X132075000Y-64550000D03*
X133425000Y-64550000D03*
X132075000Y-65450000D03*
%TD*%
%TO.C,D23*%
X124225000Y-56250000D03*
X122875000Y-55350000D03*
X124225000Y-55350000D03*
X122875000Y-56250000D03*
%TD*%
%TO.C,D21*%
X119625000Y-56250000D03*
X118275000Y-55350000D03*
X119625000Y-55350000D03*
X118275000Y-56250000D03*
%TD*%
%TO.C,D122*%
X131125000Y-70050000D03*
X129775000Y-69150000D03*
X131125000Y-69150000D03*
X129775000Y-70050000D03*
%TD*%
%TO.C,D81*%
X110425000Y-65450000D03*
X109075000Y-64550000D03*
X110425000Y-64550000D03*
X109075000Y-65450000D03*
%TD*%
%TO.C,D101*%
X119625000Y-67750000D03*
X118275000Y-66850000D03*
X119625000Y-66850000D03*
X118275000Y-67750000D03*
%TD*%
%TO.C,D164*%
X117325000Y-76950000D03*
X115975000Y-76050000D03*
X117325000Y-76050000D03*
X115975000Y-76950000D03*
%TD*%
%TO.C,D140*%
X135725000Y-72350000D03*
X134375000Y-71450000D03*
X135725000Y-71450000D03*
X134375000Y-72350000D03*
%TD*%
%TO.C,D136*%
X126525000Y-72350000D03*
X125175000Y-71450000D03*
X126525000Y-71450000D03*
X125175000Y-72350000D03*
%TD*%
D32*
%TO.C,J3*%
X124110000Y-95315000D03*
X129890000Y-95315000D03*
D33*
X123800000Y-94240000D03*
X124600000Y-94240000D03*
D34*
X125750000Y-94240000D03*
X126750000Y-94240000D03*
X127250000Y-94240000D03*
X128250000Y-94240000D03*
D33*
X129400000Y-94240000D03*
X130200000Y-94240000D03*
X130200000Y-94240000D03*
X129400000Y-94240000D03*
D34*
X128750000Y-94240000D03*
X127750000Y-94240000D03*
X126250000Y-94240000D03*
X125250000Y-94240000D03*
D33*
X124600000Y-94240000D03*
X123800000Y-94240000D03*
D35*
X122680000Y-94815000D03*
D36*
X122680000Y-98995000D03*
D35*
X131320000Y-94815000D03*
D36*
X131320000Y-98995000D03*
%TD*%
D17*
%TO.C,D104*%
X126525000Y-67750000D03*
X125175000Y-66850000D03*
X126525000Y-66850000D03*
X125175000Y-67750000D03*
%TD*%
%TO.C,D55*%
X124225000Y-60850000D03*
X122875000Y-59950000D03*
X124225000Y-59950000D03*
X122875000Y-60850000D03*
%TD*%
%TO.C,D50*%
X112725000Y-60850000D03*
X111375000Y-59950000D03*
X112725000Y-59950000D03*
X111375000Y-60850000D03*
%TD*%
%TO.C,D160*%
X144925000Y-74650000D03*
X143575000Y-73750000D03*
X144925000Y-73750000D03*
X143575000Y-74650000D03*
%TD*%
D21*
%TO.C,SW3*%
X108965000Y-88580000D03*
X112965000Y-88580000D03*
X108965000Y-90730000D03*
X112965000Y-90730000D03*
%TD*%
D29*
%TO.C,R9*%
X136170600Y-81450000D03*
X135150600Y-81450000D03*
%TD*%
D17*
%TO.C,D190*%
X140325000Y-79250000D03*
X138975000Y-78350000D03*
X140325000Y-78350000D03*
X138975000Y-79250000D03*
%TD*%
%TO.C,D153*%
X128825000Y-74650000D03*
X127475000Y-73750000D03*
X128825000Y-73750000D03*
X127475000Y-74650000D03*
%TD*%
%TO.C,D61*%
X138025000Y-60850000D03*
X136675000Y-59950000D03*
X138025000Y-59950000D03*
X136675000Y-60850000D03*
%TD*%
%TO.C,D98*%
X112725000Y-67750000D03*
X111375000Y-66850000D03*
X112725000Y-66850000D03*
X111375000Y-67750000D03*
%TD*%
D37*
%TO.C,C18*%
X131110589Y-92010589D03*
X131789411Y-92689411D03*
%TD*%
D17*
%TO.C,D59*%
X133425000Y-60850000D03*
X132075000Y-59950000D03*
X133425000Y-59950000D03*
X132075000Y-60850000D03*
%TD*%
D25*
%TO.C,C17*%
X127500000Y-91770000D03*
X127500000Y-92730000D03*
%TD*%
D17*
%TO.C,D178*%
X112725000Y-79250000D03*
X111375000Y-78350000D03*
X112725000Y-78350000D03*
X111375000Y-79250000D03*
%TD*%
D29*
%TO.C,R16*%
X116560000Y-83270000D03*
X115540000Y-83270000D03*
%TD*%
D38*
%TO.C,C27*%
X142460600Y-80904000D03*
X142460600Y-82804000D03*
%TD*%
D17*
%TO.C,D64*%
X144925000Y-60850000D03*
X143575000Y-59950000D03*
X144925000Y-59950000D03*
X143575000Y-60850000D03*
%TD*%
%TO.C,D185*%
X128825000Y-79250000D03*
X127475000Y-78350000D03*
X128825000Y-78350000D03*
X127475000Y-79250000D03*
%TD*%
%TO.C,D135*%
X124225000Y-72350000D03*
X122875000Y-71450000D03*
X124225000Y-71450000D03*
X122875000Y-72350000D03*
%TD*%
%TO.C,D176*%
X144925000Y-76950000D03*
X143575000Y-76050000D03*
X144925000Y-76050000D03*
X143575000Y-76950000D03*
%TD*%
D39*
%TO.C,C30*%
X135150000Y-83230000D03*
X135150000Y-82270000D03*
%TD*%
D17*
%TO.C,D110*%
X140325000Y-67750000D03*
X138975000Y-66850000D03*
X140325000Y-66850000D03*
X138975000Y-67750000D03*
%TD*%
%TO.C,D165*%
X119625000Y-76950000D03*
X118275000Y-76050000D03*
X119625000Y-76050000D03*
X118275000Y-76950000D03*
%TD*%
%TO.C,D40*%
X126525000Y-58550000D03*
X125175000Y-57650000D03*
X126525000Y-57650000D03*
X125175000Y-58550000D03*
%TD*%
D23*
%TO.C,R8*%
X129300000Y-92760000D03*
X129300000Y-91740000D03*
%TD*%
D17*
%TO.C,D116*%
X117325000Y-70050000D03*
X115975000Y-69150000D03*
X117325000Y-69150000D03*
X115975000Y-70050000D03*
%TD*%
%TO.C,D167*%
X124225000Y-76950000D03*
X122875000Y-76050000D03*
X124225000Y-76050000D03*
X122875000Y-76950000D03*
%TD*%
%TO.C,D103*%
X124225000Y-67750000D03*
X122875000Y-66850000D03*
X124225000Y-66850000D03*
X122875000Y-67750000D03*
%TD*%
%TO.C,D161*%
X110425000Y-76950000D03*
X109075000Y-76050000D03*
X110425000Y-76050000D03*
X109075000Y-76950000D03*
%TD*%
%TO.C,D12*%
X135725000Y-53950000D03*
X134375000Y-53050000D03*
X135725000Y-53050000D03*
X134375000Y-53950000D03*
%TD*%
%TO.C,D28*%
X135725000Y-56250000D03*
X134375000Y-55350000D03*
X135725000Y-55350000D03*
X134375000Y-56250000D03*
%TD*%
D25*
%TO.C,C25*%
X126575000Y-91770000D03*
X126575000Y-92730000D03*
%TD*%
D18*
%TO.C,C6*%
X127670000Y-51800000D03*
X128630000Y-51800000D03*
%TD*%
D17*
%TO.C,D89*%
X128825000Y-65450000D03*
X127475000Y-64550000D03*
X128825000Y-64550000D03*
X127475000Y-65450000D03*
%TD*%
%TO.C,D168*%
X126525000Y-76950000D03*
X125175000Y-76050000D03*
X126525000Y-76050000D03*
X125175000Y-76950000D03*
%TD*%
%TO.C,D95*%
X142625000Y-65450000D03*
X141275000Y-64550000D03*
X142625000Y-64550000D03*
X141275000Y-65450000D03*
%TD*%
%TO.C,D51*%
X115025000Y-60850000D03*
X113675000Y-59950000D03*
X115025000Y-59950000D03*
X113675000Y-60850000D03*
%TD*%
%TO.C,D118*%
X121925000Y-70050000D03*
X120575000Y-69150000D03*
X121925000Y-69150000D03*
X120575000Y-70050000D03*
%TD*%
%TO.C,D13*%
X138025000Y-53950000D03*
X136675000Y-53050000D03*
X138025000Y-53050000D03*
X136675000Y-53950000D03*
%TD*%
D40*
%TO.C,Y1*%
X131500000Y-82340000D03*
X133700000Y-82340000D03*
X133700000Y-80740000D03*
X131500000Y-80740000D03*
%TD*%
D21*
%TO.C,SW1*%
X112550000Y-84875000D03*
X116550000Y-84875000D03*
X112550000Y-87025000D03*
X116550000Y-87025000D03*
%TD*%
D17*
%TO.C,D92*%
X135725000Y-65450000D03*
X134375000Y-64550000D03*
X135725000Y-64550000D03*
X134375000Y-65450000D03*
%TD*%
%TO.C,D119*%
X124225000Y-70050000D03*
X122875000Y-69150000D03*
X124225000Y-69150000D03*
X122875000Y-70050000D03*
%TD*%
%TO.C,D27*%
X133425000Y-56250000D03*
X132075000Y-55350000D03*
X133425000Y-55350000D03*
X132075000Y-56250000D03*
%TD*%
%TO.C,D187*%
X133425000Y-79250000D03*
X132075000Y-78350000D03*
X133425000Y-78350000D03*
X132075000Y-79250000D03*
%TD*%
%TO.C,D30*%
X140325000Y-56250000D03*
X138975000Y-55350000D03*
X140325000Y-55350000D03*
X138975000Y-56250000D03*
%TD*%
D18*
%TO.C,C8*%
X132270000Y-51800000D03*
X133230000Y-51800000D03*
%TD*%
D17*
%TO.C,D16*%
X144925000Y-53950000D03*
X143575000Y-53050000D03*
X144925000Y-53050000D03*
X143575000Y-53950000D03*
%TD*%
%TO.C,D24*%
X126525000Y-56250000D03*
X125175000Y-55350000D03*
X126525000Y-55350000D03*
X125175000Y-56250000D03*
%TD*%
%TO.C,D3*%
X115025000Y-53950000D03*
X113675000Y-53050000D03*
X115025000Y-53050000D03*
X113675000Y-53950000D03*
%TD*%
D30*
%TO.C,R2*%
X134640000Y-86950000D03*
X135660000Y-86950000D03*
%TD*%
D18*
%TO.C,C22*%
X139170000Y-51800000D03*
X140130000Y-51800000D03*
%TD*%
D17*
%TO.C,D115*%
X115025000Y-70050000D03*
X113675000Y-69150000D03*
X115025000Y-69150000D03*
X113675000Y-70050000D03*
%TD*%
%TO.C,D154*%
X131125000Y-74650000D03*
X129775000Y-73750000D03*
X131125000Y-73750000D03*
X129775000Y-74650000D03*
%TD*%
D18*
%TO.C,C3*%
X120770000Y-51800000D03*
X121730000Y-51800000D03*
%TD*%
D30*
%TO.C,R17*%
X123810000Y-80400000D03*
X124830000Y-80400000D03*
%TD*%
D17*
%TO.C,D138*%
X131125000Y-72350000D03*
X129775000Y-71450000D03*
X131125000Y-71450000D03*
X129775000Y-72350000D03*
%TD*%
D27*
%TO.C,R18*%
X125450000Y-83800000D03*
X125450000Y-84820000D03*
%TD*%
D17*
%TO.C,D102*%
X121925000Y-67750000D03*
X120575000Y-66850000D03*
X121925000Y-66850000D03*
X120575000Y-67750000D03*
%TD*%
D25*
%TO.C,C26*%
X125450000Y-86220000D03*
X125450000Y-87180000D03*
%TD*%
D41*
%TO.C,U3*%
X125837500Y-80784000D03*
X125837500Y-81284000D03*
X125837500Y-81784000D03*
X125837500Y-82284000D03*
D42*
X126500000Y-82446500D03*
X127000000Y-82446500D03*
X127500000Y-82446500D03*
D41*
X128162500Y-82284000D03*
X128162500Y-81784000D03*
X128162500Y-81284000D03*
X128162500Y-80784000D03*
D42*
X127500000Y-80621500D03*
X127000000Y-80621500D03*
X126500000Y-80621500D03*
%TD*%
D17*
%TO.C,D37*%
X119625000Y-58550000D03*
X118275000Y-57650000D03*
X119625000Y-57650000D03*
X118275000Y-58550000D03*
%TD*%
D18*
%TO.C,C24*%
X141470000Y-51800000D03*
X142430000Y-51800000D03*
%TD*%
D43*
%TO.C,U1*%
X140562500Y-84350000D03*
X140562500Y-86250000D03*
X142437500Y-85300000D03*
%TD*%
D17*
%TO.C,D188*%
X135725000Y-79250000D03*
X134375000Y-78350000D03*
X135725000Y-78350000D03*
X134375000Y-79250000D03*
%TD*%
%TO.C,D44*%
X135725000Y-58550000D03*
X134375000Y-57650000D03*
X135725000Y-57650000D03*
X134375000Y-58550000D03*
%TD*%
%TO.C,D121*%
X128825000Y-70050000D03*
X127475000Y-69150000D03*
X128825000Y-69150000D03*
X127475000Y-70050000D03*
%TD*%
%TO.C,D108*%
X135725000Y-67750000D03*
X134375000Y-66850000D03*
X135725000Y-66850000D03*
X134375000Y-67750000D03*
%TD*%
%TO.C,D169*%
X128825000Y-76950000D03*
X127475000Y-76050000D03*
X128825000Y-76050000D03*
X127475000Y-76950000D03*
%TD*%
%TO.C,D149*%
X119625000Y-74650000D03*
X118275000Y-73750000D03*
X119625000Y-73750000D03*
X118275000Y-74650000D03*
%TD*%
D18*
%TO.C,C10*%
X136870000Y-51800000D03*
X137830000Y-51800000D03*
%TD*%
D17*
%TO.C,D150*%
X121925000Y-74650000D03*
X120575000Y-73750000D03*
X121925000Y-73750000D03*
X120575000Y-74650000D03*
%TD*%
D44*
%TO.C,D199*%
X118200000Y-94300000D03*
X119600000Y-94300000D03*
%TD*%
D23*
%TO.C,R10*%
X128400000Y-92760000D03*
X128400000Y-91740000D03*
%TD*%
D22*
%TO.C,SW6*%
X145025000Y-88350000D03*
X145025000Y-92350000D03*
X142875000Y-88350000D03*
X142875000Y-92350000D03*
%TD*%
D17*
%TO.C,D8*%
X126525000Y-53950000D03*
X125175000Y-53050000D03*
X126525000Y-53050000D03*
X125175000Y-53950000D03*
%TD*%
%TO.C,D144*%
X144925000Y-72350000D03*
X143575000Y-71450000D03*
X144925000Y-71450000D03*
X143575000Y-72350000D03*
%TD*%
%TO.C,D52*%
X117325000Y-60850000D03*
X115975000Y-59950000D03*
X117325000Y-59950000D03*
X115975000Y-60850000D03*
%TD*%
%TO.C,D152*%
X126525000Y-74650000D03*
X125175000Y-73750000D03*
X126525000Y-73750000D03*
X125175000Y-74650000D03*
%TD*%
%TO.C,D58*%
X131125000Y-60850000D03*
X129775000Y-59950000D03*
X131125000Y-59950000D03*
X129775000Y-60850000D03*
%TD*%
%TO.C,D109*%
X138025000Y-67750000D03*
X136675000Y-66850000D03*
X138025000Y-66850000D03*
X136675000Y-67750000D03*
%TD*%
D30*
%TO.C,R15*%
X112690000Y-83270000D03*
X113710000Y-83270000D03*
%TD*%
D17*
%TO.C,D131*%
X115025000Y-72350000D03*
X113675000Y-71450000D03*
X115025000Y-71450000D03*
X113675000Y-72350000D03*
%TD*%
%TO.C,D166*%
X121925000Y-76950000D03*
X120575000Y-76050000D03*
X121925000Y-76050000D03*
X120575000Y-76950000D03*
%TD*%
%TO.C,D11*%
X133425000Y-53950000D03*
X132075000Y-53050000D03*
X133425000Y-53050000D03*
X132075000Y-53950000D03*
%TD*%
D30*
%TO.C,R14*%
X134640000Y-88000000D03*
X135660000Y-88000000D03*
%TD*%
D17*
%TO.C,D124*%
X135725000Y-70050000D03*
X134375000Y-69150000D03*
X135725000Y-69150000D03*
X134375000Y-70050000D03*
%TD*%
%TO.C,D49*%
X110425000Y-60850000D03*
X109075000Y-59950000D03*
X110425000Y-59950000D03*
X109075000Y-60850000D03*
%TD*%
%TO.C,D14*%
X140325000Y-53950000D03*
X138975000Y-53050000D03*
X140325000Y-53050000D03*
X138975000Y-53950000D03*
%TD*%
D18*
%TO.C,C5*%
X125370000Y-51800000D03*
X126330000Y-51800000D03*
%TD*%
D17*
%TO.C,D184*%
X126525000Y-79250000D03*
X125175000Y-78350000D03*
X126525000Y-78350000D03*
X125175000Y-79250000D03*
%TD*%
%TO.C,D20*%
X117325000Y-56250000D03*
X115975000Y-55350000D03*
X117325000Y-55350000D03*
X115975000Y-56250000D03*
%TD*%
%TO.C,D90*%
X131125000Y-65450000D03*
X129775000Y-64550000D03*
X131125000Y-64550000D03*
X129775000Y-65450000D03*
%TD*%
%TO.C,D79*%
X142625000Y-63150000D03*
X141275000Y-62250000D03*
X142625000Y-62250000D03*
X141275000Y-63150000D03*
%TD*%
D29*
%TO.C,R6*%
X136170600Y-80450000D03*
X135150600Y-80450000D03*
%TD*%
D17*
%TO.C,D151*%
X124225000Y-74650000D03*
X122875000Y-73750000D03*
X124225000Y-73750000D03*
X122875000Y-74650000D03*
%TD*%
%TO.C,D134*%
X121925000Y-72350000D03*
X120575000Y-71450000D03*
X121925000Y-71450000D03*
X120575000Y-72350000D03*
%TD*%
%TO.C,D9*%
X128825000Y-53950000D03*
X127475000Y-53050000D03*
X128825000Y-53050000D03*
X127475000Y-53950000D03*
%TD*%
%TO.C,D143*%
X142625000Y-72350000D03*
X141275000Y-71450000D03*
X142625000Y-71450000D03*
X141275000Y-72350000D03*
%TD*%
%TO.C,D130*%
X112725000Y-72350000D03*
X111375000Y-71450000D03*
X112725000Y-71450000D03*
X111375000Y-72350000D03*
%TD*%
D45*
%TO.C,U4*%
X138778200Y-81981000D03*
D46*
X138628200Y-81431000D03*
D45*
X138778200Y-80881000D03*
D47*
X137178200Y-80681000D03*
X137178200Y-81181000D03*
X137178200Y-81681000D03*
X137178200Y-82181000D03*
%TD*%
D25*
%TO.C,C21*%
X130170000Y-91770000D03*
X130170000Y-92730000D03*
%TD*%
D38*
%TO.C,C28*%
X140560600Y-80904000D03*
X140560600Y-82804000D03*
%TD*%
D17*
%TO.C,D148*%
X117325000Y-74650000D03*
X115975000Y-73750000D03*
X117325000Y-73750000D03*
X115975000Y-74650000D03*
%TD*%
D24*
%TO.C,C23*%
X125480000Y-89800000D03*
X124520000Y-89800000D03*
%TD*%
D17*
%TO.C,D133*%
X119625000Y-72350000D03*
X118275000Y-71450000D03*
X119625000Y-71450000D03*
X118275000Y-72350000D03*
%TD*%
%TO.C,D39*%
X124225000Y-58550000D03*
X122875000Y-57650000D03*
X124225000Y-57650000D03*
X122875000Y-58550000D03*
%TD*%
D48*
%TO.C,Q1*%
X112200000Y-80750000D03*
X112200000Y-82050000D03*
X114200000Y-81400000D03*
%TD*%
D17*
%TO.C,D96*%
X144925000Y-65450000D03*
X143575000Y-64550000D03*
X144925000Y-64550000D03*
X143575000Y-65450000D03*
%TD*%
D49*
%TO.C,U6*%
X133487500Y-89800000D03*
X133487500Y-89400000D03*
X133487500Y-89000000D03*
X133487500Y-88600000D03*
X133487500Y-88200000D03*
X133487500Y-87800000D03*
X133487500Y-87400000D03*
X133487500Y-87000000D03*
X133487500Y-86600000D03*
X133487500Y-86200000D03*
X133487500Y-85800000D03*
X133487500Y-85400000D03*
X133487500Y-85000000D03*
X133487500Y-84600000D03*
D50*
X132650000Y-83762500D03*
X132250000Y-83762500D03*
X131850000Y-83762500D03*
X131450000Y-83762500D03*
X131050000Y-83762500D03*
X130650000Y-83762500D03*
X130250000Y-83762500D03*
X129850000Y-83762500D03*
X129450000Y-83762500D03*
X129050000Y-83762500D03*
X128650000Y-83762500D03*
X128250000Y-83762500D03*
X127850000Y-83762500D03*
X127450000Y-83762500D03*
D49*
X126612500Y-84600000D03*
X126612500Y-85000000D03*
X126612500Y-85400000D03*
X126612500Y-85800000D03*
X126612500Y-86200000D03*
X126612500Y-86600000D03*
X126612500Y-87000000D03*
X126612500Y-87400000D03*
X126612500Y-87800000D03*
X126612500Y-88200000D03*
X126612500Y-88600000D03*
X126612500Y-89000000D03*
X126612500Y-89400000D03*
X126612500Y-89800000D03*
D50*
X127450000Y-90637500D03*
X127850000Y-90637500D03*
X128250000Y-90637500D03*
X128650000Y-90637500D03*
X129050000Y-90637500D03*
X129450000Y-90637500D03*
X129850000Y-90637500D03*
X130250000Y-90637500D03*
X130650000Y-90637500D03*
X131050000Y-90637500D03*
X131450000Y-90637500D03*
X131850000Y-90637500D03*
X132250000Y-90637500D03*
X132650000Y-90637500D03*
D51*
X130050000Y-87200000D03*
%TD*%
D17*
%TO.C,D127*%
X142625000Y-70050000D03*
X141275000Y-69150000D03*
X142625000Y-69150000D03*
X141275000Y-70050000D03*
%TD*%
%TO.C,D182*%
X121925000Y-79250000D03*
X120575000Y-78350000D03*
X121925000Y-78350000D03*
X120575000Y-79250000D03*
%TD*%
%TO.C,D170*%
X131125000Y-76950000D03*
X129775000Y-76050000D03*
X131125000Y-76050000D03*
X129775000Y-76950000D03*
%TD*%
%TO.C,D43*%
X133425000Y-58550000D03*
X132075000Y-57650000D03*
X133425000Y-57650000D03*
X132075000Y-58550000D03*
%TD*%
%TO.C,D146*%
X112725000Y-74650000D03*
X111375000Y-73750000D03*
X112725000Y-73750000D03*
X111375000Y-74650000D03*
%TD*%
%TO.C,D120*%
X126525000Y-70050000D03*
X125175000Y-69150000D03*
X126525000Y-69150000D03*
X125175000Y-70050000D03*
%TD*%
%TO.C,D15*%
X142625000Y-53950000D03*
X141275000Y-53050000D03*
X142625000Y-53050000D03*
X141275000Y-53950000D03*
%TD*%
%TO.C,D183*%
X124225000Y-79250000D03*
X122875000Y-78350000D03*
X124225000Y-78350000D03*
X122875000Y-79250000D03*
%TD*%
D27*
%TO.C,R1*%
X125650000Y-91740000D03*
X125650000Y-92760000D03*
%TD*%
D17*
%TO.C,D117*%
X119625000Y-70050000D03*
X118275000Y-69150000D03*
X119625000Y-69150000D03*
X118275000Y-70050000D03*
%TD*%
%TO.C,D53*%
X119625000Y-60850000D03*
X118275000Y-59950000D03*
X119625000Y-59950000D03*
X118275000Y-60850000D03*
%TD*%
%TO.C,D177*%
X110425000Y-79250000D03*
X109075000Y-78350000D03*
X110425000Y-78350000D03*
X109075000Y-79250000D03*
%TD*%
%TO.C,D156*%
X135725000Y-74650000D03*
X134375000Y-73750000D03*
X135725000Y-73750000D03*
X134375000Y-74650000D03*
%TD*%
D52*
%TO.C,D197*%
X141200000Y-89562500D03*
X141200000Y-91137500D03*
%TD*%
D17*
%TO.C,D45*%
X138025000Y-58550000D03*
X136675000Y-57650000D03*
X138025000Y-57650000D03*
X136675000Y-58550000D03*
%TD*%
%TO.C,D186*%
X131125000Y-79250000D03*
X129775000Y-78350000D03*
X131125000Y-78350000D03*
X129775000Y-79250000D03*
%TD*%
%TO.C,D112*%
X144925000Y-67750000D03*
X143575000Y-66850000D03*
X144925000Y-66850000D03*
X143575000Y-67750000D03*
%TD*%
%TO.C,D6*%
X121925000Y-53950000D03*
X120575000Y-53050000D03*
X121925000Y-53050000D03*
X120575000Y-53950000D03*
%TD*%
%TO.C,D191*%
X142625000Y-79250000D03*
X141275000Y-78350000D03*
X142625000Y-78350000D03*
X141275000Y-79250000D03*
%TD*%
%TO.C,D147*%
X115025000Y-74650000D03*
X113675000Y-73750000D03*
X115025000Y-73750000D03*
X113675000Y-74650000D03*
%TD*%
D52*
%TO.C,D195*%
X114550000Y-88862500D03*
X114550000Y-90437500D03*
%TD*%
D17*
%TO.C,D106*%
X131125000Y-67750000D03*
X129775000Y-66850000D03*
X131125000Y-66850000D03*
X129775000Y-67750000D03*
%TD*%
%TO.C,D72*%
X126525000Y-63150000D03*
X125175000Y-62250000D03*
X126525000Y-62250000D03*
X125175000Y-63150000D03*
%TD*%
%TO.C,D75*%
X133425000Y-63150000D03*
X132075000Y-62250000D03*
X133425000Y-62250000D03*
X132075000Y-63150000D03*
%TD*%
%TO.C,D57*%
X128825000Y-60850000D03*
X127475000Y-59950000D03*
X128825000Y-59950000D03*
X127475000Y-60850000D03*
%TD*%
%TO.C,D181*%
X119625000Y-79250000D03*
X118275000Y-78350000D03*
X119625000Y-78350000D03*
X118275000Y-79250000D03*
%TD*%
%TO.C,D172*%
X135725000Y-76950000D03*
X134375000Y-76050000D03*
X135725000Y-76050000D03*
X134375000Y-76950000D03*
%TD*%
%TO.C,D93*%
X138025000Y-65450000D03*
X136675000Y-64550000D03*
X138025000Y-64550000D03*
X136675000Y-65450000D03*
%TD*%
%TO.C,D171*%
X133425000Y-76950000D03*
X132075000Y-76050000D03*
X133425000Y-76050000D03*
X132075000Y-76950000D03*
%TD*%
%TO.C,D34*%
X112725000Y-58550000D03*
X111375000Y-57650000D03*
X112725000Y-57650000D03*
X111375000Y-58550000D03*
%TD*%
%TO.C,D173*%
X138025000Y-76950000D03*
X136675000Y-76050000D03*
X138025000Y-76050000D03*
X136675000Y-76950000D03*
%TD*%
D30*
%TO.C,R7*%
X134640000Y-88950000D03*
X135660000Y-88950000D03*
%TD*%
D17*
%TO.C,D159*%
X142625000Y-74650000D03*
X141275000Y-73750000D03*
X142625000Y-73750000D03*
X141275000Y-74650000D03*
%TD*%
%TO.C,D26*%
X131125000Y-56250000D03*
X129775000Y-55350000D03*
X131125000Y-55350000D03*
X129775000Y-56250000D03*
%TD*%
%TO.C,D73*%
X128825000Y-63150000D03*
X127475000Y-62250000D03*
X128825000Y-62250000D03*
X127475000Y-63150000D03*
%TD*%
%TO.C,D175*%
X142625000Y-76950000D03*
X141275000Y-76050000D03*
X142625000Y-76050000D03*
X141275000Y-76950000D03*
%TD*%
%TO.C,D125*%
X138025000Y-70050000D03*
X136675000Y-69150000D03*
X138025000Y-69150000D03*
X136675000Y-70050000D03*
%TD*%
%TO.C,D94*%
X140325000Y-65450000D03*
X138975000Y-64550000D03*
X140325000Y-64550000D03*
X138975000Y-65450000D03*
%TD*%
%TO.C,D189*%
X138025000Y-79250000D03*
X136675000Y-78350000D03*
X138025000Y-78350000D03*
X136675000Y-79250000D03*
%TD*%
%TO.C,D88*%
X126525000Y-65450000D03*
X125175000Y-64550000D03*
X126525000Y-64550000D03*
X125175000Y-65450000D03*
%TD*%
D18*
%TO.C,C12*%
X140720000Y-87460000D03*
X141680000Y-87460000D03*
%TD*%
D17*
%TO.C,D80*%
X144925000Y-63150000D03*
X143575000Y-62250000D03*
X144925000Y-62250000D03*
X143575000Y-63150000D03*
%TD*%
%TO.C,D5*%
X119625000Y-53950000D03*
X118275000Y-53050000D03*
X119625000Y-53050000D03*
X118275000Y-53950000D03*
%TD*%
%TO.C,D126*%
X140325000Y-70050000D03*
X138975000Y-69150000D03*
X140325000Y-69150000D03*
X138975000Y-70050000D03*
%TD*%
%TO.C,D107*%
X133425000Y-67750000D03*
X132075000Y-66850000D03*
X133425000Y-66850000D03*
X132075000Y-67750000D03*
%TD*%
%TO.C,D33*%
X110425000Y-58550000D03*
X109075000Y-57650000D03*
X110425000Y-57650000D03*
X109075000Y-58550000D03*
%TD*%
%TO.C,D192*%
X144925000Y-79250000D03*
X143575000Y-78350000D03*
X144925000Y-78350000D03*
X143575000Y-79250000D03*
%TD*%
%TO.C,D142*%
X140325000Y-72350000D03*
X138975000Y-71450000D03*
X140325000Y-71450000D03*
X138975000Y-72350000D03*
%TD*%
%TO.C,D36*%
X117325000Y-58550000D03*
X115975000Y-57650000D03*
X117325000Y-57650000D03*
X115975000Y-58550000D03*
%TD*%
%TO.C,D129*%
X110425000Y-72350000D03*
X109075000Y-71450000D03*
X110425000Y-71450000D03*
X109075000Y-72350000D03*
%TD*%
%TO.C,D2*%
X112725000Y-53950000D03*
X111375000Y-53050000D03*
X112725000Y-53050000D03*
X111375000Y-53950000D03*
%TD*%
%TO.C,D7*%
X124225000Y-53950000D03*
X122875000Y-53050000D03*
X124225000Y-53050000D03*
X122875000Y-53950000D03*
%TD*%
D18*
%TO.C,C4*%
X123070000Y-51800000D03*
X124030000Y-51800000D03*
%TD*%
D25*
%TO.C,C11*%
X143900000Y-85320000D03*
X143900000Y-86280000D03*
%TD*%
D53*
%TO.C,LS1*%
X123000000Y-81850000D03*
X119400000Y-81850000D03*
X123000000Y-85350000D03*
%TD*%
D17*
%TO.C,D4*%
X117325000Y-53950000D03*
X115975000Y-53050000D03*
X117325000Y-53050000D03*
X115975000Y-53950000D03*
%TD*%
%TO.C,D68*%
X117325000Y-63150000D03*
X115975000Y-62250000D03*
X117325000Y-62250000D03*
X115975000Y-63150000D03*
%TD*%
%TO.C,D67*%
X115025000Y-63150000D03*
X113675000Y-62250000D03*
X115025000Y-62250000D03*
X113675000Y-63150000D03*
%TD*%
%TO.C,D10*%
X131125000Y-53950000D03*
X129775000Y-53050000D03*
X131125000Y-53050000D03*
X129775000Y-53950000D03*
%TD*%
%TO.C,D74*%
X131125000Y-63150000D03*
X129775000Y-62250000D03*
X131125000Y-62250000D03*
X129775000Y-63150000D03*
%TD*%
D18*
%TO.C,C19*%
X129170000Y-82600000D03*
X130130000Y-82600000D03*
%TD*%
D17*
%TO.C,D111*%
X142625000Y-67750000D03*
X141275000Y-66850000D03*
X142625000Y-66850000D03*
X141275000Y-67750000D03*
%TD*%
%TO.C,D179*%
X115025000Y-79250000D03*
X113675000Y-78350000D03*
X115025000Y-78350000D03*
X113675000Y-79250000D03*
%TD*%
D54*
%TO.C,D193*%
X144523000Y-82900000D03*
X144523000Y-80800000D03*
%TD*%
D17*
%TO.C,D180*%
X117325000Y-79250000D03*
X115975000Y-78350000D03*
X117325000Y-78350000D03*
X115975000Y-79250000D03*
%TD*%
%TO.C,D56*%
X126525000Y-60850000D03*
X125175000Y-59950000D03*
X126525000Y-59950000D03*
X125175000Y-60850000D03*
%TD*%
%TO.C,D145*%
X110425000Y-74650000D03*
X109075000Y-73750000D03*
X110425000Y-73750000D03*
X109075000Y-74650000D03*
%TD*%
%TO.C,D65*%
X110425000Y-63150000D03*
X109075000Y-62250000D03*
X110425000Y-62250000D03*
X109075000Y-63150000D03*
%TD*%
D55*
%TO.C,X1*%
X135920000Y-95750000D03*
D56*
X135920000Y-98290000D03*
D57*
X138460000Y-95750000D03*
X138460000Y-98290000D03*
D56*
X141000000Y-95750000D03*
X141000000Y-98290000D03*
%TD*%
D17*
%TO.C,D157*%
X138025000Y-74650000D03*
X136675000Y-73750000D03*
X138025000Y-73750000D03*
X136675000Y-74650000D03*
%TD*%
%TO.C,D25*%
X128825000Y-56250000D03*
X127475000Y-55350000D03*
X128825000Y-55350000D03*
X127475000Y-56250000D03*
%TD*%
D18*
%TO.C,C7*%
X129970000Y-51800000D03*
X130930000Y-51800000D03*
%TD*%
D17*
%TO.C,D19*%
X115025000Y-56250000D03*
X113675000Y-55350000D03*
X115025000Y-55350000D03*
X113675000Y-56250000D03*
%TD*%
%TO.C,D100*%
X117325000Y-67750000D03*
X115975000Y-66850000D03*
X117325000Y-66850000D03*
X115975000Y-67750000D03*
%TD*%
D30*
%TO.C,R3*%
X118390000Y-92450000D03*
X119410000Y-92450000D03*
%TD*%
D17*
%TO.C,D84*%
X117325000Y-65450000D03*
X115975000Y-64550000D03*
X117325000Y-64550000D03*
X115975000Y-65450000D03*
%TD*%
D25*
%TO.C,C20*%
X134650000Y-89870000D03*
X134650000Y-90830000D03*
%TD*%
D18*
%TO.C,C31*%
X143770000Y-51800000D03*
X144730000Y-51800000D03*
%TD*%
D17*
%TO.C,D114*%
X112725000Y-70050000D03*
X111375000Y-69150000D03*
X112725000Y-69150000D03*
X111375000Y-70050000D03*
%TD*%
D18*
%TO.C,C9*%
X134570000Y-51800000D03*
X135530000Y-51800000D03*
%TD*%
D17*
%TO.C,D63*%
X142625000Y-60850000D03*
X141275000Y-59950000D03*
X142625000Y-59950000D03*
X141275000Y-60850000D03*
%TD*%
%TO.C,D139*%
X133425000Y-72350000D03*
X132075000Y-71450000D03*
X133425000Y-71450000D03*
X132075000Y-72350000D03*
%TD*%
%TO.C,D97*%
X110425000Y-67750000D03*
X109075000Y-66850000D03*
X110425000Y-66850000D03*
X109075000Y-67750000D03*
%TD*%
%TO.C,D35*%
X115025000Y-58550000D03*
X113675000Y-57650000D03*
X115025000Y-57650000D03*
X113675000Y-58550000D03*
%TD*%
D58*
%TO.C,C16*%
X136900000Y-86400000D03*
X138800000Y-86400000D03*
%TD*%
D31*
%TO.C,D198*%
X116740000Y-82100000D03*
X115340000Y-82100000D03*
%TD*%
D17*
%TO.C,D18*%
X112725000Y-56250000D03*
X111375000Y-55350000D03*
X112725000Y-55350000D03*
X111375000Y-56250000D03*
%TD*%
%TO.C,D32*%
X144925000Y-56250000D03*
X143575000Y-55350000D03*
X144925000Y-55350000D03*
X143575000Y-56250000D03*
%TD*%
%TO.C,D48*%
X144925000Y-58550000D03*
X143575000Y-57650000D03*
X144925000Y-57650000D03*
X143575000Y-58550000D03*
%TD*%
%TO.C,D41*%
X128825000Y-58550000D03*
X127475000Y-57650000D03*
X128825000Y-57650000D03*
X127475000Y-58550000D03*
%TD*%
%TO.C,D162*%
X112725000Y-76950000D03*
X111375000Y-76050000D03*
X112725000Y-76050000D03*
X111375000Y-76950000D03*
%TD*%
%TO.C,D113*%
X110425000Y-70050000D03*
X109075000Y-69150000D03*
X110425000Y-69150000D03*
X109075000Y-70050000D03*
%TD*%
%TO.C,D76*%
X135725000Y-63150000D03*
X134375000Y-62250000D03*
X135725000Y-62250000D03*
X134375000Y-63150000D03*
%TD*%
D59*
%TO.C,J2*%
X110100000Y-81300000D03*
D60*
X110100000Y-83840000D03*
X110100000Y-86380000D03*
%TD*%
D61*
%TO.C,J1*%
X111480000Y-51700000D03*
D62*
X112750000Y-51700000D03*
X114020000Y-51700000D03*
%TD*%
G36*
X111454736Y-91550942D02*
G01*
X111516975Y-91563322D01*
X111534639Y-91570638D01*
X111583317Y-91603163D01*
X111596836Y-91616682D01*
X111629361Y-91665360D01*
X111636677Y-91683023D01*
X111649058Y-91745263D01*
X111650000Y-91754823D01*
X111650000Y-97470176D01*
X111649058Y-97479736D01*
X111636677Y-97541976D01*
X111629361Y-97559639D01*
X111596836Y-97608317D01*
X111583317Y-97621836D01*
X111534639Y-97654361D01*
X111516976Y-97661677D01*
X111454737Y-97674058D01*
X111445177Y-97675000D01*
X108154823Y-97675000D01*
X108145263Y-97674058D01*
X108083023Y-97661677D01*
X108065360Y-97654361D01*
X108016682Y-97621836D01*
X108003163Y-97608317D01*
X107970638Y-97559639D01*
X107963321Y-97541975D01*
X107950941Y-97479735D01*
X107950000Y-97470176D01*
X107950000Y-91754823D01*
X107950941Y-91745264D01*
X107963321Y-91683024D01*
X107970638Y-91665360D01*
X108003163Y-91616682D01*
X108016682Y-91603163D01*
X108065360Y-91570638D01*
X108083024Y-91563321D01*
X108145264Y-91550941D01*
X108154823Y-91550000D01*
X111445177Y-91550000D01*
X111454736Y-91550942D01*
G37*
%LPD*%
M02*
