%TF.GenerationSoftware,KiCad,Pcbnew,8.0.4*%
%TF.CreationDate,2024-09-02T23:34:24-07:00*%
%TF.ProjectId,badgesao,62616467-6573-4616-9f2e-6b696361645f,rev?*%
%TF.SameCoordinates,Original*%
%TF.FileFunction,Soldermask,Top*%
%TF.FilePolarity,Negative*%
%FSLAX46Y46*%
G04 Gerber Fmt 4.6, Leading zero omitted, Abs format (unit mm)*
G04 Created by KiCad (PCBNEW 8.0.4) date 2024-09-02 23:34:24*
%MOMM*%
%LPD*%
G01*
G04 APERTURE LIST*
G04 Aperture macros list*
%AMRoundRect*
0 Rectangle with rounded corners*
0 $1 Rounding radius*
0 $2 $3 $4 $5 $6 $7 $8 $9 X,Y pos of 4 corners*
0 Add a 4 corners polygon primitive as box body*
4,1,4,$2,$3,$4,$5,$6,$7,$8,$9,$2,$3,0*
0 Add four circle primitives for the rounded corners*
1,1,$1+$1,$2,$3*
1,1,$1+$1,$4,$5*
1,1,$1+$1,$6,$7*
1,1,$1+$1,$8,$9*
0 Add four rect primitives between the rounded corners*
20,1,$1+$1,$2,$3,$4,$5,0*
20,1,$1+$1,$4,$5,$6,$7,0*
20,1,$1+$1,$6,$7,$8,$9,0*
20,1,$1+$1,$8,$9,$2,$3,0*%
%AMHorizOval*
0 Thick line with rounded ends*
0 $1 width*
0 $2 $3 position (X,Y) of the first rounded end (center of the circle)*
0 $4 $5 position (X,Y) of the second rounded end (center of the circle)*
0 Add line between two ends*
20,1,$1,$2,$3,$4,$5,0*
0 Add two circle primitives to create the rounded ends*
1,1,$1,$2,$3*
1,1,$1,$4,$5*%
G04 Aperture macros list end*
%ADD10RoundRect,0.065000X0.260000X0.285000X-0.260000X0.285000X-0.260000X-0.285000X0.260000X-0.285000X0*%
%ADD11R,1.000000X1.000000*%
%ADD12HorizOval,1.000000X0.000000X0.000000X0.000000X0.000000X0*%
%ADD13R,0.750000X0.700000*%
%ADD14RoundRect,0.140000X-0.140000X-0.170000X0.140000X-0.170000X0.140000X0.170000X-0.140000X0.170000X0*%
%ADD15RoundRect,0.150000X0.150000X0.200000X-0.150000X0.200000X-0.150000X-0.200000X0.150000X-0.200000X0*%
%ADD16RoundRect,0.135000X-0.135000X-0.185000X0.135000X-0.185000X0.135000X0.185000X-0.135000X0.185000X0*%
%ADD17RoundRect,0.112500X-0.112500X-0.237500X0.112500X-0.237500X0.112500X0.237500X-0.112500X0.237500X0*%
%ADD18RoundRect,0.150000X-0.150000X-0.200000X0.150000X-0.200000X0.150000X0.200000X-0.150000X0.200000X0*%
%ADD19R,1.700000X1.700000*%
%ADD20O,1.700000X1.700000*%
%ADD21RoundRect,0.135000X-0.185000X0.135000X-0.185000X-0.135000X0.185000X-0.135000X0.185000X0.135000X0*%
%ADD22RoundRect,0.250000X-0.300000X0.300000X-0.300000X-0.300000X0.300000X-0.300000X0.300000X0.300000X0*%
%ADD23R,1.700000X1.000000*%
%ADD24RoundRect,0.062500X0.162500X0.062500X-0.162500X0.062500X-0.162500X-0.062500X0.162500X-0.062500X0*%
%ADD25RoundRect,0.087500X0.487500X0.087500X-0.487500X0.087500X-0.487500X-0.087500X0.487500X-0.087500X0*%
%ADD26RoundRect,0.050000X0.675000X0.050000X-0.675000X0.050000X-0.675000X-0.050000X0.675000X-0.050000X0*%
%ADD27R,0.200000X1.600000*%
%ADD28RoundRect,0.062500X0.387500X0.062500X-0.387500X0.062500X-0.387500X-0.062500X0.387500X-0.062500X0*%
%ADD29O,1.000000X1.800000*%
%ADD30O,1.000000X2.100000*%
%ADD31RoundRect,0.150000X-0.150000X-0.425000X0.150000X-0.425000X0.150000X0.425000X-0.150000X0.425000X0*%
%ADD32RoundRect,0.075000X-0.075000X-0.500000X0.075000X-0.500000X0.075000X0.500000X-0.075000X0.500000X0*%
%ADD33C,0.650000*%
%ADD34RoundRect,0.135000X0.185000X-0.135000X0.185000X0.135000X-0.185000X0.135000X-0.185000X-0.135000X0*%
%ADD35RoundRect,0.218750X-0.256250X0.218750X-0.256250X-0.218750X0.256250X-0.218750X0.256250X0.218750X0*%
%ADD36RoundRect,0.112500X0.112500X-0.187500X0.112500X0.187500X-0.112500X0.187500X-0.112500X-0.187500X0*%
%ADD37RoundRect,0.135000X0.135000X0.185000X-0.135000X0.185000X-0.135000X-0.185000X0.135000X-0.185000X0*%
%ADD38RoundRect,0.250000X-0.475000X0.250000X-0.475000X-0.250000X0.475000X-0.250000X0.475000X0.250000X0*%
%ADD39RoundRect,0.250000X-0.250000X-0.475000X0.250000X-0.475000X0.250000X0.475000X-0.250000X0.475000X0*%
%ADD40RoundRect,0.250000X-0.375000X-0.850000X0.375000X-0.850000X0.375000X0.850000X-0.375000X0.850000X0*%
%ADD41R,1.400000X1.200000*%
%ADD42R,1.727200X1.727200*%
%ADD43C,1.727200*%
%ADD44O,1.727200X1.727200*%
%ADD45RoundRect,0.050000X0.387500X0.050000X-0.387500X0.050000X-0.387500X-0.050000X0.387500X-0.050000X0*%
%ADD46RoundRect,0.050000X0.050000X0.387500X-0.050000X0.387500X-0.050000X-0.387500X0.050000X-0.387500X0*%
%ADD47R,3.200000X3.200000*%
%ADD48RoundRect,0.087500X-0.225000X-0.087500X0.225000X-0.087500X0.225000X0.087500X-0.225000X0.087500X0*%
%ADD49RoundRect,0.087500X-0.087500X-0.225000X0.087500X-0.225000X0.087500X0.225000X-0.087500X0.225000X0*%
%ADD50RoundRect,0.150000X-0.587500X-0.150000X0.587500X-0.150000X0.587500X0.150000X-0.587500X0.150000X0*%
%ADD51R,0.650000X1.050000*%
%ADD52R,1.050000X0.650000*%
%ADD53RoundRect,0.140000X0.170000X-0.140000X0.170000X0.140000X-0.170000X0.140000X-0.170000X-0.140000X0*%
%ADD54RoundRect,0.140000X0.140000X0.170000X-0.140000X0.170000X-0.140000X-0.170000X0.140000X-0.170000X0*%
%ADD55RoundRect,0.140000X-0.170000X0.140000X-0.170000X-0.140000X0.170000X-0.140000X0.170000X0.140000X0*%
%ADD56RoundRect,0.140000X-0.219203X-0.021213X-0.021213X-0.219203X0.219203X0.021213X0.021213X0.219203X0*%
G04 APERTURE END LIST*
D10*
%TO.C,D192*%
X143575000Y-78350000D03*
X144925000Y-79250000D03*
X143575000Y-79250000D03*
X144925000Y-78350000D03*
%TD*%
%TO.C,D191*%
X141275000Y-78350000D03*
X142625000Y-79250000D03*
X141275000Y-79250000D03*
X142625000Y-78350000D03*
%TD*%
%TO.C,D190*%
X138975000Y-78350000D03*
X140325000Y-79250000D03*
X138975000Y-79250000D03*
X140325000Y-78350000D03*
%TD*%
%TO.C,D189*%
X136675000Y-78350000D03*
X138025000Y-79250000D03*
X136675000Y-79250000D03*
X138025000Y-78350000D03*
%TD*%
%TO.C,D188*%
X134375000Y-78350000D03*
X135725000Y-79250000D03*
X134375000Y-79250000D03*
X135725000Y-78350000D03*
%TD*%
%TO.C,D187*%
X132075000Y-78350000D03*
X133425000Y-79250000D03*
X132075000Y-79250000D03*
X133425000Y-78350000D03*
%TD*%
%TO.C,D186*%
X129775000Y-78350000D03*
X131125000Y-79250000D03*
X129775000Y-79250000D03*
X131125000Y-78350000D03*
%TD*%
%TO.C,D185*%
X127475000Y-78350000D03*
X128825000Y-79250000D03*
X127475000Y-79250000D03*
X128825000Y-78350000D03*
%TD*%
%TO.C,D184*%
X125175000Y-78350000D03*
X126525000Y-79250000D03*
X125175000Y-79250000D03*
X126525000Y-78350000D03*
%TD*%
%TO.C,D183*%
X122875000Y-78350000D03*
X124225000Y-79250000D03*
X122875000Y-79250000D03*
X124225000Y-78350000D03*
%TD*%
%TO.C,D182*%
X120575000Y-78350000D03*
X121925000Y-79250000D03*
X120575000Y-79250000D03*
X121925000Y-78350000D03*
%TD*%
%TO.C,D181*%
X118275000Y-78350000D03*
X119625000Y-79250000D03*
X118275000Y-79250000D03*
X119625000Y-78350000D03*
%TD*%
%TO.C,D180*%
X115975000Y-78350000D03*
X117325000Y-79250000D03*
X115975000Y-79250000D03*
X117325000Y-78350000D03*
%TD*%
%TO.C,D179*%
X113675000Y-78350000D03*
X115025000Y-79250000D03*
X113675000Y-79250000D03*
X115025000Y-78350000D03*
%TD*%
%TO.C,D178*%
X111375000Y-78350000D03*
X112725000Y-79250000D03*
X111375000Y-79250000D03*
X112725000Y-78350000D03*
%TD*%
%TO.C,D177*%
X109075000Y-78350000D03*
X110425000Y-79250000D03*
X109075000Y-79250000D03*
X110425000Y-78350000D03*
%TD*%
%TO.C,D176*%
X143575000Y-76050000D03*
X144925000Y-76950000D03*
X143575000Y-76950000D03*
X144925000Y-76050000D03*
%TD*%
%TO.C,D175*%
X141275000Y-76050000D03*
X142625000Y-76950000D03*
X141275000Y-76950000D03*
X142625000Y-76050000D03*
%TD*%
%TO.C,D174*%
X138975000Y-76050000D03*
X140325000Y-76950000D03*
X138975000Y-76950000D03*
X140325000Y-76050000D03*
%TD*%
%TO.C,D173*%
X136675000Y-76050000D03*
X138025000Y-76950000D03*
X136675000Y-76950000D03*
X138025000Y-76050000D03*
%TD*%
%TO.C,D172*%
X134375000Y-76050000D03*
X135725000Y-76950000D03*
X134375000Y-76950000D03*
X135725000Y-76050000D03*
%TD*%
%TO.C,D171*%
X132075000Y-76050000D03*
X133425000Y-76950000D03*
X132075000Y-76950000D03*
X133425000Y-76050000D03*
%TD*%
%TO.C,D169*%
X127475000Y-76050000D03*
X128825000Y-76950000D03*
X127475000Y-76950000D03*
X128825000Y-76050000D03*
%TD*%
%TO.C,D168*%
X125175000Y-76050000D03*
X126525000Y-76950000D03*
X125175000Y-76950000D03*
X126525000Y-76050000D03*
%TD*%
%TO.C,D167*%
X122875000Y-76050000D03*
X124225000Y-76950000D03*
X122875000Y-76950000D03*
X124225000Y-76050000D03*
%TD*%
%TO.C,D165*%
X118275000Y-76050000D03*
X119625000Y-76950000D03*
X118275000Y-76950000D03*
X119625000Y-76050000D03*
%TD*%
%TO.C,D164*%
X115975000Y-76050000D03*
X117325000Y-76950000D03*
X115975000Y-76950000D03*
X117325000Y-76050000D03*
%TD*%
%TO.C,D163*%
X113675000Y-76050000D03*
X115025000Y-76950000D03*
X113675000Y-76950000D03*
X115025000Y-76050000D03*
%TD*%
%TO.C,D162*%
X111375000Y-76050000D03*
X112725000Y-76950000D03*
X111375000Y-76950000D03*
X112725000Y-76050000D03*
%TD*%
%TO.C,D161*%
X109075000Y-76050000D03*
X110425000Y-76950000D03*
X109075000Y-76950000D03*
X110425000Y-76050000D03*
%TD*%
%TO.C,D160*%
X143575000Y-73750000D03*
X144925000Y-74650000D03*
X143575000Y-74650000D03*
X144925000Y-73750000D03*
%TD*%
%TO.C,D159*%
X141275000Y-73750000D03*
X142625000Y-74650000D03*
X141275000Y-74650000D03*
X142625000Y-73750000D03*
%TD*%
%TO.C,D158*%
X138975000Y-73750000D03*
X140325000Y-74650000D03*
X138975000Y-74650000D03*
X140325000Y-73750000D03*
%TD*%
%TO.C,D157*%
X136675000Y-73750000D03*
X138025000Y-74650000D03*
X136675000Y-74650000D03*
X138025000Y-73750000D03*
%TD*%
%TO.C,D156*%
X134375000Y-73750000D03*
X135725000Y-74650000D03*
X134375000Y-74650000D03*
X135725000Y-73750000D03*
%TD*%
%TO.C,D155*%
X132075000Y-73750000D03*
X133425000Y-74650000D03*
X132075000Y-74650000D03*
X133425000Y-73750000D03*
%TD*%
%TO.C,D154*%
X129775000Y-73750000D03*
X131125000Y-74650000D03*
X129775000Y-74650000D03*
X131125000Y-73750000D03*
%TD*%
%TO.C,D153*%
X127475000Y-73750000D03*
X128825000Y-74650000D03*
X127475000Y-74650000D03*
X128825000Y-73750000D03*
%TD*%
%TO.C,D152*%
X125175000Y-73750000D03*
X126525000Y-74650000D03*
X125175000Y-74650000D03*
X126525000Y-73750000D03*
%TD*%
%TO.C,D151*%
X122875000Y-73750000D03*
X124225000Y-74650000D03*
X122875000Y-74650000D03*
X124225000Y-73750000D03*
%TD*%
%TO.C,D150*%
X120575000Y-73750000D03*
X121925000Y-74650000D03*
X120575000Y-74650000D03*
X121925000Y-73750000D03*
%TD*%
%TO.C,D149*%
X118275000Y-73750000D03*
X119625000Y-74650000D03*
X118275000Y-74650000D03*
X119625000Y-73750000D03*
%TD*%
%TO.C,D148*%
X115975000Y-73750000D03*
X117325000Y-74650000D03*
X115975000Y-74650000D03*
X117325000Y-73750000D03*
%TD*%
%TO.C,D147*%
X113675000Y-73750000D03*
X115025000Y-74650000D03*
X113675000Y-74650000D03*
X115025000Y-73750000D03*
%TD*%
%TO.C,D146*%
X111375000Y-73750000D03*
X112725000Y-74650000D03*
X111375000Y-74650000D03*
X112725000Y-73750000D03*
%TD*%
%TO.C,D145*%
X109075000Y-73750000D03*
X110425000Y-74650000D03*
X109075000Y-74650000D03*
X110425000Y-73750000D03*
%TD*%
%TO.C,D144*%
X143575000Y-71450000D03*
X144925000Y-72350000D03*
X143575000Y-72350000D03*
X144925000Y-71450000D03*
%TD*%
%TO.C,D143*%
X141275000Y-71450000D03*
X142625000Y-72350000D03*
X141275000Y-72350000D03*
X142625000Y-71450000D03*
%TD*%
%TO.C,D142*%
X138975000Y-71450000D03*
X140325000Y-72350000D03*
X138975000Y-72350000D03*
X140325000Y-71450000D03*
%TD*%
%TO.C,D141*%
X136675000Y-71450000D03*
X138025000Y-72350000D03*
X136675000Y-72350000D03*
X138025000Y-71450000D03*
%TD*%
%TO.C,D139*%
X132075000Y-71450000D03*
X133425000Y-72350000D03*
X132075000Y-72350000D03*
X133425000Y-71450000D03*
%TD*%
%TO.C,D138*%
X129775000Y-71450000D03*
X131125000Y-72350000D03*
X129775000Y-72350000D03*
X131125000Y-71450000D03*
%TD*%
%TO.C,D137*%
X127475000Y-71450000D03*
X128825000Y-72350000D03*
X127475000Y-72350000D03*
X128825000Y-71450000D03*
%TD*%
%TO.C,D136*%
X125175000Y-71450000D03*
X126525000Y-72350000D03*
X125175000Y-72350000D03*
X126525000Y-71450000D03*
%TD*%
%TO.C,D135*%
X122875000Y-71450000D03*
X124225000Y-72350000D03*
X122875000Y-72350000D03*
X124225000Y-71450000D03*
%TD*%
%TO.C,D134*%
X120575000Y-71450000D03*
X121925000Y-72350000D03*
X120575000Y-72350000D03*
X121925000Y-71450000D03*
%TD*%
%TO.C,D132*%
X115975000Y-71450000D03*
X117325000Y-72350000D03*
X115975000Y-72350000D03*
X117325000Y-71450000D03*
%TD*%
%TO.C,D131*%
X113675000Y-71450000D03*
X115025000Y-72350000D03*
X113675000Y-72350000D03*
X115025000Y-71450000D03*
%TD*%
%TO.C,D130*%
X111375000Y-71450000D03*
X112725000Y-72350000D03*
X111375000Y-72350000D03*
X112725000Y-71450000D03*
%TD*%
%TO.C,D129*%
X109075000Y-71450000D03*
X110425000Y-72350000D03*
X109075000Y-72350000D03*
X110425000Y-71450000D03*
%TD*%
%TO.C,D128*%
X143575000Y-69150000D03*
X144925000Y-70050000D03*
X143575000Y-70050000D03*
X144925000Y-69150000D03*
%TD*%
%TO.C,D127*%
X141275000Y-69150000D03*
X142625000Y-70050000D03*
X141275000Y-70050000D03*
X142625000Y-69150000D03*
%TD*%
%TO.C,D126*%
X138975000Y-69150000D03*
X140325000Y-70050000D03*
X138975000Y-70050000D03*
X140325000Y-69150000D03*
%TD*%
%TO.C,D125*%
X136675000Y-69150000D03*
X138025000Y-70050000D03*
X136675000Y-70050000D03*
X138025000Y-69150000D03*
%TD*%
%TO.C,D124*%
X134375000Y-69150000D03*
X135725000Y-70050000D03*
X134375000Y-70050000D03*
X135725000Y-69150000D03*
%TD*%
%TO.C,D123*%
X132075000Y-69150000D03*
X133425000Y-70050000D03*
X132075000Y-70050000D03*
X133425000Y-69150000D03*
%TD*%
%TO.C,D122*%
X129775000Y-69150000D03*
X131125000Y-70050000D03*
X129775000Y-70050000D03*
X131125000Y-69150000D03*
%TD*%
%TO.C,D121*%
X127475000Y-69150000D03*
X128825000Y-70050000D03*
X127475000Y-70050000D03*
X128825000Y-69150000D03*
%TD*%
%TO.C,D120*%
X125175000Y-69150000D03*
X126525000Y-70050000D03*
X125175000Y-70050000D03*
X126525000Y-69150000D03*
%TD*%
%TO.C,D119*%
X122875000Y-69150000D03*
X124225000Y-70050000D03*
X122875000Y-70050000D03*
X124225000Y-69150000D03*
%TD*%
%TO.C,D118*%
X120575000Y-69150000D03*
X121925000Y-70050000D03*
X120575000Y-70050000D03*
X121925000Y-69150000D03*
%TD*%
%TO.C,D117*%
X118275000Y-69150000D03*
X119625000Y-70050000D03*
X118275000Y-70050000D03*
X119625000Y-69150000D03*
%TD*%
%TO.C,D116*%
X115975000Y-69150000D03*
X117325000Y-70050000D03*
X115975000Y-70050000D03*
X117325000Y-69150000D03*
%TD*%
%TO.C,D115*%
X113675000Y-69150000D03*
X115025000Y-70050000D03*
X113675000Y-70050000D03*
X115025000Y-69150000D03*
%TD*%
%TO.C,D114*%
X111375000Y-69150000D03*
X112725000Y-70050000D03*
X111375000Y-70050000D03*
X112725000Y-69150000D03*
%TD*%
%TO.C,D113*%
X109075000Y-69150000D03*
X110425000Y-70050000D03*
X109075000Y-70050000D03*
X110425000Y-69150000D03*
%TD*%
%TO.C,D112*%
X143575000Y-66850000D03*
X144925000Y-67750000D03*
X143575000Y-67750000D03*
X144925000Y-66850000D03*
%TD*%
%TO.C,D111*%
X141275000Y-66850000D03*
X142625000Y-67750000D03*
X141275000Y-67750000D03*
X142625000Y-66850000D03*
%TD*%
%TO.C,D110*%
X138975000Y-66850000D03*
X140325000Y-67750000D03*
X138975000Y-67750000D03*
X140325000Y-66850000D03*
%TD*%
%TO.C,D109*%
X136675000Y-66850000D03*
X138025000Y-67750000D03*
X136675000Y-67750000D03*
X138025000Y-66850000D03*
%TD*%
%TO.C,D108*%
X134375000Y-66850000D03*
X135725000Y-67750000D03*
X134375000Y-67750000D03*
X135725000Y-66850000D03*
%TD*%
%TO.C,D107*%
X132075000Y-66850000D03*
X133425000Y-67750000D03*
X132075000Y-67750000D03*
X133425000Y-66850000D03*
%TD*%
%TO.C,D106*%
X129775000Y-66850000D03*
X131125000Y-67750000D03*
X129775000Y-67750000D03*
X131125000Y-66850000D03*
%TD*%
%TO.C,D105*%
X127475000Y-66850000D03*
X128825000Y-67750000D03*
X127475000Y-67750000D03*
X128825000Y-66850000D03*
%TD*%
%TO.C,D104*%
X125175000Y-66850000D03*
X126525000Y-67750000D03*
X125175000Y-67750000D03*
X126525000Y-66850000D03*
%TD*%
%TO.C,D103*%
X122875000Y-66850000D03*
X124225000Y-67750000D03*
X122875000Y-67750000D03*
X124225000Y-66850000D03*
%TD*%
%TO.C,D102*%
X120575000Y-66850000D03*
X121925000Y-67750000D03*
X120575000Y-67750000D03*
X121925000Y-66850000D03*
%TD*%
%TO.C,D101*%
X118275000Y-66850000D03*
X119625000Y-67750000D03*
X118275000Y-67750000D03*
X119625000Y-66850000D03*
%TD*%
%TO.C,D100*%
X115975000Y-66850000D03*
X117325000Y-67750000D03*
X115975000Y-67750000D03*
X117325000Y-66850000D03*
%TD*%
%TO.C,D99*%
X113675000Y-66850000D03*
X115025000Y-67750000D03*
X113675000Y-67750000D03*
X115025000Y-66850000D03*
%TD*%
%TO.C,D98*%
X111375000Y-66850000D03*
X112725000Y-67750000D03*
X111375000Y-67750000D03*
X112725000Y-66850000D03*
%TD*%
%TO.C,D97*%
X109075000Y-66850000D03*
X110425000Y-67750000D03*
X109075000Y-67750000D03*
X110425000Y-66850000D03*
%TD*%
%TO.C,D96*%
X143575000Y-64550000D03*
X144925000Y-65450000D03*
X143575000Y-65450000D03*
X144925000Y-64550000D03*
%TD*%
%TO.C,D95*%
X141275000Y-64550000D03*
X142625000Y-65450000D03*
X141275000Y-65450000D03*
X142625000Y-64550000D03*
%TD*%
%TO.C,D94*%
X138975000Y-64550000D03*
X140325000Y-65450000D03*
X138975000Y-65450000D03*
X140325000Y-64550000D03*
%TD*%
%TO.C,D93*%
X136675000Y-64550000D03*
X138025000Y-65450000D03*
X136675000Y-65450000D03*
X138025000Y-64550000D03*
%TD*%
%TO.C,D92*%
X134375000Y-64550000D03*
X135725000Y-65450000D03*
X134375000Y-65450000D03*
X135725000Y-64550000D03*
%TD*%
%TO.C,D91*%
X132075000Y-64550000D03*
X133425000Y-65450000D03*
X132075000Y-65450000D03*
X133425000Y-64550000D03*
%TD*%
%TO.C,D90*%
X129775000Y-64550000D03*
X131125000Y-65450000D03*
X129775000Y-65450000D03*
X131125000Y-64550000D03*
%TD*%
%TO.C,D89*%
X127475000Y-64550000D03*
X128825000Y-65450000D03*
X127475000Y-65450000D03*
X128825000Y-64550000D03*
%TD*%
%TO.C,D88*%
X125175000Y-64550000D03*
X126525000Y-65450000D03*
X125175000Y-65450000D03*
X126525000Y-64550000D03*
%TD*%
%TO.C,D87*%
X122875000Y-64550000D03*
X124225000Y-65450000D03*
X122875000Y-65450000D03*
X124225000Y-64550000D03*
%TD*%
%TO.C,D86*%
X120575000Y-64550000D03*
X121925000Y-65450000D03*
X120575000Y-65450000D03*
X121925000Y-64550000D03*
%TD*%
%TO.C,D85*%
X118275000Y-64550000D03*
X119625000Y-65450000D03*
X118275000Y-65450000D03*
X119625000Y-64550000D03*
%TD*%
%TO.C,D84*%
X115975000Y-64550000D03*
X117325000Y-65450000D03*
X115975000Y-65450000D03*
X117325000Y-64550000D03*
%TD*%
%TO.C,D83*%
X113675000Y-64550000D03*
X115025000Y-65450000D03*
X113675000Y-65450000D03*
X115025000Y-64550000D03*
%TD*%
%TO.C,D82*%
X111375000Y-64550000D03*
X112725000Y-65450000D03*
X111375000Y-65450000D03*
X112725000Y-64550000D03*
%TD*%
%TO.C,D81*%
X109075000Y-64550000D03*
X110425000Y-65450000D03*
X109075000Y-65450000D03*
X110425000Y-64550000D03*
%TD*%
%TO.C,D80*%
X143575000Y-62250000D03*
X144925000Y-63150000D03*
X143575000Y-63150000D03*
X144925000Y-62250000D03*
%TD*%
%TO.C,D79*%
X141275000Y-62250000D03*
X142625000Y-63150000D03*
X141275000Y-63150000D03*
X142625000Y-62250000D03*
%TD*%
%TO.C,D78*%
X138975000Y-62250000D03*
X140325000Y-63150000D03*
X138975000Y-63150000D03*
X140325000Y-62250000D03*
%TD*%
%TO.C,D77*%
X136675000Y-62250000D03*
X138025000Y-63150000D03*
X136675000Y-63150000D03*
X138025000Y-62250000D03*
%TD*%
%TO.C,D76*%
X134375000Y-62250000D03*
X135725000Y-63150000D03*
X134375000Y-63150000D03*
X135725000Y-62250000D03*
%TD*%
%TO.C,D75*%
X132075000Y-62250000D03*
X133425000Y-63150000D03*
X132075000Y-63150000D03*
X133425000Y-62250000D03*
%TD*%
%TO.C,D74*%
X129775000Y-62250000D03*
X131125000Y-63150000D03*
X129775000Y-63150000D03*
X131125000Y-62250000D03*
%TD*%
%TO.C,D73*%
X127475000Y-62250000D03*
X128825000Y-63150000D03*
X127475000Y-63150000D03*
X128825000Y-62250000D03*
%TD*%
%TO.C,D72*%
X125175000Y-62250000D03*
X126525000Y-63150000D03*
X125175000Y-63150000D03*
X126525000Y-62250000D03*
%TD*%
%TO.C,D71*%
X122875000Y-62250000D03*
X124225000Y-63150000D03*
X122875000Y-63150000D03*
X124225000Y-62250000D03*
%TD*%
%TO.C,D70*%
X120575000Y-62250000D03*
X121925000Y-63150000D03*
X120575000Y-63150000D03*
X121925000Y-62250000D03*
%TD*%
%TO.C,D69*%
X118275000Y-62250000D03*
X119625000Y-63150000D03*
X118275000Y-63150000D03*
X119625000Y-62250000D03*
%TD*%
%TO.C,D68*%
X115975000Y-62250000D03*
X117325000Y-63150000D03*
X115975000Y-63150000D03*
X117325000Y-62250000D03*
%TD*%
%TO.C,D67*%
X113675000Y-62250000D03*
X115025000Y-63150000D03*
X113675000Y-63150000D03*
X115025000Y-62250000D03*
%TD*%
%TO.C,D66*%
X111375000Y-62250000D03*
X112725000Y-63150000D03*
X111375000Y-63150000D03*
X112725000Y-62250000D03*
%TD*%
%TO.C,D65*%
X109075000Y-62250000D03*
X110425000Y-63150000D03*
X109075000Y-63150000D03*
X110425000Y-62250000D03*
%TD*%
%TO.C,D64*%
X143575000Y-59950000D03*
X144925000Y-60850000D03*
X143575000Y-60850000D03*
X144925000Y-59950000D03*
%TD*%
%TO.C,D63*%
X141275000Y-59950000D03*
X142625000Y-60850000D03*
X141275000Y-60850000D03*
X142625000Y-59950000D03*
%TD*%
%TO.C,D62*%
X138975000Y-59950000D03*
X140325000Y-60850000D03*
X138975000Y-60850000D03*
X140325000Y-59950000D03*
%TD*%
%TO.C,D61*%
X136675000Y-59950000D03*
X138025000Y-60850000D03*
X136675000Y-60850000D03*
X138025000Y-59950000D03*
%TD*%
%TO.C,D60*%
X134375000Y-59950000D03*
X135725000Y-60850000D03*
X134375000Y-60850000D03*
X135725000Y-59950000D03*
%TD*%
%TO.C,D59*%
X132075000Y-59950000D03*
X133425000Y-60850000D03*
X132075000Y-60850000D03*
X133425000Y-59950000D03*
%TD*%
%TO.C,D58*%
X129775000Y-59950000D03*
X131125000Y-60850000D03*
X129775000Y-60850000D03*
X131125000Y-59950000D03*
%TD*%
%TO.C,D57*%
X127475000Y-59950000D03*
X128825000Y-60850000D03*
X127475000Y-60850000D03*
X128825000Y-59950000D03*
%TD*%
%TO.C,D56*%
X125175000Y-59950000D03*
X126525000Y-60850000D03*
X125175000Y-60850000D03*
X126525000Y-59950000D03*
%TD*%
%TO.C,D55*%
X122875000Y-59950000D03*
X124225000Y-60850000D03*
X122875000Y-60850000D03*
X124225000Y-59950000D03*
%TD*%
%TO.C,D54*%
X120575000Y-59950000D03*
X121925000Y-60850000D03*
X120575000Y-60850000D03*
X121925000Y-59950000D03*
%TD*%
%TO.C,D53*%
X118275000Y-59950000D03*
X119625000Y-60850000D03*
X118275000Y-60850000D03*
X119625000Y-59950000D03*
%TD*%
%TO.C,D52*%
X115975000Y-59950000D03*
X117325000Y-60850000D03*
X115975000Y-60850000D03*
X117325000Y-59950000D03*
%TD*%
%TO.C,D51*%
X113675000Y-59950000D03*
X115025000Y-60850000D03*
X113675000Y-60850000D03*
X115025000Y-59950000D03*
%TD*%
%TO.C,D50*%
X111375000Y-59950000D03*
X112725000Y-60850000D03*
X111375000Y-60850000D03*
X112725000Y-59950000D03*
%TD*%
%TO.C,D49*%
X109075000Y-59950000D03*
X110425000Y-60850000D03*
X109075000Y-60850000D03*
X110425000Y-59950000D03*
%TD*%
%TO.C,D48*%
X143575000Y-57650000D03*
X144925000Y-58550000D03*
X143575000Y-58550000D03*
X144925000Y-57650000D03*
%TD*%
%TO.C,D47*%
X141275000Y-57650000D03*
X142625000Y-58550000D03*
X141275000Y-58550000D03*
X142625000Y-57650000D03*
%TD*%
%TO.C,D46*%
X138975000Y-57650000D03*
X140325000Y-58550000D03*
X138975000Y-58550000D03*
X140325000Y-57650000D03*
%TD*%
%TO.C,D45*%
X136675000Y-57650000D03*
X138025000Y-58550000D03*
X136675000Y-58550000D03*
X138025000Y-57650000D03*
%TD*%
%TO.C,D44*%
X134375000Y-57650000D03*
X135725000Y-58550000D03*
X134375000Y-58550000D03*
X135725000Y-57650000D03*
%TD*%
%TO.C,D43*%
X132075000Y-57650000D03*
X133425000Y-58550000D03*
X132075000Y-58550000D03*
X133425000Y-57650000D03*
%TD*%
%TO.C,D42*%
X129775000Y-57650000D03*
X131125000Y-58550000D03*
X129775000Y-58550000D03*
X131125000Y-57650000D03*
%TD*%
%TO.C,D41*%
X127475000Y-57650000D03*
X128825000Y-58550000D03*
X127475000Y-58550000D03*
X128825000Y-57650000D03*
%TD*%
%TO.C,D40*%
X125175000Y-57650000D03*
X126525000Y-58550000D03*
X125175000Y-58550000D03*
X126525000Y-57650000D03*
%TD*%
%TO.C,D39*%
X122875000Y-57650000D03*
X124225000Y-58550000D03*
X122875000Y-58550000D03*
X124225000Y-57650000D03*
%TD*%
%TO.C,D38*%
X120575000Y-57650000D03*
X121925000Y-58550000D03*
X120575000Y-58550000D03*
X121925000Y-57650000D03*
%TD*%
%TO.C,D37*%
X118275000Y-57650000D03*
X119625000Y-58550000D03*
X118275000Y-58550000D03*
X119625000Y-57650000D03*
%TD*%
%TO.C,D36*%
X115975000Y-57650000D03*
X117325000Y-58550000D03*
X115975000Y-58550000D03*
X117325000Y-57650000D03*
%TD*%
%TO.C,D35*%
X113675000Y-57650000D03*
X115025000Y-58550000D03*
X113675000Y-58550000D03*
X115025000Y-57650000D03*
%TD*%
%TO.C,D34*%
X111375000Y-57650000D03*
X112725000Y-58550000D03*
X111375000Y-58550000D03*
X112725000Y-57650000D03*
%TD*%
%TO.C,D33*%
X109075000Y-57650000D03*
X110425000Y-58550000D03*
X109075000Y-58550000D03*
X110425000Y-57650000D03*
%TD*%
%TO.C,D32*%
X143575000Y-55350000D03*
X144925000Y-56250000D03*
X143575000Y-56250000D03*
X144925000Y-55350000D03*
%TD*%
%TO.C,D31*%
X141275000Y-55350000D03*
X142625000Y-56250000D03*
X141275000Y-56250000D03*
X142625000Y-55350000D03*
%TD*%
%TO.C,D30*%
X138975000Y-55350000D03*
X140325000Y-56250000D03*
X138975000Y-56250000D03*
X140325000Y-55350000D03*
%TD*%
%TO.C,D29*%
X136675000Y-55350000D03*
X138025000Y-56250000D03*
X136675000Y-56250000D03*
X138025000Y-55350000D03*
%TD*%
%TO.C,D28*%
X134375000Y-55350000D03*
X135725000Y-56250000D03*
X134375000Y-56250000D03*
X135725000Y-55350000D03*
%TD*%
%TO.C,D27*%
X132075000Y-55350000D03*
X133425000Y-56250000D03*
X132075000Y-56250000D03*
X133425000Y-55350000D03*
%TD*%
%TO.C,D26*%
X129775000Y-55350000D03*
X131125000Y-56250000D03*
X129775000Y-56250000D03*
X131125000Y-55350000D03*
%TD*%
%TO.C,D25*%
X127475000Y-55350000D03*
X128825000Y-56250000D03*
X127475000Y-56250000D03*
X128825000Y-55350000D03*
%TD*%
%TO.C,D24*%
X125175000Y-55350000D03*
X126525000Y-56250000D03*
X125175000Y-56250000D03*
X126525000Y-55350000D03*
%TD*%
%TO.C,D23*%
X122875000Y-55350000D03*
X124225000Y-56250000D03*
X122875000Y-56250000D03*
X124225000Y-55350000D03*
%TD*%
%TO.C,D22*%
X120575000Y-55350000D03*
X121925000Y-56250000D03*
X120575000Y-56250000D03*
X121925000Y-55350000D03*
%TD*%
%TO.C,D21*%
X118275000Y-55350000D03*
X119625000Y-56250000D03*
X118275000Y-56250000D03*
X119625000Y-55350000D03*
%TD*%
%TO.C,D20*%
X115975000Y-55350000D03*
X117325000Y-56250000D03*
X115975000Y-56250000D03*
X117325000Y-55350000D03*
%TD*%
%TO.C,D19*%
X113675000Y-55350000D03*
X115025000Y-56250000D03*
X113675000Y-56250000D03*
X115025000Y-55350000D03*
%TD*%
%TO.C,D18*%
X111375000Y-55350000D03*
X112725000Y-56250000D03*
X111375000Y-56250000D03*
X112725000Y-55350000D03*
%TD*%
%TO.C,D17*%
X109075000Y-55350000D03*
X110425000Y-56250000D03*
X109075000Y-56250000D03*
X110425000Y-55350000D03*
%TD*%
%TO.C,D16*%
X143575000Y-53050000D03*
X144925000Y-53950000D03*
X143575000Y-53950000D03*
X144925000Y-53050000D03*
%TD*%
%TO.C,D15*%
X141275000Y-53050000D03*
X142625000Y-53950000D03*
X141275000Y-53950000D03*
X142625000Y-53050000D03*
%TD*%
%TO.C,D14*%
X138975000Y-53050000D03*
X140325000Y-53950000D03*
X138975000Y-53950000D03*
X140325000Y-53050000D03*
%TD*%
%TO.C,D13*%
X136675000Y-53050000D03*
X138025000Y-53950000D03*
X136675000Y-53950000D03*
X138025000Y-53050000D03*
%TD*%
%TO.C,D12*%
X134375000Y-53050000D03*
X135725000Y-53950000D03*
X134375000Y-53950000D03*
X135725000Y-53050000D03*
%TD*%
%TO.C,D11*%
X132075000Y-53050000D03*
X133425000Y-53950000D03*
X132075000Y-53950000D03*
X133425000Y-53050000D03*
%TD*%
%TO.C,D10*%
X129775000Y-53050000D03*
X131125000Y-53950000D03*
X129775000Y-53950000D03*
X131125000Y-53050000D03*
%TD*%
%TO.C,D9*%
X127475000Y-53050000D03*
X128825000Y-53950000D03*
X127475000Y-53950000D03*
X128825000Y-53050000D03*
%TD*%
%TO.C,D7*%
X122875000Y-53050000D03*
X124225000Y-53950000D03*
X122875000Y-53950000D03*
X124225000Y-53050000D03*
%TD*%
%TO.C,D6*%
X120575000Y-53050000D03*
X121925000Y-53950000D03*
X120575000Y-53950000D03*
X121925000Y-53050000D03*
%TD*%
%TO.C,D5*%
X118275000Y-53050000D03*
X119625000Y-53950000D03*
X118275000Y-53950000D03*
X119625000Y-53050000D03*
%TD*%
%TO.C,D4*%
X115975000Y-53050000D03*
X117325000Y-53950000D03*
X115975000Y-53950000D03*
X117325000Y-53050000D03*
%TD*%
%TO.C,D3*%
X113675000Y-53050000D03*
X115025000Y-53950000D03*
X113675000Y-53950000D03*
X115025000Y-53050000D03*
%TD*%
%TO.C,D2*%
X111375000Y-53050000D03*
X112725000Y-53950000D03*
X111375000Y-53950000D03*
X112725000Y-53050000D03*
%TD*%
%TO.C,D1*%
X109075000Y-53050000D03*
X110425000Y-53950000D03*
X109075000Y-53950000D03*
X110425000Y-53050000D03*
%TD*%
%TO.C,D133*%
X118275000Y-71450000D03*
X119625000Y-72350000D03*
X118275000Y-72350000D03*
X119625000Y-71450000D03*
%TD*%
%TO.C,D166*%
X120575000Y-76050000D03*
X121925000Y-76950000D03*
X120575000Y-76950000D03*
X121925000Y-76050000D03*
%TD*%
%TO.C,D170*%
X129775000Y-76050000D03*
X131125000Y-76950000D03*
X129775000Y-76950000D03*
X131125000Y-76050000D03*
%TD*%
%TO.C,D140*%
X134375000Y-71450000D03*
X135725000Y-72350000D03*
X134375000Y-72350000D03*
X135725000Y-71450000D03*
%TD*%
%TO.C,D8*%
X125175000Y-53050000D03*
X126525000Y-53950000D03*
X125175000Y-53950000D03*
X126525000Y-53050000D03*
%TD*%
D11*
%TO.C,J1*%
X144700000Y-51700000D03*
D12*
X143430000Y-51700000D03*
X142160000Y-51700000D03*
%TD*%
D13*
%TO.C,SW8*%
X113775000Y-100900000D03*
X113775000Y-97700000D03*
X115425000Y-100900000D03*
X115425000Y-97700000D03*
%TD*%
%TO.C,SW7*%
X118375000Y-100900000D03*
X118375000Y-97700000D03*
X120025000Y-100900000D03*
X120025000Y-97700000D03*
%TD*%
D14*
%TO.C,C32*%
X134670000Y-86000000D03*
X135630000Y-86000000D03*
%TD*%
%TO.C,C31*%
X139170000Y-51800000D03*
X140130000Y-51800000D03*
%TD*%
%TO.C,C24*%
X136870000Y-51800000D03*
X137830000Y-51800000D03*
%TD*%
%TO.C,C22*%
X134570000Y-51800000D03*
X135530000Y-51800000D03*
%TD*%
D15*
%TO.C,D199*%
X118200000Y-94300000D03*
X119600000Y-94300000D03*
%TD*%
D16*
%TO.C,R15*%
X115690000Y-83500000D03*
X116710000Y-83500000D03*
%TD*%
D17*
%TO.C,Q1*%
X112850000Y-83100000D03*
X114150000Y-83100000D03*
X113500000Y-81100000D03*
%TD*%
D18*
%TO.C,D198*%
X116900000Y-82100000D03*
X115500000Y-82100000D03*
%TD*%
%TO.C,D196*%
X116900000Y-80700000D03*
X115500000Y-80700000D03*
%TD*%
D19*
%TO.C,J2*%
X110100000Y-81300000D03*
D20*
X110100000Y-83840000D03*
X110100000Y-86380000D03*
%TD*%
D16*
%TO.C,R14*%
X134640000Y-88000000D03*
X135660000Y-88000000D03*
%TD*%
%TO.C,R7*%
X134640000Y-88950000D03*
X135660000Y-88950000D03*
%TD*%
D21*
%TO.C,R5*%
X124700000Y-91740000D03*
X124700000Y-92760000D03*
%TD*%
%TO.C,R1*%
X125650000Y-92760000D03*
X125650000Y-91740000D03*
%TD*%
D22*
%TO.C,D194*%
X122950000Y-89550000D03*
X122950000Y-92350000D03*
%TD*%
D23*
%TO.C,LS1*%
X123000000Y-81850000D03*
X119400000Y-81850000D03*
X123000000Y-85350000D03*
%TD*%
D24*
%TO.C,U4*%
X137178200Y-82181000D03*
X137178200Y-81681000D03*
X137178200Y-81181000D03*
X137178200Y-80681000D03*
D25*
X138778200Y-80881000D03*
D26*
X138628200Y-81431000D03*
D25*
X138778200Y-81981000D03*
%TD*%
D27*
%TO.C,U2*%
X134600000Y-92550000D03*
D28*
X133175000Y-93300000D03*
X133175000Y-92800000D03*
X133175000Y-92300000D03*
X133175000Y-91800000D03*
X136025000Y-91800000D03*
X136025000Y-92300000D03*
X136025000Y-92800000D03*
X136025000Y-93300000D03*
%TD*%
D29*
%TO.C,J3*%
X131320000Y-98995000D03*
D30*
X131320000Y-94815000D03*
D29*
X122680000Y-98995000D03*
D30*
X122680000Y-94815000D03*
D31*
X123800000Y-94240000D03*
X124600000Y-94240000D03*
D32*
X125250000Y-94240000D03*
X126250000Y-94240000D03*
X127750000Y-94240000D03*
X128750000Y-94240000D03*
D31*
X129400000Y-94240000D03*
X130200000Y-94240000D03*
X130200000Y-94240000D03*
X129400000Y-94240000D03*
D32*
X128250000Y-94240000D03*
X127250000Y-94240000D03*
X126750000Y-94240000D03*
X125750000Y-94240000D03*
D31*
X124600000Y-94240000D03*
X123800000Y-94240000D03*
D33*
X129890000Y-95315000D03*
X124110000Y-95315000D03*
%TD*%
D16*
%TO.C,R2*%
X135660000Y-86950000D03*
X134640000Y-86950000D03*
%TD*%
D34*
%TO.C,R10*%
X128400000Y-92760000D03*
X128400000Y-91740000D03*
%TD*%
%TO.C,R8*%
X129300000Y-92760000D03*
X129300000Y-91740000D03*
%TD*%
D35*
%TO.C,D197*%
X141200000Y-89562500D03*
X141200000Y-91137500D03*
%TD*%
D36*
%TO.C,D193*%
X144523000Y-80800000D03*
X144523000Y-82900000D03*
%TD*%
D37*
%TO.C,R6*%
X136170600Y-80450000D03*
X135150600Y-80450000D03*
%TD*%
D38*
%TO.C,C28*%
X140560600Y-80904000D03*
X140560600Y-82804000D03*
%TD*%
D37*
%TO.C,R9*%
X136170600Y-81450000D03*
X135150600Y-81450000D03*
%TD*%
D39*
%TO.C,C16*%
X136900000Y-86400000D03*
X138800000Y-86400000D03*
%TD*%
D38*
%TO.C,C27*%
X142460600Y-80904000D03*
X142460600Y-82804000D03*
%TD*%
D40*
%TO.C,L1*%
X136531000Y-84031000D03*
X138681000Y-84031000D03*
%TD*%
D41*
%TO.C,Y1*%
X131500000Y-80850000D03*
X133700000Y-80850000D03*
X133700000Y-82450000D03*
X131500000Y-82450000D03*
%TD*%
D42*
%TO.C,X1*%
X135920000Y-95750000D03*
D43*
X135920000Y-98290000D03*
D44*
X138460000Y-95750000D03*
X138460000Y-98290000D03*
D43*
X141000000Y-95750000D03*
X141000000Y-98290000D03*
%TD*%
D45*
%TO.C,U6*%
X133487500Y-89800000D03*
X133487500Y-89400000D03*
X133487500Y-89000000D03*
X133487500Y-88600000D03*
X133487500Y-88200000D03*
X133487500Y-87800000D03*
X133487500Y-87400000D03*
X133487500Y-87000000D03*
X133487500Y-86600000D03*
X133487500Y-86200000D03*
X133487500Y-85800000D03*
X133487500Y-85400000D03*
X133487500Y-85000000D03*
X133487500Y-84600000D03*
D46*
X132650000Y-83762500D03*
X132250000Y-83762500D03*
X131850000Y-83762500D03*
X131450000Y-83762500D03*
X131050000Y-83762500D03*
X130650000Y-83762500D03*
X130250000Y-83762500D03*
X129850000Y-83762500D03*
X129450000Y-83762500D03*
X129050000Y-83762500D03*
X128650000Y-83762500D03*
X128250000Y-83762500D03*
X127850000Y-83762500D03*
X127450000Y-83762500D03*
D45*
X126612500Y-84600000D03*
X126612500Y-85000000D03*
X126612500Y-85400000D03*
X126612500Y-85800000D03*
X126612500Y-86200000D03*
X126612500Y-86600000D03*
X126612500Y-87000000D03*
X126612500Y-87400000D03*
X126612500Y-87800000D03*
X126612500Y-88200000D03*
X126612500Y-88600000D03*
X126612500Y-89000000D03*
X126612500Y-89400000D03*
X126612500Y-89800000D03*
D46*
X127450000Y-90637500D03*
X127850000Y-90637500D03*
X128250000Y-90637500D03*
X128650000Y-90637500D03*
X129050000Y-90637500D03*
X129450000Y-90637500D03*
X129850000Y-90637500D03*
X130250000Y-90637500D03*
X130650000Y-90637500D03*
X131050000Y-90637500D03*
X131450000Y-90637500D03*
X131850000Y-90637500D03*
X132250000Y-90637500D03*
X132650000Y-90637500D03*
D47*
X130050000Y-87200000D03*
%TD*%
D48*
%TO.C,U3*%
X125837500Y-80784000D03*
X125837500Y-81284000D03*
X125837500Y-81784000D03*
X125837500Y-82284000D03*
D49*
X126500000Y-82446500D03*
X127000000Y-82446500D03*
X127500000Y-82446500D03*
D48*
X128162500Y-82284000D03*
X128162500Y-81784000D03*
X128162500Y-81284000D03*
X128162500Y-80784000D03*
D49*
X127500000Y-80621500D03*
X127000000Y-80621500D03*
X126500000Y-80621500D03*
%TD*%
D50*
%TO.C,U1*%
X140562500Y-84350000D03*
X140562500Y-86250000D03*
X142437500Y-85300000D03*
%TD*%
D51*
%TO.C,SW6*%
X145025000Y-88275000D03*
X145025000Y-92425000D03*
X142875000Y-88275000D03*
X142875000Y-92425000D03*
%TD*%
%TO.C,SW5*%
X137375000Y-92425000D03*
X137375000Y-88275000D03*
X139525000Y-92425000D03*
X139525000Y-88275000D03*
%TD*%
D52*
%TO.C,SW4*%
X116060000Y-88580000D03*
X120210000Y-88580000D03*
X116060000Y-90730000D03*
X120210000Y-90730000D03*
%TD*%
%TO.C,SW3*%
X108890000Y-88580000D03*
X113040000Y-88580000D03*
X108890000Y-90730000D03*
X113040000Y-90730000D03*
%TD*%
%TO.C,SW2*%
X116625000Y-94425000D03*
X112475000Y-94425000D03*
X116625000Y-92275000D03*
X112475000Y-92275000D03*
%TD*%
%TO.C,SW1*%
X112475000Y-84875000D03*
X116625000Y-84875000D03*
X112475000Y-87025000D03*
X116625000Y-87025000D03*
%TD*%
D16*
%TO.C,R13*%
X140690000Y-92350000D03*
X141710000Y-92350000D03*
%TD*%
D34*
%TO.C,R12*%
X135150000Y-85070000D03*
X135150000Y-84050000D03*
%TD*%
D37*
%TO.C,R11*%
X141710000Y-88400000D03*
X140690000Y-88400000D03*
%TD*%
D34*
%TO.C,R4*%
X135600000Y-90860000D03*
X135600000Y-89840000D03*
%TD*%
D16*
%TO.C,R3*%
X118390000Y-92450000D03*
X119410000Y-92450000D03*
%TD*%
D35*
%TO.C,D195*%
X114550000Y-88862500D03*
X114550000Y-90437500D03*
%TD*%
D53*
%TO.C,C30*%
X135150000Y-82270000D03*
X135150000Y-83230000D03*
%TD*%
D54*
%TO.C,C29*%
X130100000Y-80750000D03*
X129140000Y-80750000D03*
%TD*%
D55*
%TO.C,C26*%
X125450000Y-86220000D03*
X125450000Y-87180000D03*
%TD*%
%TO.C,C25*%
X126575000Y-92730000D03*
X126575000Y-91770000D03*
%TD*%
D54*
%TO.C,C23*%
X125480000Y-89800000D03*
X124520000Y-89800000D03*
%TD*%
D55*
%TO.C,C21*%
X130170000Y-92730000D03*
X130170000Y-91770000D03*
%TD*%
%TO.C,C20*%
X134650000Y-89870000D03*
X134650000Y-90830000D03*
%TD*%
D14*
%TO.C,C19*%
X129170000Y-82600000D03*
X130130000Y-82600000D03*
%TD*%
D56*
%TO.C,C18*%
X131110589Y-92010589D03*
X131789411Y-92689411D03*
%TD*%
D55*
%TO.C,C17*%
X127500000Y-91770000D03*
X127500000Y-92730000D03*
%TD*%
D14*
%TO.C,C15*%
X129170000Y-81700000D03*
X130130000Y-81700000D03*
%TD*%
D55*
%TO.C,C14*%
X125450000Y-83450000D03*
X125450000Y-84410000D03*
%TD*%
%TO.C,C13*%
X132800000Y-94220000D03*
X132800000Y-95180000D03*
%TD*%
D14*
%TO.C,C12*%
X140720000Y-87460000D03*
X141680000Y-87460000D03*
%TD*%
D55*
%TO.C,C11*%
X143900000Y-85320000D03*
X143900000Y-86280000D03*
%TD*%
D14*
%TO.C,C10*%
X132270000Y-51800000D03*
X133230000Y-51800000D03*
%TD*%
%TO.C,C9*%
X129970000Y-51800000D03*
X130930000Y-51800000D03*
%TD*%
%TO.C,C8*%
X127670000Y-51800000D03*
X128630000Y-51800000D03*
%TD*%
%TO.C,C7*%
X125370000Y-51800000D03*
X126330000Y-51800000D03*
%TD*%
%TO.C,C6*%
X123070000Y-51800000D03*
X124030000Y-51800000D03*
%TD*%
%TO.C,C5*%
X120770000Y-51800000D03*
X121730000Y-51800000D03*
%TD*%
%TO.C,C4*%
X118470000Y-51800000D03*
X119430000Y-51800000D03*
%TD*%
%TO.C,C3*%
X116170000Y-51800000D03*
X117130000Y-51800000D03*
%TD*%
%TO.C,C2*%
X113870000Y-51800000D03*
X114830000Y-51800000D03*
%TD*%
%TO.C,C1*%
X111570000Y-51800000D03*
X112530000Y-51800000D03*
%TD*%
G36*
X112454736Y-95350942D02*
G01*
X112516975Y-95363322D01*
X112534639Y-95370638D01*
X112583317Y-95403163D01*
X112596836Y-95416682D01*
X112629361Y-95465360D01*
X112636677Y-95483023D01*
X112649058Y-95545263D01*
X112650000Y-95554823D01*
X112650000Y-101395176D01*
X112649058Y-101404736D01*
X112636677Y-101466976D01*
X112629361Y-101484639D01*
X112596836Y-101533317D01*
X112583317Y-101546836D01*
X112534639Y-101579361D01*
X112516976Y-101586677D01*
X112454737Y-101599058D01*
X112445177Y-101600000D01*
X109202266Y-101600000D01*
X109201975Y-101599999D01*
X109200292Y-101599989D01*
X109199805Y-101599984D01*
X109197852Y-101599953D01*
X109197562Y-101599947D01*
X109107092Y-101597975D01*
X109105226Y-101597899D01*
X109092773Y-101597152D01*
X109089045Y-101596785D01*
X109076715Y-101595093D01*
X109074868Y-101594804D01*
X108894139Y-101562936D01*
X108892040Y-101562518D01*
X108878141Y-101559436D01*
X108874016Y-101558331D01*
X108860430Y-101554048D01*
X108858404Y-101553360D01*
X108688158Y-101491396D01*
X108686167Y-101490622D01*
X108673018Y-101485176D01*
X108669142Y-101483368D01*
X108656514Y-101476794D01*
X108654640Y-101475766D01*
X108497754Y-101385188D01*
X108495925Y-101384078D01*
X108483899Y-101376416D01*
X108480399Y-101373965D01*
X108469100Y-101365295D01*
X108467432Y-101363957D01*
X108328655Y-101247509D01*
X108327050Y-101246102D01*
X108316547Y-101236479D01*
X108313520Y-101233452D01*
X108303897Y-101222949D01*
X108302490Y-101221344D01*
X108186042Y-101082567D01*
X108184704Y-101080899D01*
X108176034Y-101069600D01*
X108173583Y-101066100D01*
X108165921Y-101054074D01*
X108164811Y-101052245D01*
X108074233Y-100895359D01*
X108073205Y-100893485D01*
X108066631Y-100880857D01*
X108064823Y-100876981D01*
X108059377Y-100863832D01*
X108058603Y-100861841D01*
X107992915Y-100681363D01*
X107989961Y-100664972D01*
X107951551Y-95556349D01*
X107952430Y-95546738D01*
X107964457Y-95484126D01*
X107971707Y-95466338D01*
X108004154Y-95417279D01*
X108017686Y-95403645D01*
X108066496Y-95370832D01*
X108084230Y-95363447D01*
X108146752Y-95350950D01*
X108156356Y-95350000D01*
X112445177Y-95350000D01*
X112454736Y-95350942D01*
G37*
M02*
