%TF.GenerationSoftware,KiCad,Pcbnew,8.0.4*%
%TF.CreationDate,2024-09-02T23:34:24-07:00*%
%TF.ProjectId,badgesao,62616467-6573-4616-9f2e-6b696361645f,rev?*%
%TF.SameCoordinates,Original*%
%TF.FileFunction,Legend,Top*%
%TF.FilePolarity,Positive*%
%FSLAX46Y46*%
G04 Gerber Fmt 4.6, Leading zero omitted, Abs format (unit mm)*
G04 Created by KiCad (PCBNEW 8.0.4) date 2024-09-02 23:34:24*
%MOMM*%
%LPD*%
G01*
G04 APERTURE LIST*
G04 Aperture macros list*
%AMRoundRect*
0 Rectangle with rounded corners*
0 $1 Rounding radius*
0 $2 $3 $4 $5 $6 $7 $8 $9 X,Y pos of 4 corners*
0 Add a 4 corners polygon primitive as box body*
4,1,4,$2,$3,$4,$5,$6,$7,$8,$9,$2,$3,0*
0 Add four circle primitives for the rounded corners*
1,1,$1+$1,$2,$3*
1,1,$1+$1,$4,$5*
1,1,$1+$1,$6,$7*
1,1,$1+$1,$8,$9*
0 Add four rect primitives between the rounded corners*
20,1,$1+$1,$2,$3,$4,$5,0*
20,1,$1+$1,$4,$5,$6,$7,0*
20,1,$1+$1,$6,$7,$8,$9,0*
20,1,$1+$1,$8,$9,$2,$3,0*%
%AMHorizOval*
0 Thick line with rounded ends*
0 $1 width*
0 $2 $3 position (X,Y) of the first rounded end (center of the circle)*
0 $4 $5 position (X,Y) of the second rounded end (center of the circle)*
0 Add line between two ends*
20,1,$1,$2,$3,$4,$5,0*
0 Add two circle primitives to create the rounded ends*
1,1,$1,$2,$3*
1,1,$1,$4,$5*%
G04 Aperture macros list end*
%ADD10C,0.200000*%
%ADD11C,0.203200*%
%ADD12C,0.228600*%
%ADD13C,0.150000*%
%ADD14C,0.304800*%
%ADD15C,0.100000*%
%ADD16C,0.120000*%
%ADD17RoundRect,0.065000X0.260000X0.285000X-0.260000X0.285000X-0.260000X-0.285000X0.260000X-0.285000X0*%
%ADD18R,1.000000X1.000000*%
%ADD19HorizOval,1.000000X0.000000X0.000000X0.000000X0.000000X0*%
%ADD20R,0.750000X0.700000*%
%ADD21RoundRect,0.140000X-0.140000X-0.170000X0.140000X-0.170000X0.140000X0.170000X-0.140000X0.170000X0*%
%ADD22RoundRect,0.150000X0.150000X0.200000X-0.150000X0.200000X-0.150000X-0.200000X0.150000X-0.200000X0*%
%ADD23RoundRect,0.135000X-0.135000X-0.185000X0.135000X-0.185000X0.135000X0.185000X-0.135000X0.185000X0*%
%ADD24RoundRect,0.112500X-0.112500X-0.237500X0.112500X-0.237500X0.112500X0.237500X-0.112500X0.237500X0*%
%ADD25RoundRect,0.150000X-0.150000X-0.200000X0.150000X-0.200000X0.150000X0.200000X-0.150000X0.200000X0*%
%ADD26R,1.700000X1.700000*%
%ADD27O,1.700000X1.700000*%
%ADD28RoundRect,0.135000X-0.185000X0.135000X-0.185000X-0.135000X0.185000X-0.135000X0.185000X0.135000X0*%
%ADD29RoundRect,0.250000X-0.300000X0.300000X-0.300000X-0.300000X0.300000X-0.300000X0.300000X0.300000X0*%
%ADD30R,1.700000X1.000000*%
%ADD31RoundRect,0.062500X0.162500X0.062500X-0.162500X0.062500X-0.162500X-0.062500X0.162500X-0.062500X0*%
%ADD32RoundRect,0.087500X0.487500X0.087500X-0.487500X0.087500X-0.487500X-0.087500X0.487500X-0.087500X0*%
%ADD33RoundRect,0.050000X0.675000X0.050000X-0.675000X0.050000X-0.675000X-0.050000X0.675000X-0.050000X0*%
%ADD34R,0.200000X1.600000*%
%ADD35RoundRect,0.062500X0.387500X0.062500X-0.387500X0.062500X-0.387500X-0.062500X0.387500X-0.062500X0*%
%ADD36O,1.000000X1.800000*%
%ADD37O,1.000000X2.100000*%
%ADD38RoundRect,0.150000X-0.150000X-0.425000X0.150000X-0.425000X0.150000X0.425000X-0.150000X0.425000X0*%
%ADD39RoundRect,0.075000X-0.075000X-0.500000X0.075000X-0.500000X0.075000X0.500000X-0.075000X0.500000X0*%
%ADD40C,0.650000*%
%ADD41RoundRect,0.135000X0.185000X-0.135000X0.185000X0.135000X-0.185000X0.135000X-0.185000X-0.135000X0*%
%ADD42RoundRect,0.218750X-0.256250X0.218750X-0.256250X-0.218750X0.256250X-0.218750X0.256250X0.218750X0*%
%ADD43RoundRect,0.112500X0.112500X-0.187500X0.112500X0.187500X-0.112500X0.187500X-0.112500X-0.187500X0*%
%ADD44RoundRect,0.135000X0.135000X0.185000X-0.135000X0.185000X-0.135000X-0.185000X0.135000X-0.185000X0*%
%ADD45RoundRect,0.250000X-0.475000X0.250000X-0.475000X-0.250000X0.475000X-0.250000X0.475000X0.250000X0*%
%ADD46RoundRect,0.250000X-0.250000X-0.475000X0.250000X-0.475000X0.250000X0.475000X-0.250000X0.475000X0*%
%ADD47RoundRect,0.250000X-0.375000X-0.850000X0.375000X-0.850000X0.375000X0.850000X-0.375000X0.850000X0*%
%ADD48R,1.400000X1.200000*%
%ADD49R,1.727200X1.727200*%
%ADD50C,1.727200*%
%ADD51O,1.727200X1.727200*%
%ADD52RoundRect,0.050000X0.387500X0.050000X-0.387500X0.050000X-0.387500X-0.050000X0.387500X-0.050000X0*%
%ADD53RoundRect,0.050000X0.050000X0.387500X-0.050000X0.387500X-0.050000X-0.387500X0.050000X-0.387500X0*%
%ADD54R,3.200000X3.200000*%
%ADD55RoundRect,0.087500X-0.225000X-0.087500X0.225000X-0.087500X0.225000X0.087500X-0.225000X0.087500X0*%
%ADD56RoundRect,0.087500X-0.087500X-0.225000X0.087500X-0.225000X0.087500X0.225000X-0.087500X0.225000X0*%
%ADD57RoundRect,0.150000X-0.587500X-0.150000X0.587500X-0.150000X0.587500X0.150000X-0.587500X0.150000X0*%
%ADD58R,0.650000X1.050000*%
%ADD59R,1.050000X0.650000*%
%ADD60RoundRect,0.140000X0.170000X-0.140000X0.170000X0.140000X-0.170000X0.140000X-0.170000X-0.140000X0*%
%ADD61RoundRect,0.140000X0.140000X0.170000X-0.140000X0.170000X-0.140000X-0.170000X0.140000X-0.170000X0*%
%ADD62RoundRect,0.140000X-0.170000X0.140000X-0.170000X-0.140000X0.170000X-0.140000X0.170000X0.140000X0*%
%ADD63RoundRect,0.140000X-0.219203X-0.021213X-0.021213X-0.219203X0.219203X0.021213X0.021213X0.219203X0*%
G04 APERTURE END LIST*
D10*
X137300000Y-97250000D02*
X137800000Y-96600000D01*
X140050000Y-99850000D02*
X139200000Y-99050000D01*
X137100000Y-99700000D02*
X137300000Y-97250000D01*
D11*
X139127207Y-100955433D02*
X139272350Y-101003813D01*
X139272350Y-101003813D02*
X139514255Y-101003813D01*
X139514255Y-101003813D02*
X139611017Y-100955433D01*
X139611017Y-100955433D02*
X139659398Y-100907052D01*
X139659398Y-100907052D02*
X139707779Y-100810290D01*
X139707779Y-100810290D02*
X139707779Y-100713528D01*
X139707779Y-100713528D02*
X139659398Y-100616766D01*
X139659398Y-100616766D02*
X139611017Y-100568385D01*
X139611017Y-100568385D02*
X139514255Y-100520004D01*
X139514255Y-100520004D02*
X139320731Y-100471623D01*
X139320731Y-100471623D02*
X139223969Y-100423242D01*
X139223969Y-100423242D02*
X139175588Y-100374861D01*
X139175588Y-100374861D02*
X139127207Y-100278099D01*
X139127207Y-100278099D02*
X139127207Y-100181337D01*
X139127207Y-100181337D02*
X139175588Y-100084575D01*
X139175588Y-100084575D02*
X139223969Y-100036194D01*
X139223969Y-100036194D02*
X139320731Y-99987813D01*
X139320731Y-99987813D02*
X139562636Y-99987813D01*
X139562636Y-99987813D02*
X139707779Y-100036194D01*
X140723779Y-100907052D02*
X140675398Y-100955433D01*
X140675398Y-100955433D02*
X140530255Y-101003813D01*
X140530255Y-101003813D02*
X140433493Y-101003813D01*
X140433493Y-101003813D02*
X140288350Y-100955433D01*
X140288350Y-100955433D02*
X140191588Y-100858671D01*
X140191588Y-100858671D02*
X140143207Y-100761909D01*
X140143207Y-100761909D02*
X140094826Y-100568385D01*
X140094826Y-100568385D02*
X140094826Y-100423242D01*
X140094826Y-100423242D02*
X140143207Y-100229718D01*
X140143207Y-100229718D02*
X140191588Y-100132956D01*
X140191588Y-100132956D02*
X140288350Y-100036194D01*
X140288350Y-100036194D02*
X140433493Y-99987813D01*
X140433493Y-99987813D02*
X140530255Y-99987813D01*
X140530255Y-99987813D02*
X140675398Y-100036194D01*
X140675398Y-100036194D02*
X140723779Y-100084575D01*
X141643017Y-101003813D02*
X141159207Y-101003813D01*
X141159207Y-101003813D02*
X141159207Y-99987813D01*
D12*
X109053785Y-83108028D02*
X108999357Y-83162457D01*
X108999357Y-83162457D02*
X108836071Y-83216885D01*
X108836071Y-83216885D02*
X108727214Y-83216885D01*
X108727214Y-83216885D02*
X108563928Y-83162457D01*
X108563928Y-83162457D02*
X108455071Y-83053599D01*
X108455071Y-83053599D02*
X108400642Y-82944742D01*
X108400642Y-82944742D02*
X108346214Y-82727028D01*
X108346214Y-82727028D02*
X108346214Y-82563742D01*
X108346214Y-82563742D02*
X108400642Y-82346028D01*
X108400642Y-82346028D02*
X108455071Y-82237171D01*
X108455071Y-82237171D02*
X108563928Y-82128314D01*
X108563928Y-82128314D02*
X108727214Y-82073885D01*
X108727214Y-82073885D02*
X108836071Y-82073885D01*
X108836071Y-82073885D02*
X108999357Y-82128314D01*
X108999357Y-82128314D02*
X109053785Y-82182742D01*
X108999357Y-84378314D02*
X108890500Y-84323885D01*
X108890500Y-84323885D02*
X108727214Y-84323885D01*
X108727214Y-84323885D02*
X108563928Y-84378314D01*
X108563928Y-84378314D02*
X108455071Y-84487171D01*
X108455071Y-84487171D02*
X108400642Y-84596028D01*
X108400642Y-84596028D02*
X108346214Y-84813742D01*
X108346214Y-84813742D02*
X108346214Y-84977028D01*
X108346214Y-84977028D02*
X108400642Y-85194742D01*
X108400642Y-85194742D02*
X108455071Y-85303599D01*
X108455071Y-85303599D02*
X108563928Y-85412457D01*
X108563928Y-85412457D02*
X108727214Y-85466885D01*
X108727214Y-85466885D02*
X108836071Y-85466885D01*
X108836071Y-85466885D02*
X108999357Y-85412457D01*
X108999357Y-85412457D02*
X109053785Y-85358028D01*
X109053785Y-85358028D02*
X109053785Y-84977028D01*
X109053785Y-84977028D02*
X108836071Y-84977028D01*
X108400642Y-87566885D02*
X108400642Y-86423885D01*
X108400642Y-86423885D02*
X108672785Y-86423885D01*
X108672785Y-86423885D02*
X108836071Y-86478314D01*
X108836071Y-86478314D02*
X108944928Y-86587171D01*
X108944928Y-86587171D02*
X108999357Y-86696028D01*
X108999357Y-86696028D02*
X109053785Y-86913742D01*
X109053785Y-86913742D02*
X109053785Y-87077028D01*
X109053785Y-87077028D02*
X108999357Y-87294742D01*
X108999357Y-87294742D02*
X108944928Y-87403599D01*
X108944928Y-87403599D02*
X108836071Y-87512457D01*
X108836071Y-87512457D02*
X108672785Y-87566885D01*
X108672785Y-87566885D02*
X108400642Y-87566885D01*
D11*
X135777207Y-100955433D02*
X135922350Y-101003813D01*
X135922350Y-101003813D02*
X136164255Y-101003813D01*
X136164255Y-101003813D02*
X136261017Y-100955433D01*
X136261017Y-100955433D02*
X136309398Y-100907052D01*
X136309398Y-100907052D02*
X136357779Y-100810290D01*
X136357779Y-100810290D02*
X136357779Y-100713528D01*
X136357779Y-100713528D02*
X136309398Y-100616766D01*
X136309398Y-100616766D02*
X136261017Y-100568385D01*
X136261017Y-100568385D02*
X136164255Y-100520004D01*
X136164255Y-100520004D02*
X135970731Y-100471623D01*
X135970731Y-100471623D02*
X135873969Y-100423242D01*
X135873969Y-100423242D02*
X135825588Y-100374861D01*
X135825588Y-100374861D02*
X135777207Y-100278099D01*
X135777207Y-100278099D02*
X135777207Y-100181337D01*
X135777207Y-100181337D02*
X135825588Y-100084575D01*
X135825588Y-100084575D02*
X135873969Y-100036194D01*
X135873969Y-100036194D02*
X135970731Y-99987813D01*
X135970731Y-99987813D02*
X136212636Y-99987813D01*
X136212636Y-99987813D02*
X136357779Y-100036194D01*
X136793207Y-101003813D02*
X136793207Y-99987813D01*
X136793207Y-99987813D02*
X137035112Y-99987813D01*
X137035112Y-99987813D02*
X137180255Y-100036194D01*
X137180255Y-100036194D02*
X137277017Y-100132956D01*
X137277017Y-100132956D02*
X137325398Y-100229718D01*
X137325398Y-100229718D02*
X137373779Y-100423242D01*
X137373779Y-100423242D02*
X137373779Y-100568385D01*
X137373779Y-100568385D02*
X137325398Y-100761909D01*
X137325398Y-100761909D02*
X137277017Y-100858671D01*
X137277017Y-100858671D02*
X137180255Y-100955433D01*
X137180255Y-100955433D02*
X137035112Y-101003813D01*
X137035112Y-101003813D02*
X136793207Y-101003813D01*
X137760826Y-100713528D02*
X138244636Y-100713528D01*
X137664064Y-101003813D02*
X138002731Y-99987813D01*
X138002731Y-99987813D02*
X138341398Y-101003813D01*
X132725905Y-98291834D02*
X132629143Y-98243453D01*
X132629143Y-98243453D02*
X132484000Y-98243453D01*
X132484000Y-98243453D02*
X132338857Y-98291834D01*
X132338857Y-98291834D02*
X132242095Y-98388596D01*
X132242095Y-98388596D02*
X132193714Y-98485358D01*
X132193714Y-98485358D02*
X132145333Y-98678882D01*
X132145333Y-98678882D02*
X132145333Y-98824025D01*
X132145333Y-98824025D02*
X132193714Y-99017549D01*
X132193714Y-99017549D02*
X132242095Y-99114311D01*
X132242095Y-99114311D02*
X132338857Y-99211073D01*
X132338857Y-99211073D02*
X132484000Y-99259453D01*
X132484000Y-99259453D02*
X132580762Y-99259453D01*
X132580762Y-99259453D02*
X132725905Y-99211073D01*
X132725905Y-99211073D02*
X132774286Y-99162692D01*
X132774286Y-99162692D02*
X132774286Y-98824025D01*
X132774286Y-98824025D02*
X132580762Y-98824025D01*
X133209714Y-99259453D02*
X133209714Y-98243453D01*
X133209714Y-98243453D02*
X133790286Y-99259453D01*
X133790286Y-99259453D02*
X133790286Y-98243453D01*
X134274095Y-99259453D02*
X134274095Y-98243453D01*
X134274095Y-98243453D02*
X134516000Y-98243453D01*
X134516000Y-98243453D02*
X134661143Y-98291834D01*
X134661143Y-98291834D02*
X134757905Y-98388596D01*
X134757905Y-98388596D02*
X134806286Y-98485358D01*
X134806286Y-98485358D02*
X134854667Y-98678882D01*
X134854667Y-98678882D02*
X134854667Y-98824025D01*
X134854667Y-98824025D02*
X134806286Y-99017549D01*
X134806286Y-99017549D02*
X134757905Y-99114311D01*
X134757905Y-99114311D02*
X134661143Y-99211073D01*
X134661143Y-99211073D02*
X134516000Y-99259453D01*
X134516000Y-99259453D02*
X134274095Y-99259453D01*
X132242095Y-95643453D02*
X132871048Y-95643453D01*
X132871048Y-95643453D02*
X132532381Y-96030501D01*
X132532381Y-96030501D02*
X132677524Y-96030501D01*
X132677524Y-96030501D02*
X132774286Y-96078882D01*
X132774286Y-96078882D02*
X132822667Y-96127263D01*
X132822667Y-96127263D02*
X132871048Y-96224025D01*
X132871048Y-96224025D02*
X132871048Y-96465930D01*
X132871048Y-96465930D02*
X132822667Y-96562692D01*
X132822667Y-96562692D02*
X132774286Y-96611073D01*
X132774286Y-96611073D02*
X132677524Y-96659453D01*
X132677524Y-96659453D02*
X132387238Y-96659453D01*
X132387238Y-96659453D02*
X132290476Y-96611073D01*
X132290476Y-96611073D02*
X132242095Y-96562692D01*
X133161333Y-95643453D02*
X133500000Y-96659453D01*
X133500000Y-96659453D02*
X133838667Y-95643453D01*
X134080571Y-95643453D02*
X134709524Y-95643453D01*
X134709524Y-95643453D02*
X134370857Y-96030501D01*
X134370857Y-96030501D02*
X134516000Y-96030501D01*
X134516000Y-96030501D02*
X134612762Y-96078882D01*
X134612762Y-96078882D02*
X134661143Y-96127263D01*
X134661143Y-96127263D02*
X134709524Y-96224025D01*
X134709524Y-96224025D02*
X134709524Y-96465930D01*
X134709524Y-96465930D02*
X134661143Y-96562692D01*
X134661143Y-96562692D02*
X134612762Y-96611073D01*
X134612762Y-96611073D02*
X134516000Y-96659453D01*
X134516000Y-96659453D02*
X134225714Y-96659453D01*
X134225714Y-96659453D02*
X134128952Y-96611073D01*
X134128952Y-96611073D02*
X134080571Y-96562692D01*
D12*
X108979143Y-93978314D02*
X108870286Y-93923885D01*
X108870286Y-93923885D02*
X108707000Y-93923885D01*
X108707000Y-93923885D02*
X108543714Y-93978314D01*
X108543714Y-93978314D02*
X108434857Y-94087171D01*
X108434857Y-94087171D02*
X108380428Y-94196028D01*
X108380428Y-94196028D02*
X108326000Y-94413742D01*
X108326000Y-94413742D02*
X108326000Y-94577028D01*
X108326000Y-94577028D02*
X108380428Y-94794742D01*
X108380428Y-94794742D02*
X108434857Y-94903599D01*
X108434857Y-94903599D02*
X108543714Y-95012457D01*
X108543714Y-95012457D02*
X108707000Y-95066885D01*
X108707000Y-95066885D02*
X108815857Y-95066885D01*
X108815857Y-95066885D02*
X108979143Y-95012457D01*
X108979143Y-95012457D02*
X109033571Y-94958028D01*
X109033571Y-94958028D02*
X109033571Y-94577028D01*
X109033571Y-94577028D02*
X108815857Y-94577028D01*
X109523428Y-95066885D02*
X109523428Y-93923885D01*
X109523428Y-93923885D02*
X110176571Y-95066885D01*
X110176571Y-95066885D02*
X110176571Y-93923885D01*
X110720857Y-95066885D02*
X110720857Y-93923885D01*
X110720857Y-93923885D02*
X110993000Y-93923885D01*
X110993000Y-93923885D02*
X111156286Y-93978314D01*
X111156286Y-93978314D02*
X111265143Y-94087171D01*
X111265143Y-94087171D02*
X111319572Y-94196028D01*
X111319572Y-94196028D02*
X111374000Y-94413742D01*
X111374000Y-94413742D02*
X111374000Y-94577028D01*
X111374000Y-94577028D02*
X111319572Y-94794742D01*
X111319572Y-94794742D02*
X111265143Y-94903599D01*
X111265143Y-94903599D02*
X111156286Y-95012457D01*
X111156286Y-95012457D02*
X110993000Y-95066885D01*
X110993000Y-95066885D02*
X110720857Y-95066885D01*
D13*
X108977255Y-51219819D02*
X109072493Y-51219819D01*
X109072493Y-51219819D02*
X109167731Y-51267438D01*
X109167731Y-51267438D02*
X109215350Y-51315057D01*
X109215350Y-51315057D02*
X109262969Y-51410295D01*
X109262969Y-51410295D02*
X109310588Y-51600771D01*
X109310588Y-51600771D02*
X109310588Y-51838866D01*
X109310588Y-51838866D02*
X109262969Y-52029342D01*
X109262969Y-52029342D02*
X109215350Y-52124580D01*
X109215350Y-52124580D02*
X109167731Y-52172200D01*
X109167731Y-52172200D02*
X109072493Y-52219819D01*
X109072493Y-52219819D02*
X108977255Y-52219819D01*
X108977255Y-52219819D02*
X108882017Y-52172200D01*
X108882017Y-52172200D02*
X108834398Y-52124580D01*
X108834398Y-52124580D02*
X108786779Y-52029342D01*
X108786779Y-52029342D02*
X108739160Y-51838866D01*
X108739160Y-51838866D02*
X108739160Y-51600771D01*
X108739160Y-51600771D02*
X108786779Y-51410295D01*
X108786779Y-51410295D02*
X108834398Y-51315057D01*
X108834398Y-51315057D02*
X108882017Y-51267438D01*
X108882017Y-51267438D02*
X108977255Y-51219819D01*
X109786779Y-52172200D02*
X109786779Y-52219819D01*
X109786779Y-52219819D02*
X109739160Y-52315057D01*
X109739160Y-52315057D02*
X109691541Y-52362676D01*
X110405826Y-51219819D02*
X110501064Y-51219819D01*
X110501064Y-51219819D02*
X110596302Y-51267438D01*
X110596302Y-51267438D02*
X110643921Y-51315057D01*
X110643921Y-51315057D02*
X110691540Y-51410295D01*
X110691540Y-51410295D02*
X110739159Y-51600771D01*
X110739159Y-51600771D02*
X110739159Y-51838866D01*
X110739159Y-51838866D02*
X110691540Y-52029342D01*
X110691540Y-52029342D02*
X110643921Y-52124580D01*
X110643921Y-52124580D02*
X110596302Y-52172200D01*
X110596302Y-52172200D02*
X110501064Y-52219819D01*
X110501064Y-52219819D02*
X110405826Y-52219819D01*
X110405826Y-52219819D02*
X110310588Y-52172200D01*
X110310588Y-52172200D02*
X110262969Y-52124580D01*
X110262969Y-52124580D02*
X110215350Y-52029342D01*
X110215350Y-52029342D02*
X110167731Y-51838866D01*
X110167731Y-51838866D02*
X110167731Y-51600771D01*
X110167731Y-51600771D02*
X110215350Y-51410295D01*
X110215350Y-51410295D02*
X110262969Y-51315057D01*
X110262969Y-51315057D02*
X110310588Y-51267438D01*
X110310588Y-51267438D02*
X110405826Y-51219819D01*
D14*
X138558857Y-93790895D02*
X138776571Y-93863467D01*
X138776571Y-93863467D02*
X138849142Y-93936038D01*
X138849142Y-93936038D02*
X138921714Y-94081181D01*
X138921714Y-94081181D02*
X138921714Y-94298895D01*
X138921714Y-94298895D02*
X138849142Y-94444038D01*
X138849142Y-94444038D02*
X138776571Y-94516610D01*
X138776571Y-94516610D02*
X138631428Y-94589181D01*
X138631428Y-94589181D02*
X138050857Y-94589181D01*
X138050857Y-94589181D02*
X138050857Y-93065181D01*
X138050857Y-93065181D02*
X138558857Y-93065181D01*
X138558857Y-93065181D02*
X138704000Y-93137752D01*
X138704000Y-93137752D02*
X138776571Y-93210324D01*
X138776571Y-93210324D02*
X138849142Y-93355467D01*
X138849142Y-93355467D02*
X138849142Y-93500610D01*
X138849142Y-93500610D02*
X138776571Y-93645752D01*
X138776571Y-93645752D02*
X138704000Y-93718324D01*
X138704000Y-93718324D02*
X138558857Y-93790895D01*
X138558857Y-93790895D02*
X138050857Y-93790895D01*
X143587142Y-94153752D02*
X144312857Y-94153752D01*
X143441999Y-94589181D02*
X143949999Y-93065181D01*
X143949999Y-93065181D02*
X144457999Y-94589181D01*
X118365428Y-96989181D02*
X117857428Y-96263467D01*
X117494571Y-96989181D02*
X117494571Y-95465181D01*
X117494571Y-95465181D02*
X118075142Y-95465181D01*
X118075142Y-95465181D02*
X118220285Y-95537752D01*
X118220285Y-95537752D02*
X118292856Y-95610324D01*
X118292856Y-95610324D02*
X118365428Y-95755467D01*
X118365428Y-95755467D02*
X118365428Y-95973181D01*
X118365428Y-95973181D02*
X118292856Y-96118324D01*
X118292856Y-96118324D02*
X118220285Y-96190895D01*
X118220285Y-96190895D02*
X118075142Y-96263467D01*
X118075142Y-96263467D02*
X117494571Y-96263467D01*
X118945999Y-96916610D02*
X119163714Y-96989181D01*
X119163714Y-96989181D02*
X119526571Y-96989181D01*
X119526571Y-96989181D02*
X119671714Y-96916610D01*
X119671714Y-96916610D02*
X119744285Y-96844038D01*
X119744285Y-96844038D02*
X119816856Y-96698895D01*
X119816856Y-96698895D02*
X119816856Y-96553752D01*
X119816856Y-96553752D02*
X119744285Y-96408610D01*
X119744285Y-96408610D02*
X119671714Y-96336038D01*
X119671714Y-96336038D02*
X119526571Y-96263467D01*
X119526571Y-96263467D02*
X119236285Y-96190895D01*
X119236285Y-96190895D02*
X119091142Y-96118324D01*
X119091142Y-96118324D02*
X119018571Y-96045752D01*
X119018571Y-96045752D02*
X118945999Y-95900610D01*
X118945999Y-95900610D02*
X118945999Y-95755467D01*
X118945999Y-95755467D02*
X119018571Y-95610324D01*
X119018571Y-95610324D02*
X119091142Y-95537752D01*
X119091142Y-95537752D02*
X119236285Y-95465181D01*
X119236285Y-95465181D02*
X119599142Y-95465181D01*
X119599142Y-95465181D02*
X119816856Y-95537752D01*
X120252285Y-95465181D02*
X121123143Y-95465181D01*
X120687714Y-96989181D02*
X120687714Y-95465181D01*
X112858285Y-96916610D02*
X113076000Y-96989181D01*
X113076000Y-96989181D02*
X113438857Y-96989181D01*
X113438857Y-96989181D02*
X113584000Y-96916610D01*
X113584000Y-96916610D02*
X113656571Y-96844038D01*
X113656571Y-96844038D02*
X113729142Y-96698895D01*
X113729142Y-96698895D02*
X113729142Y-96553752D01*
X113729142Y-96553752D02*
X113656571Y-96408610D01*
X113656571Y-96408610D02*
X113584000Y-96336038D01*
X113584000Y-96336038D02*
X113438857Y-96263467D01*
X113438857Y-96263467D02*
X113148571Y-96190895D01*
X113148571Y-96190895D02*
X113003428Y-96118324D01*
X113003428Y-96118324D02*
X112930857Y-96045752D01*
X112930857Y-96045752D02*
X112858285Y-95900610D01*
X112858285Y-95900610D02*
X112858285Y-95755467D01*
X112858285Y-95755467D02*
X112930857Y-95610324D01*
X112930857Y-95610324D02*
X113003428Y-95537752D01*
X113003428Y-95537752D02*
X113148571Y-95465181D01*
X113148571Y-95465181D02*
X113511428Y-95465181D01*
X113511428Y-95465181D02*
X113729142Y-95537752D01*
X114382286Y-96190895D02*
X114890286Y-96190895D01*
X115108000Y-96989181D02*
X114382286Y-96989181D01*
X114382286Y-96989181D02*
X114382286Y-95465181D01*
X114382286Y-95465181D02*
X115108000Y-95465181D01*
X116486857Y-96989181D02*
X115761143Y-96989181D01*
X115761143Y-96989181D02*
X115761143Y-95465181D01*
D11*
X142183999Y-99209453D02*
X142183999Y-98193453D01*
X142861333Y-98193453D02*
X143054857Y-98193453D01*
X143054857Y-98193453D02*
X143151619Y-98241834D01*
X143151619Y-98241834D02*
X143248381Y-98338596D01*
X143248381Y-98338596D02*
X143296762Y-98532120D01*
X143296762Y-98532120D02*
X143296762Y-98870787D01*
X143296762Y-98870787D02*
X143248381Y-99064311D01*
X143248381Y-99064311D02*
X143151619Y-99161073D01*
X143151619Y-99161073D02*
X143054857Y-99209453D01*
X143054857Y-99209453D02*
X142861333Y-99209453D01*
X142861333Y-99209453D02*
X142764571Y-99161073D01*
X142764571Y-99161073D02*
X142667809Y-99064311D01*
X142667809Y-99064311D02*
X142619428Y-98870787D01*
X142619428Y-98870787D02*
X142619428Y-98532120D01*
X142619428Y-98532120D02*
X142667809Y-98338596D01*
X142667809Y-98338596D02*
X142764571Y-98241834D01*
X142764571Y-98241834D02*
X142861333Y-98193453D01*
X143683809Y-98290215D02*
X143732190Y-98241834D01*
X143732190Y-98241834D02*
X143828952Y-98193453D01*
X143828952Y-98193453D02*
X144070857Y-98193453D01*
X144070857Y-98193453D02*
X144167619Y-98241834D01*
X144167619Y-98241834D02*
X144216000Y-98290215D01*
X144216000Y-98290215D02*
X144264381Y-98386977D01*
X144264381Y-98386977D02*
X144264381Y-98483739D01*
X144264381Y-98483739D02*
X144216000Y-98628882D01*
X144216000Y-98628882D02*
X143635428Y-99209453D01*
X143635428Y-99209453D02*
X144264381Y-99209453D01*
X142183999Y-96609453D02*
X142183999Y-95593453D01*
X142861333Y-95593453D02*
X143054857Y-95593453D01*
X143054857Y-95593453D02*
X143151619Y-95641834D01*
X143151619Y-95641834D02*
X143248381Y-95738596D01*
X143248381Y-95738596D02*
X143296762Y-95932120D01*
X143296762Y-95932120D02*
X143296762Y-96270787D01*
X143296762Y-96270787D02*
X143248381Y-96464311D01*
X143248381Y-96464311D02*
X143151619Y-96561073D01*
X143151619Y-96561073D02*
X143054857Y-96609453D01*
X143054857Y-96609453D02*
X142861333Y-96609453D01*
X142861333Y-96609453D02*
X142764571Y-96561073D01*
X142764571Y-96561073D02*
X142667809Y-96464311D01*
X142667809Y-96464311D02*
X142619428Y-96270787D01*
X142619428Y-96270787D02*
X142619428Y-95932120D01*
X142619428Y-95932120D02*
X142667809Y-95738596D01*
X142667809Y-95738596D02*
X142764571Y-95641834D01*
X142764571Y-95641834D02*
X142861333Y-95593453D01*
X144264381Y-96609453D02*
X143683809Y-96609453D01*
X143974095Y-96609453D02*
X143974095Y-95593453D01*
X143974095Y-95593453D02*
X143877333Y-95738596D01*
X143877333Y-95738596D02*
X143780571Y-95835358D01*
X143780571Y-95835358D02*
X143683809Y-95883739D01*
D15*
%TO.C,D192*%
X145550000Y-78800000D02*
X145350000Y-79000000D01*
X145350000Y-78600000D01*
X145550000Y-78800000D01*
G36*
X145550000Y-78800000D02*
G01*
X145350000Y-79000000D01*
X145350000Y-78600000D01*
X145550000Y-78800000D01*
G37*
%TO.C,D191*%
X143250000Y-78800000D02*
X143050000Y-79000000D01*
X143050000Y-78600000D01*
X143250000Y-78800000D01*
G36*
X143250000Y-78800000D02*
G01*
X143050000Y-79000000D01*
X143050000Y-78600000D01*
X143250000Y-78800000D01*
G37*
%TO.C,D190*%
X140950000Y-78800000D02*
X140750000Y-79000000D01*
X140750000Y-78600000D01*
X140950000Y-78800000D01*
G36*
X140950000Y-78800000D02*
G01*
X140750000Y-79000000D01*
X140750000Y-78600000D01*
X140950000Y-78800000D01*
G37*
%TO.C,D189*%
X138650000Y-78800000D02*
X138450000Y-79000000D01*
X138450000Y-78600000D01*
X138650000Y-78800000D01*
G36*
X138650000Y-78800000D02*
G01*
X138450000Y-79000000D01*
X138450000Y-78600000D01*
X138650000Y-78800000D01*
G37*
%TO.C,D188*%
X136350000Y-78800000D02*
X136150000Y-79000000D01*
X136150000Y-78600000D01*
X136350000Y-78800000D01*
G36*
X136350000Y-78800000D02*
G01*
X136150000Y-79000000D01*
X136150000Y-78600000D01*
X136350000Y-78800000D01*
G37*
%TO.C,D187*%
X134050000Y-78800000D02*
X133850000Y-79000000D01*
X133850000Y-78600000D01*
X134050000Y-78800000D01*
G36*
X134050000Y-78800000D02*
G01*
X133850000Y-79000000D01*
X133850000Y-78600000D01*
X134050000Y-78800000D01*
G37*
%TO.C,D186*%
X131750000Y-78800000D02*
X131550000Y-79000000D01*
X131550000Y-78600000D01*
X131750000Y-78800000D01*
G36*
X131750000Y-78800000D02*
G01*
X131550000Y-79000000D01*
X131550000Y-78600000D01*
X131750000Y-78800000D01*
G37*
%TO.C,D185*%
X129450000Y-78800000D02*
X129250000Y-79000000D01*
X129250000Y-78600000D01*
X129450000Y-78800000D01*
G36*
X129450000Y-78800000D02*
G01*
X129250000Y-79000000D01*
X129250000Y-78600000D01*
X129450000Y-78800000D01*
G37*
%TO.C,D184*%
X127150000Y-78800000D02*
X126950000Y-79000000D01*
X126950000Y-78600000D01*
X127150000Y-78800000D01*
G36*
X127150000Y-78800000D02*
G01*
X126950000Y-79000000D01*
X126950000Y-78600000D01*
X127150000Y-78800000D01*
G37*
%TO.C,D183*%
X124850000Y-78800000D02*
X124650000Y-79000000D01*
X124650000Y-78600000D01*
X124850000Y-78800000D01*
G36*
X124850000Y-78800000D02*
G01*
X124650000Y-79000000D01*
X124650000Y-78600000D01*
X124850000Y-78800000D01*
G37*
%TO.C,D182*%
X122550000Y-78800000D02*
X122350000Y-79000000D01*
X122350000Y-78600000D01*
X122550000Y-78800000D01*
G36*
X122550000Y-78800000D02*
G01*
X122350000Y-79000000D01*
X122350000Y-78600000D01*
X122550000Y-78800000D01*
G37*
%TO.C,D181*%
X120250000Y-78800000D02*
X120050000Y-79000000D01*
X120050000Y-78600000D01*
X120250000Y-78800000D01*
G36*
X120250000Y-78800000D02*
G01*
X120050000Y-79000000D01*
X120050000Y-78600000D01*
X120250000Y-78800000D01*
G37*
%TO.C,D180*%
X117950000Y-78800000D02*
X117750000Y-79000000D01*
X117750000Y-78600000D01*
X117950000Y-78800000D01*
G36*
X117950000Y-78800000D02*
G01*
X117750000Y-79000000D01*
X117750000Y-78600000D01*
X117950000Y-78800000D01*
G37*
%TO.C,D179*%
X115650000Y-78800000D02*
X115450000Y-79000000D01*
X115450000Y-78600000D01*
X115650000Y-78800000D01*
G36*
X115650000Y-78800000D02*
G01*
X115450000Y-79000000D01*
X115450000Y-78600000D01*
X115650000Y-78800000D01*
G37*
%TO.C,D178*%
X113350000Y-78800000D02*
X113150000Y-79000000D01*
X113150000Y-78600000D01*
X113350000Y-78800000D01*
G36*
X113350000Y-78800000D02*
G01*
X113150000Y-79000000D01*
X113150000Y-78600000D01*
X113350000Y-78800000D01*
G37*
%TO.C,D177*%
X111050000Y-78800000D02*
X110850000Y-79000000D01*
X110850000Y-78600000D01*
X111050000Y-78800000D01*
G36*
X111050000Y-78800000D02*
G01*
X110850000Y-79000000D01*
X110850000Y-78600000D01*
X111050000Y-78800000D01*
G37*
%TO.C,D176*%
X145550000Y-76500000D02*
X145350000Y-76700000D01*
X145350000Y-76300000D01*
X145550000Y-76500000D01*
G36*
X145550000Y-76500000D02*
G01*
X145350000Y-76700000D01*
X145350000Y-76300000D01*
X145550000Y-76500000D01*
G37*
%TO.C,D175*%
X143250000Y-76500000D02*
X143050000Y-76700000D01*
X143050000Y-76300000D01*
X143250000Y-76500000D01*
G36*
X143250000Y-76500000D02*
G01*
X143050000Y-76700000D01*
X143050000Y-76300000D01*
X143250000Y-76500000D01*
G37*
%TO.C,D174*%
X140950000Y-76500000D02*
X140750000Y-76700000D01*
X140750000Y-76300000D01*
X140950000Y-76500000D01*
G36*
X140950000Y-76500000D02*
G01*
X140750000Y-76700000D01*
X140750000Y-76300000D01*
X140950000Y-76500000D01*
G37*
%TO.C,D173*%
X138650000Y-76500000D02*
X138450000Y-76700000D01*
X138450000Y-76300000D01*
X138650000Y-76500000D01*
G36*
X138650000Y-76500000D02*
G01*
X138450000Y-76700000D01*
X138450000Y-76300000D01*
X138650000Y-76500000D01*
G37*
%TO.C,D172*%
X136350000Y-76500000D02*
X136150000Y-76700000D01*
X136150000Y-76300000D01*
X136350000Y-76500000D01*
G36*
X136350000Y-76500000D02*
G01*
X136150000Y-76700000D01*
X136150000Y-76300000D01*
X136350000Y-76500000D01*
G37*
%TO.C,D171*%
X134050000Y-76500000D02*
X133850000Y-76700000D01*
X133850000Y-76300000D01*
X134050000Y-76500000D01*
G36*
X134050000Y-76500000D02*
G01*
X133850000Y-76700000D01*
X133850000Y-76300000D01*
X134050000Y-76500000D01*
G37*
%TO.C,D169*%
X129450000Y-76500000D02*
X129250000Y-76700000D01*
X129250000Y-76300000D01*
X129450000Y-76500000D01*
G36*
X129450000Y-76500000D02*
G01*
X129250000Y-76700000D01*
X129250000Y-76300000D01*
X129450000Y-76500000D01*
G37*
%TO.C,D168*%
X127150000Y-76500000D02*
X126950000Y-76700000D01*
X126950000Y-76300000D01*
X127150000Y-76500000D01*
G36*
X127150000Y-76500000D02*
G01*
X126950000Y-76700000D01*
X126950000Y-76300000D01*
X127150000Y-76500000D01*
G37*
%TO.C,D167*%
X124850000Y-76500000D02*
X124650000Y-76700000D01*
X124650000Y-76300000D01*
X124850000Y-76500000D01*
G36*
X124850000Y-76500000D02*
G01*
X124650000Y-76700000D01*
X124650000Y-76300000D01*
X124850000Y-76500000D01*
G37*
%TO.C,D165*%
X120250000Y-76500000D02*
X120050000Y-76700000D01*
X120050000Y-76300000D01*
X120250000Y-76500000D01*
G36*
X120250000Y-76500000D02*
G01*
X120050000Y-76700000D01*
X120050000Y-76300000D01*
X120250000Y-76500000D01*
G37*
%TO.C,D164*%
X117950000Y-76500000D02*
X117750000Y-76700000D01*
X117750000Y-76300000D01*
X117950000Y-76500000D01*
G36*
X117950000Y-76500000D02*
G01*
X117750000Y-76700000D01*
X117750000Y-76300000D01*
X117950000Y-76500000D01*
G37*
%TO.C,D163*%
X115650000Y-76500000D02*
X115450000Y-76700000D01*
X115450000Y-76300000D01*
X115650000Y-76500000D01*
G36*
X115650000Y-76500000D02*
G01*
X115450000Y-76700000D01*
X115450000Y-76300000D01*
X115650000Y-76500000D01*
G37*
%TO.C,D162*%
X113350000Y-76500000D02*
X113150000Y-76700000D01*
X113150000Y-76300000D01*
X113350000Y-76500000D01*
G36*
X113350000Y-76500000D02*
G01*
X113150000Y-76700000D01*
X113150000Y-76300000D01*
X113350000Y-76500000D01*
G37*
%TO.C,D161*%
X111050000Y-76500000D02*
X110850000Y-76700000D01*
X110850000Y-76300000D01*
X111050000Y-76500000D01*
G36*
X111050000Y-76500000D02*
G01*
X110850000Y-76700000D01*
X110850000Y-76300000D01*
X111050000Y-76500000D01*
G37*
%TO.C,D160*%
X145550000Y-74200000D02*
X145350000Y-74400000D01*
X145350000Y-74000000D01*
X145550000Y-74200000D01*
G36*
X145550000Y-74200000D02*
G01*
X145350000Y-74400000D01*
X145350000Y-74000000D01*
X145550000Y-74200000D01*
G37*
%TO.C,D159*%
X143250000Y-74200000D02*
X143050000Y-74400000D01*
X143050000Y-74000000D01*
X143250000Y-74200000D01*
G36*
X143250000Y-74200000D02*
G01*
X143050000Y-74400000D01*
X143050000Y-74000000D01*
X143250000Y-74200000D01*
G37*
%TO.C,D158*%
X140950000Y-74200000D02*
X140750000Y-74400000D01*
X140750000Y-74000000D01*
X140950000Y-74200000D01*
G36*
X140950000Y-74200000D02*
G01*
X140750000Y-74400000D01*
X140750000Y-74000000D01*
X140950000Y-74200000D01*
G37*
%TO.C,D157*%
X138650000Y-74200000D02*
X138450000Y-74400000D01*
X138450000Y-74000000D01*
X138650000Y-74200000D01*
G36*
X138650000Y-74200000D02*
G01*
X138450000Y-74400000D01*
X138450000Y-74000000D01*
X138650000Y-74200000D01*
G37*
%TO.C,D156*%
X136350000Y-74200000D02*
X136150000Y-74400000D01*
X136150000Y-74000000D01*
X136350000Y-74200000D01*
G36*
X136350000Y-74200000D02*
G01*
X136150000Y-74400000D01*
X136150000Y-74000000D01*
X136350000Y-74200000D01*
G37*
%TO.C,D155*%
X134050000Y-74200000D02*
X133850000Y-74400000D01*
X133850000Y-74000000D01*
X134050000Y-74200000D01*
G36*
X134050000Y-74200000D02*
G01*
X133850000Y-74400000D01*
X133850000Y-74000000D01*
X134050000Y-74200000D01*
G37*
%TO.C,D154*%
X131750000Y-74200000D02*
X131550000Y-74400000D01*
X131550000Y-74000000D01*
X131750000Y-74200000D01*
G36*
X131750000Y-74200000D02*
G01*
X131550000Y-74400000D01*
X131550000Y-74000000D01*
X131750000Y-74200000D01*
G37*
%TO.C,D153*%
X129450000Y-74200000D02*
X129250000Y-74400000D01*
X129250000Y-74000000D01*
X129450000Y-74200000D01*
G36*
X129450000Y-74200000D02*
G01*
X129250000Y-74400000D01*
X129250000Y-74000000D01*
X129450000Y-74200000D01*
G37*
%TO.C,D152*%
X127150000Y-74200000D02*
X126950000Y-74400000D01*
X126950000Y-74000000D01*
X127150000Y-74200000D01*
G36*
X127150000Y-74200000D02*
G01*
X126950000Y-74400000D01*
X126950000Y-74000000D01*
X127150000Y-74200000D01*
G37*
%TO.C,D151*%
X124850000Y-74200000D02*
X124650000Y-74400000D01*
X124650000Y-74000000D01*
X124850000Y-74200000D01*
G36*
X124850000Y-74200000D02*
G01*
X124650000Y-74400000D01*
X124650000Y-74000000D01*
X124850000Y-74200000D01*
G37*
%TO.C,D150*%
X122550000Y-74200000D02*
X122350000Y-74400000D01*
X122350000Y-74000000D01*
X122550000Y-74200000D01*
G36*
X122550000Y-74200000D02*
G01*
X122350000Y-74400000D01*
X122350000Y-74000000D01*
X122550000Y-74200000D01*
G37*
%TO.C,D149*%
X120250000Y-74200000D02*
X120050000Y-74400000D01*
X120050000Y-74000000D01*
X120250000Y-74200000D01*
G36*
X120250000Y-74200000D02*
G01*
X120050000Y-74400000D01*
X120050000Y-74000000D01*
X120250000Y-74200000D01*
G37*
%TO.C,D148*%
X117950000Y-74200000D02*
X117750000Y-74400000D01*
X117750000Y-74000000D01*
X117950000Y-74200000D01*
G36*
X117950000Y-74200000D02*
G01*
X117750000Y-74400000D01*
X117750000Y-74000000D01*
X117950000Y-74200000D01*
G37*
%TO.C,D147*%
X115650000Y-74200000D02*
X115450000Y-74400000D01*
X115450000Y-74000000D01*
X115650000Y-74200000D01*
G36*
X115650000Y-74200000D02*
G01*
X115450000Y-74400000D01*
X115450000Y-74000000D01*
X115650000Y-74200000D01*
G37*
%TO.C,D146*%
X113350000Y-74200000D02*
X113150000Y-74400000D01*
X113150000Y-74000000D01*
X113350000Y-74200000D01*
G36*
X113350000Y-74200000D02*
G01*
X113150000Y-74400000D01*
X113150000Y-74000000D01*
X113350000Y-74200000D01*
G37*
%TO.C,D145*%
X111050000Y-74200000D02*
X110850000Y-74400000D01*
X110850000Y-74000000D01*
X111050000Y-74200000D01*
G36*
X111050000Y-74200000D02*
G01*
X110850000Y-74400000D01*
X110850000Y-74000000D01*
X111050000Y-74200000D01*
G37*
%TO.C,D144*%
X145550000Y-71900000D02*
X145350000Y-72100000D01*
X145350000Y-71700000D01*
X145550000Y-71900000D01*
G36*
X145550000Y-71900000D02*
G01*
X145350000Y-72100000D01*
X145350000Y-71700000D01*
X145550000Y-71900000D01*
G37*
%TO.C,D143*%
X143250000Y-71900000D02*
X143050000Y-72100000D01*
X143050000Y-71700000D01*
X143250000Y-71900000D01*
G36*
X143250000Y-71900000D02*
G01*
X143050000Y-72100000D01*
X143050000Y-71700000D01*
X143250000Y-71900000D01*
G37*
%TO.C,D142*%
X140950000Y-71900000D02*
X140750000Y-72100000D01*
X140750000Y-71700000D01*
X140950000Y-71900000D01*
G36*
X140950000Y-71900000D02*
G01*
X140750000Y-72100000D01*
X140750000Y-71700000D01*
X140950000Y-71900000D01*
G37*
%TO.C,D141*%
X138650000Y-71900000D02*
X138450000Y-72100000D01*
X138450000Y-71700000D01*
X138650000Y-71900000D01*
G36*
X138650000Y-71900000D02*
G01*
X138450000Y-72100000D01*
X138450000Y-71700000D01*
X138650000Y-71900000D01*
G37*
%TO.C,D139*%
X134050000Y-71900000D02*
X133850000Y-72100000D01*
X133850000Y-71700000D01*
X134050000Y-71900000D01*
G36*
X134050000Y-71900000D02*
G01*
X133850000Y-72100000D01*
X133850000Y-71700000D01*
X134050000Y-71900000D01*
G37*
%TO.C,D138*%
X131750000Y-71900000D02*
X131550000Y-72100000D01*
X131550000Y-71700000D01*
X131750000Y-71900000D01*
G36*
X131750000Y-71900000D02*
G01*
X131550000Y-72100000D01*
X131550000Y-71700000D01*
X131750000Y-71900000D01*
G37*
%TO.C,D137*%
X129450000Y-71900000D02*
X129250000Y-72100000D01*
X129250000Y-71700000D01*
X129450000Y-71900000D01*
G36*
X129450000Y-71900000D02*
G01*
X129250000Y-72100000D01*
X129250000Y-71700000D01*
X129450000Y-71900000D01*
G37*
%TO.C,D136*%
X127150000Y-71900000D02*
X126950000Y-72100000D01*
X126950000Y-71700000D01*
X127150000Y-71900000D01*
G36*
X127150000Y-71900000D02*
G01*
X126950000Y-72100000D01*
X126950000Y-71700000D01*
X127150000Y-71900000D01*
G37*
%TO.C,D135*%
X124850000Y-71900000D02*
X124650000Y-72100000D01*
X124650000Y-71700000D01*
X124850000Y-71900000D01*
G36*
X124850000Y-71900000D02*
G01*
X124650000Y-72100000D01*
X124650000Y-71700000D01*
X124850000Y-71900000D01*
G37*
%TO.C,D134*%
X122550000Y-71900000D02*
X122350000Y-72100000D01*
X122350000Y-71700000D01*
X122550000Y-71900000D01*
G36*
X122550000Y-71900000D02*
G01*
X122350000Y-72100000D01*
X122350000Y-71700000D01*
X122550000Y-71900000D01*
G37*
%TO.C,D132*%
X117950000Y-71900000D02*
X117750000Y-72100000D01*
X117750000Y-71700000D01*
X117950000Y-71900000D01*
G36*
X117950000Y-71900000D02*
G01*
X117750000Y-72100000D01*
X117750000Y-71700000D01*
X117950000Y-71900000D01*
G37*
%TO.C,D131*%
X115650000Y-71900000D02*
X115450000Y-72100000D01*
X115450000Y-71700000D01*
X115650000Y-71900000D01*
G36*
X115650000Y-71900000D02*
G01*
X115450000Y-72100000D01*
X115450000Y-71700000D01*
X115650000Y-71900000D01*
G37*
%TO.C,D130*%
X113350000Y-71900000D02*
X113150000Y-72100000D01*
X113150000Y-71700000D01*
X113350000Y-71900000D01*
G36*
X113350000Y-71900000D02*
G01*
X113150000Y-72100000D01*
X113150000Y-71700000D01*
X113350000Y-71900000D01*
G37*
%TO.C,D129*%
X111050000Y-71900000D02*
X110850000Y-72100000D01*
X110850000Y-71700000D01*
X111050000Y-71900000D01*
G36*
X111050000Y-71900000D02*
G01*
X110850000Y-72100000D01*
X110850000Y-71700000D01*
X111050000Y-71900000D01*
G37*
%TO.C,D128*%
X145550000Y-69600000D02*
X145350000Y-69800000D01*
X145350000Y-69400000D01*
X145550000Y-69600000D01*
G36*
X145550000Y-69600000D02*
G01*
X145350000Y-69800000D01*
X145350000Y-69400000D01*
X145550000Y-69600000D01*
G37*
%TO.C,D127*%
X143250000Y-69600000D02*
X143050000Y-69800000D01*
X143050000Y-69400000D01*
X143250000Y-69600000D01*
G36*
X143250000Y-69600000D02*
G01*
X143050000Y-69800000D01*
X143050000Y-69400000D01*
X143250000Y-69600000D01*
G37*
%TO.C,D126*%
X140950000Y-69600000D02*
X140750000Y-69800000D01*
X140750000Y-69400000D01*
X140950000Y-69600000D01*
G36*
X140950000Y-69600000D02*
G01*
X140750000Y-69800000D01*
X140750000Y-69400000D01*
X140950000Y-69600000D01*
G37*
%TO.C,D125*%
X138650000Y-69600000D02*
X138450000Y-69800000D01*
X138450000Y-69400000D01*
X138650000Y-69600000D01*
G36*
X138650000Y-69600000D02*
G01*
X138450000Y-69800000D01*
X138450000Y-69400000D01*
X138650000Y-69600000D01*
G37*
%TO.C,D124*%
X136350000Y-69600000D02*
X136150000Y-69800000D01*
X136150000Y-69400000D01*
X136350000Y-69600000D01*
G36*
X136350000Y-69600000D02*
G01*
X136150000Y-69800000D01*
X136150000Y-69400000D01*
X136350000Y-69600000D01*
G37*
%TO.C,D123*%
X134050000Y-69600000D02*
X133850000Y-69800000D01*
X133850000Y-69400000D01*
X134050000Y-69600000D01*
G36*
X134050000Y-69600000D02*
G01*
X133850000Y-69800000D01*
X133850000Y-69400000D01*
X134050000Y-69600000D01*
G37*
%TO.C,D122*%
X131750000Y-69600000D02*
X131550000Y-69800000D01*
X131550000Y-69400000D01*
X131750000Y-69600000D01*
G36*
X131750000Y-69600000D02*
G01*
X131550000Y-69800000D01*
X131550000Y-69400000D01*
X131750000Y-69600000D01*
G37*
%TO.C,D121*%
X129450000Y-69600000D02*
X129250000Y-69800000D01*
X129250000Y-69400000D01*
X129450000Y-69600000D01*
G36*
X129450000Y-69600000D02*
G01*
X129250000Y-69800000D01*
X129250000Y-69400000D01*
X129450000Y-69600000D01*
G37*
%TO.C,D120*%
X127150000Y-69600000D02*
X126950000Y-69800000D01*
X126950000Y-69400000D01*
X127150000Y-69600000D01*
G36*
X127150000Y-69600000D02*
G01*
X126950000Y-69800000D01*
X126950000Y-69400000D01*
X127150000Y-69600000D01*
G37*
%TO.C,D119*%
X124850000Y-69600000D02*
X124650000Y-69800000D01*
X124650000Y-69400000D01*
X124850000Y-69600000D01*
G36*
X124850000Y-69600000D02*
G01*
X124650000Y-69800000D01*
X124650000Y-69400000D01*
X124850000Y-69600000D01*
G37*
%TO.C,D118*%
X122550000Y-69600000D02*
X122350000Y-69800000D01*
X122350000Y-69400000D01*
X122550000Y-69600000D01*
G36*
X122550000Y-69600000D02*
G01*
X122350000Y-69800000D01*
X122350000Y-69400000D01*
X122550000Y-69600000D01*
G37*
%TO.C,D117*%
X120250000Y-69600000D02*
X120050000Y-69800000D01*
X120050000Y-69400000D01*
X120250000Y-69600000D01*
G36*
X120250000Y-69600000D02*
G01*
X120050000Y-69800000D01*
X120050000Y-69400000D01*
X120250000Y-69600000D01*
G37*
%TO.C,D116*%
X117950000Y-69600000D02*
X117750000Y-69800000D01*
X117750000Y-69400000D01*
X117950000Y-69600000D01*
G36*
X117950000Y-69600000D02*
G01*
X117750000Y-69800000D01*
X117750000Y-69400000D01*
X117950000Y-69600000D01*
G37*
%TO.C,D115*%
X115650000Y-69600000D02*
X115450000Y-69800000D01*
X115450000Y-69400000D01*
X115650000Y-69600000D01*
G36*
X115650000Y-69600000D02*
G01*
X115450000Y-69800000D01*
X115450000Y-69400000D01*
X115650000Y-69600000D01*
G37*
%TO.C,D114*%
X113350000Y-69600000D02*
X113150000Y-69800000D01*
X113150000Y-69400000D01*
X113350000Y-69600000D01*
G36*
X113350000Y-69600000D02*
G01*
X113150000Y-69800000D01*
X113150000Y-69400000D01*
X113350000Y-69600000D01*
G37*
%TO.C,D113*%
X111050000Y-69600000D02*
X110850000Y-69800000D01*
X110850000Y-69400000D01*
X111050000Y-69600000D01*
G36*
X111050000Y-69600000D02*
G01*
X110850000Y-69800000D01*
X110850000Y-69400000D01*
X111050000Y-69600000D01*
G37*
%TO.C,D112*%
X145550000Y-67300000D02*
X145350000Y-67500000D01*
X145350000Y-67100000D01*
X145550000Y-67300000D01*
G36*
X145550000Y-67300000D02*
G01*
X145350000Y-67500000D01*
X145350000Y-67100000D01*
X145550000Y-67300000D01*
G37*
%TO.C,D111*%
X143250000Y-67300000D02*
X143050000Y-67500000D01*
X143050000Y-67100000D01*
X143250000Y-67300000D01*
G36*
X143250000Y-67300000D02*
G01*
X143050000Y-67500000D01*
X143050000Y-67100000D01*
X143250000Y-67300000D01*
G37*
%TO.C,D110*%
X140950000Y-67300000D02*
X140750000Y-67500000D01*
X140750000Y-67100000D01*
X140950000Y-67300000D01*
G36*
X140950000Y-67300000D02*
G01*
X140750000Y-67500000D01*
X140750000Y-67100000D01*
X140950000Y-67300000D01*
G37*
%TO.C,D109*%
X138650000Y-67300000D02*
X138450000Y-67500000D01*
X138450000Y-67100000D01*
X138650000Y-67300000D01*
G36*
X138650000Y-67300000D02*
G01*
X138450000Y-67500000D01*
X138450000Y-67100000D01*
X138650000Y-67300000D01*
G37*
%TO.C,D108*%
X136350000Y-67300000D02*
X136150000Y-67500000D01*
X136150000Y-67100000D01*
X136350000Y-67300000D01*
G36*
X136350000Y-67300000D02*
G01*
X136150000Y-67500000D01*
X136150000Y-67100000D01*
X136350000Y-67300000D01*
G37*
%TO.C,D107*%
X134050000Y-67300000D02*
X133850000Y-67500000D01*
X133850000Y-67100000D01*
X134050000Y-67300000D01*
G36*
X134050000Y-67300000D02*
G01*
X133850000Y-67500000D01*
X133850000Y-67100000D01*
X134050000Y-67300000D01*
G37*
%TO.C,D106*%
X131750000Y-67300000D02*
X131550000Y-67500000D01*
X131550000Y-67100000D01*
X131750000Y-67300000D01*
G36*
X131750000Y-67300000D02*
G01*
X131550000Y-67500000D01*
X131550000Y-67100000D01*
X131750000Y-67300000D01*
G37*
%TO.C,D105*%
X129450000Y-67300000D02*
X129250000Y-67500000D01*
X129250000Y-67100000D01*
X129450000Y-67300000D01*
G36*
X129450000Y-67300000D02*
G01*
X129250000Y-67500000D01*
X129250000Y-67100000D01*
X129450000Y-67300000D01*
G37*
%TO.C,D104*%
X127150000Y-67300000D02*
X126950000Y-67500000D01*
X126950000Y-67100000D01*
X127150000Y-67300000D01*
G36*
X127150000Y-67300000D02*
G01*
X126950000Y-67500000D01*
X126950000Y-67100000D01*
X127150000Y-67300000D01*
G37*
%TO.C,D103*%
X124850000Y-67300000D02*
X124650000Y-67500000D01*
X124650000Y-67100000D01*
X124850000Y-67300000D01*
G36*
X124850000Y-67300000D02*
G01*
X124650000Y-67500000D01*
X124650000Y-67100000D01*
X124850000Y-67300000D01*
G37*
%TO.C,D102*%
X122550000Y-67300000D02*
X122350000Y-67500000D01*
X122350000Y-67100000D01*
X122550000Y-67300000D01*
G36*
X122550000Y-67300000D02*
G01*
X122350000Y-67500000D01*
X122350000Y-67100000D01*
X122550000Y-67300000D01*
G37*
%TO.C,D101*%
X120250000Y-67300000D02*
X120050000Y-67500000D01*
X120050000Y-67100000D01*
X120250000Y-67300000D01*
G36*
X120250000Y-67300000D02*
G01*
X120050000Y-67500000D01*
X120050000Y-67100000D01*
X120250000Y-67300000D01*
G37*
%TO.C,D100*%
X117950000Y-67300000D02*
X117750000Y-67500000D01*
X117750000Y-67100000D01*
X117950000Y-67300000D01*
G36*
X117950000Y-67300000D02*
G01*
X117750000Y-67500000D01*
X117750000Y-67100000D01*
X117950000Y-67300000D01*
G37*
%TO.C,D99*%
X115650000Y-67300000D02*
X115450000Y-67500000D01*
X115450000Y-67100000D01*
X115650000Y-67300000D01*
G36*
X115650000Y-67300000D02*
G01*
X115450000Y-67500000D01*
X115450000Y-67100000D01*
X115650000Y-67300000D01*
G37*
%TO.C,D98*%
X113350000Y-67300000D02*
X113150000Y-67500000D01*
X113150000Y-67100000D01*
X113350000Y-67300000D01*
G36*
X113350000Y-67300000D02*
G01*
X113150000Y-67500000D01*
X113150000Y-67100000D01*
X113350000Y-67300000D01*
G37*
%TO.C,D97*%
X111050000Y-67300000D02*
X110850000Y-67500000D01*
X110850000Y-67100000D01*
X111050000Y-67300000D01*
G36*
X111050000Y-67300000D02*
G01*
X110850000Y-67500000D01*
X110850000Y-67100000D01*
X111050000Y-67300000D01*
G37*
%TO.C,D96*%
X145550000Y-65000000D02*
X145350000Y-65200000D01*
X145350000Y-64800000D01*
X145550000Y-65000000D01*
G36*
X145550000Y-65000000D02*
G01*
X145350000Y-65200000D01*
X145350000Y-64800000D01*
X145550000Y-65000000D01*
G37*
%TO.C,D95*%
X143250000Y-65000000D02*
X143050000Y-65200000D01*
X143050000Y-64800000D01*
X143250000Y-65000000D01*
G36*
X143250000Y-65000000D02*
G01*
X143050000Y-65200000D01*
X143050000Y-64800000D01*
X143250000Y-65000000D01*
G37*
%TO.C,D94*%
X140950000Y-65000000D02*
X140750000Y-65200000D01*
X140750000Y-64800000D01*
X140950000Y-65000000D01*
G36*
X140950000Y-65000000D02*
G01*
X140750000Y-65200000D01*
X140750000Y-64800000D01*
X140950000Y-65000000D01*
G37*
%TO.C,D93*%
X138650000Y-65000000D02*
X138450000Y-65200000D01*
X138450000Y-64800000D01*
X138650000Y-65000000D01*
G36*
X138650000Y-65000000D02*
G01*
X138450000Y-65200000D01*
X138450000Y-64800000D01*
X138650000Y-65000000D01*
G37*
%TO.C,D92*%
X136350000Y-65000000D02*
X136150000Y-65200000D01*
X136150000Y-64800000D01*
X136350000Y-65000000D01*
G36*
X136350000Y-65000000D02*
G01*
X136150000Y-65200000D01*
X136150000Y-64800000D01*
X136350000Y-65000000D01*
G37*
%TO.C,D91*%
X134050000Y-65000000D02*
X133850000Y-65200000D01*
X133850000Y-64800000D01*
X134050000Y-65000000D01*
G36*
X134050000Y-65000000D02*
G01*
X133850000Y-65200000D01*
X133850000Y-64800000D01*
X134050000Y-65000000D01*
G37*
%TO.C,D90*%
X131750000Y-65000000D02*
X131550000Y-65200000D01*
X131550000Y-64800000D01*
X131750000Y-65000000D01*
G36*
X131750000Y-65000000D02*
G01*
X131550000Y-65200000D01*
X131550000Y-64800000D01*
X131750000Y-65000000D01*
G37*
%TO.C,D89*%
X129450000Y-65000000D02*
X129250000Y-65200000D01*
X129250000Y-64800000D01*
X129450000Y-65000000D01*
G36*
X129450000Y-65000000D02*
G01*
X129250000Y-65200000D01*
X129250000Y-64800000D01*
X129450000Y-65000000D01*
G37*
%TO.C,D88*%
X127150000Y-65000000D02*
X126950000Y-65200000D01*
X126950000Y-64800000D01*
X127150000Y-65000000D01*
G36*
X127150000Y-65000000D02*
G01*
X126950000Y-65200000D01*
X126950000Y-64800000D01*
X127150000Y-65000000D01*
G37*
%TO.C,D87*%
X124850000Y-65000000D02*
X124650000Y-65200000D01*
X124650000Y-64800000D01*
X124850000Y-65000000D01*
G36*
X124850000Y-65000000D02*
G01*
X124650000Y-65200000D01*
X124650000Y-64800000D01*
X124850000Y-65000000D01*
G37*
%TO.C,D86*%
X122550000Y-65000000D02*
X122350000Y-65200000D01*
X122350000Y-64800000D01*
X122550000Y-65000000D01*
G36*
X122550000Y-65000000D02*
G01*
X122350000Y-65200000D01*
X122350000Y-64800000D01*
X122550000Y-65000000D01*
G37*
%TO.C,D85*%
X120250000Y-65000000D02*
X120050000Y-65200000D01*
X120050000Y-64800000D01*
X120250000Y-65000000D01*
G36*
X120250000Y-65000000D02*
G01*
X120050000Y-65200000D01*
X120050000Y-64800000D01*
X120250000Y-65000000D01*
G37*
%TO.C,D84*%
X117950000Y-65000000D02*
X117750000Y-65200000D01*
X117750000Y-64800000D01*
X117950000Y-65000000D01*
G36*
X117950000Y-65000000D02*
G01*
X117750000Y-65200000D01*
X117750000Y-64800000D01*
X117950000Y-65000000D01*
G37*
%TO.C,D83*%
X115650000Y-65000000D02*
X115450000Y-65200000D01*
X115450000Y-64800000D01*
X115650000Y-65000000D01*
G36*
X115650000Y-65000000D02*
G01*
X115450000Y-65200000D01*
X115450000Y-64800000D01*
X115650000Y-65000000D01*
G37*
%TO.C,D82*%
X113350000Y-65000000D02*
X113150000Y-65200000D01*
X113150000Y-64800000D01*
X113350000Y-65000000D01*
G36*
X113350000Y-65000000D02*
G01*
X113150000Y-65200000D01*
X113150000Y-64800000D01*
X113350000Y-65000000D01*
G37*
%TO.C,D81*%
X111050000Y-65000000D02*
X110850000Y-65200000D01*
X110850000Y-64800000D01*
X111050000Y-65000000D01*
G36*
X111050000Y-65000000D02*
G01*
X110850000Y-65200000D01*
X110850000Y-64800000D01*
X111050000Y-65000000D01*
G37*
%TO.C,D80*%
X145550000Y-62700000D02*
X145350000Y-62900000D01*
X145350000Y-62500000D01*
X145550000Y-62700000D01*
G36*
X145550000Y-62700000D02*
G01*
X145350000Y-62900000D01*
X145350000Y-62500000D01*
X145550000Y-62700000D01*
G37*
%TO.C,D79*%
X143250000Y-62700000D02*
X143050000Y-62900000D01*
X143050000Y-62500000D01*
X143250000Y-62700000D01*
G36*
X143250000Y-62700000D02*
G01*
X143050000Y-62900000D01*
X143050000Y-62500000D01*
X143250000Y-62700000D01*
G37*
%TO.C,D78*%
X140950000Y-62700000D02*
X140750000Y-62900000D01*
X140750000Y-62500000D01*
X140950000Y-62700000D01*
G36*
X140950000Y-62700000D02*
G01*
X140750000Y-62900000D01*
X140750000Y-62500000D01*
X140950000Y-62700000D01*
G37*
%TO.C,D77*%
X138650000Y-62700000D02*
X138450000Y-62900000D01*
X138450000Y-62500000D01*
X138650000Y-62700000D01*
G36*
X138650000Y-62700000D02*
G01*
X138450000Y-62900000D01*
X138450000Y-62500000D01*
X138650000Y-62700000D01*
G37*
%TO.C,D76*%
X136350000Y-62700000D02*
X136150000Y-62900000D01*
X136150000Y-62500000D01*
X136350000Y-62700000D01*
G36*
X136350000Y-62700000D02*
G01*
X136150000Y-62900000D01*
X136150000Y-62500000D01*
X136350000Y-62700000D01*
G37*
%TO.C,D75*%
X134050000Y-62700000D02*
X133850000Y-62900000D01*
X133850000Y-62500000D01*
X134050000Y-62700000D01*
G36*
X134050000Y-62700000D02*
G01*
X133850000Y-62900000D01*
X133850000Y-62500000D01*
X134050000Y-62700000D01*
G37*
%TO.C,D74*%
X131750000Y-62700000D02*
X131550000Y-62900000D01*
X131550000Y-62500000D01*
X131750000Y-62700000D01*
G36*
X131750000Y-62700000D02*
G01*
X131550000Y-62900000D01*
X131550000Y-62500000D01*
X131750000Y-62700000D01*
G37*
%TO.C,D73*%
X129450000Y-62700000D02*
X129250000Y-62900000D01*
X129250000Y-62500000D01*
X129450000Y-62700000D01*
G36*
X129450000Y-62700000D02*
G01*
X129250000Y-62900000D01*
X129250000Y-62500000D01*
X129450000Y-62700000D01*
G37*
%TO.C,D72*%
X127150000Y-62700000D02*
X126950000Y-62900000D01*
X126950000Y-62500000D01*
X127150000Y-62700000D01*
G36*
X127150000Y-62700000D02*
G01*
X126950000Y-62900000D01*
X126950000Y-62500000D01*
X127150000Y-62700000D01*
G37*
%TO.C,D71*%
X124850000Y-62700000D02*
X124650000Y-62900000D01*
X124650000Y-62500000D01*
X124850000Y-62700000D01*
G36*
X124850000Y-62700000D02*
G01*
X124650000Y-62900000D01*
X124650000Y-62500000D01*
X124850000Y-62700000D01*
G37*
%TO.C,D70*%
X122550000Y-62700000D02*
X122350000Y-62900000D01*
X122350000Y-62500000D01*
X122550000Y-62700000D01*
G36*
X122550000Y-62700000D02*
G01*
X122350000Y-62900000D01*
X122350000Y-62500000D01*
X122550000Y-62700000D01*
G37*
%TO.C,D69*%
X120250000Y-62700000D02*
X120050000Y-62900000D01*
X120050000Y-62500000D01*
X120250000Y-62700000D01*
G36*
X120250000Y-62700000D02*
G01*
X120050000Y-62900000D01*
X120050000Y-62500000D01*
X120250000Y-62700000D01*
G37*
%TO.C,D68*%
X117950000Y-62700000D02*
X117750000Y-62900000D01*
X117750000Y-62500000D01*
X117950000Y-62700000D01*
G36*
X117950000Y-62700000D02*
G01*
X117750000Y-62900000D01*
X117750000Y-62500000D01*
X117950000Y-62700000D01*
G37*
%TO.C,D67*%
X115650000Y-62700000D02*
X115450000Y-62900000D01*
X115450000Y-62500000D01*
X115650000Y-62700000D01*
G36*
X115650000Y-62700000D02*
G01*
X115450000Y-62900000D01*
X115450000Y-62500000D01*
X115650000Y-62700000D01*
G37*
%TO.C,D66*%
X113350000Y-62700000D02*
X113150000Y-62900000D01*
X113150000Y-62500000D01*
X113350000Y-62700000D01*
G36*
X113350000Y-62700000D02*
G01*
X113150000Y-62900000D01*
X113150000Y-62500000D01*
X113350000Y-62700000D01*
G37*
%TO.C,D65*%
X111050000Y-62700000D02*
X110850000Y-62900000D01*
X110850000Y-62500000D01*
X111050000Y-62700000D01*
G36*
X111050000Y-62700000D02*
G01*
X110850000Y-62900000D01*
X110850000Y-62500000D01*
X111050000Y-62700000D01*
G37*
%TO.C,D64*%
X145550000Y-60400000D02*
X145350000Y-60600000D01*
X145350000Y-60200000D01*
X145550000Y-60400000D01*
G36*
X145550000Y-60400000D02*
G01*
X145350000Y-60600000D01*
X145350000Y-60200000D01*
X145550000Y-60400000D01*
G37*
%TO.C,D63*%
X143250000Y-60400000D02*
X143050000Y-60600000D01*
X143050000Y-60200000D01*
X143250000Y-60400000D01*
G36*
X143250000Y-60400000D02*
G01*
X143050000Y-60600000D01*
X143050000Y-60200000D01*
X143250000Y-60400000D01*
G37*
%TO.C,D62*%
X140950000Y-60400000D02*
X140750000Y-60600000D01*
X140750000Y-60200000D01*
X140950000Y-60400000D01*
G36*
X140950000Y-60400000D02*
G01*
X140750000Y-60600000D01*
X140750000Y-60200000D01*
X140950000Y-60400000D01*
G37*
%TO.C,D61*%
X138650000Y-60400000D02*
X138450000Y-60600000D01*
X138450000Y-60200000D01*
X138650000Y-60400000D01*
G36*
X138650000Y-60400000D02*
G01*
X138450000Y-60600000D01*
X138450000Y-60200000D01*
X138650000Y-60400000D01*
G37*
%TO.C,D60*%
X136350000Y-60400000D02*
X136150000Y-60600000D01*
X136150000Y-60200000D01*
X136350000Y-60400000D01*
G36*
X136350000Y-60400000D02*
G01*
X136150000Y-60600000D01*
X136150000Y-60200000D01*
X136350000Y-60400000D01*
G37*
%TO.C,D59*%
X134050000Y-60400000D02*
X133850000Y-60600000D01*
X133850000Y-60200000D01*
X134050000Y-60400000D01*
G36*
X134050000Y-60400000D02*
G01*
X133850000Y-60600000D01*
X133850000Y-60200000D01*
X134050000Y-60400000D01*
G37*
%TO.C,D58*%
X131750000Y-60400000D02*
X131550000Y-60600000D01*
X131550000Y-60200000D01*
X131750000Y-60400000D01*
G36*
X131750000Y-60400000D02*
G01*
X131550000Y-60600000D01*
X131550000Y-60200000D01*
X131750000Y-60400000D01*
G37*
%TO.C,D57*%
X129450000Y-60400000D02*
X129250000Y-60600000D01*
X129250000Y-60200000D01*
X129450000Y-60400000D01*
G36*
X129450000Y-60400000D02*
G01*
X129250000Y-60600000D01*
X129250000Y-60200000D01*
X129450000Y-60400000D01*
G37*
%TO.C,D56*%
X127150000Y-60400000D02*
X126950000Y-60600000D01*
X126950000Y-60200000D01*
X127150000Y-60400000D01*
G36*
X127150000Y-60400000D02*
G01*
X126950000Y-60600000D01*
X126950000Y-60200000D01*
X127150000Y-60400000D01*
G37*
%TO.C,D55*%
X124850000Y-60400000D02*
X124650000Y-60600000D01*
X124650000Y-60200000D01*
X124850000Y-60400000D01*
G36*
X124850000Y-60400000D02*
G01*
X124650000Y-60600000D01*
X124650000Y-60200000D01*
X124850000Y-60400000D01*
G37*
%TO.C,D54*%
X122550000Y-60400000D02*
X122350000Y-60600000D01*
X122350000Y-60200000D01*
X122550000Y-60400000D01*
G36*
X122550000Y-60400000D02*
G01*
X122350000Y-60600000D01*
X122350000Y-60200000D01*
X122550000Y-60400000D01*
G37*
%TO.C,D53*%
X120250000Y-60400000D02*
X120050000Y-60600000D01*
X120050000Y-60200000D01*
X120250000Y-60400000D01*
G36*
X120250000Y-60400000D02*
G01*
X120050000Y-60600000D01*
X120050000Y-60200000D01*
X120250000Y-60400000D01*
G37*
%TO.C,D52*%
X117950000Y-60400000D02*
X117750000Y-60600000D01*
X117750000Y-60200000D01*
X117950000Y-60400000D01*
G36*
X117950000Y-60400000D02*
G01*
X117750000Y-60600000D01*
X117750000Y-60200000D01*
X117950000Y-60400000D01*
G37*
%TO.C,D51*%
X115650000Y-60400000D02*
X115450000Y-60600000D01*
X115450000Y-60200000D01*
X115650000Y-60400000D01*
G36*
X115650000Y-60400000D02*
G01*
X115450000Y-60600000D01*
X115450000Y-60200000D01*
X115650000Y-60400000D01*
G37*
%TO.C,D50*%
X113350000Y-60400000D02*
X113150000Y-60600000D01*
X113150000Y-60200000D01*
X113350000Y-60400000D01*
G36*
X113350000Y-60400000D02*
G01*
X113150000Y-60600000D01*
X113150000Y-60200000D01*
X113350000Y-60400000D01*
G37*
%TO.C,D49*%
X111050000Y-60400000D02*
X110850000Y-60600000D01*
X110850000Y-60200000D01*
X111050000Y-60400000D01*
G36*
X111050000Y-60400000D02*
G01*
X110850000Y-60600000D01*
X110850000Y-60200000D01*
X111050000Y-60400000D01*
G37*
%TO.C,D48*%
X145550000Y-58100000D02*
X145350000Y-58300000D01*
X145350000Y-57900000D01*
X145550000Y-58100000D01*
G36*
X145550000Y-58100000D02*
G01*
X145350000Y-58300000D01*
X145350000Y-57900000D01*
X145550000Y-58100000D01*
G37*
%TO.C,D47*%
X143250000Y-58100000D02*
X143050000Y-58300000D01*
X143050000Y-57900000D01*
X143250000Y-58100000D01*
G36*
X143250000Y-58100000D02*
G01*
X143050000Y-58300000D01*
X143050000Y-57900000D01*
X143250000Y-58100000D01*
G37*
%TO.C,D46*%
X140950000Y-58100000D02*
X140750000Y-58300000D01*
X140750000Y-57900000D01*
X140950000Y-58100000D01*
G36*
X140950000Y-58100000D02*
G01*
X140750000Y-58300000D01*
X140750000Y-57900000D01*
X140950000Y-58100000D01*
G37*
%TO.C,D45*%
X138650000Y-58100000D02*
X138450000Y-58300000D01*
X138450000Y-57900000D01*
X138650000Y-58100000D01*
G36*
X138650000Y-58100000D02*
G01*
X138450000Y-58300000D01*
X138450000Y-57900000D01*
X138650000Y-58100000D01*
G37*
%TO.C,D44*%
X136350000Y-58100000D02*
X136150000Y-58300000D01*
X136150000Y-57900000D01*
X136350000Y-58100000D01*
G36*
X136350000Y-58100000D02*
G01*
X136150000Y-58300000D01*
X136150000Y-57900000D01*
X136350000Y-58100000D01*
G37*
%TO.C,D43*%
X134050000Y-58100000D02*
X133850000Y-58300000D01*
X133850000Y-57900000D01*
X134050000Y-58100000D01*
G36*
X134050000Y-58100000D02*
G01*
X133850000Y-58300000D01*
X133850000Y-57900000D01*
X134050000Y-58100000D01*
G37*
%TO.C,D42*%
X131750000Y-58100000D02*
X131550000Y-58300000D01*
X131550000Y-57900000D01*
X131750000Y-58100000D01*
G36*
X131750000Y-58100000D02*
G01*
X131550000Y-58300000D01*
X131550000Y-57900000D01*
X131750000Y-58100000D01*
G37*
%TO.C,D41*%
X129450000Y-58100000D02*
X129250000Y-58300000D01*
X129250000Y-57900000D01*
X129450000Y-58100000D01*
G36*
X129450000Y-58100000D02*
G01*
X129250000Y-58300000D01*
X129250000Y-57900000D01*
X129450000Y-58100000D01*
G37*
%TO.C,D40*%
X127150000Y-58100000D02*
X126950000Y-58300000D01*
X126950000Y-57900000D01*
X127150000Y-58100000D01*
G36*
X127150000Y-58100000D02*
G01*
X126950000Y-58300000D01*
X126950000Y-57900000D01*
X127150000Y-58100000D01*
G37*
%TO.C,D39*%
X124850000Y-58100000D02*
X124650000Y-58300000D01*
X124650000Y-57900000D01*
X124850000Y-58100000D01*
G36*
X124850000Y-58100000D02*
G01*
X124650000Y-58300000D01*
X124650000Y-57900000D01*
X124850000Y-58100000D01*
G37*
%TO.C,D38*%
X122550000Y-58100000D02*
X122350000Y-58300000D01*
X122350000Y-57900000D01*
X122550000Y-58100000D01*
G36*
X122550000Y-58100000D02*
G01*
X122350000Y-58300000D01*
X122350000Y-57900000D01*
X122550000Y-58100000D01*
G37*
%TO.C,D37*%
X120250000Y-58100000D02*
X120050000Y-58300000D01*
X120050000Y-57900000D01*
X120250000Y-58100000D01*
G36*
X120250000Y-58100000D02*
G01*
X120050000Y-58300000D01*
X120050000Y-57900000D01*
X120250000Y-58100000D01*
G37*
%TO.C,D36*%
X117950000Y-58100000D02*
X117750000Y-58300000D01*
X117750000Y-57900000D01*
X117950000Y-58100000D01*
G36*
X117950000Y-58100000D02*
G01*
X117750000Y-58300000D01*
X117750000Y-57900000D01*
X117950000Y-58100000D01*
G37*
%TO.C,D35*%
X115650000Y-58100000D02*
X115450000Y-58300000D01*
X115450000Y-57900000D01*
X115650000Y-58100000D01*
G36*
X115650000Y-58100000D02*
G01*
X115450000Y-58300000D01*
X115450000Y-57900000D01*
X115650000Y-58100000D01*
G37*
%TO.C,D34*%
X113350000Y-58100000D02*
X113150000Y-58300000D01*
X113150000Y-57900000D01*
X113350000Y-58100000D01*
G36*
X113350000Y-58100000D02*
G01*
X113150000Y-58300000D01*
X113150000Y-57900000D01*
X113350000Y-58100000D01*
G37*
%TO.C,D33*%
X111050000Y-58100000D02*
X110850000Y-58300000D01*
X110850000Y-57900000D01*
X111050000Y-58100000D01*
G36*
X111050000Y-58100000D02*
G01*
X110850000Y-58300000D01*
X110850000Y-57900000D01*
X111050000Y-58100000D01*
G37*
%TO.C,D32*%
X145550000Y-55800000D02*
X145350000Y-56000000D01*
X145350000Y-55600000D01*
X145550000Y-55800000D01*
G36*
X145550000Y-55800000D02*
G01*
X145350000Y-56000000D01*
X145350000Y-55600000D01*
X145550000Y-55800000D01*
G37*
%TO.C,D31*%
X143250000Y-55800000D02*
X143050000Y-56000000D01*
X143050000Y-55600000D01*
X143250000Y-55800000D01*
G36*
X143250000Y-55800000D02*
G01*
X143050000Y-56000000D01*
X143050000Y-55600000D01*
X143250000Y-55800000D01*
G37*
%TO.C,D30*%
X140950000Y-55800000D02*
X140750000Y-56000000D01*
X140750000Y-55600000D01*
X140950000Y-55800000D01*
G36*
X140950000Y-55800000D02*
G01*
X140750000Y-56000000D01*
X140750000Y-55600000D01*
X140950000Y-55800000D01*
G37*
%TO.C,D29*%
X138650000Y-55800000D02*
X138450000Y-56000000D01*
X138450000Y-55600000D01*
X138650000Y-55800000D01*
G36*
X138650000Y-55800000D02*
G01*
X138450000Y-56000000D01*
X138450000Y-55600000D01*
X138650000Y-55800000D01*
G37*
%TO.C,D28*%
X136350000Y-55800000D02*
X136150000Y-56000000D01*
X136150000Y-55600000D01*
X136350000Y-55800000D01*
G36*
X136350000Y-55800000D02*
G01*
X136150000Y-56000000D01*
X136150000Y-55600000D01*
X136350000Y-55800000D01*
G37*
%TO.C,D27*%
X134050000Y-55800000D02*
X133850000Y-56000000D01*
X133850000Y-55600000D01*
X134050000Y-55800000D01*
G36*
X134050000Y-55800000D02*
G01*
X133850000Y-56000000D01*
X133850000Y-55600000D01*
X134050000Y-55800000D01*
G37*
%TO.C,D26*%
X131750000Y-55800000D02*
X131550000Y-56000000D01*
X131550000Y-55600000D01*
X131750000Y-55800000D01*
G36*
X131750000Y-55800000D02*
G01*
X131550000Y-56000000D01*
X131550000Y-55600000D01*
X131750000Y-55800000D01*
G37*
%TO.C,D25*%
X129450000Y-55800000D02*
X129250000Y-56000000D01*
X129250000Y-55600000D01*
X129450000Y-55800000D01*
G36*
X129450000Y-55800000D02*
G01*
X129250000Y-56000000D01*
X129250000Y-55600000D01*
X129450000Y-55800000D01*
G37*
%TO.C,D24*%
X127150000Y-55800000D02*
X126950000Y-56000000D01*
X126950000Y-55600000D01*
X127150000Y-55800000D01*
G36*
X127150000Y-55800000D02*
G01*
X126950000Y-56000000D01*
X126950000Y-55600000D01*
X127150000Y-55800000D01*
G37*
%TO.C,D23*%
X124850000Y-55800000D02*
X124650000Y-56000000D01*
X124650000Y-55600000D01*
X124850000Y-55800000D01*
G36*
X124850000Y-55800000D02*
G01*
X124650000Y-56000000D01*
X124650000Y-55600000D01*
X124850000Y-55800000D01*
G37*
%TO.C,D22*%
X122550000Y-55800000D02*
X122350000Y-56000000D01*
X122350000Y-55600000D01*
X122550000Y-55800000D01*
G36*
X122550000Y-55800000D02*
G01*
X122350000Y-56000000D01*
X122350000Y-55600000D01*
X122550000Y-55800000D01*
G37*
%TO.C,D21*%
X120250000Y-55800000D02*
X120050000Y-56000000D01*
X120050000Y-55600000D01*
X120250000Y-55800000D01*
G36*
X120250000Y-55800000D02*
G01*
X120050000Y-56000000D01*
X120050000Y-55600000D01*
X120250000Y-55800000D01*
G37*
%TO.C,D20*%
X117950000Y-55800000D02*
X117750000Y-56000000D01*
X117750000Y-55600000D01*
X117950000Y-55800000D01*
G36*
X117950000Y-55800000D02*
G01*
X117750000Y-56000000D01*
X117750000Y-55600000D01*
X117950000Y-55800000D01*
G37*
%TO.C,D19*%
X115650000Y-55800000D02*
X115450000Y-56000000D01*
X115450000Y-55600000D01*
X115650000Y-55800000D01*
G36*
X115650000Y-55800000D02*
G01*
X115450000Y-56000000D01*
X115450000Y-55600000D01*
X115650000Y-55800000D01*
G37*
%TO.C,D18*%
X113350000Y-55800000D02*
X113150000Y-56000000D01*
X113150000Y-55600000D01*
X113350000Y-55800000D01*
G36*
X113350000Y-55800000D02*
G01*
X113150000Y-56000000D01*
X113150000Y-55600000D01*
X113350000Y-55800000D01*
G37*
%TO.C,D17*%
X111050000Y-55800000D02*
X110850000Y-56000000D01*
X110850000Y-55600000D01*
X111050000Y-55800000D01*
G36*
X111050000Y-55800000D02*
G01*
X110850000Y-56000000D01*
X110850000Y-55600000D01*
X111050000Y-55800000D01*
G37*
%TO.C,D16*%
X145550000Y-53500000D02*
X145350000Y-53700000D01*
X145350000Y-53300000D01*
X145550000Y-53500000D01*
G36*
X145550000Y-53500000D02*
G01*
X145350000Y-53700000D01*
X145350000Y-53300000D01*
X145550000Y-53500000D01*
G37*
%TO.C,D15*%
X143250000Y-53500000D02*
X143050000Y-53700000D01*
X143050000Y-53300000D01*
X143250000Y-53500000D01*
G36*
X143250000Y-53500000D02*
G01*
X143050000Y-53700000D01*
X143050000Y-53300000D01*
X143250000Y-53500000D01*
G37*
%TO.C,D14*%
X140950000Y-53500000D02*
X140750000Y-53700000D01*
X140750000Y-53300000D01*
X140950000Y-53500000D01*
G36*
X140950000Y-53500000D02*
G01*
X140750000Y-53700000D01*
X140750000Y-53300000D01*
X140950000Y-53500000D01*
G37*
%TO.C,D13*%
X138650000Y-53500000D02*
X138450000Y-53700000D01*
X138450000Y-53300000D01*
X138650000Y-53500000D01*
G36*
X138650000Y-53500000D02*
G01*
X138450000Y-53700000D01*
X138450000Y-53300000D01*
X138650000Y-53500000D01*
G37*
%TO.C,D12*%
X136350000Y-53500000D02*
X136150000Y-53700000D01*
X136150000Y-53300000D01*
X136350000Y-53500000D01*
G36*
X136350000Y-53500000D02*
G01*
X136150000Y-53700000D01*
X136150000Y-53300000D01*
X136350000Y-53500000D01*
G37*
%TO.C,D11*%
X134050000Y-53500000D02*
X133850000Y-53700000D01*
X133850000Y-53300000D01*
X134050000Y-53500000D01*
G36*
X134050000Y-53500000D02*
G01*
X133850000Y-53700000D01*
X133850000Y-53300000D01*
X134050000Y-53500000D01*
G37*
%TO.C,D10*%
X131750000Y-53500000D02*
X131550000Y-53700000D01*
X131550000Y-53300000D01*
X131750000Y-53500000D01*
G36*
X131750000Y-53500000D02*
G01*
X131550000Y-53700000D01*
X131550000Y-53300000D01*
X131750000Y-53500000D01*
G37*
%TO.C,D9*%
X129450000Y-53500000D02*
X129250000Y-53700000D01*
X129250000Y-53300000D01*
X129450000Y-53500000D01*
G36*
X129450000Y-53500000D02*
G01*
X129250000Y-53700000D01*
X129250000Y-53300000D01*
X129450000Y-53500000D01*
G37*
%TO.C,D7*%
X124850000Y-53500000D02*
X124650000Y-53700000D01*
X124650000Y-53300000D01*
X124850000Y-53500000D01*
G36*
X124850000Y-53500000D02*
G01*
X124650000Y-53700000D01*
X124650000Y-53300000D01*
X124850000Y-53500000D01*
G37*
%TO.C,D6*%
X122550000Y-53500000D02*
X122350000Y-53700000D01*
X122350000Y-53300000D01*
X122550000Y-53500000D01*
G36*
X122550000Y-53500000D02*
G01*
X122350000Y-53700000D01*
X122350000Y-53300000D01*
X122550000Y-53500000D01*
G37*
%TO.C,D5*%
X120250000Y-53500000D02*
X120050000Y-53700000D01*
X120050000Y-53300000D01*
X120250000Y-53500000D01*
G36*
X120250000Y-53500000D02*
G01*
X120050000Y-53700000D01*
X120050000Y-53300000D01*
X120250000Y-53500000D01*
G37*
%TO.C,D4*%
X117950000Y-53500000D02*
X117750000Y-53700000D01*
X117750000Y-53300000D01*
X117950000Y-53500000D01*
G36*
X117950000Y-53500000D02*
G01*
X117750000Y-53700000D01*
X117750000Y-53300000D01*
X117950000Y-53500000D01*
G37*
%TO.C,D3*%
X115650000Y-53500000D02*
X115450000Y-53700000D01*
X115450000Y-53300000D01*
X115650000Y-53500000D01*
G36*
X115650000Y-53500000D02*
G01*
X115450000Y-53700000D01*
X115450000Y-53300000D01*
X115650000Y-53500000D01*
G37*
%TO.C,D2*%
X113350000Y-53500000D02*
X113150000Y-53700000D01*
X113150000Y-53300000D01*
X113350000Y-53500000D01*
G36*
X113350000Y-53500000D02*
G01*
X113150000Y-53700000D01*
X113150000Y-53300000D01*
X113350000Y-53500000D01*
G37*
%TO.C,D1*%
X111050000Y-53500000D02*
X110850000Y-53700000D01*
X110850000Y-53300000D01*
X111050000Y-53500000D01*
G36*
X111050000Y-53500000D02*
G01*
X110850000Y-53700000D01*
X110850000Y-53300000D01*
X111050000Y-53500000D01*
G37*
%TO.C,D133*%
X120250000Y-71900000D02*
X120050000Y-72100000D01*
X120050000Y-71700000D01*
X120250000Y-71900000D01*
G36*
X120250000Y-71900000D02*
G01*
X120050000Y-72100000D01*
X120050000Y-71700000D01*
X120250000Y-71900000D01*
G37*
%TO.C,D166*%
X122550000Y-76500000D02*
X122350000Y-76700000D01*
X122350000Y-76300000D01*
X122550000Y-76500000D01*
G36*
X122550000Y-76500000D02*
G01*
X122350000Y-76700000D01*
X122350000Y-76300000D01*
X122550000Y-76500000D01*
G37*
%TO.C,D170*%
X131750000Y-76500000D02*
X131550000Y-76700000D01*
X131550000Y-76300000D01*
X131750000Y-76500000D01*
G36*
X131750000Y-76500000D02*
G01*
X131550000Y-76700000D01*
X131550000Y-76300000D01*
X131750000Y-76500000D01*
G37*
%TO.C,D140*%
X136350000Y-71900000D02*
X136150000Y-72100000D01*
X136150000Y-71700000D01*
X136350000Y-71900000D01*
G36*
X136350000Y-71900000D02*
G01*
X136150000Y-72100000D01*
X136150000Y-71700000D01*
X136350000Y-71900000D01*
G37*
%TO.C,D8*%
X127150000Y-53500000D02*
X126950000Y-53700000D01*
X126950000Y-53300000D01*
X127150000Y-53500000D01*
G36*
X127150000Y-53500000D02*
G01*
X126950000Y-53700000D01*
X126950000Y-53300000D01*
X127150000Y-53500000D01*
G37*
D10*
%TO.C,SW8*%
X113300000Y-100300000D02*
X113300000Y-98300000D01*
X115900000Y-100300000D02*
X115900000Y-98300000D01*
%TO.C,SW7*%
X117900000Y-100300000D02*
X117900000Y-98300000D01*
X120500000Y-100300000D02*
X120500000Y-98300000D01*
D16*
%TO.C,C32*%
X135042164Y-85640000D02*
X135257836Y-85640000D01*
X135042164Y-86360000D02*
X135257836Y-86360000D01*
%TO.C,C31*%
X139542164Y-51440000D02*
X139757836Y-51440000D01*
X139542164Y-52160000D02*
X139757836Y-52160000D01*
%TO.C,C24*%
X137242164Y-51440000D02*
X137457836Y-51440000D01*
X137242164Y-52160000D02*
X137457836Y-52160000D01*
%TO.C,C22*%
X134942164Y-51440000D02*
X135157836Y-51440000D01*
X134942164Y-52160000D02*
X135157836Y-52160000D01*
%TO.C,D199*%
X117640000Y-93700000D02*
X117640000Y-94900000D01*
X119600000Y-93700000D02*
X117640000Y-93700000D01*
X119600000Y-94900000D02*
X117640000Y-94900000D01*
%TO.C,R15*%
X116046359Y-83120000D02*
X116353641Y-83120000D01*
X116046359Y-83880000D02*
X116353641Y-83880000D01*
%TO.C,Q1*%
X112340000Y-82780000D02*
X112340000Y-81370000D01*
X114660000Y-82780000D02*
X114660000Y-81370000D01*
X112340000Y-81370000D02*
X113000000Y-81370000D01*
X114000000Y-81370000D02*
X114660000Y-81370000D01*
X112360000Y-83150000D02*
X112030000Y-83390000D01*
X112030000Y-82910000D01*
X112360000Y-83150000D01*
G36*
X112360000Y-83150000D02*
G01*
X112030000Y-83390000D01*
X112030000Y-82910000D01*
X112360000Y-83150000D01*
G37*
%TO.C,D198*%
X117460000Y-82700000D02*
X117460000Y-81500000D01*
X115500000Y-82700000D02*
X117460000Y-82700000D01*
X115500000Y-81500000D02*
X117460000Y-81500000D01*
%TO.C,D196*%
X117460000Y-81300000D02*
X117460000Y-80100000D01*
X115500000Y-81300000D02*
X117460000Y-81300000D01*
X115500000Y-80100000D02*
X117460000Y-80100000D01*
%TO.C,R14*%
X134996359Y-87620000D02*
X135303641Y-87620000D01*
X134996359Y-88380000D02*
X135303641Y-88380000D01*
%TO.C,R7*%
X134996359Y-88570000D02*
X135303641Y-88570000D01*
X134996359Y-89330000D02*
X135303641Y-89330000D01*
%TO.C,R5*%
X125080000Y-92096359D02*
X125080000Y-92403641D01*
X124320000Y-92096359D02*
X124320000Y-92403641D01*
%TO.C,R1*%
X125270000Y-92096359D02*
X125270000Y-92403641D01*
X126030000Y-92096359D02*
X126030000Y-92403641D01*
%TO.C,D194*%
X123950000Y-88740000D02*
X121950000Y-88740000D01*
X123950000Y-88740000D02*
X123950000Y-92600000D01*
X121950000Y-88740000D02*
X121950000Y-92600000D01*
D15*
%TO.C,LS1*%
X123700000Y-86100000D02*
X120200000Y-86100000D01*
X123700000Y-84600000D02*
X123700000Y-82600000D01*
X123700000Y-81100000D02*
X118700000Y-81100000D01*
D10*
X123100000Y-80500000D02*
X123100000Y-80500000D01*
X122900000Y-80500000D02*
X122900000Y-80500000D01*
D15*
X120200000Y-86100000D02*
X118700000Y-84600000D01*
X118700000Y-84600000D02*
X118700000Y-82600000D01*
D10*
X123100000Y-80500000D02*
G75*
G02*
X122900000Y-80500000I-100000J0D01*
G01*
X122900000Y-80500000D02*
G75*
G02*
X123100000Y-80500000I100000J0D01*
G01*
D16*
%TO.C,U4*%
X139553200Y-82551000D02*
X139553200Y-82271000D01*
X139833200Y-82271000D01*
X139553200Y-82551000D01*
G36*
X139553200Y-82551000D02*
G01*
X139553200Y-82271000D01*
X139833200Y-82271000D01*
X139553200Y-82551000D01*
G37*
X137153200Y-80321000D02*
X139153200Y-80321000D01*
X139153200Y-82541000D02*
X137153200Y-82541000D01*
%TO.C,U2*%
X136650000Y-93880000D02*
X136650000Y-93600000D01*
X136930000Y-93600000D01*
X136650000Y-93880000D01*
G36*
X136650000Y-93880000D02*
G01*
X136650000Y-93600000D01*
X136930000Y-93600000D01*
X136650000Y-93880000D01*
G37*
X136100000Y-91415000D02*
X133100000Y-91415000D01*
X136100000Y-93685000D02*
X133100000Y-93685000D01*
%TO.C,J3*%
X131670000Y-97820000D02*
X131670000Y-96120000D01*
X122330000Y-97820000D02*
X122330000Y-96120000D01*
%TO.C,R2*%
X134996359Y-87330000D02*
X135303641Y-87330000D01*
X134996359Y-86570000D02*
X135303641Y-86570000D01*
%TO.C,R10*%
X128020000Y-92403641D02*
X128020000Y-92096359D01*
X128780000Y-92403641D02*
X128780000Y-92096359D01*
%TO.C,R8*%
X128920000Y-92403641D02*
X128920000Y-92096359D01*
X129680000Y-92403641D02*
X129680000Y-92096359D01*
%TO.C,D197*%
X141935000Y-88865000D02*
X140465000Y-88865000D01*
X140465000Y-88865000D02*
X140465000Y-91150000D01*
X141935000Y-91150000D02*
X141935000Y-88865000D01*
%TO.C,D193*%
X145373000Y-83460000D02*
X145373000Y-80800000D01*
X143673000Y-83460000D02*
X143673000Y-80800000D01*
X143673000Y-83460000D02*
X145373000Y-83460000D01*
%TO.C,R6*%
X135814241Y-80070000D02*
X135506959Y-80070000D01*
X135814241Y-80830000D02*
X135506959Y-80830000D01*
%TO.C,C28*%
X141295600Y-81592748D02*
X141295600Y-82115252D01*
X139825600Y-81592748D02*
X139825600Y-82115252D01*
%TO.C,R9*%
X135814241Y-81070000D02*
X135506959Y-81070000D01*
X135814241Y-81830000D02*
X135506959Y-81830000D01*
%TO.C,C16*%
X137588748Y-85665000D02*
X138111252Y-85665000D01*
X137588748Y-87135000D02*
X138111252Y-87135000D01*
%TO.C,C27*%
X143195600Y-81592748D02*
X143195600Y-82115252D01*
X141725600Y-81592748D02*
X141725600Y-82115252D01*
%TO.C,L1*%
X137344748Y-82921000D02*
X137867252Y-82921000D01*
X137344748Y-85141000D02*
X137867252Y-85141000D01*
%TO.C,Y1*%
X130600000Y-83250000D02*
X134600000Y-83250000D01*
X130600000Y-80050000D02*
X130600000Y-83250000D01*
%TO.C,U6*%
X133660000Y-90160000D02*
X133660000Y-90570000D01*
X133660000Y-83590000D02*
X133660000Y-84240000D01*
X133010000Y-90810000D02*
X133360000Y-90810000D01*
X133010000Y-83590000D02*
X133660000Y-83590000D01*
X127090000Y-90810000D02*
X126440000Y-90810000D01*
X127090000Y-83590000D02*
X126440000Y-83590000D01*
X126440000Y-90810000D02*
X126440000Y-90160000D01*
X126440000Y-83590000D02*
X126440000Y-84240000D01*
X133900000Y-91140000D02*
X133420000Y-91140000D01*
X133660000Y-90810000D01*
X133900000Y-91140000D01*
G36*
X133900000Y-91140000D02*
G01*
X133420000Y-91140000D01*
X133660000Y-90810000D01*
X133900000Y-91140000D01*
G37*
%TO.C,U3*%
X125390000Y-82894000D02*
X125390000Y-82719000D01*
X126065000Y-80174000D02*
X125690000Y-80174000D01*
X126065000Y-82894000D02*
X125390000Y-82894000D01*
X127935000Y-80174000D02*
X128610000Y-80174000D01*
X127935000Y-82894000D02*
X128610000Y-82894000D01*
X128610000Y-80174000D02*
X128610000Y-80349000D01*
X128610000Y-82894000D02*
X128610000Y-82719000D01*
X125390000Y-80174000D02*
X125250000Y-79984000D01*
X125530000Y-79984000D01*
X125390000Y-80174000D01*
G36*
X125390000Y-80174000D02*
G01*
X125250000Y-79984000D01*
X125530000Y-79984000D01*
X125390000Y-80174000D01*
G37*
%TO.C,U1*%
X141500000Y-83740000D02*
X140850000Y-83740000D01*
X141500000Y-83740000D02*
X142150000Y-83740000D01*
X141500000Y-86860000D02*
X140850000Y-86860000D01*
X141500000Y-86860000D02*
X142150000Y-86860000D01*
X140337500Y-83790000D02*
X140097500Y-83460000D01*
X140577500Y-83460000D01*
X140337500Y-83790000D01*
G36*
X140337500Y-83790000D02*
G01*
X140097500Y-83460000D01*
X140577500Y-83460000D01*
X140337500Y-83790000D01*
G37*
%TO.C,SW6*%
X145650000Y-88150000D02*
X145530000Y-88150000D01*
X144520000Y-88150000D02*
X143380000Y-88150000D01*
X142370000Y-88150000D02*
X142250000Y-88150000D01*
X142250000Y-88150000D02*
X142250000Y-92550000D01*
X145650000Y-92550000D02*
X145650000Y-88150000D01*
X145530000Y-92550000D02*
X145650000Y-92550000D01*
X143380000Y-92550000D02*
X144520000Y-92550000D01*
X142250000Y-92550000D02*
X142370000Y-92550000D01*
%TO.C,SW5*%
X136750000Y-92550000D02*
X136870000Y-92550000D01*
X137880000Y-92550000D02*
X139020000Y-92550000D01*
X140030000Y-92550000D02*
X140150000Y-92550000D01*
X140150000Y-92550000D02*
X140150000Y-88150000D01*
X136750000Y-88150000D02*
X136750000Y-92550000D01*
X136870000Y-88150000D02*
X136750000Y-88150000D01*
X139020000Y-88150000D02*
X137880000Y-88150000D01*
X140150000Y-88150000D02*
X140030000Y-88150000D01*
%TO.C,SW4*%
X115935000Y-87955000D02*
X115935000Y-88075000D01*
X115935000Y-89085000D02*
X115935000Y-90225000D01*
X115935000Y-91235000D02*
X115935000Y-91355000D01*
X115935000Y-91355000D02*
X120335000Y-91355000D01*
X120335000Y-87955000D02*
X115935000Y-87955000D01*
X120335000Y-88075000D02*
X120335000Y-87955000D01*
X120335000Y-90225000D02*
X120335000Y-89085000D01*
X120335000Y-91355000D02*
X120335000Y-91235000D01*
%TO.C,SW3*%
X108765000Y-87955000D02*
X108765000Y-88075000D01*
X108765000Y-89085000D02*
X108765000Y-90225000D01*
X108765000Y-91235000D02*
X108765000Y-91355000D01*
X108765000Y-91355000D02*
X113165000Y-91355000D01*
X113165000Y-87955000D02*
X108765000Y-87955000D01*
X113165000Y-88075000D02*
X113165000Y-87955000D01*
X113165000Y-90225000D02*
X113165000Y-89085000D01*
X113165000Y-91355000D02*
X113165000Y-91235000D01*
%TO.C,SW2*%
X116750000Y-95050000D02*
X116750000Y-94930000D01*
X116750000Y-93920000D02*
X116750000Y-92780000D01*
X116750000Y-91770000D02*
X116750000Y-91650000D01*
X116750000Y-91650000D02*
X112350000Y-91650000D01*
X112350000Y-95050000D02*
X116750000Y-95050000D01*
X112350000Y-94930000D02*
X112350000Y-95050000D01*
X112350000Y-92780000D02*
X112350000Y-93920000D01*
X112350000Y-91650000D02*
X112350000Y-91770000D01*
%TO.C,SW1*%
X112350000Y-84250000D02*
X112350000Y-84370000D01*
X112350000Y-85380000D02*
X112350000Y-86520000D01*
X112350000Y-87530000D02*
X112350000Y-87650000D01*
X112350000Y-87650000D02*
X116750000Y-87650000D01*
X116750000Y-84250000D02*
X112350000Y-84250000D01*
X116750000Y-84370000D02*
X116750000Y-84250000D01*
X116750000Y-86520000D02*
X116750000Y-85380000D01*
X116750000Y-87650000D02*
X116750000Y-87530000D01*
%TO.C,R13*%
X141046359Y-91970000D02*
X141353641Y-91970000D01*
X141046359Y-92730000D02*
X141353641Y-92730000D01*
%TO.C,R12*%
X134770000Y-84713641D02*
X134770000Y-84406359D01*
X135530000Y-84713641D02*
X135530000Y-84406359D01*
%TO.C,R11*%
X141353641Y-88780000D02*
X141046359Y-88780000D01*
X141353641Y-88020000D02*
X141046359Y-88020000D01*
%TO.C,R4*%
X135220000Y-90503641D02*
X135220000Y-90196359D01*
X135980000Y-90503641D02*
X135980000Y-90196359D01*
%TO.C,R3*%
X118746359Y-92070000D02*
X119053641Y-92070000D01*
X118746359Y-92830000D02*
X119053641Y-92830000D01*
%TO.C,D195*%
X115285000Y-88165000D02*
X113815000Y-88165000D01*
X113815000Y-88165000D02*
X113815000Y-90450000D01*
X115285000Y-90450000D02*
X115285000Y-88165000D01*
%TO.C,C30*%
X135510000Y-82857836D02*
X135510000Y-82642164D01*
X134790000Y-82857836D02*
X134790000Y-82642164D01*
%TO.C,C29*%
X129727836Y-81110000D02*
X129512164Y-81110000D01*
X129727836Y-80390000D02*
X129512164Y-80390000D01*
%TO.C,C26*%
X125810000Y-86592164D02*
X125810000Y-86807836D01*
X125090000Y-86592164D02*
X125090000Y-86807836D01*
%TO.C,C25*%
X126215000Y-92142164D02*
X126215000Y-92357836D01*
X126935000Y-92142164D02*
X126935000Y-92357836D01*
%TO.C,C23*%
X125107836Y-90160000D02*
X124892164Y-90160000D01*
X125107836Y-89440000D02*
X124892164Y-89440000D01*
%TO.C,C21*%
X129810000Y-92142164D02*
X129810000Y-92357836D01*
X130530000Y-92142164D02*
X130530000Y-92357836D01*
%TO.C,C20*%
X135010000Y-90242164D02*
X135010000Y-90457836D01*
X134290000Y-90242164D02*
X134290000Y-90457836D01*
%TO.C,C19*%
X129542164Y-82240000D02*
X129757836Y-82240000D01*
X129542164Y-82960000D02*
X129757836Y-82960000D01*
%TO.C,C18*%
X131628307Y-92019190D02*
X131780810Y-92171693D01*
X131119190Y-92528307D02*
X131271693Y-92680810D01*
%TO.C,C17*%
X127860000Y-92142164D02*
X127860000Y-92357836D01*
X127140000Y-92142164D02*
X127140000Y-92357836D01*
%TO.C,C15*%
X129542164Y-81340000D02*
X129757836Y-81340000D01*
X129542164Y-82060000D02*
X129757836Y-82060000D01*
%TO.C,C14*%
X125810000Y-83822164D02*
X125810000Y-84037836D01*
X125090000Y-83822164D02*
X125090000Y-84037836D01*
%TO.C,C13*%
X133160000Y-94592164D02*
X133160000Y-94807836D01*
X132440000Y-94592164D02*
X132440000Y-94807836D01*
%TO.C,C12*%
X141092164Y-87100000D02*
X141307836Y-87100000D01*
X141092164Y-87820000D02*
X141307836Y-87820000D01*
%TO.C,C11*%
X144260000Y-85692164D02*
X144260000Y-85907836D01*
X143540000Y-85692164D02*
X143540000Y-85907836D01*
%TO.C,C10*%
X132642164Y-51440000D02*
X132857836Y-51440000D01*
X132642164Y-52160000D02*
X132857836Y-52160000D01*
%TO.C,C9*%
X130342164Y-51440000D02*
X130557836Y-51440000D01*
X130342164Y-52160000D02*
X130557836Y-52160000D01*
%TO.C,C8*%
X128042164Y-51440000D02*
X128257836Y-51440000D01*
X128042164Y-52160000D02*
X128257836Y-52160000D01*
%TO.C,C7*%
X125742164Y-51440000D02*
X125957836Y-51440000D01*
X125742164Y-52160000D02*
X125957836Y-52160000D01*
%TO.C,C6*%
X123442164Y-51440000D02*
X123657836Y-51440000D01*
X123442164Y-52160000D02*
X123657836Y-52160000D01*
%TO.C,C5*%
X121142164Y-51440000D02*
X121357836Y-51440000D01*
X121142164Y-52160000D02*
X121357836Y-52160000D01*
%TO.C,C4*%
X118842164Y-51440000D02*
X119057836Y-51440000D01*
X118842164Y-52160000D02*
X119057836Y-52160000D01*
%TO.C,C3*%
X116542164Y-51440000D02*
X116757836Y-51440000D01*
X116542164Y-52160000D02*
X116757836Y-52160000D01*
%TO.C,C2*%
X114242164Y-51440000D02*
X114457836Y-51440000D01*
X114242164Y-52160000D02*
X114457836Y-52160000D01*
%TO.C,C1*%
X111942164Y-51440000D02*
X112157836Y-51440000D01*
X111942164Y-52160000D02*
X112157836Y-52160000D01*
%TD*%
%LPC*%
D17*
%TO.C,D192*%
X143575000Y-78350000D03*
X144925000Y-79250000D03*
X143575000Y-79250000D03*
X144925000Y-78350000D03*
%TD*%
%TO.C,D191*%
X141275000Y-78350000D03*
X142625000Y-79250000D03*
X141275000Y-79250000D03*
X142625000Y-78350000D03*
%TD*%
%TO.C,D190*%
X138975000Y-78350000D03*
X140325000Y-79250000D03*
X138975000Y-79250000D03*
X140325000Y-78350000D03*
%TD*%
%TO.C,D189*%
X136675000Y-78350000D03*
X138025000Y-79250000D03*
X136675000Y-79250000D03*
X138025000Y-78350000D03*
%TD*%
%TO.C,D188*%
X134375000Y-78350000D03*
X135725000Y-79250000D03*
X134375000Y-79250000D03*
X135725000Y-78350000D03*
%TD*%
%TO.C,D187*%
X132075000Y-78350000D03*
X133425000Y-79250000D03*
X132075000Y-79250000D03*
X133425000Y-78350000D03*
%TD*%
%TO.C,D186*%
X129775000Y-78350000D03*
X131125000Y-79250000D03*
X129775000Y-79250000D03*
X131125000Y-78350000D03*
%TD*%
%TO.C,D185*%
X127475000Y-78350000D03*
X128825000Y-79250000D03*
X127475000Y-79250000D03*
X128825000Y-78350000D03*
%TD*%
%TO.C,D184*%
X125175000Y-78350000D03*
X126525000Y-79250000D03*
X125175000Y-79250000D03*
X126525000Y-78350000D03*
%TD*%
%TO.C,D183*%
X122875000Y-78350000D03*
X124225000Y-79250000D03*
X122875000Y-79250000D03*
X124225000Y-78350000D03*
%TD*%
%TO.C,D182*%
X120575000Y-78350000D03*
X121925000Y-79250000D03*
X120575000Y-79250000D03*
X121925000Y-78350000D03*
%TD*%
%TO.C,D181*%
X118275000Y-78350000D03*
X119625000Y-79250000D03*
X118275000Y-79250000D03*
X119625000Y-78350000D03*
%TD*%
%TO.C,D180*%
X115975000Y-78350000D03*
X117325000Y-79250000D03*
X115975000Y-79250000D03*
X117325000Y-78350000D03*
%TD*%
%TO.C,D179*%
X113675000Y-78350000D03*
X115025000Y-79250000D03*
X113675000Y-79250000D03*
X115025000Y-78350000D03*
%TD*%
%TO.C,D178*%
X111375000Y-78350000D03*
X112725000Y-79250000D03*
X111375000Y-79250000D03*
X112725000Y-78350000D03*
%TD*%
%TO.C,D177*%
X109075000Y-78350000D03*
X110425000Y-79250000D03*
X109075000Y-79250000D03*
X110425000Y-78350000D03*
%TD*%
%TO.C,D176*%
X143575000Y-76050000D03*
X144925000Y-76950000D03*
X143575000Y-76950000D03*
X144925000Y-76050000D03*
%TD*%
%TO.C,D175*%
X141275000Y-76050000D03*
X142625000Y-76950000D03*
X141275000Y-76950000D03*
X142625000Y-76050000D03*
%TD*%
%TO.C,D174*%
X138975000Y-76050000D03*
X140325000Y-76950000D03*
X138975000Y-76950000D03*
X140325000Y-76050000D03*
%TD*%
%TO.C,D173*%
X136675000Y-76050000D03*
X138025000Y-76950000D03*
X136675000Y-76950000D03*
X138025000Y-76050000D03*
%TD*%
%TO.C,D172*%
X134375000Y-76050000D03*
X135725000Y-76950000D03*
X134375000Y-76950000D03*
X135725000Y-76050000D03*
%TD*%
%TO.C,D171*%
X132075000Y-76050000D03*
X133425000Y-76950000D03*
X132075000Y-76950000D03*
X133425000Y-76050000D03*
%TD*%
%TO.C,D169*%
X127475000Y-76050000D03*
X128825000Y-76950000D03*
X127475000Y-76950000D03*
X128825000Y-76050000D03*
%TD*%
%TO.C,D168*%
X125175000Y-76050000D03*
X126525000Y-76950000D03*
X125175000Y-76950000D03*
X126525000Y-76050000D03*
%TD*%
%TO.C,D167*%
X122875000Y-76050000D03*
X124225000Y-76950000D03*
X122875000Y-76950000D03*
X124225000Y-76050000D03*
%TD*%
%TO.C,D165*%
X118275000Y-76050000D03*
X119625000Y-76950000D03*
X118275000Y-76950000D03*
X119625000Y-76050000D03*
%TD*%
%TO.C,D164*%
X115975000Y-76050000D03*
X117325000Y-76950000D03*
X115975000Y-76950000D03*
X117325000Y-76050000D03*
%TD*%
%TO.C,D163*%
X113675000Y-76050000D03*
X115025000Y-76950000D03*
X113675000Y-76950000D03*
X115025000Y-76050000D03*
%TD*%
%TO.C,D162*%
X111375000Y-76050000D03*
X112725000Y-76950000D03*
X111375000Y-76950000D03*
X112725000Y-76050000D03*
%TD*%
%TO.C,D161*%
X109075000Y-76050000D03*
X110425000Y-76950000D03*
X109075000Y-76950000D03*
X110425000Y-76050000D03*
%TD*%
%TO.C,D160*%
X143575000Y-73750000D03*
X144925000Y-74650000D03*
X143575000Y-74650000D03*
X144925000Y-73750000D03*
%TD*%
%TO.C,D159*%
X141275000Y-73750000D03*
X142625000Y-74650000D03*
X141275000Y-74650000D03*
X142625000Y-73750000D03*
%TD*%
%TO.C,D158*%
X138975000Y-73750000D03*
X140325000Y-74650000D03*
X138975000Y-74650000D03*
X140325000Y-73750000D03*
%TD*%
%TO.C,D157*%
X136675000Y-73750000D03*
X138025000Y-74650000D03*
X136675000Y-74650000D03*
X138025000Y-73750000D03*
%TD*%
%TO.C,D156*%
X134375000Y-73750000D03*
X135725000Y-74650000D03*
X134375000Y-74650000D03*
X135725000Y-73750000D03*
%TD*%
%TO.C,D155*%
X132075000Y-73750000D03*
X133425000Y-74650000D03*
X132075000Y-74650000D03*
X133425000Y-73750000D03*
%TD*%
%TO.C,D154*%
X129775000Y-73750000D03*
X131125000Y-74650000D03*
X129775000Y-74650000D03*
X131125000Y-73750000D03*
%TD*%
%TO.C,D153*%
X127475000Y-73750000D03*
X128825000Y-74650000D03*
X127475000Y-74650000D03*
X128825000Y-73750000D03*
%TD*%
%TO.C,D152*%
X125175000Y-73750000D03*
X126525000Y-74650000D03*
X125175000Y-74650000D03*
X126525000Y-73750000D03*
%TD*%
%TO.C,D151*%
X122875000Y-73750000D03*
X124225000Y-74650000D03*
X122875000Y-74650000D03*
X124225000Y-73750000D03*
%TD*%
%TO.C,D150*%
X120575000Y-73750000D03*
X121925000Y-74650000D03*
X120575000Y-74650000D03*
X121925000Y-73750000D03*
%TD*%
%TO.C,D149*%
X118275000Y-73750000D03*
X119625000Y-74650000D03*
X118275000Y-74650000D03*
X119625000Y-73750000D03*
%TD*%
%TO.C,D148*%
X115975000Y-73750000D03*
X117325000Y-74650000D03*
X115975000Y-74650000D03*
X117325000Y-73750000D03*
%TD*%
%TO.C,D147*%
X113675000Y-73750000D03*
X115025000Y-74650000D03*
X113675000Y-74650000D03*
X115025000Y-73750000D03*
%TD*%
%TO.C,D146*%
X111375000Y-73750000D03*
X112725000Y-74650000D03*
X111375000Y-74650000D03*
X112725000Y-73750000D03*
%TD*%
%TO.C,D145*%
X109075000Y-73750000D03*
X110425000Y-74650000D03*
X109075000Y-74650000D03*
X110425000Y-73750000D03*
%TD*%
%TO.C,D144*%
X143575000Y-71450000D03*
X144925000Y-72350000D03*
X143575000Y-72350000D03*
X144925000Y-71450000D03*
%TD*%
%TO.C,D143*%
X141275000Y-71450000D03*
X142625000Y-72350000D03*
X141275000Y-72350000D03*
X142625000Y-71450000D03*
%TD*%
%TO.C,D142*%
X138975000Y-71450000D03*
X140325000Y-72350000D03*
X138975000Y-72350000D03*
X140325000Y-71450000D03*
%TD*%
%TO.C,D141*%
X136675000Y-71450000D03*
X138025000Y-72350000D03*
X136675000Y-72350000D03*
X138025000Y-71450000D03*
%TD*%
%TO.C,D139*%
X132075000Y-71450000D03*
X133425000Y-72350000D03*
X132075000Y-72350000D03*
X133425000Y-71450000D03*
%TD*%
%TO.C,D138*%
X129775000Y-71450000D03*
X131125000Y-72350000D03*
X129775000Y-72350000D03*
X131125000Y-71450000D03*
%TD*%
%TO.C,D137*%
X127475000Y-71450000D03*
X128825000Y-72350000D03*
X127475000Y-72350000D03*
X128825000Y-71450000D03*
%TD*%
%TO.C,D136*%
X125175000Y-71450000D03*
X126525000Y-72350000D03*
X125175000Y-72350000D03*
X126525000Y-71450000D03*
%TD*%
%TO.C,D135*%
X122875000Y-71450000D03*
X124225000Y-72350000D03*
X122875000Y-72350000D03*
X124225000Y-71450000D03*
%TD*%
%TO.C,D134*%
X120575000Y-71450000D03*
X121925000Y-72350000D03*
X120575000Y-72350000D03*
X121925000Y-71450000D03*
%TD*%
%TO.C,D132*%
X115975000Y-71450000D03*
X117325000Y-72350000D03*
X115975000Y-72350000D03*
X117325000Y-71450000D03*
%TD*%
%TO.C,D131*%
X113675000Y-71450000D03*
X115025000Y-72350000D03*
X113675000Y-72350000D03*
X115025000Y-71450000D03*
%TD*%
%TO.C,D130*%
X111375000Y-71450000D03*
X112725000Y-72350000D03*
X111375000Y-72350000D03*
X112725000Y-71450000D03*
%TD*%
%TO.C,D129*%
X109075000Y-71450000D03*
X110425000Y-72350000D03*
X109075000Y-72350000D03*
X110425000Y-71450000D03*
%TD*%
%TO.C,D128*%
X143575000Y-69150000D03*
X144925000Y-70050000D03*
X143575000Y-70050000D03*
X144925000Y-69150000D03*
%TD*%
%TO.C,D127*%
X141275000Y-69150000D03*
X142625000Y-70050000D03*
X141275000Y-70050000D03*
X142625000Y-69150000D03*
%TD*%
%TO.C,D126*%
X138975000Y-69150000D03*
X140325000Y-70050000D03*
X138975000Y-70050000D03*
X140325000Y-69150000D03*
%TD*%
%TO.C,D125*%
X136675000Y-69150000D03*
X138025000Y-70050000D03*
X136675000Y-70050000D03*
X138025000Y-69150000D03*
%TD*%
%TO.C,D124*%
X134375000Y-69150000D03*
X135725000Y-70050000D03*
X134375000Y-70050000D03*
X135725000Y-69150000D03*
%TD*%
%TO.C,D123*%
X132075000Y-69150000D03*
X133425000Y-70050000D03*
X132075000Y-70050000D03*
X133425000Y-69150000D03*
%TD*%
%TO.C,D122*%
X129775000Y-69150000D03*
X131125000Y-70050000D03*
X129775000Y-70050000D03*
X131125000Y-69150000D03*
%TD*%
%TO.C,D121*%
X127475000Y-69150000D03*
X128825000Y-70050000D03*
X127475000Y-70050000D03*
X128825000Y-69150000D03*
%TD*%
%TO.C,D120*%
X125175000Y-69150000D03*
X126525000Y-70050000D03*
X125175000Y-70050000D03*
X126525000Y-69150000D03*
%TD*%
%TO.C,D119*%
X122875000Y-69150000D03*
X124225000Y-70050000D03*
X122875000Y-70050000D03*
X124225000Y-69150000D03*
%TD*%
%TO.C,D118*%
X120575000Y-69150000D03*
X121925000Y-70050000D03*
X120575000Y-70050000D03*
X121925000Y-69150000D03*
%TD*%
%TO.C,D117*%
X118275000Y-69150000D03*
X119625000Y-70050000D03*
X118275000Y-70050000D03*
X119625000Y-69150000D03*
%TD*%
%TO.C,D116*%
X115975000Y-69150000D03*
X117325000Y-70050000D03*
X115975000Y-70050000D03*
X117325000Y-69150000D03*
%TD*%
%TO.C,D115*%
X113675000Y-69150000D03*
X115025000Y-70050000D03*
X113675000Y-70050000D03*
X115025000Y-69150000D03*
%TD*%
%TO.C,D114*%
X111375000Y-69150000D03*
X112725000Y-70050000D03*
X111375000Y-70050000D03*
X112725000Y-69150000D03*
%TD*%
%TO.C,D113*%
X109075000Y-69150000D03*
X110425000Y-70050000D03*
X109075000Y-70050000D03*
X110425000Y-69150000D03*
%TD*%
%TO.C,D112*%
X143575000Y-66850000D03*
X144925000Y-67750000D03*
X143575000Y-67750000D03*
X144925000Y-66850000D03*
%TD*%
%TO.C,D111*%
X141275000Y-66850000D03*
X142625000Y-67750000D03*
X141275000Y-67750000D03*
X142625000Y-66850000D03*
%TD*%
%TO.C,D110*%
X138975000Y-66850000D03*
X140325000Y-67750000D03*
X138975000Y-67750000D03*
X140325000Y-66850000D03*
%TD*%
%TO.C,D109*%
X136675000Y-66850000D03*
X138025000Y-67750000D03*
X136675000Y-67750000D03*
X138025000Y-66850000D03*
%TD*%
%TO.C,D108*%
X134375000Y-66850000D03*
X135725000Y-67750000D03*
X134375000Y-67750000D03*
X135725000Y-66850000D03*
%TD*%
%TO.C,D107*%
X132075000Y-66850000D03*
X133425000Y-67750000D03*
X132075000Y-67750000D03*
X133425000Y-66850000D03*
%TD*%
%TO.C,D106*%
X129775000Y-66850000D03*
X131125000Y-67750000D03*
X129775000Y-67750000D03*
X131125000Y-66850000D03*
%TD*%
%TO.C,D105*%
X127475000Y-66850000D03*
X128825000Y-67750000D03*
X127475000Y-67750000D03*
X128825000Y-66850000D03*
%TD*%
%TO.C,D104*%
X125175000Y-66850000D03*
X126525000Y-67750000D03*
X125175000Y-67750000D03*
X126525000Y-66850000D03*
%TD*%
%TO.C,D103*%
X122875000Y-66850000D03*
X124225000Y-67750000D03*
X122875000Y-67750000D03*
X124225000Y-66850000D03*
%TD*%
%TO.C,D102*%
X120575000Y-66850000D03*
X121925000Y-67750000D03*
X120575000Y-67750000D03*
X121925000Y-66850000D03*
%TD*%
%TO.C,D101*%
X118275000Y-66850000D03*
X119625000Y-67750000D03*
X118275000Y-67750000D03*
X119625000Y-66850000D03*
%TD*%
%TO.C,D100*%
X115975000Y-66850000D03*
X117325000Y-67750000D03*
X115975000Y-67750000D03*
X117325000Y-66850000D03*
%TD*%
%TO.C,D99*%
X113675000Y-66850000D03*
X115025000Y-67750000D03*
X113675000Y-67750000D03*
X115025000Y-66850000D03*
%TD*%
%TO.C,D98*%
X111375000Y-66850000D03*
X112725000Y-67750000D03*
X111375000Y-67750000D03*
X112725000Y-66850000D03*
%TD*%
%TO.C,D97*%
X109075000Y-66850000D03*
X110425000Y-67750000D03*
X109075000Y-67750000D03*
X110425000Y-66850000D03*
%TD*%
%TO.C,D96*%
X143575000Y-64550000D03*
X144925000Y-65450000D03*
X143575000Y-65450000D03*
X144925000Y-64550000D03*
%TD*%
%TO.C,D95*%
X141275000Y-64550000D03*
X142625000Y-65450000D03*
X141275000Y-65450000D03*
X142625000Y-64550000D03*
%TD*%
%TO.C,D94*%
X138975000Y-64550000D03*
X140325000Y-65450000D03*
X138975000Y-65450000D03*
X140325000Y-64550000D03*
%TD*%
%TO.C,D93*%
X136675000Y-64550000D03*
X138025000Y-65450000D03*
X136675000Y-65450000D03*
X138025000Y-64550000D03*
%TD*%
%TO.C,D92*%
X134375000Y-64550000D03*
X135725000Y-65450000D03*
X134375000Y-65450000D03*
X135725000Y-64550000D03*
%TD*%
%TO.C,D91*%
X132075000Y-64550000D03*
X133425000Y-65450000D03*
X132075000Y-65450000D03*
X133425000Y-64550000D03*
%TD*%
%TO.C,D90*%
X129775000Y-64550000D03*
X131125000Y-65450000D03*
X129775000Y-65450000D03*
X131125000Y-64550000D03*
%TD*%
%TO.C,D89*%
X127475000Y-64550000D03*
X128825000Y-65450000D03*
X127475000Y-65450000D03*
X128825000Y-64550000D03*
%TD*%
%TO.C,D88*%
X125175000Y-64550000D03*
X126525000Y-65450000D03*
X125175000Y-65450000D03*
X126525000Y-64550000D03*
%TD*%
%TO.C,D87*%
X122875000Y-64550000D03*
X124225000Y-65450000D03*
X122875000Y-65450000D03*
X124225000Y-64550000D03*
%TD*%
%TO.C,D86*%
X120575000Y-64550000D03*
X121925000Y-65450000D03*
X120575000Y-65450000D03*
X121925000Y-64550000D03*
%TD*%
%TO.C,D85*%
X118275000Y-64550000D03*
X119625000Y-65450000D03*
X118275000Y-65450000D03*
X119625000Y-64550000D03*
%TD*%
%TO.C,D84*%
X115975000Y-64550000D03*
X117325000Y-65450000D03*
X115975000Y-65450000D03*
X117325000Y-64550000D03*
%TD*%
%TO.C,D83*%
X113675000Y-64550000D03*
X115025000Y-65450000D03*
X113675000Y-65450000D03*
X115025000Y-64550000D03*
%TD*%
%TO.C,D82*%
X111375000Y-64550000D03*
X112725000Y-65450000D03*
X111375000Y-65450000D03*
X112725000Y-64550000D03*
%TD*%
%TO.C,D81*%
X109075000Y-64550000D03*
X110425000Y-65450000D03*
X109075000Y-65450000D03*
X110425000Y-64550000D03*
%TD*%
%TO.C,D80*%
X143575000Y-62250000D03*
X144925000Y-63150000D03*
X143575000Y-63150000D03*
X144925000Y-62250000D03*
%TD*%
%TO.C,D79*%
X141275000Y-62250000D03*
X142625000Y-63150000D03*
X141275000Y-63150000D03*
X142625000Y-62250000D03*
%TD*%
%TO.C,D78*%
X138975000Y-62250000D03*
X140325000Y-63150000D03*
X138975000Y-63150000D03*
X140325000Y-62250000D03*
%TD*%
%TO.C,D77*%
X136675000Y-62250000D03*
X138025000Y-63150000D03*
X136675000Y-63150000D03*
X138025000Y-62250000D03*
%TD*%
%TO.C,D76*%
X134375000Y-62250000D03*
X135725000Y-63150000D03*
X134375000Y-63150000D03*
X135725000Y-62250000D03*
%TD*%
%TO.C,D75*%
X132075000Y-62250000D03*
X133425000Y-63150000D03*
X132075000Y-63150000D03*
X133425000Y-62250000D03*
%TD*%
%TO.C,D74*%
X129775000Y-62250000D03*
X131125000Y-63150000D03*
X129775000Y-63150000D03*
X131125000Y-62250000D03*
%TD*%
%TO.C,D73*%
X127475000Y-62250000D03*
X128825000Y-63150000D03*
X127475000Y-63150000D03*
X128825000Y-62250000D03*
%TD*%
%TO.C,D72*%
X125175000Y-62250000D03*
X126525000Y-63150000D03*
X125175000Y-63150000D03*
X126525000Y-62250000D03*
%TD*%
%TO.C,D71*%
X122875000Y-62250000D03*
X124225000Y-63150000D03*
X122875000Y-63150000D03*
X124225000Y-62250000D03*
%TD*%
%TO.C,D70*%
X120575000Y-62250000D03*
X121925000Y-63150000D03*
X120575000Y-63150000D03*
X121925000Y-62250000D03*
%TD*%
%TO.C,D69*%
X118275000Y-62250000D03*
X119625000Y-63150000D03*
X118275000Y-63150000D03*
X119625000Y-62250000D03*
%TD*%
%TO.C,D68*%
X115975000Y-62250000D03*
X117325000Y-63150000D03*
X115975000Y-63150000D03*
X117325000Y-62250000D03*
%TD*%
%TO.C,D67*%
X113675000Y-62250000D03*
X115025000Y-63150000D03*
X113675000Y-63150000D03*
X115025000Y-62250000D03*
%TD*%
%TO.C,D66*%
X111375000Y-62250000D03*
X112725000Y-63150000D03*
X111375000Y-63150000D03*
X112725000Y-62250000D03*
%TD*%
%TO.C,D65*%
X109075000Y-62250000D03*
X110425000Y-63150000D03*
X109075000Y-63150000D03*
X110425000Y-62250000D03*
%TD*%
%TO.C,D64*%
X143575000Y-59950000D03*
X144925000Y-60850000D03*
X143575000Y-60850000D03*
X144925000Y-59950000D03*
%TD*%
%TO.C,D63*%
X141275000Y-59950000D03*
X142625000Y-60850000D03*
X141275000Y-60850000D03*
X142625000Y-59950000D03*
%TD*%
%TO.C,D62*%
X138975000Y-59950000D03*
X140325000Y-60850000D03*
X138975000Y-60850000D03*
X140325000Y-59950000D03*
%TD*%
%TO.C,D61*%
X136675000Y-59950000D03*
X138025000Y-60850000D03*
X136675000Y-60850000D03*
X138025000Y-59950000D03*
%TD*%
%TO.C,D60*%
X134375000Y-59950000D03*
X135725000Y-60850000D03*
X134375000Y-60850000D03*
X135725000Y-59950000D03*
%TD*%
%TO.C,D59*%
X132075000Y-59950000D03*
X133425000Y-60850000D03*
X132075000Y-60850000D03*
X133425000Y-59950000D03*
%TD*%
%TO.C,D58*%
X129775000Y-59950000D03*
X131125000Y-60850000D03*
X129775000Y-60850000D03*
X131125000Y-59950000D03*
%TD*%
%TO.C,D57*%
X127475000Y-59950000D03*
X128825000Y-60850000D03*
X127475000Y-60850000D03*
X128825000Y-59950000D03*
%TD*%
%TO.C,D56*%
X125175000Y-59950000D03*
X126525000Y-60850000D03*
X125175000Y-60850000D03*
X126525000Y-59950000D03*
%TD*%
%TO.C,D55*%
X122875000Y-59950000D03*
X124225000Y-60850000D03*
X122875000Y-60850000D03*
X124225000Y-59950000D03*
%TD*%
%TO.C,D54*%
X120575000Y-59950000D03*
X121925000Y-60850000D03*
X120575000Y-60850000D03*
X121925000Y-59950000D03*
%TD*%
%TO.C,D53*%
X118275000Y-59950000D03*
X119625000Y-60850000D03*
X118275000Y-60850000D03*
X119625000Y-59950000D03*
%TD*%
%TO.C,D52*%
X115975000Y-59950000D03*
X117325000Y-60850000D03*
X115975000Y-60850000D03*
X117325000Y-59950000D03*
%TD*%
%TO.C,D51*%
X113675000Y-59950000D03*
X115025000Y-60850000D03*
X113675000Y-60850000D03*
X115025000Y-59950000D03*
%TD*%
%TO.C,D50*%
X111375000Y-59950000D03*
X112725000Y-60850000D03*
X111375000Y-60850000D03*
X112725000Y-59950000D03*
%TD*%
%TO.C,D49*%
X109075000Y-59950000D03*
X110425000Y-60850000D03*
X109075000Y-60850000D03*
X110425000Y-59950000D03*
%TD*%
%TO.C,D48*%
X143575000Y-57650000D03*
X144925000Y-58550000D03*
X143575000Y-58550000D03*
X144925000Y-57650000D03*
%TD*%
%TO.C,D47*%
X141275000Y-57650000D03*
X142625000Y-58550000D03*
X141275000Y-58550000D03*
X142625000Y-57650000D03*
%TD*%
%TO.C,D46*%
X138975000Y-57650000D03*
X140325000Y-58550000D03*
X138975000Y-58550000D03*
X140325000Y-57650000D03*
%TD*%
%TO.C,D45*%
X136675000Y-57650000D03*
X138025000Y-58550000D03*
X136675000Y-58550000D03*
X138025000Y-57650000D03*
%TD*%
%TO.C,D44*%
X134375000Y-57650000D03*
X135725000Y-58550000D03*
X134375000Y-58550000D03*
X135725000Y-57650000D03*
%TD*%
%TO.C,D43*%
X132075000Y-57650000D03*
X133425000Y-58550000D03*
X132075000Y-58550000D03*
X133425000Y-57650000D03*
%TD*%
%TO.C,D42*%
X129775000Y-57650000D03*
X131125000Y-58550000D03*
X129775000Y-58550000D03*
X131125000Y-57650000D03*
%TD*%
%TO.C,D41*%
X127475000Y-57650000D03*
X128825000Y-58550000D03*
X127475000Y-58550000D03*
X128825000Y-57650000D03*
%TD*%
%TO.C,D40*%
X125175000Y-57650000D03*
X126525000Y-58550000D03*
X125175000Y-58550000D03*
X126525000Y-57650000D03*
%TD*%
%TO.C,D39*%
X122875000Y-57650000D03*
X124225000Y-58550000D03*
X122875000Y-58550000D03*
X124225000Y-57650000D03*
%TD*%
%TO.C,D38*%
X120575000Y-57650000D03*
X121925000Y-58550000D03*
X120575000Y-58550000D03*
X121925000Y-57650000D03*
%TD*%
%TO.C,D37*%
X118275000Y-57650000D03*
X119625000Y-58550000D03*
X118275000Y-58550000D03*
X119625000Y-57650000D03*
%TD*%
%TO.C,D36*%
X115975000Y-57650000D03*
X117325000Y-58550000D03*
X115975000Y-58550000D03*
X117325000Y-57650000D03*
%TD*%
%TO.C,D35*%
X113675000Y-57650000D03*
X115025000Y-58550000D03*
X113675000Y-58550000D03*
X115025000Y-57650000D03*
%TD*%
%TO.C,D34*%
X111375000Y-57650000D03*
X112725000Y-58550000D03*
X111375000Y-58550000D03*
X112725000Y-57650000D03*
%TD*%
%TO.C,D33*%
X109075000Y-57650000D03*
X110425000Y-58550000D03*
X109075000Y-58550000D03*
X110425000Y-57650000D03*
%TD*%
%TO.C,D32*%
X143575000Y-55350000D03*
X144925000Y-56250000D03*
X143575000Y-56250000D03*
X144925000Y-55350000D03*
%TD*%
%TO.C,D31*%
X141275000Y-55350000D03*
X142625000Y-56250000D03*
X141275000Y-56250000D03*
X142625000Y-55350000D03*
%TD*%
%TO.C,D30*%
X138975000Y-55350000D03*
X140325000Y-56250000D03*
X138975000Y-56250000D03*
X140325000Y-55350000D03*
%TD*%
%TO.C,D29*%
X136675000Y-55350000D03*
X138025000Y-56250000D03*
X136675000Y-56250000D03*
X138025000Y-55350000D03*
%TD*%
%TO.C,D28*%
X134375000Y-55350000D03*
X135725000Y-56250000D03*
X134375000Y-56250000D03*
X135725000Y-55350000D03*
%TD*%
%TO.C,D27*%
X132075000Y-55350000D03*
X133425000Y-56250000D03*
X132075000Y-56250000D03*
X133425000Y-55350000D03*
%TD*%
%TO.C,D26*%
X129775000Y-55350000D03*
X131125000Y-56250000D03*
X129775000Y-56250000D03*
X131125000Y-55350000D03*
%TD*%
%TO.C,D25*%
X127475000Y-55350000D03*
X128825000Y-56250000D03*
X127475000Y-56250000D03*
X128825000Y-55350000D03*
%TD*%
%TO.C,D24*%
X125175000Y-55350000D03*
X126525000Y-56250000D03*
X125175000Y-56250000D03*
X126525000Y-55350000D03*
%TD*%
%TO.C,D23*%
X122875000Y-55350000D03*
X124225000Y-56250000D03*
X122875000Y-56250000D03*
X124225000Y-55350000D03*
%TD*%
%TO.C,D22*%
X120575000Y-55350000D03*
X121925000Y-56250000D03*
X120575000Y-56250000D03*
X121925000Y-55350000D03*
%TD*%
%TO.C,D21*%
X118275000Y-55350000D03*
X119625000Y-56250000D03*
X118275000Y-56250000D03*
X119625000Y-55350000D03*
%TD*%
%TO.C,D20*%
X115975000Y-55350000D03*
X117325000Y-56250000D03*
X115975000Y-56250000D03*
X117325000Y-55350000D03*
%TD*%
%TO.C,D19*%
X113675000Y-55350000D03*
X115025000Y-56250000D03*
X113675000Y-56250000D03*
X115025000Y-55350000D03*
%TD*%
%TO.C,D18*%
X111375000Y-55350000D03*
X112725000Y-56250000D03*
X111375000Y-56250000D03*
X112725000Y-55350000D03*
%TD*%
%TO.C,D17*%
X109075000Y-55350000D03*
X110425000Y-56250000D03*
X109075000Y-56250000D03*
X110425000Y-55350000D03*
%TD*%
%TO.C,D16*%
X143575000Y-53050000D03*
X144925000Y-53950000D03*
X143575000Y-53950000D03*
X144925000Y-53050000D03*
%TD*%
%TO.C,D15*%
X141275000Y-53050000D03*
X142625000Y-53950000D03*
X141275000Y-53950000D03*
X142625000Y-53050000D03*
%TD*%
%TO.C,D14*%
X138975000Y-53050000D03*
X140325000Y-53950000D03*
X138975000Y-53950000D03*
X140325000Y-53050000D03*
%TD*%
%TO.C,D13*%
X136675000Y-53050000D03*
X138025000Y-53950000D03*
X136675000Y-53950000D03*
X138025000Y-53050000D03*
%TD*%
%TO.C,D12*%
X134375000Y-53050000D03*
X135725000Y-53950000D03*
X134375000Y-53950000D03*
X135725000Y-53050000D03*
%TD*%
%TO.C,D11*%
X132075000Y-53050000D03*
X133425000Y-53950000D03*
X132075000Y-53950000D03*
X133425000Y-53050000D03*
%TD*%
%TO.C,D10*%
X129775000Y-53050000D03*
X131125000Y-53950000D03*
X129775000Y-53950000D03*
X131125000Y-53050000D03*
%TD*%
%TO.C,D9*%
X127475000Y-53050000D03*
X128825000Y-53950000D03*
X127475000Y-53950000D03*
X128825000Y-53050000D03*
%TD*%
%TO.C,D7*%
X122875000Y-53050000D03*
X124225000Y-53950000D03*
X122875000Y-53950000D03*
X124225000Y-53050000D03*
%TD*%
%TO.C,D6*%
X120575000Y-53050000D03*
X121925000Y-53950000D03*
X120575000Y-53950000D03*
X121925000Y-53050000D03*
%TD*%
%TO.C,D5*%
X118275000Y-53050000D03*
X119625000Y-53950000D03*
X118275000Y-53950000D03*
X119625000Y-53050000D03*
%TD*%
%TO.C,D4*%
X115975000Y-53050000D03*
X117325000Y-53950000D03*
X115975000Y-53950000D03*
X117325000Y-53050000D03*
%TD*%
%TO.C,D3*%
X113675000Y-53050000D03*
X115025000Y-53950000D03*
X113675000Y-53950000D03*
X115025000Y-53050000D03*
%TD*%
%TO.C,D2*%
X111375000Y-53050000D03*
X112725000Y-53950000D03*
X111375000Y-53950000D03*
X112725000Y-53050000D03*
%TD*%
%TO.C,D1*%
X109075000Y-53050000D03*
X110425000Y-53950000D03*
X109075000Y-53950000D03*
X110425000Y-53050000D03*
%TD*%
%TO.C,D133*%
X118275000Y-71450000D03*
X119625000Y-72350000D03*
X118275000Y-72350000D03*
X119625000Y-71450000D03*
%TD*%
%TO.C,D166*%
X120575000Y-76050000D03*
X121925000Y-76950000D03*
X120575000Y-76950000D03*
X121925000Y-76050000D03*
%TD*%
%TO.C,D170*%
X129775000Y-76050000D03*
X131125000Y-76950000D03*
X129775000Y-76950000D03*
X131125000Y-76050000D03*
%TD*%
%TO.C,D140*%
X134375000Y-71450000D03*
X135725000Y-72350000D03*
X134375000Y-72350000D03*
X135725000Y-71450000D03*
%TD*%
%TO.C,D8*%
X125175000Y-53050000D03*
X126525000Y-53950000D03*
X125175000Y-53950000D03*
X126525000Y-53050000D03*
%TD*%
D18*
%TO.C,J1*%
X144700000Y-51700000D03*
D19*
X143430000Y-51700000D03*
X142160000Y-51700000D03*
%TD*%
D20*
%TO.C,SW8*%
X113775000Y-100900000D03*
X113775000Y-97700000D03*
X115425000Y-100900000D03*
X115425000Y-97700000D03*
%TD*%
%TO.C,SW7*%
X118375000Y-100900000D03*
X118375000Y-97700000D03*
X120025000Y-100900000D03*
X120025000Y-97700000D03*
%TD*%
D21*
%TO.C,C32*%
X134670000Y-86000000D03*
X135630000Y-86000000D03*
%TD*%
%TO.C,C31*%
X139170000Y-51800000D03*
X140130000Y-51800000D03*
%TD*%
%TO.C,C24*%
X136870000Y-51800000D03*
X137830000Y-51800000D03*
%TD*%
%TO.C,C22*%
X134570000Y-51800000D03*
X135530000Y-51800000D03*
%TD*%
D22*
%TO.C,D199*%
X118200000Y-94300000D03*
X119600000Y-94300000D03*
%TD*%
D23*
%TO.C,R15*%
X115690000Y-83500000D03*
X116710000Y-83500000D03*
%TD*%
D24*
%TO.C,Q1*%
X112850000Y-83100000D03*
X114150000Y-83100000D03*
X113500000Y-81100000D03*
%TD*%
D25*
%TO.C,D198*%
X116900000Y-82100000D03*
X115500000Y-82100000D03*
%TD*%
%TO.C,D196*%
X116900000Y-80700000D03*
X115500000Y-80700000D03*
%TD*%
D26*
%TO.C,J2*%
X110100000Y-81300000D03*
D27*
X110100000Y-83840000D03*
X110100000Y-86380000D03*
%TD*%
D23*
%TO.C,R14*%
X134640000Y-88000000D03*
X135660000Y-88000000D03*
%TD*%
%TO.C,R7*%
X134640000Y-88950000D03*
X135660000Y-88950000D03*
%TD*%
D28*
%TO.C,R5*%
X124700000Y-91740000D03*
X124700000Y-92760000D03*
%TD*%
%TO.C,R1*%
X125650000Y-92760000D03*
X125650000Y-91740000D03*
%TD*%
D29*
%TO.C,D194*%
X122950000Y-89550000D03*
X122950000Y-92350000D03*
%TD*%
D30*
%TO.C,LS1*%
X123000000Y-81850000D03*
X119400000Y-81850000D03*
X123000000Y-85350000D03*
%TD*%
D31*
%TO.C,U4*%
X137178200Y-82181000D03*
X137178200Y-81681000D03*
X137178200Y-81181000D03*
X137178200Y-80681000D03*
D32*
X138778200Y-80881000D03*
D33*
X138628200Y-81431000D03*
D32*
X138778200Y-81981000D03*
%TD*%
D34*
%TO.C,U2*%
X134600000Y-92550000D03*
D35*
X133175000Y-93300000D03*
X133175000Y-92800000D03*
X133175000Y-92300000D03*
X133175000Y-91800000D03*
X136025000Y-91800000D03*
X136025000Y-92300000D03*
X136025000Y-92800000D03*
X136025000Y-93300000D03*
%TD*%
D36*
%TO.C,J3*%
X131320000Y-98995000D03*
D37*
X131320000Y-94815000D03*
D36*
X122680000Y-98995000D03*
D37*
X122680000Y-94815000D03*
D38*
X123800000Y-94240000D03*
X124600000Y-94240000D03*
D39*
X125250000Y-94240000D03*
X126250000Y-94240000D03*
X127750000Y-94240000D03*
X128750000Y-94240000D03*
D38*
X129400000Y-94240000D03*
X130200000Y-94240000D03*
X130200000Y-94240000D03*
X129400000Y-94240000D03*
D39*
X128250000Y-94240000D03*
X127250000Y-94240000D03*
X126750000Y-94240000D03*
X125750000Y-94240000D03*
D38*
X124600000Y-94240000D03*
X123800000Y-94240000D03*
D40*
X129890000Y-95315000D03*
X124110000Y-95315000D03*
%TD*%
D23*
%TO.C,R2*%
X135660000Y-86950000D03*
X134640000Y-86950000D03*
%TD*%
D41*
%TO.C,R10*%
X128400000Y-92760000D03*
X128400000Y-91740000D03*
%TD*%
%TO.C,R8*%
X129300000Y-92760000D03*
X129300000Y-91740000D03*
%TD*%
D42*
%TO.C,D197*%
X141200000Y-89562500D03*
X141200000Y-91137500D03*
%TD*%
D43*
%TO.C,D193*%
X144523000Y-80800000D03*
X144523000Y-82900000D03*
%TD*%
D44*
%TO.C,R6*%
X136170600Y-80450000D03*
X135150600Y-80450000D03*
%TD*%
D45*
%TO.C,C28*%
X140560600Y-80904000D03*
X140560600Y-82804000D03*
%TD*%
D44*
%TO.C,R9*%
X136170600Y-81450000D03*
X135150600Y-81450000D03*
%TD*%
D46*
%TO.C,C16*%
X136900000Y-86400000D03*
X138800000Y-86400000D03*
%TD*%
D45*
%TO.C,C27*%
X142460600Y-80904000D03*
X142460600Y-82804000D03*
%TD*%
D47*
%TO.C,L1*%
X136531000Y-84031000D03*
X138681000Y-84031000D03*
%TD*%
D48*
%TO.C,Y1*%
X131500000Y-80850000D03*
X133700000Y-80850000D03*
X133700000Y-82450000D03*
X131500000Y-82450000D03*
%TD*%
D49*
%TO.C,X1*%
X135920000Y-95750000D03*
D50*
X135920000Y-98290000D03*
D51*
X138460000Y-95750000D03*
X138460000Y-98290000D03*
D50*
X141000000Y-95750000D03*
X141000000Y-98290000D03*
%TD*%
D52*
%TO.C,U6*%
X133487500Y-89800000D03*
X133487500Y-89400000D03*
X133487500Y-89000000D03*
X133487500Y-88600000D03*
X133487500Y-88200000D03*
X133487500Y-87800000D03*
X133487500Y-87400000D03*
X133487500Y-87000000D03*
X133487500Y-86600000D03*
X133487500Y-86200000D03*
X133487500Y-85800000D03*
X133487500Y-85400000D03*
X133487500Y-85000000D03*
X133487500Y-84600000D03*
D53*
X132650000Y-83762500D03*
X132250000Y-83762500D03*
X131850000Y-83762500D03*
X131450000Y-83762500D03*
X131050000Y-83762500D03*
X130650000Y-83762500D03*
X130250000Y-83762500D03*
X129850000Y-83762500D03*
X129450000Y-83762500D03*
X129050000Y-83762500D03*
X128650000Y-83762500D03*
X128250000Y-83762500D03*
X127850000Y-83762500D03*
X127450000Y-83762500D03*
D52*
X126612500Y-84600000D03*
X126612500Y-85000000D03*
X126612500Y-85400000D03*
X126612500Y-85800000D03*
X126612500Y-86200000D03*
X126612500Y-86600000D03*
X126612500Y-87000000D03*
X126612500Y-87400000D03*
X126612500Y-87800000D03*
X126612500Y-88200000D03*
X126612500Y-88600000D03*
X126612500Y-89000000D03*
X126612500Y-89400000D03*
X126612500Y-89800000D03*
D53*
X127450000Y-90637500D03*
X127850000Y-90637500D03*
X128250000Y-90637500D03*
X128650000Y-90637500D03*
X129050000Y-90637500D03*
X129450000Y-90637500D03*
X129850000Y-90637500D03*
X130250000Y-90637500D03*
X130650000Y-90637500D03*
X131050000Y-90637500D03*
X131450000Y-90637500D03*
X131850000Y-90637500D03*
X132250000Y-90637500D03*
X132650000Y-90637500D03*
D54*
X130050000Y-87200000D03*
%TD*%
D55*
%TO.C,U3*%
X125837500Y-80784000D03*
X125837500Y-81284000D03*
X125837500Y-81784000D03*
X125837500Y-82284000D03*
D56*
X126500000Y-82446500D03*
X127000000Y-82446500D03*
X127500000Y-82446500D03*
D55*
X128162500Y-82284000D03*
X128162500Y-81784000D03*
X128162500Y-81284000D03*
X128162500Y-80784000D03*
D56*
X127500000Y-80621500D03*
X127000000Y-80621500D03*
X126500000Y-80621500D03*
%TD*%
D57*
%TO.C,U1*%
X140562500Y-84350000D03*
X140562500Y-86250000D03*
X142437500Y-85300000D03*
%TD*%
D58*
%TO.C,SW6*%
X145025000Y-88275000D03*
X145025000Y-92425000D03*
X142875000Y-88275000D03*
X142875000Y-92425000D03*
%TD*%
%TO.C,SW5*%
X137375000Y-92425000D03*
X137375000Y-88275000D03*
X139525000Y-92425000D03*
X139525000Y-88275000D03*
%TD*%
D59*
%TO.C,SW4*%
X116060000Y-88580000D03*
X120210000Y-88580000D03*
X116060000Y-90730000D03*
X120210000Y-90730000D03*
%TD*%
%TO.C,SW3*%
X108890000Y-88580000D03*
X113040000Y-88580000D03*
X108890000Y-90730000D03*
X113040000Y-90730000D03*
%TD*%
%TO.C,SW2*%
X116625000Y-94425000D03*
X112475000Y-94425000D03*
X116625000Y-92275000D03*
X112475000Y-92275000D03*
%TD*%
%TO.C,SW1*%
X112475000Y-84875000D03*
X116625000Y-84875000D03*
X112475000Y-87025000D03*
X116625000Y-87025000D03*
%TD*%
D23*
%TO.C,R13*%
X140690000Y-92350000D03*
X141710000Y-92350000D03*
%TD*%
D41*
%TO.C,R12*%
X135150000Y-85070000D03*
X135150000Y-84050000D03*
%TD*%
D44*
%TO.C,R11*%
X141710000Y-88400000D03*
X140690000Y-88400000D03*
%TD*%
D41*
%TO.C,R4*%
X135600000Y-90860000D03*
X135600000Y-89840000D03*
%TD*%
D23*
%TO.C,R3*%
X118390000Y-92450000D03*
X119410000Y-92450000D03*
%TD*%
D42*
%TO.C,D195*%
X114550000Y-88862500D03*
X114550000Y-90437500D03*
%TD*%
D60*
%TO.C,C30*%
X135150000Y-82270000D03*
X135150000Y-83230000D03*
%TD*%
D61*
%TO.C,C29*%
X130100000Y-80750000D03*
X129140000Y-80750000D03*
%TD*%
D62*
%TO.C,C26*%
X125450000Y-86220000D03*
X125450000Y-87180000D03*
%TD*%
%TO.C,C25*%
X126575000Y-92730000D03*
X126575000Y-91770000D03*
%TD*%
D61*
%TO.C,C23*%
X125480000Y-89800000D03*
X124520000Y-89800000D03*
%TD*%
D62*
%TO.C,C21*%
X130170000Y-92730000D03*
X130170000Y-91770000D03*
%TD*%
%TO.C,C20*%
X134650000Y-89870000D03*
X134650000Y-90830000D03*
%TD*%
D21*
%TO.C,C19*%
X129170000Y-82600000D03*
X130130000Y-82600000D03*
%TD*%
D63*
%TO.C,C18*%
X131110589Y-92010589D03*
X131789411Y-92689411D03*
%TD*%
D62*
%TO.C,C17*%
X127500000Y-91770000D03*
X127500000Y-92730000D03*
%TD*%
D21*
%TO.C,C15*%
X129170000Y-81700000D03*
X130130000Y-81700000D03*
%TD*%
D62*
%TO.C,C14*%
X125450000Y-83450000D03*
X125450000Y-84410000D03*
%TD*%
%TO.C,C13*%
X132800000Y-94220000D03*
X132800000Y-95180000D03*
%TD*%
D21*
%TO.C,C12*%
X140720000Y-87460000D03*
X141680000Y-87460000D03*
%TD*%
D62*
%TO.C,C11*%
X143900000Y-85320000D03*
X143900000Y-86280000D03*
%TD*%
D21*
%TO.C,C10*%
X132270000Y-51800000D03*
X133230000Y-51800000D03*
%TD*%
%TO.C,C9*%
X129970000Y-51800000D03*
X130930000Y-51800000D03*
%TD*%
%TO.C,C8*%
X127670000Y-51800000D03*
X128630000Y-51800000D03*
%TD*%
%TO.C,C7*%
X125370000Y-51800000D03*
X126330000Y-51800000D03*
%TD*%
%TO.C,C6*%
X123070000Y-51800000D03*
X124030000Y-51800000D03*
%TD*%
%TO.C,C5*%
X120770000Y-51800000D03*
X121730000Y-51800000D03*
%TD*%
%TO.C,C4*%
X118470000Y-51800000D03*
X119430000Y-51800000D03*
%TD*%
%TO.C,C3*%
X116170000Y-51800000D03*
X117130000Y-51800000D03*
%TD*%
%TO.C,C2*%
X113870000Y-51800000D03*
X114830000Y-51800000D03*
%TD*%
%TO.C,C1*%
X111570000Y-51800000D03*
X112530000Y-51800000D03*
%TD*%
G36*
X112454736Y-95350942D02*
G01*
X112516975Y-95363322D01*
X112534639Y-95370638D01*
X112583317Y-95403163D01*
X112596836Y-95416682D01*
X112629361Y-95465360D01*
X112636677Y-95483023D01*
X112649058Y-95545263D01*
X112650000Y-95554823D01*
X112650000Y-101395176D01*
X112649058Y-101404736D01*
X112636677Y-101466976D01*
X112629361Y-101484639D01*
X112596836Y-101533317D01*
X112583317Y-101546836D01*
X112534639Y-101579361D01*
X112516976Y-101586677D01*
X112454737Y-101599058D01*
X112445177Y-101600000D01*
X109202266Y-101600000D01*
X109201975Y-101599999D01*
X109200292Y-101599989D01*
X109199805Y-101599984D01*
X109197852Y-101599953D01*
X109197562Y-101599947D01*
X109107092Y-101597975D01*
X109105226Y-101597899D01*
X109092773Y-101597152D01*
X109089045Y-101596785D01*
X109076715Y-101595093D01*
X109074868Y-101594804D01*
X108894139Y-101562936D01*
X108892040Y-101562518D01*
X108878141Y-101559436D01*
X108874016Y-101558331D01*
X108860430Y-101554048D01*
X108858404Y-101553360D01*
X108688158Y-101491396D01*
X108686167Y-101490622D01*
X108673018Y-101485176D01*
X108669142Y-101483368D01*
X108656514Y-101476794D01*
X108654640Y-101475766D01*
X108497754Y-101385188D01*
X108495925Y-101384078D01*
X108483899Y-101376416D01*
X108480399Y-101373965D01*
X108469100Y-101365295D01*
X108467432Y-101363957D01*
X108328655Y-101247509D01*
X108327050Y-101246102D01*
X108316547Y-101236479D01*
X108313520Y-101233452D01*
X108303897Y-101222949D01*
X108302490Y-101221344D01*
X108186042Y-101082567D01*
X108184704Y-101080899D01*
X108176034Y-101069600D01*
X108173583Y-101066100D01*
X108165921Y-101054074D01*
X108164811Y-101052245D01*
X108074233Y-100895359D01*
X108073205Y-100893485D01*
X108066631Y-100880857D01*
X108064823Y-100876981D01*
X108059377Y-100863832D01*
X108058603Y-100861841D01*
X107992915Y-100681363D01*
X107989961Y-100664972D01*
X107951551Y-95556349D01*
X107952430Y-95546738D01*
X107964457Y-95484126D01*
X107971707Y-95466338D01*
X108004154Y-95417279D01*
X108017686Y-95403645D01*
X108066496Y-95370832D01*
X108084230Y-95363447D01*
X108146752Y-95350950D01*
X108156356Y-95350000D01*
X112445177Y-95350000D01*
X112454736Y-95350942D01*
G37*
%LPD*%
M02*
