%TF.GenerationSoftware,KiCad,Pcbnew,8.0.5*%
%TF.CreationDate,2024-10-02T01:05:19-07:00*%
%TF.ProjectId,badgesao,62616467-6573-4616-9f2e-6b696361645f,rev?*%
%TF.SameCoordinates,Original*%
%TF.FileFunction,Soldermask,Bot*%
%TF.FilePolarity,Negative*%
%FSLAX46Y46*%
G04 Gerber Fmt 4.6, Leading zero omitted, Abs format (unit mm)*
G04 Created by KiCad (PCBNEW 8.0.5) date 2024-10-02 01:05:19*
%MOMM*%
%LPD*%
G01*
G04 APERTURE LIST*
G04 Aperture macros list*
%AMHorizOval*
0 Thick line with rounded ends*
0 $1 width*
0 $2 $3 position (X,Y) of the first rounded end (center of the circle)*
0 $4 $5 position (X,Y) of the second rounded end (center of the circle)*
0 Add line between two ends*
20,1,$1,$2,$3,$4,$5,0*
0 Add two circle primitives to create the rounded ends*
1,1,$1,$2,$3*
1,1,$1,$4,$5*%
G04 Aperture macros list end*
%ADD10C,0.650000*%
%ADD11O,1.000000X2.100000*%
%ADD12O,1.000000X1.800000*%
%ADD13R,1.727200X1.727200*%
%ADD14C,1.727200*%
%ADD15O,1.727200X1.727200*%
%ADD16R,1.700000X1.700000*%
%ADD17O,1.700000X1.700000*%
%ADD18R,1.000000X1.000000*%
%ADD19HorizOval,1.000000X0.000000X0.000000X0.000000X0.000000X0*%
G04 APERTURE END LIST*
D10*
%TO.C,J3*%
X124110000Y-95315000D03*
X129890000Y-95315000D03*
D11*
X122680000Y-94815000D03*
D12*
X122680000Y-98995000D03*
D11*
X131320000Y-94815000D03*
D12*
X131320000Y-98995000D03*
%TD*%
D13*
%TO.C,X1*%
X135920000Y-95750000D03*
D14*
X135920000Y-98290000D03*
D15*
X138460000Y-95750000D03*
X138460000Y-98290000D03*
D14*
X141000000Y-95750000D03*
X141000000Y-98290000D03*
%TD*%
D16*
%TO.C,J2*%
X110100000Y-81300000D03*
D17*
X110100000Y-83840000D03*
X110100000Y-86380000D03*
%TD*%
D18*
%TO.C,J1*%
X111480000Y-51700000D03*
D19*
X112750000Y-51700000D03*
X114020000Y-51700000D03*
%TD*%
G36*
X111454736Y-91550942D02*
G01*
X111516975Y-91563322D01*
X111534639Y-91570638D01*
X111583317Y-91603163D01*
X111596836Y-91616682D01*
X111629361Y-91665360D01*
X111636677Y-91683023D01*
X111649058Y-91745263D01*
X111650000Y-91754823D01*
X111650000Y-97470176D01*
X111649058Y-97479736D01*
X111636677Y-97541976D01*
X111629361Y-97559639D01*
X111596836Y-97608317D01*
X111583317Y-97621836D01*
X111534639Y-97654361D01*
X111516976Y-97661677D01*
X111454737Y-97674058D01*
X111445177Y-97675000D01*
X108154823Y-97675000D01*
X108145263Y-97674058D01*
X108083023Y-97661677D01*
X108065360Y-97654361D01*
X108016682Y-97621836D01*
X108003163Y-97608317D01*
X107970638Y-97559639D01*
X107963321Y-97541975D01*
X107950941Y-97479735D01*
X107950000Y-97470176D01*
X107950000Y-91754823D01*
X107950941Y-91745264D01*
X107963321Y-91683024D01*
X107970638Y-91665360D01*
X108003163Y-91616682D01*
X108016682Y-91603163D01*
X108065360Y-91570638D01*
X108083024Y-91563321D01*
X108145264Y-91550941D01*
X108154823Y-91550000D01*
X111445177Y-91550000D01*
X111454736Y-91550942D01*
G37*
M02*
