M48
; DRILL file {KiCad 8.0.5} date 2024-10-02T01:05:19-0700
; FORMAT={-:-/ absolute / inch / decimal}
; #@! TF.CreationDate,2024-10-02T01:05:19-07:00
; #@! TF.GenerationSoftware,Kicad,Pcbnew,8.0.5
; #@! TF.FileFunction,Plated,1,6,PTH
FMAT,2
INCH
; #@! TA.AperFunction,Plated,PTH,ViaDrill
T1C0.0118
; #@! TA.AperFunction,Plated,PTH,ComponentDrill
T2C0.0236
; #@! TA.AperFunction,Plated,PTH,ComponentDrill
T3C0.0256
; #@! TA.AperFunction,Plated,PTH,ComponentDrill
T4C0.0394
; #@! TA.AperFunction,Plated,PTH,ComponentDrill
T5C0.0400
%
G90
G05
T1
X4.2795Y-3.7894
X4.2795Y-3.9705
X4.2835Y-3.626
X4.2874Y-3.4882
X4.2953Y-2.124
X4.2953Y-2.2146
X4.2953Y-2.3051
X4.2953Y-2.3957
X4.2953Y-2.4862
X4.2953Y-2.5768
X4.2953Y-2.6673
X4.2953Y-2.7579
X4.2953Y-2.8484
X4.2953Y-2.939
X4.2953Y-3.0295
X4.2953Y-3.1201
X4.3465Y-2.0886
X4.3465Y-2.1791
X4.3465Y-2.2697
X4.3465Y-2.3602
X4.3465Y-2.4508
X4.3465Y-2.5413
X4.3465Y-2.6319
X4.3465Y-2.7224
X4.3465Y-2.813
X4.3465Y-2.9035
X4.3465Y-2.9941
X4.3465Y-3.0846
X4.3484Y-3.8819
X4.3583Y-3.7126
X4.3858Y-2.124
X4.3858Y-2.2146
X4.3858Y-2.3051
X4.3858Y-2.3957
X4.3858Y-2.4862
X4.3858Y-2.5768
X4.3858Y-2.6673
X4.3858Y-2.7579
X4.3858Y-2.8484
X4.3858Y-2.939
X4.3858Y-3.0295
X4.3858Y-3.1201
X4.4134Y-3.7894
X4.4134Y-3.9705
X4.4173Y-3.2295
X4.4272Y-3.3425
X4.4291Y-3.7185
X4.437Y-2.0886
X4.437Y-2.1791
X4.437Y-2.2697
X4.437Y-2.3602
X4.437Y-2.4508
X4.437Y-2.5413
X4.437Y-2.6319
X4.437Y-2.7224
X4.437Y-2.813
X4.437Y-2.9035
X4.437Y-2.9941
X4.437Y-3.0846
X4.4508Y-3.4882
X4.4764Y-2.124
X4.4764Y-2.2146
X4.4764Y-2.3051
X4.4764Y-2.3957
X4.4764Y-2.4862
X4.4764Y-2.5768
X4.4764Y-2.6673
X4.4764Y-2.7579
X4.4764Y-2.8484
X4.4764Y-2.939
X4.4764Y-3.0295
X4.4764Y-3.1201
X4.4803Y-3.8465
X4.4803Y-3.9724
X4.5098Y-3.4154
X4.5098Y-3.498
X4.5276Y-2.0886
X4.5276Y-2.1791
X4.5276Y-2.2697
X4.5276Y-2.3602
X4.5276Y-2.4508
X4.5276Y-2.5413
X4.5276Y-2.6319
X4.5276Y-2.7224
X4.5276Y-2.813
X4.5276Y-2.9035
X4.5276Y-2.9941
X4.5276Y-3.0846
X4.5335Y-3.1917
X4.5528Y-3.1665
X4.5669Y-2.124
X4.5669Y-2.2146
X4.5669Y-2.3051
X4.5669Y-2.3957
X4.5669Y-2.4862
X4.5669Y-2.5768
X4.5669Y-2.6673
X4.5669Y-2.7579
X4.5669Y-2.8484
X4.5669Y-2.939
X4.5669Y-3.0295
X4.5669Y-3.1201
X4.5689Y-3.4882
X4.5768Y-2.0394
X4.589Y-3.2783
X4.5925Y-3.3425
X4.5925Y-3.7185
X4.5984Y-3.9055
X4.6083Y-2.0394
X4.6181Y-2.0886
X4.6181Y-2.1791
X4.6181Y-2.2697
X4.6181Y-2.3602
X4.6181Y-2.4508
X4.6181Y-2.5413
X4.6181Y-2.6319
X4.6181Y-2.7224
X4.6181Y-2.813
X4.6181Y-2.9035
X4.6181Y-2.9941
X4.6181Y-3.0846
X4.6575Y-2.124
X4.6575Y-2.2146
X4.6575Y-2.3051
X4.6575Y-2.3957
X4.6575Y-2.4862
X4.6575Y-2.5768
X4.6575Y-2.6673
X4.6575Y-2.7579
X4.6575Y-2.8484
X4.6575Y-2.939
X4.6575Y-3.0295
X4.6575Y-3.1201
X4.6575Y-3.5689
X4.6614Y-3.8465
X4.6614Y-3.9724
X4.6673Y-2.0394
X4.6894Y-3.3461
X4.6988Y-2.0394
X4.7008Y-3.6398
X4.7087Y-2.0886
X4.7087Y-2.1791
X4.7087Y-2.2697
X4.7087Y-2.3602
X4.7087Y-2.4508
X4.7087Y-2.5413
X4.7087Y-2.6319
X4.7087Y-2.7224
X4.7087Y-2.813
X4.7087Y-2.9035
X4.7087Y-2.9941
X4.7087Y-3.0846
X4.7343Y-3.4882
X4.748Y-2.124
X4.748Y-2.2146
X4.748Y-2.3051
X4.748Y-2.3957
X4.748Y-2.4862
X4.748Y-2.5768
X4.748Y-2.6673
X4.748Y-2.7579
X4.748Y-2.8484
X4.748Y-2.939
X4.748Y-3.0295
X4.748Y-3.1201
X4.7528Y-3.7177
X4.7579Y-2.0394
X4.7717Y-3.2697
X4.789Y-3.1654
X4.7894Y-2.0394
X4.7898Y-3.4102
X4.7992Y-2.0886
X4.7992Y-2.1791
X4.7992Y-2.2697
X4.7992Y-2.3602
X4.7992Y-2.4508
X4.7992Y-2.5413
X4.7992Y-2.6319
X4.7992Y-2.7224
X4.7992Y-2.813
X4.7992Y-2.9035
X4.7992Y-2.9941
X4.7992Y-3.0846
X4.8189Y-3.5039
X4.8189Y-3.5472
X4.8386Y-2.124
X4.8386Y-2.2146
X4.8386Y-2.3051
X4.8386Y-2.3957
X4.8386Y-2.4862
X4.8386Y-2.5768
X4.8386Y-2.6673
X4.8386Y-2.7579
X4.8386Y-2.8484
X4.8386Y-2.939
X4.8386Y-3.0295
X4.8386Y-3.1201
X4.8406Y-3.5256
X4.8484Y-2.0394
X4.8484Y-3.3031
X4.8622Y-3.5039
X4.8622Y-3.5472
X4.8799Y-2.0394
X4.8898Y-2.0886
X4.8898Y-2.1791
X4.8898Y-2.2697
X4.8898Y-2.3602
X4.8898Y-2.4508
X4.8898Y-2.5413
X4.8898Y-2.6319
X4.8898Y-2.7224
X4.8898Y-2.813
X4.8898Y-2.9035
X4.8898Y-2.9941
X4.8898Y-3.0846
X4.9055Y-3.5354
X4.9094Y-3.6122
X4.9173Y-3.9724
X4.9291Y-2.124
X4.9291Y-2.2146
X4.9291Y-2.3051
X4.9291Y-2.3957
X4.9291Y-2.4862
X4.9291Y-2.5768
X4.9291Y-2.6673
X4.9291Y-2.7579
X4.9291Y-2.8484
X4.9291Y-2.939
X4.9291Y-3.0295
X4.9291Y-3.1201
X4.937Y-3.5354
X4.9386Y-3.2996
X4.939Y-2.0394
X4.939Y-3.3976
X4.939Y-3.4311
X4.9429Y-3.1803
X4.9429Y-3.2205
X4.9469Y-3.6122
X4.9685Y-3.2008
X4.9705Y-2.0394
X4.9803Y-2.0886
X4.9803Y-2.1791
X4.9803Y-2.2697
X4.9803Y-2.3602
X4.9803Y-2.4508
X4.9803Y-2.5413
X4.9803Y-2.6319
X4.9803Y-2.7224
X4.9803Y-2.813
X4.9803Y-2.9035
X4.9803Y-2.9941
X4.9803Y-3.0846
X4.9807Y-3.2335
X4.9843Y-3.6161
X4.9843Y-3.6476
X4.9961Y-3.8976
X5.0Y-3.2587
X5.0197Y-2.124
X5.0197Y-2.2146
X5.0197Y-2.3051
X5.0197Y-2.3957
X5.0197Y-2.4862
X5.0197Y-2.5768
X5.0197Y-2.6673
X5.0197Y-2.7579
X5.0197Y-2.8484
X5.0197Y-2.939
X5.0197Y-3.0295
X5.0197Y-3.1201
X5.0197Y-3.1673
X5.0197Y-3.2335
X5.0197Y-3.6476
X5.0285Y-3.3445
X5.0295Y-2.0394
X5.0571Y-3.2638
X5.061Y-2.0394
X5.0669Y-3.3819
X5.0669Y-3.4843
X5.0709Y-2.0886
X5.0709Y-2.1791
X5.0709Y-2.2697
X5.0709Y-2.3602
X5.0709Y-2.4508
X5.0709Y-2.5413
X5.0709Y-2.6319
X5.0709Y-2.7224
X5.0709Y-2.813
X5.0709Y-2.9035
X5.0709Y-2.9941
X5.0709Y-3.0846
X5.0846Y-3.1791
X5.0886Y-3.2165
X5.0886Y-3.9724
X5.1102Y-2.124
X5.1102Y-2.2146
X5.1102Y-2.3051
X5.1102Y-2.3957
X5.1102Y-2.4862
X5.1102Y-2.5768
X5.1102Y-2.6673
X5.1102Y-2.7579
X5.1102Y-2.8484
X5.1102Y-2.939
X5.1102Y-3.0295
X5.1102Y-3.1201
X5.1201Y-2.0394
X5.1201Y-3.2165
X5.122Y-3.4331
X5.1232Y-3.252
X5.124Y-3.6161
X5.1248Y-3.6476
X5.1516Y-2.0394
X5.1594Y-3.3169
X5.1614Y-2.0886
X5.1614Y-2.1791
X5.1614Y-2.2697
X5.1614Y-2.3602
X5.1614Y-2.4508
X5.1614Y-2.5413
X5.1614Y-2.6319
X5.1614Y-2.7224
X5.1614Y-2.813
X5.1614Y-2.9035
X5.1614Y-2.9941
X5.1614Y-3.0846
X5.1713Y-3.3819
X5.1713Y-3.4862
X5.1772Y-3.1831
X5.185Y-3.6457
X5.2008Y-2.124
X5.2008Y-2.2146
X5.2008Y-2.3051
X5.2008Y-2.3957
X5.2008Y-2.4862
X5.2008Y-2.5768
X5.2008Y-2.6673
X5.2008Y-2.7579
X5.2008Y-2.8484
X5.2008Y-2.939
X5.2008Y-3.0295
X5.2008Y-3.1201
X5.2106Y-2.0394
X5.2224Y-3.3425
X5.2244Y-3.4941
X5.2244Y-3.5256
X5.2283Y-3.7126
X5.2283Y-3.7441
X5.2323Y-3.4567
X5.2421Y-2.0394
X5.252Y-2.0886
X5.252Y-2.1791
X5.252Y-2.2697
X5.252Y-2.3602
X5.252Y-2.4508
X5.252Y-2.5413
X5.252Y-2.6319
X5.252Y-2.7224
X5.252Y-2.813
X5.252Y-2.9035
X5.252Y-2.9941
X5.252Y-3.0846
X5.2579Y-3.8504
X5.2598Y-3.9508
X5.2657Y-3.2461
X5.2894Y-3.3504
X5.2913Y-2.124
X5.2913Y-2.2146
X5.2913Y-2.3051
X5.2913Y-2.3957
X5.2913Y-2.4862
X5.2913Y-2.5768
X5.2913Y-2.6673
X5.2913Y-2.7579
X5.2913Y-2.8484
X5.2913Y-2.939
X5.2913Y-3.0295
X5.2913Y-3.1201
X5.3012Y-2.0394
X5.3012Y-3.5394
X5.3012Y-3.5748
X5.3051Y-3.3858
X5.3209Y-3.2756
X5.3213Y-3.2089
X5.3327Y-2.0394
X5.3366Y-3.3858
X5.3409Y-3.502
X5.3425Y-2.0886
X5.3425Y-2.1791
X5.3425Y-2.2697
X5.3425Y-2.3602
X5.3425Y-2.4508
X5.3425Y-2.5413
X5.3425Y-2.6319
X5.3425Y-2.7224
X5.3425Y-2.813
X5.3425Y-2.9035
X5.3425Y-2.9941
X5.3425Y-3.0846
X5.3543Y-3.6142
X5.372Y-3.374
X5.372Y-3.4291
X5.3819Y-2.124
X5.3819Y-2.2146
X5.3819Y-2.3051
X5.3819Y-2.3957
X5.3819Y-2.4862
X5.3819Y-2.5768
X5.3819Y-2.6673
X5.3819Y-2.7579
X5.3819Y-2.8484
X5.3819Y-2.939
X5.3819Y-3.0295
X5.3819Y-3.1201
X5.3898Y-3.4016
X5.3917Y-2.0394
X5.3996Y-3.6772
X5.4085Y-3.4754
X5.4094Y-3.374
X5.4094Y-3.4291
X5.4232Y-2.0394
X5.4331Y-2.0886
X5.4331Y-2.1791
X5.4331Y-2.2697
X5.4331Y-2.3602
X5.4331Y-2.4508
X5.4331Y-2.5413
X5.4331Y-2.6319
X5.4331Y-2.7224
X5.4331Y-2.813
X5.4331Y-2.9035
X5.4331Y-2.9941
X5.4331Y-3.0846
X5.439Y-3.5157
X5.4469Y-3.374
X5.4469Y-3.4291
X5.4665Y-3.4016
X5.4724Y-2.124
X5.4724Y-2.2146
X5.4724Y-2.3051
X5.4724Y-2.3957
X5.4724Y-2.4862
X5.4724Y-2.5768
X5.4724Y-2.6673
X5.4724Y-2.7579
X5.4724Y-2.8484
X5.4724Y-2.939
X5.4724Y-3.0295
X5.4724Y-3.1201
X5.4738Y-3.2286
X5.4823Y-2.0394
X5.4862Y-3.374
X5.4862Y-3.4291
X5.4921Y-3.4764
X5.4921Y-3.6378
X5.502Y-3.9508
X5.5068Y-3.2286
X5.5079Y-3.3209
X5.5079Y-3.3957
X5.5138Y-2.0394
X5.5228Y-3.2546
X5.5236Y-2.0886
X5.5236Y-2.1791
X5.5236Y-2.2697
X5.5236Y-2.3602
X5.5236Y-2.4508
X5.5236Y-2.5413
X5.5236Y-2.6319
X5.5236Y-2.7224
X5.5236Y-2.813
X5.5236Y-2.9035
X5.5236Y-2.9941
X5.5236Y-3.0846
X5.5354Y-3.3209
X5.5354Y-3.3957
X5.5388Y-3.2286
X5.539Y-3.4803
X5.539Y-3.6358
X5.5548Y-3.2546
X5.5591Y-3.5886
X5.561Y-3.3957
X5.563Y-2.124
X5.563Y-2.2146
X5.563Y-2.3051
X5.563Y-2.3957
X5.563Y-2.4862
X5.563Y-2.5768
X5.563Y-2.6673
X5.563Y-2.7579
X5.563Y-2.8484
X5.563Y-2.939
X5.563Y-3.0295
X5.563Y-3.1201
X5.563Y-3.3209
X5.5708Y-3.2296
X5.5728Y-2.0394
X5.5787Y-3.4429
X5.5878Y-3.2546
X5.6038Y-3.2296
X5.6043Y-2.0394
X5.6142Y-2.0886
X5.6142Y-2.1791
X5.6142Y-2.2697
X5.6142Y-2.3602
X5.6142Y-2.4508
X5.6142Y-2.5413
X5.6142Y-2.6319
X5.6142Y-2.7224
X5.6142Y-2.813
X5.6142Y-2.9035
X5.6142Y-2.9941
X5.6142Y-3.0846
X5.6208Y-3.2546
X5.625Y-3.4754
X5.626Y-3.5571
X5.6368Y-3.2296
X5.6476Y-3.3642
X5.6496Y-3.4094
X5.6535Y-2.124
X5.6535Y-2.2146
X5.6535Y-2.3051
X5.6535Y-2.3957
X5.6535Y-2.4862
X5.6535Y-2.5768
X5.6535Y-2.6673
X5.6535Y-2.7579
X5.6535Y-2.8484
X5.6535Y-2.939
X5.6535Y-3.0295
X5.6535Y-3.1201
X5.6634Y-2.0394
X5.6654Y-3.3445
X5.6654Y-3.3858
X5.6673Y-3.2638
X5.6693Y-3.8012
X5.6811Y-3.4094
X5.6831Y-3.3642
X5.6909Y-3.2402
X5.6909Y-3.2638
X5.6909Y-3.2874
X5.6949Y-2.0394
X5.7047Y-2.0886
X5.7047Y-2.1791
X5.7047Y-2.2697
X5.7047Y-2.3602
X5.7047Y-2.4508
X5.7047Y-2.5413
X5.7047Y-2.6319
X5.7047Y-2.7224
X5.7047Y-2.813
X5.7047Y-2.9035
X5.7047Y-2.9941
X5.7047Y-3.0846
X5.7087Y-3.4764
X5.7087Y-3.6378
X5.7087Y-3.9508
X5.7126Y-3.2638
T3
X4.389Y-2.0354
X4.439Y-2.0354
X4.489Y-2.0354
T4
X4.3346Y-3.2008
X4.3346Y-3.3008
X4.3346Y-3.4008
T5
X5.3512Y-3.7697
X5.3512Y-3.8697
X5.4512Y-3.7697
X5.4512Y-3.8697
X5.5512Y-3.7697
X5.5512Y-3.8697
T2
G00X4.8299Y-3.7112
M15
G01X4.8299Y-3.7545
M16
G05
G00X4.8299Y-3.8817
M15
G01X4.8299Y-3.9132
M16
G05
G00X5.1701Y-3.7112
M15
G01X5.1701Y-3.7545
M16
G05
G00X5.1701Y-3.8817
M15
G01X5.1701Y-3.9132
M16
G05
M30
